<svg xmlns="http://www.w3.org/2000/svg" xmlns:xlink="http://www.w3.org/1999/xlink" viewBox="0 0 237.35 209"><defs><style>.cls-1{mask:url(#mask);filter:url(#luminosity-noclip-2);}.cls-2{mix-blend-mode:multiply;fill:url(#linear-gradient);}.cls-3{fill:none;}.cls-4{isolation:isolate;}.cls-5{fill:#1a1a1a;}.cls-5,.cls-7,.cls-8{opacity:0.3;}.cls-6{fill:url(#linear-gradient-2);}.cls-9{clip-path:url(#clip-path);}.cls-10{fill:#49312c;}.cls-11{fill:url(#linear-gradient-3);}.cls-12{fill:#3d2200;}.cls-13{mask:url(#mask-2);}.cls-14{fill:url(#linear-gradient-4);}.cls-15{fill:url(#linear-gradient-5);}.cls-16{fill:url(#linear-gradient-6);}.cls-17{fill:url(#linear-gradient-7);}.cls-18{fill:url(#linear-gradient-8);}.cls-19{fill:url(#linear-gradient-9);}.cls-20{fill:url(#linear-gradient-10);}.cls-21{fill:url(#linear-gradient-11);}.cls-22{fill:url(#linear-gradient-12);}.cls-23{fill:url(#linear-gradient-13);}.cls-24{fill:url(#linear-gradient-14);}.cls-25{fill:url(#linear-gradient-15);}.cls-26{fill:url(#linear-gradient-16);}.cls-27{fill:url(#linear-gradient-17);}.cls-28{fill:url(#linear-gradient-18);}.cls-29{fill:url(#linear-gradient-19);}.cls-30{fill:url(#linear-gradient-20);}.cls-31{fill:url(#linear-gradient-21);}.cls-32{fill:url(#linear-gradient-22);}.cls-33{fill:#fff;}.cls-34{mix-blend-mode:screen;fill:url(#radial-gradient);}.cls-35{filter:url(#luminosity-noclip);}</style><filter id="luminosity-noclip" x="10.27" y="-7419" width="215.64" height="32766" filterUnits="userSpaceOnUse" color-interpolation-filters="sRGB"><feFlood flood-color="#fff" result="bg"/><feBlend in="SourceGraphic" in2="bg"/></filter><mask id="mask" x="10.27" y="-7419" width="215.64" height="32766" maskUnits="userSpaceOnUse"><g class="cls-35"/></mask><linearGradient id="linear-gradient" x1="10.27" y1="85.1" x2="225.91" y2="85.1" gradientUnits="userSpaceOnUse"><stop offset="0"/><stop offset="0.1" stop-color="#030303"/><stop offset="0.17" stop-color="#0c0c0c"/><stop offset="0.23" stop-color="#1b1b1b"/><stop offset="0.28" stop-color="#303030"/><stop offset="0.32" stop-color="#4b4b4b"/><stop offset="0.37" stop-color="#6d6d6d"/><stop offset="0.41" stop-color="#969696"/><stop offset="0.45" stop-color="#c4c4c4"/><stop offset="0.49" stop-color="#f8f8f8"/><stop offset="0.5" stop-color="#fff"/><stop offset="0.54" stop-color="#ccc"/><stop offset="0.58" stop-color="#9d9d9d"/><stop offset="0.63" stop-color="#737373"/><stop offset="0.68" stop-color="#4f4f4f"/><stop offset="0.73" stop-color="#323232"/><stop offset="0.78" stop-color="#1c1c1c"/><stop offset="0.84" stop-color="#0c0c0c"/><stop offset="0.91" stop-color="#030303"/><stop offset="1"/></linearGradient><linearGradient id="linear-gradient-2" x1="118.09" y1="166.01" x2="118.09" y2="90.25" gradientUnits="userSpaceOnUse"><stop offset="0" stop-color="#333"/><stop offset="0.17" stop-color="#373737"/><stop offset="0.35" stop-color="#444"/><stop offset="0.53" stop-color="#595959"/><stop offset="0.71" stop-color="#767676"/><stop offset="0.9" stop-color="#9b9b9b"/><stop offset="1" stop-color="#b3b3b3"/></linearGradient><clipPath id="clip-path"><polygon class="cls-3" points="228.93 90.25 7.25 90.25 7.25 139.56 33.7 166.01 202.47 166.01 228.93 139.56 228.93 90.25"/></clipPath><linearGradient id="linear-gradient-3" x1="118.09" y1="172.05" x2="118.09" y2="84.21" gradientUnits="userSpaceOnUse"><stop offset="0" stop-color="gray"/><stop offset="0.28" stop-color="#848484"/><stop offset="0.56" stop-color="#909090"/><stop offset="0.84" stop-color="#a4a4a4"/><stop offset="1" stop-color="#b3b3b3"/></linearGradient><filter id="luminosity-noclip-2" x="10.27" y="84.21" width="215.64" height="1.77" filterUnits="userSpaceOnUse" color-interpolation-filters="sRGB"><feFlood flood-color="#fff" result="bg"/><feBlend in="SourceGraphic" in2="bg"/></filter><mask id="mask-2" x="10.27" y="84.21" width="215.64" height="1.77" maskUnits="userSpaceOnUse"><g class="cls-1"><rect class="cls-2" x="10.27" y="84.21" width="215.64" height="1.77"/></g></mask><linearGradient id="linear-gradient-4" x1="10.27" y1="85.1" x2="225.91" y2="85.1" gradientUnits="userSpaceOnUse"><stop offset="0" stop-color="#fff"/><stop offset="0.43" stop-color="#fff"/><stop offset="0.5" stop-color="#fff"/><stop offset="0.55" stop-color="#fff"/><stop offset="1" stop-color="#fff"/></linearGradient><linearGradient id="linear-gradient-5" x1="7.25" y1="93.18" x2="7.25" y2="87.32" gradientTransform="translate(93.42 62.46) rotate(76.72)" gradientUnits="userSpaceOnUse"><stop offset="0" stop-color="#be6d00"/><stop offset="0.19" stop-color="#c07103"/><stop offset="0.36" stop-color="#c57b0d"/><stop offset="0.52" stop-color="#ce8d1e"/><stop offset="0.68" stop-color="#daa736"/><stop offset="0.83" stop-color="#e9c855"/><stop offset="0.98" stop-color="#fcf07a"/><stop offset="1" stop-color="#fff57f"/></linearGradient><linearGradient id="linear-gradient-6" x1="7.25" y1="141.24" x2="7.25" y2="135.37" gradientTransform="translate(140.19 99.47) rotate(76.72)" xlink:href="#linear-gradient-5"/><linearGradient id="linear-gradient-7" x1="34.24" y1="168.22" x2="34.24" y2="162.36" gradientTransform="matrix(1, 0, 0, 1, 0, 0)" xlink:href="#linear-gradient-5"/><linearGradient id="linear-gradient-8" x1="62.67" y1="168.22" x2="62.67" y2="162.36" gradientTransform="matrix(1, 0, 0, 1, 0, 0)" xlink:href="#linear-gradient-5"/><linearGradient id="linear-gradient-9" x1="90.38" y1="168.22" x2="90.38" y2="162.36" gradientTransform="matrix(1, 0, 0, 1, 0, 0)" xlink:href="#linear-gradient-5"/><linearGradient id="linear-gradient-10" x1="145.8" y1="168.22" x2="145.8" y2="162.36" gradientTransform="matrix(1, 0, 0, 1, 0, 0)" xlink:href="#linear-gradient-5"/><linearGradient id="linear-gradient-11" x1="173.51" y1="168.22" x2="173.51" y2="162.36" gradientTransform="matrix(1, 0, 0, 1, 0, 0)" xlink:href="#linear-gradient-5"/><linearGradient id="linear-gradient-12" x1="5224.3" y1="141.24" x2="5224.3" y2="135.37" gradientTransform="matrix(-1, 0, 0, 1, 5453.23, 0)" xlink:href="#linear-gradient-5"/><linearGradient id="linear-gradient-13" x1="5251.29" y1="168.22" x2="5251.29" y2="162.36" gradientTransform="matrix(-1, 0, 0, 1, 5453.23, 0)" xlink:href="#linear-gradient-5"/><linearGradient id="linear-gradient-14" x1="118.09" y1="168.22" x2="118.09" y2="162.36" gradientTransform="matrix(1, 0, 0, 1, 0, 0)" xlink:href="#linear-gradient-5"/><linearGradient id="linear-gradient-15" x1="62.67" y1="93.18" x2="62.67" y2="87.32" gradientTransform="matrix(1, 0, 0, 1, 0, 0)" xlink:href="#linear-gradient-5"/><linearGradient id="linear-gradient-16" x1="173.51" y1="93.18" x2="173.51" y2="87.32" gradientTransform="matrix(1, 0, 0, 1, 0, 0)" xlink:href="#linear-gradient-5"/><linearGradient id="linear-gradient-17" x1="201.22" y1="93.18" x2="201.22" y2="87.32" gradientTransform="matrix(1, 0, 0, 1, 0, 0)" xlink:href="#linear-gradient-5"/><linearGradient id="linear-gradient-18" x1="145.8" y1="93.18" x2="145.8" y2="87.32" gradientTransform="translate(200.14 -72.39) rotate(76.72)" xlink:href="#linear-gradient-5"/><linearGradient id="linear-gradient-19" x1="90.38" y1="93.18" x2="90.38" y2="87.32" gradientTransform="matrix(1, 0, 0, 1, 0, 0)" xlink:href="#linear-gradient-5"/><linearGradient id="linear-gradient-20" x1="34.96" y1="93.18" x2="34.96" y2="87.32" gradientTransform="translate(37.2 -6.51) rotate(22.5)" xlink:href="#linear-gradient-5"/><linearGradient id="linear-gradient-21" x1="228.93" y1="93.18" x2="228.93" y2="87.32" gradientTransform="translate(264.17 -153.29) rotate(76.72)" xlink:href="#linear-gradient-5"/><linearGradient id="linear-gradient-22" x1="118.09" y1="93.18" x2="118.09" y2="87.32" gradientTransform="translate(178.79 -45.42) rotate(76.72)" xlink:href="#linear-gradient-5"/><radialGradient id="radial-gradient" cx="114.5" cy="107.5" r="104.5" gradientUnits="userSpaceOnUse"><stop offset="0.01" stop-color="gray"/><stop offset="0.56" stop-opacity="0"/></radialGradient></defs><g class="cls-4"><g id="Layer_3" data-name="Layer 3"><g id="gold_frame_04"><path id="shadow" class="cls-5" d="M202.47,180.62H33.71a6.07,6.07,0,0,1-4.28-1.77L3,152.39a6,6,0,0,1-1.77-4.27V98.81a6,6,0,0,1,6-6H228.93a6,6,0,0,1,6,6v49.31a6,6,0,0,1-1.77,4.27l-26.46,26.46A6,6,0,0,1,202.47,180.62Z"/><g id="button"><polygon class="cls-6" points="228.93 90.25 7.25 90.25 7.25 139.56 33.7 166.01 202.47 166.01 228.93 139.56 228.93 90.25"/><path class="cls-7" d="M218.06,101.12v33.93L198,155.14H38.21L18.12,135.05V101.12H218.06m10.87-10.87H7.25v49.31L33.7,166H202.47l26.46-26.45V90.25Z"/><g class="cls-8"><g class="cls-9"><polygon class="cls-10" points="3.82 100.85 78.65 103.03 3.82 106.77 3.82 100.85"/><polygon class="cls-10" points="41.23 114.57 105.15 110.83 173.74 114.57 104.53 115.81 41.23 114.57"/><polygon class="cls-10" points="28.14 128.13 75.53 128.13 113.26 131.09 75.53 132.96 28.14 128.13"/><polygon class="cls-10" points="110.45 143.88 237.35 143.88 237.35 148.24 138.2 146.06 110.45 143.88"/><path class="cls-10" d="M233,123.3c-.93,0-81.37,3.12-81.37,3.12L233,128.13Z"/><polygon class="cls-10" points="137.89 104.59 179.67 101.47 237.35 104.59 179.67 106.15 137.89 104.59"/><polygon class="cls-10" points="13.17 152.92 93.91 154.16 18.47 157.91 13.17 152.92"/></g></g><path class="cls-11" d="M202.47,172.05H33.71a6,6,0,0,1-4.28-1.77L3,143.83a6,6,0,0,1-1.77-4.27V90.25a6,6,0,0,1,6-6H228.93a6,6,0,0,1,6,6v49.31a6.07,6.07,0,0,1-1.77,4.27l-26.46,26.45A6,6,0,0,1,202.47,172.05ZM36.21,160H200l22.92-22.92V96.29H13.29v40.76Z"/><path class="cls-12" d="M228.93,84.21a6,6,0,0,1,6,6v49.31a6,6,0,0,1-1.77,4.27l-26.46,26.45a6,6,0,0,1-4.27,1.77H33.71a6,6,0,0,1-4.28-1.77L3,143.83a6,6,0,0,1-1.77-4.27V90.25a6,6,0,0,1,6-6H228.93M36.21,160H200l22.92-22.92V96.29H13.29v40.76L36.21,160M228.93,83H7.25A7.26,7.26,0,0,0,0,90.25v49.31a7.19,7.19,0,0,0,2.12,5.12l26.46,26.46a7.2,7.2,0,0,0,5.13,2.12H202.47a7.2,7.2,0,0,0,5.13-2.12l26.45-26.46a7.2,7.2,0,0,0,2.13-5.12V90.25A7.26,7.26,0,0,0,228.93,83ZM14.5,97.5H221.68v39.05l-22.21,22.21H36.71L14.5,136.55V97.5Z"/><g class="cls-13"><rect class="cls-14" x="10.27" y="84.21" width="215.64" height="1.77"/></g><circle class="cls-7" cx="7.25" cy="91.57" r="2.93" transform="translate(-83.54 77.59) rotate(-76.72)"/><circle class="cls-15" cx="7.25" cy="90.25" r="2.93" transform="translate(-82.25 76.57) rotate(-76.72)"/><path class="cls-12" d="M7.25,87.32a2.93,2.93,0,1,1-2.93,2.93,2.93,2.93,0,0,1,2.93-2.93m0-.61a3.54,3.54,0,1,0,3.54,3.54,3.55,3.55,0,0,0-3.54-3.54Z"/><circle class="cls-7" cx="7.25" cy="139.63" r="2.93" transform="translate(-130.31 114.6) rotate(-76.72)"/><circle class="cls-16" cx="7.25" cy="138.3" r="2.93" transform="translate(-129.02 113.58) rotate(-76.72)"/><path class="cls-12" d="M7.25,135.37a2.94,2.94,0,1,1-2.93,2.93,2.93,2.93,0,0,1,2.93-2.93m0-.6a3.54,3.54,0,1,0,3.54,3.53,3.54,3.54,0,0,0-3.54-3.53Z"/><circle class="cls-7" cx="34.24" cy="166.62" r="2.93"/><circle class="cls-17" cx="34.24" cy="165.29" r="2.93"/><path class="cls-12" d="M34.24,162.36a2.93,2.93,0,1,1-2.93,2.93,2.93,2.93,0,0,1,2.93-2.93m0-.6a3.54,3.54,0,1,0,3.53,3.53,3.54,3.54,0,0,0-3.53-3.53Z"/><circle class="cls-7" cx="62.67" cy="166.62" r="2.93"/><circle class="cls-18" cx="62.67" cy="165.29" r="2.93"/><path class="cls-12" d="M62.67,162.36a2.93,2.93,0,1,1-2.93,2.93,2.93,2.93,0,0,1,2.93-2.93m0-.6a3.54,3.54,0,1,0,3.54,3.53,3.54,3.54,0,0,0-3.54-3.53Z"/><circle class="cls-7" cx="90.38" cy="166.62" r="2.93"/><circle class="cls-19" cx="90.38" cy="165.29" r="2.93"/><path class="cls-12" d="M90.38,162.36a2.93,2.93,0,1,1-2.93,2.93,2.93,2.93,0,0,1,2.93-2.93m0-.6a3.54,3.54,0,1,0,3.54,3.53,3.54,3.54,0,0,0-3.54-3.53Z"/><circle class="cls-7" cx="145.8" cy="166.62" r="2.93"/><circle class="cls-20" cx="145.8" cy="165.29" r="2.93"/><path class="cls-12" d="M145.8,162.36a2.93,2.93,0,1,1-2.93,2.93,2.93,2.93,0,0,1,2.93-2.93m0-.6a3.54,3.54,0,1,0,3.54,3.53,3.54,3.54,0,0,0-3.54-3.53Z"/><circle class="cls-7" cx="173.51" cy="166.62" r="2.93"/><circle class="cls-21" cx="173.51" cy="165.29" r="2.93"/><path class="cls-12" d="M173.51,162.36a2.93,2.93,0,1,1-2.93,2.93,2.93,2.93,0,0,1,2.93-2.93m0-.6a3.54,3.54,0,1,0,3.54,3.53,3.54,3.54,0,0,0-3.54-3.53Z"/><circle class="cls-7" cx="228.93" cy="139.63" r="2.93"/><circle class="cls-22" cx="228.93" cy="138.3" r="2.93"/><path class="cls-12" d="M228.93,135.37A2.94,2.94,0,1,1,226,138.3a2.93,2.93,0,0,1,2.93-2.93m0-.6a3.54,3.54,0,1,0,3.54,3.53,3.54,3.54,0,0,0-3.54-3.53Z"/><circle class="cls-7" cx="201.94" cy="166.62" r="2.93"/><circle class="cls-23" cx="201.94" cy="165.29" r="2.93"/><path class="cls-12" d="M201.94,162.36a2.93,2.93,0,1,1-2.93,2.93,2.93,2.93,0,0,1,2.93-2.93m0-.6a3.54,3.54,0,1,0,3.54,3.53,3.54,3.54,0,0,0-3.54-3.53Z"/><circle class="cls-7" cx="118.09" cy="166.62" r="2.93"/><circle class="cls-24" cx="118.09" cy="165.29" r="2.93"/><path class="cls-12" d="M118.09,162.36a2.93,2.93,0,1,1-2.93,2.93,2.93,2.93,0,0,1,2.93-2.93m0-.6a3.54,3.54,0,1,0,3.54,3.53,3.54,3.54,0,0,0-3.54-3.53Z"/><circle class="cls-7" cx="62.67" cy="91.57" r="2.93"/><circle class="cls-25" cx="62.67" cy="90.25" r="2.93"/><path class="cls-12" d="M62.67,87.32a2.93,2.93,0,1,1-2.93,2.93,2.93,2.93,0,0,1,2.93-2.93m0-.61a3.54,3.54,0,1,0,3.54,3.54,3.55,3.55,0,0,0-3.54-3.54Z"/><circle class="cls-7" cx="173.51" cy="91.57" r="2.93"/><circle class="cls-26" cx="173.51" cy="90.25" r="2.93"/><path class="cls-12" d="M173.51,87.32a2.93,2.93,0,1,1-2.93,2.93,2.93,2.93,0,0,1,2.93-2.93m0-.61a3.54,3.54,0,1,0,3.54,3.54,3.55,3.55,0,0,0-3.54-3.54Z"/><circle class="cls-7" cx="201.22" cy="91.57" r="2.93"/><circle class="cls-27" cx="201.22" cy="90.25" r="2.93"/><path class="cls-12" d="M201.22,87.32a2.93,2.93,0,1,1-2.93,2.93,2.93,2.93,0,0,1,2.93-2.93m0-.61a3.54,3.54,0,1,0,3.54,3.54,3.55,3.55,0,0,0-3.54-3.54Z"/><circle class="cls-7" cx="145.8" cy="91.57" r="2.93" transform="translate(23.18 212.43) rotate(-76.72)"/><circle class="cls-28" cx="145.8" cy="90.25" r="2.93" transform="translate(24.47 211.41) rotate(-76.72)"/><path class="cls-12" d="M145.8,87.32a2.93,2.93,0,1,1-2.93,2.93,2.93,2.93,0,0,1,2.93-2.93m0-.61a3.54,3.54,0,1,0,3.54,3.54,3.55,3.55,0,0,0-3.54-3.54Z"/><circle class="cls-7" cx="90.38" cy="91.57" r="2.93"/><circle class="cls-29" cx="90.38" cy="90.25" r="2.93"/><path class="cls-12" d="M90.38,87.32a2.93,2.93,0,1,1-2.93,2.93,2.93,2.93,0,0,1,2.93-2.93m0-.61a3.54,3.54,0,1,0,3.54,3.54,3.55,3.55,0,0,0-3.54-3.54Z"/><circle class="cls-7" cx="34.96" cy="91.57" r="2.93" transform="translate(-32.38 20.35) rotate(-22.5)"/><circle class="cls-30" cx="34.96" cy="90.25" r="2.93" transform="translate(-31.88 20.25) rotate(-22.5)"/><path class="cls-12" d="M35,87.32A2.93,2.93,0,1,1,32,90.25,2.93,2.93,0,0,1,35,87.32m0-.61a3.54,3.54,0,1,0,3.54,3.54A3.55,3.55,0,0,0,35,86.71Z"/><circle class="cls-7" cx="228.93" cy="91.57" r="2.93" transform="translate(87.21 293.34) rotate(-76.72)"/><circle class="cls-31" cx="228.93" cy="90.25" r="2.93" transform="translate(88.5 292.32) rotate(-76.72)"/><path class="cls-12" d="M228.93,87.32A2.93,2.93,0,1,1,226,90.25a2.93,2.93,0,0,1,2.93-2.93m0-.61a3.54,3.54,0,1,0,3.54,3.54,3.55,3.55,0,0,0-3.54-3.54Z"/><circle class="cls-7" cx="118.09" cy="91.57" r="2.93" transform="translate(1.83 185.46) rotate(-76.72)"/><circle class="cls-32" cx="118.09" cy="90.25" r="2.93" transform="translate(3.12 184.44) rotate(-76.72)"/><path class="cls-12" d="M118.09,87.32a2.93,2.93,0,1,1-2.93,2.93,2.93,2.93,0,0,1,2.93-2.93m0-.61a3.54,3.54,0,1,0,3.54,3.54,3.55,3.55,0,0,0-3.54-3.54Z"/></g></g><path d="M33.06,125.08q0-.1.12-.09a.47.47,0,0,0,.17,0,1,1,0,0,1-.27-.56,1.1,1.1,0,0,0-.26-.6,1.34,1.34,0,0,0,.09-.26c0-.09.1-.13.23-.11a3,3,0,0,1,0-1.08,4,4,0,0,1,.33-1,7.34,7.34,0,0,1,.53-.88l.59-.88c.16,0,.26,0,.29,0s.1,0,.19,0a1.67,1.67,0,0,0,.58-.65,2,2,0,0,0,.16-.78c.16-.46.34-.91.54-1.36a8,8,0,0,1,.7-1.25,6.09,6.09,0,0,1,.84-1,3.39,3.39,0,0,1,1-.68,4,4,0,0,1,.93-.58,6.62,6.62,0,0,1,1.21-.41,7.43,7.43,0,0,1,1.34-.15,4.59,4.59,0,0,1,1.26.14c.09,0,.14,0,.16-.06s.06-.12.13-.12a11,11,0,0,1,2.36.52,5.27,5.27,0,0,1,1.78,1A18.31,18.31,0,0,1,49,116a9.84,9.84,0,0,1,.7,1.9,7.33,7.33,0,0,1,.22,2,5.85,5.85,0,0,1-.44,2.1,7,7,0,0,1-2.25,1.86,15.13,15.13,0,0,1-2.83,1.16,28.22,28.22,0,0,1-3.14.76q-1.62.29-3.15.63c0,.47,0,1,0,1.51a10.85,10.85,0,0,1-.17,1.61,10.37,10.37,0,0,1-.42,1.57,6.29,6.29,0,0,1-.75,1.43,3.79,3.79,0,0,0-1.1.1l-1,.26-.41-.25a1.18,1.18,0,0,0-.49-.14.87.87,0,0,0-.14-.66l-.45-.67a1.74,1.74,0,0,1-.29-.66.55.55,0,0,1,.3-.59.75.75,0,0,1-.21-.58.35.35,0,0,0,.26.1,3.4,3.4,0,0,1,.12-1.13c.12-.44.21-.88.29-1.31a3.71,3.71,0,0,0,0-1.19A1,1,0,0,0,33.06,125.08Zm6.85-6.17c-.07.19-.12.36-.17.51a3.26,3.26,0,0,1-.14.41c-.06.12-.11.25-.17.37a4.18,4.18,0,0,0-.2.42.36.36,0,0,0,.21.24.42.42,0,0,1,.21.24,3.2,3.2,0,0,1,.74-.28c.24-.06.49-.11.74-.15s.49-.08.74-.13a3.6,3.6,0,0,0,.76-.26,4.55,4.55,0,0,1,.83-.3l.86-.26a5.6,5.6,0,0,0,.81-.3,2.09,2.09,0,0,0,.69-.46,3.34,3.34,0,0,0-1.11-.61,6.59,6.59,0,0,0-1.59-.33,6.24,6.24,0,0,0-1.72.12A3.23,3.23,0,0,0,39.91,118.91Z"/><path d="M49.88,130.25c-.09,0-.17-.05-.24-.2s-.15-.3-.23-.44h.29a2.12,2.12,0,0,1-.1-1.07c.07-.32.14-.64.23-.95s.16-.6.22-.89a1.61,1.61,0,0,0-.09-.91c.09,0,.15,0,.2-.07a1.39,1.39,0,0,0,.1-.37,1.77,1.77,0,0,0,0-.47,3.55,3.55,0,0,0,0-.41,9.79,9.79,0,0,0,.54-1.69c.13-.58.25-1.15.36-1.72s.22-1.13.35-1.66a8.76,8.76,0,0,1,.52-1.52,1.62,1.62,0,0,1,.77.09,1,1,0,0,1,.54.36,7.1,7.1,0,0,0,1.46-1.53c.42-.6.84-1.18,1.27-1.76a8.41,8.41,0,0,1,1.47-1.51,3.8,3.8,0,0,1,2-.79c.42.3.89.62,1.42,1A4.26,4.26,0,0,1,62.27,115l.41.27c.13.1.27.19.41.28v.4a3.06,3.06,0,0,1,.62.8,7.32,7.32,0,0,1,.45,1c.13.34.26.69.38,1a6.16,6.16,0,0,0,.42,1,.75.75,0,0,0,0,.28,1.05,1.05,0,0,0,.06.24l.06.26a1.86,1.86,0,0,1,0,.36,3.59,3.59,0,0,1-.91,2.25,6.48,6.48,0,0,1-1.95,1.4,16.85,16.85,0,0,1-2.44.92,22.73,22.73,0,0,0-2.35.83c0,.07,0,.11.12.11s.1,0,.07.16c.52.31.93.57,1.22.76a7.67,7.67,0,0,0,.82.49,4.9,4.9,0,0,0,.84.33c.31.09.74.19,1.28.32l1.28.3c.31.08.59.14.83.18s.51.09.79.12l1.14.13a2.55,2.55,0,0,1,.47.69,3.48,3.48,0,0,1,.26.79,2.14,2.14,0,0,1,0,.75,1,1,0,0,1-.22.57.12.12,0,0,0,.15.09,1.09,1.09,0,0,1,.25,0,1.39,1.39,0,0,0-.32.32l-.26.37a2,2,0,0,1-.31.34.71.71,0,0,1-.43.19,4.21,4.21,0,0,1-2.43,0,29.52,29.52,0,0,1-3.77-1.21c-.75-.28-1.37-.54-1.84-.76a12.37,12.37,0,0,1-1.24-.68,7.23,7.23,0,0,1-1-.71c-.3-.25-.64-.56-1-.91a.13.13,0,0,0-.09.11.12.12,0,0,1-.09.1,6.9,6.9,0,0,1-.41,1.72,6.06,6.06,0,0,1-.81,1.34c-.28-.05-.47,0-.56.08a1.76,1.76,0,0,1-.36.29.62.62,0,0,1-.39,0,1.4,1.4,0,0,1-.24-.15l-.24-.16a.73.73,0,0,0-.42,0c0-.16-.11-.31-.16-.46s-.19-.22-.42-.2a.89.89,0,0,0,0-.41,1,1,0,0,0-.08-.31l-.09-.31A.59.59,0,0,1,49.88,130.25Zm8.81-12a6.09,6.09,0,0,1-.77.9c-.28.28-.56.56-.83.85a6.09,6.09,0,0,0-.72,1,3.6,3.6,0,0,0-.45,1.22,8.63,8.63,0,0,0,2.32-.62l2.29-.93a2.8,2.8,0,0,0-.68-1.57A2.9,2.9,0,0,0,58.69,118.2Z"/><path d="M73,132.62a5.12,5.12,0,0,1-3.81-.92,5.77,5.77,0,0,1-1.29-1.32,7.41,7.41,0,0,1-.88-1.64,8.49,8.49,0,0,1,.13-3.25,10.59,10.59,0,0,1,1.08-2.71,15.55,15.55,0,0,1,1.62-2.32l1.75-2.08a.33.33,0,0,0,.31,0,.7.7,0,0,0,.21-.21,1.71,1.71,0,0,1,.21-.26.67.67,0,0,1,.28-.19,1.13,1.13,0,0,1,.27-.39l.37-.31a3.72,3.72,0,0,0,.37-.3,1.58,1.58,0,0,0,.31-.4,1.23,1.23,0,0,0,.46-.18c.13-.09.25-.19.37-.29a3.17,3.17,0,0,1,.35-.29,1.34,1.34,0,0,1,.45-.21V115a2.1,2.1,0,0,0,.84-.58c.18-.21.39-.48.64-.81l.46,0c.11,0,.29,0,.54,0a2.85,2.85,0,0,1,.45-.66,4.45,4.45,0,0,1,.6-.48,2.16,2.16,0,0,0,.85.26,1.26,1.26,0,0,1,.81.4.78.78,0,0,0,.19.49,2.58,2.58,0,0,0,.34.32l.37.3a.82.82,0,0,1,.24.45.23.23,0,0,0,.17,0s.08,0,.17,0a2.28,2.28,0,0,0,.11.34,1.33,1.33,0,0,0,.11.24,2.55,2.55,0,0,1,.14.24c0,.09.08.19.12.31a6.8,6.8,0,0,0-.24.68.7.7,0,0,1-.42.48c0,.14,0,.22.15.23s.17.07.19.2a.55.55,0,0,1-.08.39,24.47,24.47,0,0,1,1.34,2.6,23.86,23.86,0,0,0,1.38,2.6,1.6,1.6,0,0,0,0,.72,5.73,5.73,0,0,0,.23.7c.1.23.19.46.28.69a2.73,2.73,0,0,1,.18.68,3.85,3.85,0,0,1,0,1,4,4,0,0,1-.21,1,3.63,3.63,0,0,1-.42.89,1.87,1.87,0,0,1-.61.61,3.15,3.15,0,0,1-1,.86,6.2,6.2,0,0,0-1.16.78,2.8,2.8,0,0,1-.79.3l-.87.2a5.68,5.68,0,0,1-.82.41c-.32.13-.64.25-1,.36s-.67.18-1,.25a3.05,3.05,0,0,1-.89,0,10.47,10.47,0,0,1-1.85.47A6,6,0,0,1,73,132.62Zm.34-9.6a5.7,5.7,0,0,1-.61,1.09c-.24.33-.48.66-.7,1a7,7,0,0,0-.6,1.07,3.57,3.57,0,0,0-.27,1.33,2.32,2.32,0,0,0,1.25.54,6.71,6.71,0,0,0,1.49,0c.51,0,1-.11,1.53-.2a7.86,7.86,0,0,1,1.37-.13q0-.24.21-.24a5.25,5.25,0,0,0,2.06-.62l2-1a2.06,2.06,0,0,1,.35-.55,1.07,1.07,0,0,0,.23-.69,2.72,2.72,0,0,1-.17-.39,2.68,2.68,0,0,1,0-.48,11.59,11.59,0,0,1-1.18-2.07A16.07,16.07,0,0,0,79,119.54a.71.71,0,0,1-.21.26c-.11.09-.22.07-.35,0a.58.58,0,0,1-.23.36.74.74,0,0,1-.36.09,1.19,1.19,0,0,1-.4-.08,1.13,1.13,0,0,1-.35-.21c-.62.49-1.23,1-1.83,1.42a9.3,9.3,0,0,0-1.65,1.61c-.09,0-.14.07-.16,0A.42.42,0,0,0,73.29,123Z"/><path d="M89.14,130.22a4.61,4.61,0,0,1-1.25-1.45,8.6,8.6,0,0,1-.77-1.85,11.13,11.13,0,0,1-.36-2,15.11,15.11,0,0,1-.07-2,6.82,6.82,0,0,1,.58-1.31,9.7,9.7,0,0,1,.76-1.13,12.65,12.65,0,0,1,.89-1l.91-1a.6.6,0,0,1,.29.08,1.28,1.28,0,0,1,.31-.5,3.23,3.23,0,0,1,.45-.38l.48-.35a1.52,1.52,0,0,0,.39-.41,4.58,4.58,0,0,0,1.18-.44,11,11,0,0,0,1-.64,11.59,11.59,0,0,1,1-.63,4.52,4.52,0,0,1,1.16-.45,2.48,2.48,0,0,1,.59-.45l.71-.34c.24-.11.47-.22.69-.34a1.62,1.62,0,0,0,.54-.5.4.4,0,0,0,.45.14c.19,0,.37-.09.53-.14a.33.33,0,0,1,.26,0l.2.17a.51.51,0,0,0,.16.12s.09,0,.14-.16.18.08.12.19l-.12.21a.48.48,0,0,1,.44.09,1.05,1.05,0,0,0,.54.2c.08.08.11.15.08.21a.5.5,0,0,0-.08.26,1.63,1.63,0,0,1,1.26,2.2,3,3,0,0,1-.78,1.24,2.68,2.68,0,0,1-1.25.75c-.54.14-1,.28-1.51.43a13.38,13.38,0,0,0-1.35.47,8.1,8.1,0,0,0-1.21.62,4.45,4.45,0,0,0-1,.83,5,5,0,0,0-1.33.58,8.38,8.38,0,0,0-1.11.82q-.51.45-1,.93c-.31.33-.63.65-1,1a1.2,1.2,0,0,1-.16.68c-.1.16-.22.32-.34.48a2.51,2.51,0,0,0,.23.85c.11.24.23.48.35.73a20.08,20.08,0,0,0,4.47.78c1.57.09,3.13.15,4.68.17a4.29,4.29,0,0,0,.54.59,6,6,0,0,1,.56.57,2.46,2.46,0,0,1,.39.67,1.8,1.8,0,0,1,.07.91,11.81,11.81,0,0,1-1,.86l-1.05.8a2.7,2.7,0,0,1-.57,0q-.33,0-.69,0c-.23,0-.47,0-.71,0a2.55,2.55,0,0,0-.67.18,21.43,21.43,0,0,1-3.4-.41,28.3,28.3,0,0,1-3.22-.86c-.19-.23-.39-.44-.6-.65A2,2,0,0,0,89.14,130.22Z"/><path d="M104.41,131.62a1.36,1.36,0,0,1-.31-.5.8.8,0,0,0-.43-.48c0-.26-.08-.57-.15-.91s-.12-.69-.18-1a9.83,9.83,0,0,1-.13-1.09,3.92,3.92,0,0,1,0-1,1.44,1.44,0,0,1,.17-.45l.24-.41a1.65,1.65,0,0,0,.18-.41.75.75,0,0,0,0-.42.23.23,0,0,0,.2-.17c0-.1.11-.13.25-.09.13-.39.26-.75.4-1.09s.29-.65.45-1,.32-.64.48-1a9.57,9.57,0,0,0,.47-1.1,2.52,2.52,0,0,1-.65-.91,5.65,5.65,0,0,1-.3-1,8.49,8.49,0,0,1-.16-1,6.61,6.61,0,0,0-.21-1,2.69,2.69,0,0,1,.76-.78,4.6,4.6,0,0,1,1-.5,7.66,7.66,0,0,1,1.17-.32c.43-.08.87-.17,1.35-.28.84-.26,1.6-.46,2.27-.62s1.31-.27,2-.36,1.29-.19,2-.27,1.47-.2,2.37-.35c0,0,0,.08.09.08h.17a.29.29,0,0,0,.29.18.61.61,0,0,0,0-.14.57.57,0,0,1,0-.12l.14,0,.16.06a.13.13,0,0,0,.12,0s0-.08,0-.17a2.87,2.87,0,0,0,.82.91,5.91,5.91,0,0,0,1.11.62,1.36,1.36,0,0,1,0,.34,1.18,1.18,0,0,1,0,.2.68.68,0,0,0,0,.21,1.19,1.19,0,0,0,0,.33,3.54,3.54,0,0,1-1,1.11,4.89,4.89,0,0,1-1.15.61,7.48,7.48,0,0,1-1.28.31l-1.37.23a9,9,0,0,0-1.41.33,5.81,5.81,0,0,0-1.4.63.93.93,0,0,0-.38-.07,1.63,1.63,0,0,0-.36.07l-.41.1a1.22,1.22,0,0,1-.54,0,1.27,1.27,0,0,1-.48.27l-.57.16a1.19,1.19,0,0,1,.12.58,1.3,1.3,0,0,0,.06.5,13.56,13.56,0,0,0,2.46,0c.89-.08,1.77-.13,2.63-.17a.23.23,0,0,1,0,.19.22.22,0,0,0-.06.18,2.39,2.39,0,0,1,.45.4l.44.46a2.57,2.57,0,0,0,.46.37,1,1,0,0,0,.55.12,2.11,2.11,0,0,1,.19.55,1.1,1.1,0,0,1-.08.61c-.35.22-.7.46-1,.7a11.17,11.17,0,0,1-1,.64,6.61,6.61,0,0,1-1.18.48,4.34,4.34,0,0,1-1.37.15h-.22a.4.4,0,0,1-.23-.1,1.21,1.21,0,0,1-.69.09,1.39,1.39,0,0,0-.73.09,2.51,2.51,0,0,0-.86-.13,2.45,2.45,0,0,1-.85-.13,15.92,15.92,0,0,0-.9,1.44,11.56,11.56,0,0,0-.74,1.59,9.58,9.58,0,0,0,1.8.13c.47,0,.92-.05,1.34-.1l1.31-.16a11.66,11.66,0,0,1,1.64,0,5.2,5.2,0,0,1,1.52-.44,10.33,10.33,0,0,0,1.59-.35.86.86,0,0,1,.45.3c.13.15.24.3.36.45a2.59,2.59,0,0,0,.35.38.56.56,0,0,0,.48.1.67.67,0,0,1,.17.32c0,.12,0,.24.08.34a.65.65,0,0,0,.12.25c0,.07.15.09.29.07a5.17,5.17,0,0,1-1.12,1.58,4.6,4.6,0,0,1-1.4.86,8.5,8.5,0,0,1-1.74.45c-.64.09-1.36.21-2.15.35a1,1,0,0,1-.49,0,1.35,1.35,0,0,0-.41-.07c-.49.09-1.07.18-1.75.27a12.68,12.68,0,0,1-2,.1,8.52,8.52,0,0,1-2-.26A3.49,3.49,0,0,1,104.41,131.62Z"/><path d="M120.2,120.62c0-.26.09-.48.11-.64a.87.87,0,0,0-.19-.55c.07-.28.13-.5.17-.65a1.72,1.72,0,0,0,0-.66A2.93,2.93,0,0,1,121,117a5.2,5.2,0,0,1,1.07-.81,7.75,7.75,0,0,1,1.21-.55c.43-.15.82-.28,1.19-.38a.1.1,0,0,0-.11-.11c-.07,0-.08,0,0-.13a19.28,19.28,0,0,0,2.86-.77c1-.33,1.94-.63,2.94-.89a15.09,15.09,0,0,1,3.09-.49,9.79,9.79,0,0,1,3.32.41,2.77,2.77,0,0,0,.29.6c.12.2.25.39.38.57l.36.54a1.27,1.27,0,0,1,.18.56,2.72,2.72,0,0,1,.52.62,1.16,1.16,0,0,1,.06.88l-.6.42c-.21.14-.43.27-.66.4a7.37,7.37,0,0,0-2.38-.21q-1.19.07-2.13.18a.86.86,0,0,0-.69-.3,3.65,3.65,0,0,0-.83.13l-.85.24a2,2,0,0,1-.8.06,1.46,1.46,0,0,1-.76.36,10,10,0,0,1-1,.14.17.17,0,0,0,0,.19s.06.1,0,.21a.92.92,0,0,0,.5.33l.64.17a2.66,2.66,0,0,1,.6.22.7.7,0,0,1,.34.46,1.76,1.76,0,0,1,.82.25,2.34,2.34,0,0,1,.58.55,2,2,0,0,1,.34.67,1.68,1.68,0,0,1,.08.64c.07.18.14.25.22.21s.17,0,.28.14a2.1,2.1,0,0,0,.49.83,3.56,3.56,0,0,1,.59.93c0,.53.07,1,.09,1.43a2.7,2.7,0,0,1-.22,1.24,6.71,6.71,0,0,1-1.29,2.08,10.24,10.24,0,0,1-1.91,1.62,14.86,14.86,0,0,1-2.26,1.21,19.12,19.12,0,0,1-2.35.86.52.52,0,0,0-.25,0c-.09,0-.11,0-.06-.16a1.15,1.15,0,0,1-.54.27,4.5,4.5,0,0,1-.66,0l-.71,0a3.26,3.26,0,0,0-.7,0,4.81,4.81,0,0,1-.38-.42,1.62,1.62,0,0,1-.28-.5.14.14,0,0,1-.12-.17q0-.15-.12-.15a.28.28,0,0,1,0-.15.37.37,0,0,1,0-.11q.11-.08.09-.12a.19.19,0,0,0-.08-.08l-.13-.09a.11.11,0,0,1,0-.13.89.89,0,0,0,.09-.57l-.06-.67a2,2,0,0,1,0-.65.84.84,0,0,1,.45-.51,6.54,6.54,0,0,0,2-.11,9.67,9.67,0,0,0,1.82-.58,16.61,16.61,0,0,0,1.64-.8c.52-.29,1-.56,1.51-.81a1.26,1.26,0,0,1,.25-.44l.36-.36a3,3,0,0,0,.34-.37,1.18,1.18,0,0,0,.24-.49.19.19,0,0,0,0-.15.25.25,0,0,0-.08-.1.41.41,0,0,1-.1-.09.2.2,0,0,1-.06-.16l-.14,0-.12,0a9.74,9.74,0,0,0-1.45-.58,6.64,6.64,0,0,1-1.29-.52.71.71,0,0,1-.64.1c-.21-.07-.46-.14-.76-.21a19.13,19.13,0,0,1-2.1-.21,8.51,8.51,0,0,1-1.91-.55,1,1,0,0,0-.13-.28c0-.08-.18-.1-.37-.07-.12-.17-.25-.33-.38-.48A3.41,3.41,0,0,1,120.2,120.62Z"/><path d="M135.76,120.62a5.73,5.73,0,0,0,.1-.64.8.8,0,0,0-.18-.55c.07-.28.13-.5.17-.65a1.76,1.76,0,0,0,0-.66,2.84,2.84,0,0,1,.73-1.16,4.94,4.94,0,0,1,1.07-.81,7.35,7.35,0,0,1,1.21-.55c.42-.15.82-.28,1.19-.38a.1.1,0,0,0-.11-.11c-.07,0-.09,0,0-.13a19.28,19.28,0,0,0,2.86-.77c1-.33,1.94-.63,2.94-.89a15.1,15.1,0,0,1,3.08-.49,9.81,9.81,0,0,1,3.33.41,2.37,2.37,0,0,0,.29.6c.12.2.25.39.38.57s.25.37.35.54a1.29,1.29,0,0,1,.19.56,2.67,2.67,0,0,1,.51.62,1.11,1.11,0,0,1,.07.88l-.61.42c-.21.14-.43.27-.66.4a7.33,7.33,0,0,0-2.37-.21c-.79,0-1.5.11-2.14.18a.84.84,0,0,0-.68-.3,3.65,3.65,0,0,0-.83.13l-.86.24a2,2,0,0,1-.79.06,1.5,1.5,0,0,1-.76.36,9.84,9.84,0,0,1-1,.14c0,.09,0,.15.06.19s.06.1,0,.21a1,1,0,0,0,.5.33l.65.17a2.41,2.41,0,0,1,.59.22.72.72,0,0,1,.35.46,1.72,1.72,0,0,1,.81.25,2.18,2.18,0,0,1,.58.55,2.05,2.05,0,0,1,.35.67,1.9,1.9,0,0,1,.08.64c.07.18.14.25.22.21s.17,0,.28.14a2.19,2.19,0,0,0,.48.83,3.35,3.35,0,0,1,.6.93c0,.53.06,1,.09,1.43a2.7,2.7,0,0,1-.22,1.24,6.56,6.56,0,0,1-1.3,2.08,9.93,9.93,0,0,1-1.91,1.62,14.31,14.31,0,0,1-2.25,1.21,19.74,19.74,0,0,1-2.35.86.52.52,0,0,0-.25,0c-.1,0-.12,0-.07-.16a1.07,1.07,0,0,1-.54.27,4.45,4.45,0,0,1-.65,0l-.72,0a3.28,3.28,0,0,0-.7,0c-.14-.14-.26-.28-.38-.42a1.83,1.83,0,0,1-.27-.5.14.14,0,0,1-.12-.17q0-.15-.12-.15a.49.49,0,0,1,0-.15l.06-.11q.1-.08.09-.12a.29.29,0,0,0-.08-.08L137,131a.1.1,0,0,1,0-.13.89.89,0,0,0,.09-.57c0-.22,0-.44-.06-.67A2,2,0,0,1,137,129a.84.84,0,0,1,.45-.51,6.54,6.54,0,0,0,2-.11,9.67,9.67,0,0,0,1.82-.58,15.42,15.42,0,0,0,1.63-.8c.52-.29,1-.56,1.52-.81a1.12,1.12,0,0,1,.25-.44,4.08,4.08,0,0,1,.36-.36,4,4,0,0,0,.34-.37,1.49,1.49,0,0,0,.24-.49.36.36,0,0,0,0-.15.39.39,0,0,0-.08-.1.44.44,0,0,1-.11-.09.23.23,0,0,1-.05-.16l-.15,0-.11,0a9.74,9.74,0,0,0-1.45-.58,6.75,6.75,0,0,1-1.3-.52.69.69,0,0,1-.63.1c-.21-.07-.47-.14-.76-.21a19.13,19.13,0,0,1-2.1-.21A8.37,8.37,0,0,1,137,122a1.46,1.46,0,0,0-.13-.28c-.06-.08-.18-.1-.37-.07-.13-.17-.25-.33-.39-.48A2.78,2.78,0,0,1,135.76,120.62Z"/><path d="M151.42,132.83a1.81,1.81,0,0,1-.59-.61,4.09,4.09,0,0,1-.37-.79,6,6,0,0,1-.24-.88c-.06-.31-.13-.6-.2-.88a.84.84,0,0,1,.16-.55l.34-.33a9.13,9.13,0,0,0,1.14-.1l1-.16,1-.14a6.67,6.67,0,0,1,1-.07c.27-.54.51-1.07.74-1.57l.66-1.44a6.72,6.72,0,0,1,.41-1.22c.16-.38.33-.74.49-1.08s.29-.69.42-1a4.3,4.3,0,0,0,.23-1.1c.22-.61.4-1.18.57-1.7a9.09,9.09,0,0,0,.38-1.85c-.66.1-1.2.2-1.6.3a4.21,4.21,0,0,0-.87.28,1.75,1.75,0,0,1-.84-.22,1.57,1.57,0,0,1-.48-.44,2.71,2.71,0,0,1-.32-.61,6.25,6.25,0,0,0-.32-.71,1.45,1.45,0,0,0,.06-.7,1,1,0,0,0-.32-.67.51.51,0,0,0,.32-.36.57.57,0,0,0,0-.46,4.2,4.2,0,0,1,1-.17l1-.08c.33,0,.64-.06.94-.11a1.76,1.76,0,0,0,.76-.27l2.86-.11c1,0,1.91-.08,2.76-.13a3.58,3.58,0,0,0,1.09.16,8.61,8.61,0,0,1,1.24.08,3.07,3.07,0,0,1,1.11.34,1.4,1.4,0,0,1,.67.92,1.31,1.31,0,0,1,.59.21.71.71,0,0,1,.26.39,2,2,0,0,1,0,.5c0,.18,0,.36,0,.54a3.44,3.44,0,0,1-1.07.51,10.48,10.48,0,0,1-1.41.32,15.84,15.84,0,0,1-1.59.16l-1.62.06a17.76,17.76,0,0,1-.47,2c-.22.79-.44,1.55-.67,2.3s-.42,1.41-.59,2a4.42,4.42,0,0,0-.23,1.15c-.17.4-.32.75-.43,1l-.32.79c-.09.25-.19.49-.29.72s-.21.51-.35.81h1.79a.52.52,0,0,0,.24.39,2.35,2.35,0,0,0,.39.19,1.79,1.79,0,0,1,.39.2.42.42,0,0,1,.17.38,1,1,0,0,1,.63.39.86.86,0,0,1,.07.57,2.21,2.21,0,0,1-.27.62,5.74,5.74,0,0,1-.38.55.54.54,0,0,0-.45.12,2.87,2.87,0,0,0-.39.39,5.89,5.89,0,0,0-1.51,0l-1.37.13c-.09,0-.12.07-.1.15a.16.16,0,0,1-.06.17,4.29,4.29,0,0,0-1.67-.21,9.73,9.73,0,0,0-1.74.25l-1.81.42A9,9,0,0,1,151.42,132.83Z"/><path d="M169.67,130a.87.87,0,0,0-.32.55c0,.21-.08.43-.13.64a1.27,1.27,0,0,1-.28.54.82.82,0,0,1-.7.2c-.07.09-.08.14,0,.16s.09.09.12.23a.83.83,0,0,0-.53.06,1.17,1.17,0,0,1-.39.16,2.14,2.14,0,0,1-1-.68,5.94,5.94,0,0,1-.71-1.06,9.54,9.54,0,0,1-.52-1.19,8.32,8.32,0,0,0-.47-1.06c0-.07,0-.1.1-.09H165a2,2,0,0,1-.2-.59,1.13,1.13,0,0,0-.25-.54c.51-1.09,1.05-2.23,1.63-3.41s1.17-2.39,1.76-3.62,1.17-2.45,1.76-3.69,1.16-2.45,1.7-3.65a11.56,11.56,0,0,1,1.44.62,7,7,0,0,1,1.28.83,4.71,4.71,0,0,1,1,1.1,3.64,3.64,0,0,1,.54,1.41c0,.1-.08.14-.13.1s-.1,0-.13,0a.8.8,0,0,1,.14.23.29.29,0,0,1,0,.13.4.4,0,0,0,0,.17.54.54,0,0,0,.13.29.17.17,0,0,0-.18,0s-.1,0-.19,0a1,1,0,0,1,.08.58,1.23,1.23,0,0,1-.16.39,1.8,1.8,0,0,0-.17.37,1,1,0,0,0,0,.54c-.07,0-.12,0-.14,0a.22.22,0,0,0-.07.09l-.06.09s-.08,0-.15,0a9.18,9.18,0,0,1,.05,1.39c0,.46,0,.94-.05,1.42s0,1,0,1.49a8.91,8.91,0,0,0,.21,1.58,5.37,5.37,0,0,0,1.83-1.71,9.08,9.08,0,0,0,1.11-2.35,17.31,17.31,0,0,0,.63-2.77c.15-1,.31-2,.47-3a2.23,2.23,0,0,0,.46-.71,8.07,8.07,0,0,0,.29-.87l.24-.91a2.93,2.93,0,0,1,.32-.83,1.69,1.69,0,0,1,.81.27,5.9,5.9,0,0,1,.62.5,5.07,5.07,0,0,0,.61.52,1.71,1.71,0,0,0,.79.31l.68,1a3,3,0,0,1,.42,1.09,2.27,2.27,0,0,0-.23.58c-.06.22-.11.43-.18.64a2.31,2.31,0,0,1-.25.58,1.45,1.45,0,0,1-.44.45q-.09.78-.24,1.47c-.11.46-.2.91-.29,1.35s-.17.89-.24,1.37a8.5,8.5,0,0,0-.08,1.55c-.16.51-.33,1-.53,1.57a10.7,10.7,0,0,0-.42,1.49,3,3,0,0,0-.79,1c-.19.38-.39.77-.6,1.16-.09.07-.15.08-.16,0s-.1-.08-.24-.09q0,.22-.09.3c-.08,0-.08.17,0,.38a2.94,2.94,0,0,0-.79.55,6.65,6.65,0,0,1-.75.64,2.29,2.29,0,0,1-.95.38,2.91,2.91,0,0,1-1.41-.22,13.38,13.38,0,0,1-2.32-2.19,9.68,9.68,0,0,1-1.64-2.93.65.65,0,0,0-.39.34,4.72,4.72,0,0,0-.24.56c-.07.19-.14.37-.21.52a.34.34,0,0,1-.32.24,1.23,1.23,0,0,1-.19.44l-.28.39a1.35,1.35,0,0,0-.2.44A.76.76,0,0,0,169.67,130Z"/><path d="M183.38,126.26a1.42,1.42,0,0,1,.08-.52,1.34,1.34,0,0,0,0-.61,22.5,22.5,0,0,1,1.86-3.23,12.38,12.38,0,0,1,2.49-2.62,2.05,2.05,0,0,0,.39-.39c.09-.13.19-.26.29-.38a1.72,1.72,0,0,1,.33-.33,1.19,1.19,0,0,1,.47-.2,8.24,8.24,0,0,1,1.58-1.39c.62-.42,1.26-.83,1.93-1.22s1.34-.78,2-1.18a13.74,13.74,0,0,0,1.84-1.32.56.56,0,0,0,.46.12.52.52,0,0,1,.35,0,1.44,1.44,0,0,0,.62.7c.26.14.52.27.8.4a4.58,4.58,0,0,1,.76.47,1.73,1.73,0,0,1,.54.75c-.12,0-.18,0-.17.14a2.15,2.15,0,0,0,.06.29.79.79,0,0,1,.06.29c0,.08-.08.13-.24.13a.16.16,0,0,0,.18.18.17.17,0,0,1,.19.19.39.39,0,0,1-.07.25.37.37,0,0,0,0,.3,13.12,13.12,0,0,1-1.41.81l-1.64.8c-.57.28-1.15.58-1.74.91a19,19,0,0,0-1.75,1.12c-.58.42-1.16.89-1.75,1.4s-1.16,1.05-1.7,1.62a21.06,21.06,0,0,0-1.53,1.77,14.9,14.9,0,0,0-1.22,1.78,1.14,1.14,0,0,0,.15.23.72.72,0,0,1,.14.24,14.64,14.64,0,0,0,1.88,0,5.68,5.68,0,0,1,1.74.12.38.38,0,0,0,.13-.22.26.26,0,0,1,.16-.18,22.22,22.22,0,0,0,3.35-.59l3.16-.83a8.55,8.55,0,0,0-.84-.29c-.11-.11-.11-.2,0-.28a1.38,1.38,0,0,0,.28-.25,2,2,0,0,1-.7-.63,2,2,0,0,1-.33-1,.49.49,0,0,0,.18-.37.39.39,0,0,0-.18-.34c-.09,0-.14,0-.16,0a.42.42,0,0,0,0,.1.54.54,0,0,1,0,.11s-.08,0-.15,0a1.24,1.24,0,0,1,.13-.48,1.32,1.32,0,0,0,.16-.45l2.19-1.45a8.71,8.71,0,0,0,.84.56l1.06.58,1.13.59c.39.2.75.4,1.08.59a3.19,3.19,0,0,1,.82.52q.35.3.66.63l.63.65a2.67,2.67,0,0,0,.77.52,1.36,1.36,0,0,0,.05.69,1.18,1.18,0,0,1,0,.63,5.38,5.38,0,0,1-1.21,1.52,8,8,0,0,1-1.59,1.07,11.28,11.28,0,0,1-1.89.75c-.67.2-1.35.39-2.06.58s-1.41.38-2.12.58-1.41.43-2.1.7l-.76,0-.61.08-.58.11-.63.08c-.09,0-.14,0-.17,0a.37.37,0,0,1-.12.13,6.88,6.88,0,0,1-.95.08h-.71a2.91,2.91,0,0,0-.76.11,2.5,2.5,0,0,1-.74.08,4.94,4.94,0,0,1-3.72-1.69,7.06,7.06,0,0,1-1.48-4.35c0-.09,0-.15-.05-.17A.45.45,0,0,1,183.38,126.26Z"/><path class="cls-33" d="M33.06,125.08q0-.1.12-.09a.47.47,0,0,0,.17,0,1,1,0,0,1-.27-.56,1.1,1.1,0,0,0-.26-.6,1.34,1.34,0,0,0,.09-.26c0-.09.1-.13.23-.11a3,3,0,0,1,0-1.08,4,4,0,0,1,.33-1,7.34,7.34,0,0,1,.53-.88l.59-.88c.16,0,.26,0,.29,0s.1,0,.19,0a1.67,1.67,0,0,0,.58-.65,2,2,0,0,0,.16-.78c.16-.46.34-.91.54-1.36a8,8,0,0,1,.7-1.25,6.09,6.09,0,0,1,.84-1,3.39,3.39,0,0,1,1-.68,4,4,0,0,1,.93-.58,6.62,6.62,0,0,1,1.21-.41,7.43,7.43,0,0,1,1.34-.15,4.59,4.59,0,0,1,1.26.14c.09,0,.14,0,.16-.06s.06-.12.13-.12a11,11,0,0,1,2.36.52,5.27,5.27,0,0,1,1.78,1A18.31,18.31,0,0,1,49,116a9.84,9.84,0,0,1,.7,1.9,7.33,7.33,0,0,1,.22,2,5.85,5.85,0,0,1-.44,2.1,7,7,0,0,1-2.25,1.86,15.13,15.13,0,0,1-2.83,1.16,28.22,28.22,0,0,1-3.14.76q-1.62.29-3.15.63c0,.47,0,1,0,1.51a10.85,10.85,0,0,1-.17,1.61,10.37,10.37,0,0,1-.42,1.57,6.29,6.29,0,0,1-.75,1.43,3.79,3.79,0,0,0-1.1.1l-1,.26-.41-.25a1.18,1.18,0,0,0-.49-.14.87.87,0,0,0-.14-.66l-.45-.67a1.74,1.74,0,0,1-.29-.66.55.55,0,0,1,.3-.59.75.75,0,0,1-.21-.58.35.35,0,0,0,.26.1,3.4,3.4,0,0,1,.12-1.13c.12-.44.21-.88.29-1.31a3.71,3.71,0,0,0,0-1.19A1,1,0,0,0,33.06,125.08Zm6.85-6.17c-.07.19-.12.36-.17.51a3.26,3.26,0,0,1-.14.41c-.06.12-.11.25-.17.37a4.18,4.18,0,0,0-.2.42.36.36,0,0,0,.21.24.42.42,0,0,1,.21.24,3.2,3.2,0,0,1,.74-.28c.24-.06.49-.11.74-.15s.49-.08.74-.13a3.6,3.6,0,0,0,.76-.26,4.55,4.55,0,0,1,.83-.3l.86-.26a5.6,5.6,0,0,0,.81-.3,2.09,2.09,0,0,0,.69-.46,3.34,3.34,0,0,0-1.11-.61,6.59,6.59,0,0,0-1.59-.33,6.24,6.24,0,0,0-1.72.12A3.23,3.23,0,0,0,39.91,118.91Z"/><path class="cls-33" d="M49.88,130.25c-.09,0-.17-.05-.24-.2s-.15-.3-.23-.44h.29a2.12,2.12,0,0,1-.1-1.07c.07-.32.14-.64.23-.95s.16-.6.22-.89a1.61,1.61,0,0,0-.09-.91c.09,0,.15,0,.2-.07a1.39,1.39,0,0,0,.1-.37,1.77,1.77,0,0,0,0-.47,3.55,3.55,0,0,0,0-.41,9.79,9.79,0,0,0,.54-1.69c.13-.58.25-1.15.36-1.72s.22-1.13.35-1.66a8.76,8.76,0,0,1,.52-1.52,1.62,1.62,0,0,1,.77.09,1,1,0,0,1,.54.36,7.1,7.1,0,0,0,1.46-1.53c.42-.6.84-1.18,1.27-1.76a8.41,8.41,0,0,1,1.47-1.51,3.8,3.8,0,0,1,2-.79c.42.3.89.62,1.42,1A4.26,4.26,0,0,1,62.27,115l.41.27c.13.1.27.19.41.28v.4a3.06,3.06,0,0,1,.62.8,7.32,7.32,0,0,1,.45,1c.13.34.26.69.38,1a6.16,6.16,0,0,0,.42,1,.75.75,0,0,0,0,.28,1.05,1.05,0,0,0,.06.24l.06.26a1.86,1.86,0,0,1,0,.36,3.59,3.59,0,0,1-.91,2.25,6.48,6.48,0,0,1-1.95,1.4,16.85,16.85,0,0,1-2.44.92,22.73,22.73,0,0,0-2.35.83c0,.07,0,.11.12.11s.1,0,.07.16c.52.31.93.57,1.22.76a7.67,7.67,0,0,0,.82.49,4.9,4.9,0,0,0,.84.33c.31.09.74.19,1.28.32l1.28.3c.31.08.59.14.83.18s.51.09.79.12l1.14.13a2.55,2.55,0,0,1,.47.69,3.48,3.48,0,0,1,.26.79,2.14,2.14,0,0,1,0,.75,1,1,0,0,1-.22.57.12.12,0,0,0,.15.09,1.09,1.09,0,0,1,.25,0,1.39,1.39,0,0,0-.32.32l-.26.37a2,2,0,0,1-.31.34.71.71,0,0,1-.43.19,4.21,4.21,0,0,1-2.43,0,29.52,29.52,0,0,1-3.77-1.21c-.75-.28-1.37-.54-1.84-.76a12.37,12.37,0,0,1-1.24-.68,7.23,7.23,0,0,1-1-.71c-.3-.25-.64-.56-1-.91a.13.13,0,0,0-.09.11.12.12,0,0,1-.09.1,6.9,6.9,0,0,1-.41,1.72,6.06,6.06,0,0,1-.81,1.34c-.28-.05-.47,0-.56.08a1.76,1.76,0,0,1-.36.29.62.62,0,0,1-.39,0,1.4,1.4,0,0,1-.24-.15l-.24-.16a.73.73,0,0,0-.42,0c0-.16-.11-.31-.16-.46s-.19-.22-.42-.2a.89.89,0,0,0,0-.41,1,1,0,0,0-.08-.31l-.09-.31A.59.59,0,0,1,49.88,130.25Zm8.81-12a6.09,6.09,0,0,1-.77.9c-.28.28-.56.56-.83.85a6.09,6.09,0,0,0-.72,1,3.6,3.6,0,0,0-.45,1.22,8.63,8.63,0,0,0,2.32-.62l2.29-.93a2.8,2.8,0,0,0-.68-1.57A2.9,2.9,0,0,0,58.69,118.2Z"/><path class="cls-33" d="M73,132.62a5.12,5.12,0,0,1-3.81-.92,5.77,5.77,0,0,1-1.29-1.32,7.41,7.41,0,0,1-.88-1.64,8.49,8.49,0,0,1,.13-3.25,10.59,10.59,0,0,1,1.08-2.71,15.55,15.55,0,0,1,1.62-2.32l1.75-2.08a.33.33,0,0,0,.31,0,.7.7,0,0,0,.21-.21,1.71,1.71,0,0,1,.21-.26.67.67,0,0,1,.28-.19,1.13,1.13,0,0,1,.27-.39l.37-.31a3.72,3.72,0,0,0,.37-.3,1.58,1.58,0,0,0,.31-.4,1.23,1.23,0,0,0,.46-.18c.13-.09.25-.19.37-.29a3.17,3.17,0,0,1,.35-.29,1.34,1.34,0,0,1,.45-.21V115a2.1,2.1,0,0,0,.84-.58c.18-.21.39-.48.64-.81l.46,0c.11,0,.29,0,.54,0a2.85,2.85,0,0,1,.45-.66,4.45,4.45,0,0,1,.6-.48,2.16,2.16,0,0,0,.85.26,1.26,1.26,0,0,1,.81.4.78.78,0,0,0,.19.49,2.58,2.58,0,0,0,.34.32l.37.3a.82.82,0,0,1,.24.45.23.23,0,0,0,.17,0s.08,0,.17,0a2.28,2.28,0,0,0,.11.34,1.33,1.33,0,0,0,.11.24,2.55,2.55,0,0,1,.14.24c0,.09.08.19.12.31a6.8,6.8,0,0,0-.24.68.7.7,0,0,1-.42.48c0,.14,0,.22.15.23s.17.07.19.2a.55.55,0,0,1-.08.39,24.47,24.47,0,0,1,1.34,2.6,23.86,23.86,0,0,0,1.38,2.6,1.6,1.6,0,0,0,0,.72,5.73,5.73,0,0,0,.23.7c.1.23.19.46.28.69a2.73,2.73,0,0,1,.18.68,3.85,3.85,0,0,1,0,1,4,4,0,0,1-.21,1,3.63,3.63,0,0,1-.42.89,1.87,1.87,0,0,1-.61.61,3.15,3.15,0,0,1-1,.86,6.2,6.2,0,0,0-1.16.78,2.8,2.8,0,0,1-.79.3l-.87.2a5.68,5.68,0,0,1-.82.41c-.32.13-.64.25-1,.36s-.67.18-1,.25a3.05,3.05,0,0,1-.89,0,10.47,10.47,0,0,1-1.85.47A6,6,0,0,1,73,132.62Zm.34-9.6a5.7,5.7,0,0,1-.61,1.09c-.24.33-.48.66-.7,1a7,7,0,0,0-.6,1.07,3.57,3.57,0,0,0-.27,1.33,2.32,2.32,0,0,0,1.25.54,6.71,6.71,0,0,0,1.49,0c.51,0,1-.11,1.53-.2a7.86,7.86,0,0,1,1.37-.13q0-.24.21-.24a5.25,5.25,0,0,0,2.06-.62l2-1a2.06,2.06,0,0,1,.35-.55,1.07,1.07,0,0,0,.23-.69,2.72,2.72,0,0,1-.17-.39,2.68,2.68,0,0,1,0-.48,11.59,11.59,0,0,1-1.18-2.07A16.07,16.07,0,0,0,79,119.54a.71.71,0,0,1-.21.26c-.11.09-.22.07-.35,0a.58.58,0,0,1-.23.36.74.74,0,0,1-.36.09,1.19,1.19,0,0,1-.4-.08,1.13,1.13,0,0,1-.35-.21c-.62.49-1.23,1-1.83,1.42a9.3,9.3,0,0,0-1.65,1.61c-.09,0-.14.07-.16,0A.42.42,0,0,0,73.29,123Z"/><path class="cls-33" d="M89.14,130.22a4.61,4.61,0,0,1-1.25-1.45,8.6,8.6,0,0,1-.77-1.85,11.13,11.13,0,0,1-.36-2,15.11,15.11,0,0,1-.07-2,6.82,6.82,0,0,1,.58-1.31,9.7,9.7,0,0,1,.76-1.13,12.65,12.65,0,0,1,.89-1l.91-1a.6.6,0,0,1,.29.08,1.28,1.28,0,0,1,.31-.5,3.23,3.23,0,0,1,.45-.38l.48-.35a1.52,1.52,0,0,0,.39-.41,4.58,4.58,0,0,0,1.18-.44,11,11,0,0,0,1-.64,11.59,11.59,0,0,1,1-.63,4.52,4.52,0,0,1,1.16-.45,2.48,2.48,0,0,1,.59-.45l.71-.34c.24-.11.47-.22.69-.34a1.62,1.62,0,0,0,.54-.5.4.4,0,0,0,.45.14c.19,0,.37-.09.53-.14a.33.33,0,0,1,.26,0l.2.17a.51.51,0,0,0,.16.12s.09,0,.14-.16.18.08.12.19l-.12.21a.48.48,0,0,1,.44.09,1.05,1.05,0,0,0,.54.2c.08.08.11.15.08.21a.5.5,0,0,0-.08.26,1.63,1.63,0,0,1,1.26,2.2,3,3,0,0,1-.78,1.24,2.68,2.68,0,0,1-1.25.75c-.54.14-1,.28-1.51.43a13.38,13.38,0,0,0-1.35.47,8.1,8.1,0,0,0-1.21.62,4.45,4.45,0,0,0-1,.83,5,5,0,0,0-1.33.58,8.38,8.38,0,0,0-1.11.82q-.51.45-1,.93c-.31.33-.63.65-1,1a1.2,1.2,0,0,1-.16.68c-.1.16-.22.32-.34.48a2.51,2.51,0,0,0,.23.85c.11.24.23.48.35.73a20.08,20.08,0,0,0,4.47.78c1.57.09,3.13.15,4.68.17a4.29,4.29,0,0,0,.54.59,6,6,0,0,1,.56.57,2.46,2.46,0,0,1,.39.67,1.8,1.8,0,0,1,.07.91,11.81,11.81,0,0,1-1,.86l-1.05.8a2.7,2.7,0,0,1-.57,0q-.33,0-.69,0c-.23,0-.47,0-.71,0a2.55,2.55,0,0,0-.67.18,21.43,21.43,0,0,1-3.4-.41,28.3,28.3,0,0,1-3.22-.86c-.19-.23-.39-.44-.6-.65A2,2,0,0,0,89.14,130.22Z"/><path class="cls-33" d="M104.41,131.62a1.36,1.36,0,0,1-.31-.5.8.8,0,0,0-.43-.48c0-.26-.08-.57-.15-.91s-.12-.69-.18-1a9.83,9.83,0,0,1-.13-1.09,3.92,3.92,0,0,1,0-1,1.44,1.44,0,0,1,.17-.45l.24-.41a1.65,1.65,0,0,0,.18-.41.75.75,0,0,0,0-.42.23.23,0,0,0,.2-.17c0-.1.11-.13.25-.09.13-.39.26-.75.4-1.09s.29-.65.45-1,.32-.64.48-1a9.57,9.57,0,0,0,.47-1.1,2.52,2.52,0,0,1-.65-.91,5.65,5.65,0,0,1-.3-1,8.49,8.49,0,0,1-.16-1,6.61,6.61,0,0,0-.21-1,2.69,2.69,0,0,1,.76-.78,4.6,4.6,0,0,1,1-.5,7.66,7.66,0,0,1,1.17-.32c.43-.08.87-.17,1.35-.28.84-.26,1.6-.46,2.27-.62s1.31-.27,2-.36,1.29-.19,2-.27,1.47-.2,2.37-.35c0,0,0,.08.09.08h.17a.29.29,0,0,0,.29.18.61.61,0,0,0,0-.14.57.57,0,0,1,0-.12l.14,0,.16.06a.13.13,0,0,0,.12,0s0-.08,0-.17a2.87,2.87,0,0,0,.82.91,5.91,5.91,0,0,0,1.11.62,1.36,1.36,0,0,1,0,.34,1.18,1.18,0,0,1,0,.2.68.68,0,0,0,0,.21,1.19,1.19,0,0,0,0,.33,3.54,3.54,0,0,1-1,1.11,4.89,4.89,0,0,1-1.15.61,7.48,7.48,0,0,1-1.28.31l-1.37.23a9,9,0,0,0-1.41.33,5.81,5.81,0,0,0-1.4.63.93.93,0,0,0-.38-.07,1.63,1.63,0,0,0-.36.07l-.41.1a1.22,1.22,0,0,1-.54,0,1.27,1.27,0,0,1-.48.27l-.57.16a1.19,1.19,0,0,1,.12.58,1.3,1.3,0,0,0,.06.5,13.56,13.56,0,0,0,2.46,0c.89-.08,1.77-.13,2.63-.17a.23.23,0,0,1,0,.19.22.22,0,0,0-.06.18,2.39,2.39,0,0,1,.45.4l.44.46a2.57,2.57,0,0,0,.46.37,1,1,0,0,0,.55.12,2.11,2.11,0,0,1,.19.55,1.1,1.1,0,0,1-.08.61c-.35.22-.7.46-1,.7a11.17,11.17,0,0,1-1,.64,6.61,6.61,0,0,1-1.18.48,4.34,4.34,0,0,1-1.37.15h-.22a.4.4,0,0,1-.23-.1,1.21,1.21,0,0,1-.69.09,1.39,1.39,0,0,0-.73.09,2.51,2.51,0,0,0-.86-.13,2.45,2.45,0,0,1-.85-.13,15.92,15.92,0,0,0-.9,1.44,11.56,11.56,0,0,0-.74,1.59,9.58,9.58,0,0,0,1.8.13c.47,0,.92-.05,1.34-.1l1.31-.16a11.66,11.66,0,0,1,1.64,0,5.2,5.2,0,0,1,1.52-.44,10.33,10.33,0,0,0,1.59-.35.86.86,0,0,1,.45.3c.13.15.24.3.36.45a2.59,2.59,0,0,0,.35.38.56.56,0,0,0,.48.1.67.67,0,0,1,.17.32c0,.12,0,.24.08.34a.65.65,0,0,0,.12.25c0,.07.15.09.29.07a5.17,5.17,0,0,1-1.12,1.58,4.6,4.6,0,0,1-1.4.86,8.5,8.5,0,0,1-1.74.45c-.64.09-1.36.21-2.15.35a1,1,0,0,1-.49,0,1.35,1.35,0,0,0-.41-.07c-.49.09-1.07.18-1.75.27a12.68,12.68,0,0,1-2,.1,8.52,8.52,0,0,1-2-.26A3.49,3.49,0,0,1,104.41,131.62Z"/><path class="cls-33" d="M120.2,120.62c0-.26.09-.48.11-.64a.87.87,0,0,0-.19-.55c.07-.28.13-.5.17-.65a1.72,1.72,0,0,0,0-.66A2.93,2.93,0,0,1,121,117a5.2,5.2,0,0,1,1.07-.81,7.75,7.75,0,0,1,1.21-.55c.43-.15.82-.28,1.19-.38a.1.1,0,0,0-.11-.11c-.07,0-.08,0,0-.13a19.28,19.28,0,0,0,2.86-.77c1-.33,1.94-.63,2.94-.89a15.09,15.09,0,0,1,3.09-.49,9.79,9.79,0,0,1,3.32.41,2.77,2.77,0,0,0,.29.6c.12.2.25.39.38.57l.36.54a1.27,1.27,0,0,1,.18.56,2.72,2.72,0,0,1,.52.62,1.16,1.16,0,0,1,.06.88l-.6.42c-.21.14-.43.27-.66.4a7.37,7.37,0,0,0-2.38-.21q-1.19.07-2.13.18a.86.86,0,0,0-.69-.3,3.65,3.65,0,0,0-.83.13l-.85.24a2,2,0,0,1-.8.06,1.46,1.46,0,0,1-.76.36,10,10,0,0,1-1,.14.17.17,0,0,0,0,.19s.06.1,0,.21a.92.92,0,0,0,.5.33l.64.17a2.66,2.66,0,0,1,.6.22.7.7,0,0,1,.34.46,1.76,1.76,0,0,1,.82.25,2.34,2.34,0,0,1,.58.55,2,2,0,0,1,.34.67,1.68,1.68,0,0,1,.08.64c.07.18.14.25.22.21s.17,0,.28.14a2.1,2.1,0,0,0,.49.83,3.56,3.56,0,0,1,.59.93c0,.53.07,1,.09,1.43a2.7,2.7,0,0,1-.22,1.24,6.71,6.71,0,0,1-1.29,2.08,10.24,10.24,0,0,1-1.91,1.62,14.86,14.86,0,0,1-2.26,1.21,19.12,19.12,0,0,1-2.35.86.52.52,0,0,0-.25,0c-.09,0-.11,0-.06-.16a1.15,1.15,0,0,1-.54.27,4.5,4.5,0,0,1-.66,0l-.71,0a3.26,3.26,0,0,0-.7,0,4.81,4.81,0,0,1-.38-.42,1.62,1.62,0,0,1-.28-.5.14.14,0,0,1-.12-.17q0-.15-.12-.15a.28.28,0,0,1,0-.15.37.37,0,0,1,0-.11q.11-.08.09-.12a.19.19,0,0,0-.08-.08l-.13-.09a.11.11,0,0,1,0-.13.89.89,0,0,0,.09-.57l-.06-.67a2,2,0,0,1,0-.65.84.84,0,0,1,.45-.51,6.54,6.54,0,0,0,2-.11,9.67,9.67,0,0,0,1.82-.58,16.61,16.61,0,0,0,1.64-.8c.52-.29,1-.56,1.51-.81a1.26,1.26,0,0,1,.25-.44l.36-.36a3,3,0,0,0,.34-.37,1.18,1.18,0,0,0,.24-.49.19.19,0,0,0,0-.15.25.25,0,0,0-.08-.1.41.41,0,0,1-.1-.09.2.2,0,0,1-.06-.16l-.14,0-.12,0a9.74,9.74,0,0,0-1.45-.58,6.64,6.64,0,0,1-1.29-.52.71.71,0,0,1-.64.1c-.21-.07-.46-.14-.76-.21a19.13,19.13,0,0,1-2.1-.21,8.51,8.51,0,0,1-1.91-.55,1,1,0,0,0-.13-.28c0-.08-.18-.1-.37-.07-.12-.17-.25-.33-.38-.48A3.41,3.41,0,0,1,120.2,120.62Z"/><path class="cls-33" d="M135.76,120.62a5.73,5.73,0,0,0,.1-.64.8.8,0,0,0-.18-.55c.07-.28.13-.5.17-.65a1.76,1.76,0,0,0,0-.66,2.84,2.84,0,0,1,.73-1.16,4.94,4.94,0,0,1,1.07-.81,7.35,7.35,0,0,1,1.21-.55c.42-.15.82-.28,1.19-.38a.1.1,0,0,0-.11-.11c-.07,0-.09,0,0-.13a19.28,19.28,0,0,0,2.86-.77c1-.33,1.94-.63,2.94-.89a15.1,15.1,0,0,1,3.08-.49,9.81,9.81,0,0,1,3.33.41,2.37,2.37,0,0,0,.29.6c.12.2.25.39.38.57s.25.37.35.54a1.29,1.29,0,0,1,.19.56,2.67,2.67,0,0,1,.51.62,1.11,1.11,0,0,1,.07.88l-.61.42c-.21.14-.43.27-.66.4a7.33,7.33,0,0,0-2.37-.21c-.79,0-1.5.11-2.14.18a.84.84,0,0,0-.68-.3,3.65,3.65,0,0,0-.83.13l-.86.24a2,2,0,0,1-.79.06,1.5,1.5,0,0,1-.76.36,9.84,9.84,0,0,1-1,.14c0,.09,0,.15.06.19s.06.1,0,.21a1,1,0,0,0,.5.33l.65.17a2.41,2.41,0,0,1,.59.22.72.72,0,0,1,.35.46,1.72,1.72,0,0,1,.81.25,2.18,2.18,0,0,1,.58.55,2.05,2.05,0,0,1,.35.67,1.9,1.9,0,0,1,.08.64c.07.18.14.25.22.21s.17,0,.28.14a2.19,2.19,0,0,0,.48.83,3.35,3.35,0,0,1,.6.93c0,.53.06,1,.09,1.43a2.7,2.7,0,0,1-.22,1.24,6.56,6.56,0,0,1-1.3,2.08,9.93,9.93,0,0,1-1.91,1.62,14.31,14.31,0,0,1-2.25,1.21,19.74,19.74,0,0,1-2.35.86.52.52,0,0,0-.25,0c-.1,0-.12,0-.07-.16a1.07,1.07,0,0,1-.54.27,4.45,4.45,0,0,1-.65,0l-.72,0a3.28,3.28,0,0,0-.7,0c-.14-.14-.26-.28-.38-.42a1.83,1.83,0,0,1-.27-.5.14.14,0,0,1-.12-.17q0-.15-.12-.15a.49.49,0,0,1,0-.15l.06-.11q.1-.08.09-.12a.29.29,0,0,0-.08-.08L137,131a.1.1,0,0,1,0-.13.89.89,0,0,0,.09-.57c0-.22,0-.44-.06-.67A2,2,0,0,1,137,129a.84.84,0,0,1,.45-.51,6.54,6.54,0,0,0,2-.11,9.67,9.67,0,0,0,1.82-.58,15.42,15.42,0,0,0,1.63-.8c.52-.29,1-.56,1.52-.81a1.12,1.12,0,0,1,.25-.44,4.08,4.08,0,0,1,.36-.36,4,4,0,0,0,.34-.37,1.49,1.49,0,0,0,.24-.49.36.36,0,0,0,0-.15.39.39,0,0,0-.08-.1.44.44,0,0,1-.11-.09.23.23,0,0,1-.05-.16l-.15,0-.11,0a9.74,9.74,0,0,0-1.45-.58,6.75,6.75,0,0,1-1.3-.52.69.69,0,0,1-.63.1c-.21-.07-.47-.14-.76-.21a19.13,19.13,0,0,1-2.1-.21A8.37,8.37,0,0,1,137,122a1.46,1.46,0,0,0-.13-.28c-.06-.08-.18-.1-.37-.07-.13-.17-.25-.33-.39-.48A2.78,2.78,0,0,1,135.76,120.62Z"/><path class="cls-33" d="M151.42,132.83a1.81,1.81,0,0,1-.59-.61,4.09,4.09,0,0,1-.37-.79,6,6,0,0,1-.24-.88c-.06-.31-.13-.6-.2-.88a.84.84,0,0,1,.16-.55l.34-.33a9.13,9.13,0,0,0,1.14-.1l1-.16,1-.14a6.67,6.67,0,0,1,1-.07c.27-.54.51-1.07.74-1.57l.66-1.44a6.72,6.72,0,0,1,.41-1.22c.16-.38.33-.74.49-1.08s.29-.69.42-1a4.3,4.3,0,0,0,.23-1.1c.22-.61.4-1.18.57-1.7a9.09,9.09,0,0,0,.38-1.85c-.66.1-1.2.2-1.6.3a4.21,4.21,0,0,0-.87.28,1.75,1.75,0,0,1-.84-.22,1.57,1.57,0,0,1-.48-.44,2.71,2.71,0,0,1-.32-.61,6.25,6.25,0,0,0-.32-.71,1.45,1.45,0,0,0,.06-.7,1,1,0,0,0-.32-.67.51.51,0,0,0,.32-.36.57.57,0,0,0,0-.46,4.2,4.2,0,0,1,1-.17l1-.08c.33,0,.64-.06.94-.11a1.76,1.76,0,0,0,.76-.27l2.86-.11c1,0,1.91-.08,2.76-.13a3.58,3.58,0,0,0,1.09.16,8.61,8.61,0,0,1,1.24.08,3.07,3.07,0,0,1,1.11.34,1.4,1.4,0,0,1,.67.92,1.31,1.31,0,0,1,.59.21.71.71,0,0,1,.26.39,2,2,0,0,1,0,.5c0,.18,0,.36,0,.54a3.44,3.44,0,0,1-1.07.51,10.48,10.48,0,0,1-1.41.32,15.84,15.84,0,0,1-1.59.16l-1.62.06a17.76,17.76,0,0,1-.47,2c-.22.79-.44,1.55-.67,2.3s-.42,1.41-.59,2a4.42,4.42,0,0,0-.23,1.15c-.17.4-.32.75-.43,1l-.32.79c-.09.25-.19.49-.29.72s-.21.51-.35.81h1.79a.52.52,0,0,0,.24.39,2.35,2.35,0,0,0,.39.19,1.79,1.79,0,0,1,.39.2.42.42,0,0,1,.17.38,1,1,0,0,1,.63.39.86.86,0,0,1,.07.57,2.21,2.21,0,0,1-.27.62,5.74,5.74,0,0,1-.38.55.54.54,0,0,0-.45.12,2.87,2.87,0,0,0-.39.39,5.89,5.89,0,0,0-1.51,0l-1.37.13c-.09,0-.12.07-.1.15a.16.16,0,0,1-.06.17,4.29,4.29,0,0,0-1.67-.21,9.73,9.73,0,0,0-1.74.25l-1.81.42A9,9,0,0,1,151.42,132.83Z"/><path class="cls-33" d="M169.67,130a.87.87,0,0,0-.32.55c0,.21-.08.43-.13.64a1.27,1.27,0,0,1-.28.54.82.82,0,0,1-.7.2c-.07.09-.08.14,0,.16s.09.09.12.23a.83.83,0,0,0-.53.06,1.17,1.17,0,0,1-.39.16,2.14,2.14,0,0,1-1-.68,5.94,5.94,0,0,1-.71-1.06,9.54,9.54,0,0,1-.52-1.19,8.32,8.32,0,0,0-.47-1.06c0-.07,0-.1.1-.09H165a2,2,0,0,1-.2-.59,1.13,1.13,0,0,0-.25-.54c.51-1.09,1.05-2.23,1.63-3.41s1.17-2.39,1.76-3.62,1.17-2.45,1.76-3.69,1.16-2.45,1.7-3.65a11.56,11.56,0,0,1,1.44.62,7,7,0,0,1,1.28.83,4.71,4.71,0,0,1,1,1.1,3.64,3.64,0,0,1,.54,1.41c0,.1-.08.14-.13.1s-.1,0-.13,0a.8.8,0,0,1,.14.23.29.29,0,0,1,0,.13.4.4,0,0,0,0,.17.54.54,0,0,0,.13.29.17.17,0,0,0-.18,0s-.1,0-.19,0a1,1,0,0,1,.08.58,1.23,1.23,0,0,1-.16.39,1.8,1.8,0,0,0-.17.37,1,1,0,0,0,0,.54c-.07,0-.12,0-.14,0a.22.22,0,0,0-.07.09l-.06.09s-.08,0-.15,0a9.18,9.18,0,0,1,.05,1.39c0,.46,0,.94-.05,1.42s0,1,0,1.49a8.91,8.91,0,0,0,.21,1.58,5.37,5.37,0,0,0,1.83-1.71,9.08,9.08,0,0,0,1.11-2.35,17.31,17.31,0,0,0,.63-2.77c.15-1,.31-2,.47-3a2.23,2.23,0,0,0,.46-.71,8.07,8.07,0,0,0,.29-.87l.24-.91a2.93,2.93,0,0,1,.32-.83,1.69,1.69,0,0,1,.81.27,5.9,5.9,0,0,1,.62.5,5.07,5.07,0,0,0,.61.52,1.71,1.71,0,0,0,.79.31l.68,1a3,3,0,0,1,.42,1.09,2.27,2.27,0,0,0-.23.58c-.06.22-.11.43-.18.64a2.31,2.31,0,0,1-.25.58,1.45,1.45,0,0,1-.44.45q-.09.78-.24,1.47c-.11.46-.2.91-.29,1.35s-.17.89-.24,1.37a8.5,8.5,0,0,0-.08,1.55c-.16.51-.33,1-.53,1.57a10.7,10.7,0,0,0-.42,1.49,3,3,0,0,0-.79,1c-.19.38-.39.77-.6,1.16-.09.07-.15.08-.16,0s-.1-.08-.24-.09q0,.22-.09.3c-.08,0-.08.17,0,.38a2.94,2.94,0,0,0-.79.55,6.65,6.65,0,0,1-.75.64,2.29,2.29,0,0,1-.95.38,2.91,2.91,0,0,1-1.41-.22,13.38,13.38,0,0,1-2.32-2.19,9.68,9.68,0,0,1-1.64-2.93.65.65,0,0,0-.39.34,4.72,4.72,0,0,0-.24.56c-.07.19-.14.37-.21.52a.34.34,0,0,1-.32.24,1.23,1.23,0,0,1-.19.44l-.28.39a1.35,1.35,0,0,0-.2.44A.76.76,0,0,0,169.67,130Z"/><path class="cls-33" d="M183.38,126.26a1.42,1.42,0,0,1,.08-.52,1.34,1.34,0,0,0,0-.61,22.5,22.5,0,0,1,1.86-3.23,12.38,12.38,0,0,1,2.49-2.62,2.05,2.05,0,0,0,.39-.39c.09-.13.19-.26.29-.38a1.72,1.72,0,0,1,.33-.33,1.19,1.19,0,0,1,.47-.2,8.24,8.24,0,0,1,1.58-1.39c.62-.42,1.26-.83,1.93-1.22s1.34-.78,2-1.18a13.74,13.74,0,0,0,1.84-1.32.56.56,0,0,0,.46.12.52.52,0,0,1,.35,0,1.44,1.44,0,0,0,.62.7c.26.14.52.27.8.4a4.58,4.58,0,0,1,.76.47,1.73,1.73,0,0,1,.54.75c-.12,0-.18,0-.17.14a2.15,2.15,0,0,0,.06.29.79.79,0,0,1,.06.29c0,.08-.08.13-.24.13a.16.16,0,0,0,.18.18.17.17,0,0,1,.19.19.39.39,0,0,1-.07.25.37.37,0,0,0,0,.3,13.12,13.12,0,0,1-1.41.81l-1.64.8c-.57.28-1.15.58-1.74.91a19,19,0,0,0-1.75,1.12c-.58.42-1.16.89-1.75,1.4s-1.16,1.05-1.7,1.62a21.06,21.06,0,0,0-1.53,1.77,14.9,14.9,0,0,0-1.22,1.78,1.14,1.14,0,0,0,.15.23.72.72,0,0,1,.14.24,14.64,14.64,0,0,0,1.88,0,5.68,5.68,0,0,1,1.74.12.38.38,0,0,0,.13-.22.26.26,0,0,1,.16-.18,22.22,22.22,0,0,0,3.35-.59l3.16-.83a8.55,8.55,0,0,0-.84-.29c-.11-.11-.11-.2,0-.28a1.38,1.38,0,0,0,.28-.25,2,2,0,0,1-.7-.63,2,2,0,0,1-.33-1,.49.49,0,0,0,.18-.37.39.39,0,0,0-.18-.34c-.09,0-.14,0-.16,0a.42.42,0,0,0,0,.1.54.54,0,0,1,0,.11s-.08,0-.15,0a1.24,1.24,0,0,1,.13-.48,1.32,1.32,0,0,0,.16-.45l2.19-1.45a8.71,8.71,0,0,0,.84.56l1.06.58,1.13.59c.39.2.75.4,1.08.59a3.19,3.19,0,0,1,.82.52q.35.3.66.63l.63.65a2.67,2.67,0,0,0,.77.52,1.36,1.36,0,0,0,.05.69,1.18,1.18,0,0,1,0,.63,5.38,5.38,0,0,1-1.21,1.52,8,8,0,0,1-1.59,1.07,11.28,11.28,0,0,1-1.89.75c-.67.2-1.35.39-2.06.58s-1.41.38-2.12.58-1.41.43-2.1.7l-.76,0-.61.08-.58.11-.63.08c-.09,0-.14,0-.17,0a.37.37,0,0,1-.12.13,6.88,6.88,0,0,1-.95.08h-.71a2.91,2.91,0,0,0-.76.11,2.5,2.5,0,0,1-.74.08,4.94,4.94,0,0,1-3.72-1.69,7.06,7.06,0,0,1-1.48-4.35c0-.09,0-.15-.05-.17A.45.45,0,0,1,183.38,126.26Z"/><circle class="cls-34" cx="114.5" cy="107.5" r="104.5"/></g></g></svg>