<svg xmlns="http://www.w3.org/2000/svg" viewBox="0 0 48 48">
	<path fill="#fff" d="M47.78,33.75a4.28,4.28,0,0,0-5.45-2.67L38,32.43A4,4,0,0,0,34,28H23.3c-3.8-2.54-7-2-13.3-2V25a1,1,0,0,0-1-1H1a1,1,0,0,0-1,1V41a1,1,0,0,0,1,1H9a1,1,0,0,0,1-1c0-.35-.09-.33.29-.11a29.82,29.82,0,0,0,26.13,1.77l9-3.65A4.28,4.28,0,0,0,47.78,33.75ZM8,40H2V26H8Zm36.67-2.84-9,3.64a27.78,27.78,0,0,1-24.38-1.65L10,38.42V28c6.59,0,9.05-.43,12.19,1.66.7.47.27.34,11.81.34a2,2,0,0,1,1.53,3.28c-1.12,1-.15.72-12.53.72a1,1,0,0,0,0,2c11.27,0,12.2.37,13.75-1.1L43,33a2.26,2.26,0,0,1,1.7,4.18Z" />
	<path fill="#fff" d="M4.29 36.29a1 1 0 1 0 1.42 0A1 1 0 0 0 4.29 36.29zM32 17H28a1 1 0 0 0 0 2h2v1a1 1 0 0 0 2 0V19a3 3 0 0 0 0-6H30a1 1 0 0 1 0-2h4a1 1 0 0 0 0-2H32V8a1 1 0 0 0-2 0V9a3 3 0 0 0 0 6h2A1 1 0 0 1 32 17z" />
	<path fill="#fff" d="M31,25A11,11,0,1,0,20,14,11,11,0,0,0,31,25ZM31,5a9,9,0,1,1-9,9A9,9,0,0,1,31,5Z" />
</svg>