<svg xmlns="http://www.w3.org/2000/svg" id="Layer_1" x="0" y="0" version="1.1" viewBox="0 0 96 96" xml:space="preserve"><path fill="#d5d6db" d="M90.1 15.8l-5.7-5.7-4-3.9c-1.3-1.3-3-1.9-4.7-1.9-1.8 0-3.5.7-4.8 2L60 17.1 11.3 65.8 4.4 89c-.5 1.7-.2 3.4.9 4.8C6.3 95.2 8 96 9.7 96c.5 0 1-.1 1.6-.2l23.2-6.9 48.7-48.7L94 29.3c1.3-1.3 2-3 2-4.8s-.7-3.5-2-4.8l-3.9-3.9z"/><path fill="#fff" d="M85.9 11.6l-5.7-5.7-4-3.9C75 .7 73.3 0 71.5 0c-1.8 0-3.5.7-4.8 2L55.8 12.9 7.1 61.6.2 84.9c-.5 1.7-.2 3.4.9 4.8 1 1.4 2.7 2.2 4.4 2.2.5 0 1-.1 1.6-.2l23.2-6.9L78.9 36l10.9-10.9c1.3-1.3 2-3 2-4.8s-.7-3.5-2-4.8l-3.9-3.9z"/><path fill="#ce412d" d="M44.1 22.7h8.1v65h-8.1z" transform="rotate(-134.999 48.127 55.17)"/><path fill="#d15241" d="M38.3 17h8.1v65h-8.1z" transform="rotate(-134.999 42.39 49.436)"/><path fill="#e56353" d="M32.6 11.2h8.1v65h-8.1z" transform="rotate(-134.999 36.655 43.7)"/><path fill="#44c4a1" d="M54.2 24h24.3v2.9H54.2z" transform="rotate(-134.999 66.368 25.458)"/><path fill="#2f4859" d="M86.9 18.5L83 14.6 70.2 27.3 76 33l10.9-10.9c1-1 1-2.6 0-3.6z"/><path fill="#3a556a" d="M64.7 14h18v8.1h-18z" transform="rotate(-45.001 73.743 18.084)"/><path fill="#64798a" d="M77.2 8.9L73.3 5c-1-1-2.6-1-3.6 0L58.8 15.8l5.7 5.7L77.2 8.9z"/><path fill="#fcd462" d="M10.8 63.8l-4.4 15c1.7 0 3.4.6 4.8 1.9 1.3 1.3 1.9 3 1.9 4.8L28 81 10.8 63.8z"/><path fill="#64798a" d="M11.1 80.7c-1.3-1.3-3-1.9-4.8-1.9L4.2 86c-.3 1 .6 1.9 1.6 1.6l7.2-2.1c.1-1.8-.6-3.5-1.9-4.8z"/></svg>