<svg xmlns="http://www.w3.org/2000/svg" width="32" height="32" enable-background="new 0 0 32 32" viewBox="0 0 32 32"><rect width="8" height="3" x="14.5" y="20.5" fill="#FFF176"/><rect width="1.5" height="1.5" x="14.5" y="20.5" fill="#FFF"/><rect width="2.5" height="2.5" x="20" y="21" fill="#E6D96A"/><rect width="1" height="1" x="16" y="21" fill="#FFF5A2"/><path fill="#455A64" d="M22.5,22c-0.276,0-0.5-0.224-0.5-0.5v-1c0-0.276,0.224-0.5,0.5-0.5s0.5,0.224,0.5,0.5v1
						C23,21.776,22.776,22,22.5,22z"/><rect width="8" height="2" x="15.5" y="18.5" fill="#FFF176"/><rect width="1.5" height="1" x="15.5" y="19" fill="#FFF"/><rect width="2" height="1" x="21" y="19" fill="#E6D96A"/><rect width="1" height="1" x="17" y="19" fill="#FFF5A2"/><path fill="#455A64" d="M23.5,21h-8c-0.276,0-0.5-0.224-0.5-0.5v-2c0-0.276,0.224-0.5,0.5-0.5h8c0.276,0,0.5,0.224,0.5,0.5v2
						C24,20.776,23.776,21,23.5,21z M16,20h7v-1h-7V20z"/><rect width="8" height="2" x="14.5" y="16.5" fill="#FFF176"/><rect width="1" height="1" x="15" y="17" fill="#FFF"/><rect width="2" height="1" x="20" y="17" fill="#E6D96A"/><rect width="1" height="1" x="16" y="17" fill="#FFF5A2"/><path fill="#455A64" d="M22.5,19h-8c-0.276,0-0.5-0.224-0.5-0.5v-2c0-0.276,0.224-0.5,0.5-0.5h8c0.276,0,0.5,0.224,0.5,0.5v2
						C23,18.776,22.776,19,22.5,19z M15,18h7v-1h-7V18z"/><g><rect width="8" height="2" x="15.5" y="14.5" fill="#FFF176"/><rect width="1.5" height="1" x="15.5" y="15" fill="#FFF"/><rect width="2" height="1" x="21" y="15" fill="#E6D96A"/><rect width="1" height="1" x="17" y="15" fill="#FFF5A2"/><path fill="#455A64" d="M23.5,17h-8c-0.276,0-0.5-0.224-0.5-0.5s0.224-0.5,0.5-0.5H23v-1h-7.5c-0.276,0-0.5-0.224-0.5-0.5
						s0.224-0.5,0.5-0.5h8c0.276,0,0.5,0.224,0.5,0.5v2C24,16.776,23.776,17,23.5,17z"/></g><g><circle cx="19.5" cy="9.5" r="4" fill="#FFF"/><path fill="#FFF176" d="M20.5,6.5c-2.209,0-4,1.791-4,4c0,0.849,0.269,1.633,0.72,2.281c0.647,0.45,1.432,0.719,2.28,0.719
						c2.209,0,4-1.791,4-4c0-0.849-0.269-1.633-0.72-2.281C22.133,6.769,21.349,6.5,20.5,6.5z"/><path fill="#455A64" d="M19.5,14c-2.481,0-4.5-2.019-4.5-4.5S17.019,5,19.5,5S24,7.019,24,9.5S21.981,14,19.5,14z M19.5,6
										C17.57,6,16,7.57,16,9.5s1.57,3.5,3.5,3.5S23,11.43,23,9.5S21.43,6,19.5,6z"/></g><g><path fill="#FFF" d="M26.378,21.006c-1.321,0.793-2.063,1.691-2.876,2.256l-6.722,1.244c0,0-1.097-2.102-1.501-2.5
									c-0.482-0.475-1.801-1.5-4.501-1.5s-3.2,1-4.2,1h-2v6.5h3.5l8.036,2.432c0.532,0.148,1.37,0.078,1.87-0.154l6.594-3.178
									l4.8-4.6C29.878,22.006,28.878,19.506,26.378,21.006z"/><path fill="#FFE0B2" d="M26.378,21.006c-1.321,0.793-2.063,1.691-2.876,2.256l-6.722,1.244c0,0-0.405-0.774-0.813-1.473
									c-0.078,0.017-0.146,0.014-0.188-0.027c-0.482-0.475-1.801-1.5-4.501-1.5s-3.2,1-4.2,1h-2.5v5.5h3.5l8.036,2.432
									c0.532,0.148,1.37,0.078,1.87-0.154l6.594-3.178l4.8-4.6C29.878,22.006,28.878,19.506,26.378,21.006z"/><path fill="#FFE0B2" d="M14.517,25.501l7.263,0.005c0-0.5,0-3-3.531-3l-3.731-0.005V25.501z"/><rect width="2.016" height="7" x="5" y="21" fill="#FFF"/><rect width="2.5" height="9" x="1.516" y="21" fill="#80D8FF"/><rect width="2.5" height="1" x="1.516" y="21" fill="#FFF"/><rect width="2" height="6" x="5.016" y="22" fill="#ECEFF1"/><rect width="2.5" height="2" x="1.516" y="28" fill="#73C2E6"/><path fill="#455A64" d="M29.537,20.857c-0.29-0.373-1.395-1.493-3.416-0.281c-0.846,0.508-1.455,1.047-1.992,1.523
									c-0.332,0.294-0.619,0.548-0.912,0.752c-0.227,0.157-0.283,0.469-0.125,0.695c0.157,0.229,0.469,0.283,0.695,0.125
									c0.342-0.236,0.663-0.521,1.004-0.824c0.506-0.447,1.078-0.954,1.844-1.414c0.803-0.482,1.473-0.532,1.938-0.146
									c0.381,0.317,0.463,0.797,0.459,0.856l-4.742,4.545l-6.516,3.141c-0.393,0.183-1.105,0.242-1.514,0.129l-8.037-2.432
									c-0.047-0.015-0.096-0.021-0.145-0.021H7.391v1h0.613l7.977,2.414c0.234,0.064,0.508,0.096,0.791,0.096
									c0.503,0,1.035-0.098,1.43-0.283l6.594-3.177c0.048-0.022,0.092-0.053,0.129-0.089l4.808-4.607
									C30.155,22.436,30.068,21.537,29.537,20.857z"/><path fill="#455A64" d="M21.612 22.963C21.014 22.324 20.049 22 18.748 22h-2.84c-.105 0-.201-.275-.279-.352-.623-.614-2.084-1.645-4.851-1.645-.479 0-.93.031-1.339.092-.273.041-.461.296-.421.568.041.273.295.459.568.422.36-.055.761-.082 1.191-.082 2.411 0 3.608.879 4.149 1.357C15.203 22.604 15.361 23 15.816 23h2.932c1.014 0 1.732.217 2.135.647C21.26 24.05 21.311 25 21.303 25h-5.786c-.276 0-.5.225-.5.5 0 .276.224.5.5.5h6.263c.275 0 .5-.225.5-.501l.007-.142C22.316 24.889 22.388 23.791 21.612 22.963zM7.516 29H5v-1h2v-7H4v-1h3.516C7.792 20 8 20.224 8 20.5v8C8 28.776 7.792 29 7.516 29z"/><path fill="#455A64" d="M1.516,31c-0.276,0-0.5-0.224-0.5-0.5l0,0c0-0.276,0.224-0.5,0.5-0.5H4v-9H1.516
									c-0.276,0-0.5-0.224-0.5-0.5l0,0c0-0.276,0.224-0.5,0.5-0.5h3C4.792,20,5,20.224,5,20.5v10C5,30.776,4.792,31,4.516,31
									H1.516z"/></g><g><path fill="#455A64" d="M22.75 4.371c-.085 0-.171-.021-.25-.066-.239-.139-.321-.444-.183-.684l.75-1.299c.138-.24.444-.32.683-.184.239.139.321.444.183.684l-.75 1.299C23.091 4.281 22.922 4.371 22.75 4.371zM25.129 6.75c-.172 0-.341-.09-.433-.25-.139-.239-.057-.545.183-.684l1.299-.75C26.417 4.93 26.723 5.01 26.86 5.25c.139.239.057.545-.183.684l-1.299.75C25.3 6.729 25.214 6.75 25.129 6.75zM12.572 14c-.172 0-.341-.09-.433-.25-.139-.239-.057-.545.183-.684l1.299-.75c.239-.139.546-.057.683.184.139.239.057.545-.183.684l-1.299.75C12.743 13.979 12.657 14 12.572 14zM27.5 10H26c-.276 0-.5-.224-.5-.5S25.724 9 26 9h1.5C27.776 9 28 9.224 28 9.5S27.776 10 27.5 10zM13 10h-1.5C11.224 10 11 9.776 11 9.5S11.224 9 11.5 9H13c.276 0 .5.224.5.5S13.276 10 13 10zM26.428 14c-.085 0-.171-.021-.25-.066l-1.299-.75c-.239-.139-.321-.444-.183-.684.137-.24.443-.32.683-.184l1.299.75c.239.139.321.444.183.684C26.769 13.91 26.6 14 26.428 14zM13.871 6.75c-.085 0-.171-.021-.25-.066l-1.299-.75c-.239-.139-.321-.444-.183-.684.138-.24.445-.319.683-.184l1.299.75c.239.139.321.444.183.684C14.212 6.66 14.043 6.75 13.871 6.75zM16.25 4.371c-.172 0-.341-.09-.433-.25l-.75-1.299c-.139-.24-.057-.545.183-.684.238-.138.545-.057.683.184l.75 1.299c.139.238.057.545-.183.683C16.421 4.35 16.335 4.371 16.25 4.371z"/></g></svg>