<svg xmlns="http://www.w3.org/2000/svg" viewBox="0 0 48 48"><path fill="#CB4343" d="M43.6 27.9l3.9-3.9-3.9-3.9 2.1-5.1-5.1-2.1V7.4h-5.5L33 2.3l-5.1 2.1L24 .5l-3.9 3.9L15 2.3l-2.1 5.1H7.4v5.5L2.3 15l2.1 5.1L.5 24l3.9 3.9L2.3 33l5.1 2.1v5.5h5.5l2.1 5.1 5.1-2.1 3.9 3.9 3.9-3.9 5.1 2.1 2.1-5.1h5.5v-5.5l5.1-2.1z"/><path fill="#FFF" d="M15.8 25.7l1.7-5.6h1.2l1.7 5.6 1.9-5.6h1.4L21 27.8h-1.3l-1.6-5.3H18l-1.6 5.3h-1.3l-2.7-7.7h1.4l2 5.6zM25 20.1h1.3v7.7H25v-7.7zM34.2 20.1h1.3v7.7h-1.4l-4.4-5.6v5.6h-1.3v-7.7h1.3l4.5 5.8v-5.8z"/></svg>