<svg xmlns="http://www.w3.org/2000/svg" xmlns:xlink="http://www.w3.org/1999/xlink" viewBox="0 0 220.56 80.38"><defs><style>.cls-1{fill:#0b0d0b;}.cls-2,.cls-3{font-size:12.38px;font-family:Montserrat-Black, Montserrat;font-weight:800;letter-spacing:0.1em;}.cls-11,.cls-3{fill:#fff;}.cls-4{letter-spacing:0.09em;}.cls-5{letter-spacing:0.1em;}.cls-6{fill:url(#Degradado_sin_nombre_105);}.cls-7{fill:url(#linear-gradient);}.cls-8{fill:#eeeefc;}.cls-9{fill:#15e7d0;}.cls-10{fill:#fe1229;}</style><linearGradient id="Degradado_sin_nombre_105" x1="90.39" y1="23.38" x2="90.39" y2="14.72" gradientUnits="userSpaceOnUse"><stop offset="0" stop-color="#0a0808"/><stop offset="0.04" stop-color="#2c0d0d"/><stop offset="0.11" stop-color="#5d1414"/><stop offset="0.19" stop-color="#881a1a"/><stop offset="0.26" stop-color="#ac1f1f"/><stop offset="0.34" stop-color="#ca2424"/><stop offset="0.43" stop-color="#e12727"/><stop offset="0.52" stop-color="#f12929"/><stop offset="0.62" stop-color="#fb2b2b"/><stop offset="0.75" stop-color="#fe2b2b"/></linearGradient><linearGradient id="linear-gradient" y1="39.71" x2="216.6" y2="39.71" gradientUnits="userSpaceOnUse"><stop offset="0.11" stop-color="#1b1464"/><stop offset="0.33" stop-color="#5214a2"/><stop offset="0.53" stop-color="#7d15d3"/><stop offset="0.68" stop-color="#9715f1"/><stop offset="0.77" stop-color="#a115fc"/></linearGradient></defs><g id="Layer_12" data-name="Layer 12"><polygon class="cls-1" points="215.92 6.07 215.92 53.96 193.91 73.34 0.69 73.34 0.69 6.07 215.92 6.07"/><text class="cls-2" transform="translate(113.22 23.38)">DONOR</text><text class="cls-3" transform="translate(113.22 23.38)">DONOR</text><text class="cls-2" transform="translate(72.31 23.38)">N<tspan class="cls-4" x="11.19" y="0">E</tspan><tspan class="cls-5" x="20.64" y="0">W </tspan></text><path class="cls-6" d="M73,23.38V14.72h2.41L79.82,20H78.71V14.72h2.85v8.66h-2.4l-4.41-5.27h1.11v5.27Z"/><path class="cls-6" d="M87.08,21.18h4.33v2.2h-7.2V14.72h7v2.2H87.08Zm-.2-3.24h3.87V20H86.88Z"/><path class="cls-6" d="M95.85,23.38l-2.78-8.66h3L98.32,22H96.81l2.38-7.31h2.69L104.09,22h-1.45L105,14.72h2.77L105,23.38h-3.14l-1.81-6h.85l-1.91,6Z"/><path class="cls-7" d="M194.17,74H0V5.39H216.6V54.27ZM1.37,72.66H193.65l21.58-19V6.76H1.37Z"/><rect class="cls-8" x="47.9" y="78.85" width="41.19" height="1.37"/><rect class="cls-8" x="43.59" y="78.69" width="1.69" height="1.69"/><rect class="cls-9" x="3.76" width="58.24" height="1.37"/><rect class="cls-10" x="210.85" y="28.36" width="9.71" height="4.11"/><path class="cls-11" d="M196.65,69l-4.18,4.19a.42.42,0,0,1-.6,0L187.68,69a.42.42,0,0,0-.6,0h0a.42.42,0,0,0,0,.6l4.19,4.19a.42.42,0,0,1,0,.6l-4.2,4.2a.42.42,0,0,0,0,.6h0a.42.42,0,0,0,.6,0L191.85,75a.42.42,0,0,1,.6,0l4.2,4.2a.42.42,0,0,0,.6,0h0a.4.4,0,0,0,0-.6l-4.17-4.2a.42.42,0,0,1,0-.6l4.19-4.18a.42.42,0,0,0,0-.6h0A.46.46,0,0,0,196.65,69Z"/><path class="cls-9" d="M49,35.46a1.45,1.45,0,0,0,.39-1.65,1.51,1.51,0,0,0-1.41-1H40.55a1.65,1.65,0,0,1-1.53-1l-4.25-10a1.57,1.57,0,0,0-2.87,0l-4.24,10a1.66,1.66,0,0,1-1.54,1H18.86a1.54,1.54,0,0,0-1.45,1,1.45,1.45,0,0,0,.36,1.66l6.24,6A1.66,1.66,0,0,1,24.49,43l-1.75,8.23a1.49,1.49,0,0,0,.65,1.58,1.57,1.57,0,0,0,1.77,0l7.23-5a1.71,1.71,0,0,1,1.89,0l7.23,5a1.57,1.57,0,0,0,1.77,0,1.48,1.48,0,0,0,.65-1.58,1.67,1.67,0,0,1,3.27-.69,4.89,4.89,0,0,1-7.56,5l-6.3-4.32L27,55.54a5,5,0,0,1-5.5,0,4.83,4.83,0,0,1-2.06-5L21,43.34l0-.13-5.58-5.35a4.86,4.86,0,0,1,3.37-8.36H25l3.81-9a4.9,4.9,0,0,1,9,0l3.82,9H48a4.85,4.85,0,0,1,4.86,4.83,4.9,4.9,0,0,1-1.52,3.56l-6.31,6a1.78,1.78,0,0,1-1.2.46,1.64,1.64,0,0,1-1.17-.53,1.64,1.64,0,0,1,.07-2.35Z"/></g></svg>