<svg xmlns="http://www.w3.org/2000/svg" xmlns:xlink="http://www.w3.org/1999/xlink" viewBox="0 0 185.75 68.14"><defs><style>.cls-1{isolation:isolate;}.cls-10,.cls-11,.cls-12,.cls-13,.cls-14,.cls-15,.cls-16,.cls-19,.cls-2,.cls-20,.cls-3,.cls-4,.cls-5,.cls-6,.cls-7,.cls-8{fill-rule:evenodd;}.cls-2{fill:url(#Áåçûìÿííûé_ãðàäèåíò_252);}.cls-3{fill:url(#Áåçûìÿííûé_ãðàäèåíò_266);}.cls-4{fill:url(#Áåçûìÿííûé_ãðàäèåíò_288);}.cls-15,.cls-5,.cls-6,.cls-7{mix-blend-mode:multiply;}.cls-15,.cls-5,.cls-7{opacity:0.5;}.cls-5{fill:url(#Áåçûìÿííûé_ãðàäèåíò_274);}.cls-6,.cls-7{fill:#864577;}.cls-6{opacity:0.7;}.cls-8{fill:#bbc5e3;}.cls-16,.cls-8{mix-blend-mode:soft-light;}.cls-9{fill:#5c396b;}.cls-10{fill:url(#Áåçûìÿííûé_ãðàäèåíò_266-2);}.cls-11{fill:url(#Áåçûìÿííûé_ãðàäèåíò_266-3);}.cls-12{fill:#361537;}.cls-13{fill:url(#Áåçûìÿííûé_ãðàäèåíò_270);}.cls-14{fill:url(#Áåçûìÿííûé_ãðàäèåíò_270-2);}.cls-15{fill:url(#Áåçûìÿííûé_ãðàäèåíò_149);}.cls-16,.cls-20{fill:#fff;}.cls-17,.cls-18{mix-blend-mode:screen;}.cls-17{fill:url(#Áåçûìÿííûé_ãðàäèåíò_287);}.cls-18{fill:url(#Áåçûìÿííûé_ãðàäèåíò_287-2);}.cls-19{fill:#9d89b8;}</style><linearGradient id="Áåçûìÿííûé_ãðàäèåíò_252" x1="60.98" y1="68.14" x2="60.98" y2="29.37" gradientUnits="userSpaceOnUse"><stop offset="0" stop-color="#9089bf"/><stop offset="1" stop-color="#d1bdf1"/></linearGradient><linearGradient id="Áåçûìÿííûé_ãðàäèåíò_266" x1="98.02" y1="65.53" x2="98.02" gradientUnits="userSpaceOnUse"><stop offset="0" stop-color="#aea9d0"/><stop offset="1" stop-color="#eae1f9"/></linearGradient><linearGradient id="Áåçûìÿííûé_ãðàäèåíò_288" x1="105.16" y1="37.3" x2="105.16" y2="2.16" gradientUnits="userSpaceOnUse"><stop offset="0" stop-color="#6a6fe2"/><stop offset="1" stop-color="#5b2d74"/></linearGradient><linearGradient id="Áåçûìÿííûé_ãðàäèåíò_274" x1="49.59" y1="33.29" x2="146.45" y2="33.29" gradientUnits="userSpaceOnUse"><stop offset="0" stop-color="#8b7cbd"/><stop offset="1" stop-color="#724577"/></linearGradient><linearGradient id="Áåçûìÿííûé_ãðàäèåíò_266-2" x1="0" y1="54.81" x2="67" y2="54.81" xlink:href="#Áåçûìÿííûé_ãðàäèåíò_266"/><linearGradient id="Áåçûìÿííûé_ãðàäèåíò_266-3" x1="142.12" y1="49.99" x2="185.75" y2="49.99" xlink:href="#Áåçûìÿííûé_ãðàäèåíò_266"/><radialGradient id="Áåçûìÿííûé_ãðàäèåíò_270" cx="32.86" cy="49.35" r="7.52" gradientUnits="userSpaceOnUse"><stop offset="0" stop-color="#55dbd6"/><stop offset="1" stop-color="#4aa1ff"/></radialGradient><radialGradient id="Áåçûìÿííûé_ãðàäèåíò_270-2" cx="166.14" cy="48.34" r="6.53" xlink:href="#Áåçûìÿííûé_ãðàäèåíò_270"/><linearGradient id="Áåçûìÿííûé_ãðàäèåíò_149" x1="75.49" y1="18.76" x2="110.38" y2="18.76" gradientUnits="userSpaceOnUse"><stop offset="0" stop-color="#c77cbd"/><stop offset="1" stop-color="#974577"/></linearGradient><radialGradient id="Áåçûìÿííûé_ãðàäèåíò_287" cx="138.48" cy="40" r="11.01" gradientTransform="translate(145.35 -103.98) rotate(76.62)" gradientUnits="userSpaceOnUse"><stop offset="0" stop-color="#0056ff"/><stop offset="1"/></radialGradient><radialGradient id="Áåçûìÿííûé_ãðàäèåíò_287-2" cx="91.12" cy="42.81" r="11.01" gradientTransform="translate(63.62 -54.04) rotate(48.98)" xlink:href="#Áåçûìÿííûé_ãðàäèåíò_287"/></defs><g class="cls-1"><g id="Layer_7" data-name="Layer 7"><path class="cls-2" d="M48,32.76s-9,8.41-14.52,28.13l3.23,7.25H54l34.43-2.61L57.71,29.37Z"/><path class="cls-3" d="M146.45,57.18s-8.13-39.75-37.86-53.85c0,0-15.29-5.61-40.37-2.27A89.23,89.23,0,0,0,49.59,27.34L54,65.53H88.44Z"/><path class="cls-4" d="M134,35.37c-4,2.32-29.76,2.83-40.81,0a10.34,10.34,0,0,1-4.46-2c-4.89-5-15-29.11-13-29.79,6.83-2.33,25.17-1.73,34.63,1.52C121.58,9,138.76,32.61,134,35.37Z"/><path class="cls-5" d="M68.22,1.06S83,18,88.44,56.39l58,.79-58,8.35H54L49.59,27.34S58.55,9.54,68.22,1.06Z"/><polygon class="cls-6" points="88.44 56.39 54.01 65.53 88.44 65.53 146.45 57.18 88.44 56.39"/><path class="cls-7" d="M50.13,32,48,32.76A75.08,75.08,0,0,0,33.52,60.89l3.23,7.25H54l34.43-2.61H54Z"/><polygon class="cls-7" points="48.04 32.76 52.58 65.53 36.75 68.14 54.01 68.14 88.44 65.53 54.01 65.53 50.13 32.03 48.04 32.76"/><path class="cls-7" d="M49.59,27.34s2.66-6.93,11.39-6S74,60.23,74,60.23l-20,5.3Z"/><path class="cls-8" d="M63.6,22.75,74,9.85a95.49,95.49,0,0,1,4.74,9.88L65.52,25.4Z"/><path class="cls-8" d="M67,28.48l13.48-4.3s2.89,7.81,4.3,13.74L70.84,41.49S68.68,32.26,67,28.48Z"/><path class="cls-9" d="M73.9,60.24C73.85,59.93,69.35,29,64,23.38a6.62,6.62,0,0,0-6-2,12.11,12.11,0,0,0-8.28,6l-.14-.08a12.29,12.29,0,0,1,8.4-6.1,6.79,6.79,0,0,1,6.15,2.07c5.43,5.64,9.94,36.64,10,37Z"/><path class="cls-10" d="M67,50.08l-.81-8.59S40.39,41.05.74,62.56L0,65.72l.92,2.42s28-6.59,52.13-9.63Z"/><path class="cls-11" d="M142.12,43.38s25.63,3.27,43.63,9.73L185,56.6c-15.32-1.88-27.79-2.6-39.51-3.14Z"/><path class="cls-7" d="M.74,62.56,2.53,64S40.29,50,67,50.08l-14,8.43s-19,2.22-52.13,9.63L0,65.72Z"/><path class="cls-6" d="M185,56.6s-11.71-2.89-40.61-6.52l1.1,3.38C157.63,54,169.77,54.76,185,56.6Z"/><path class="cls-6" d="M67,50.08,54,65.53,36.75,68.14l-3-6.63L.92,68.14,2.53,64S33.84,52.16,67,50.08Z"/><path class="cls-7" d="M97,55.28s2-5.37,4.73-7.58,30.13-2.89,33.09-2.64,8.63,10.74,8.63,10.74Z"/><path class="cls-12" d="M97,55.28l43.55.52s-4.21-7.35-7.88-8.51-30.8.24-32,1.46S97,55.28,97,55.28Z"/><polygon class="cls-9" points="118.85 46.91 118.74 46.79 120.15 45.33 117.36 37.31 117.51 37.26 120.34 45.38 120.3 45.41 118.85 46.91"/><polygon class="cls-9" points="155.81 54.07 155.8 53.91 166.14 53.06 166.32 47.7 166.48 47.71 166.3 53.21 166.23 53.22 155.81 54.07"/><polygon class="cls-9" points="32.96 55.2 31.32 48.88 31.48 48.84 33.12 55.16 32.96 55.2"/><path class="cls-13" d="M23,52l3.33,1.32L39.06,50l3.66-4.64S30.18,49,23,52Z"/><path class="cls-14" d="M157.26,45.83l2.19,2.92,12.4,2.1,3.17-1S165,47.2,157.26,45.83Z"/><path class="cls-15" d="M110.38,5.09S96.52,14.3,93.22,35.36a10.34,10.34,0,0,1-4.46-2c-4.89-5-15-29.11-13-29.79C82.58,1.24,100.92,1.84,110.38,5.09Z"/><path class="cls-16" d="M100.91,5.12S113,10.36,124.22,23.35l6.07.25s-6.84-12.88-18.44-17.94A26.1,26.1,0,0,0,100.91,5.12Z"/><path class="cls-16" d="M98.83,5.12s9.22,3.05,23.25,18.48l-12.61.58S101.29,9.85,87.71,5.55C87.71,5.55,92.47,5.12,98.83,5.12Z"/><circle class="cls-17" cx="138.48" cy="40" r="11.01" transform="translate(67.53 165.46) rotate(-76.62)"/><circle class="cls-18" cx="91.12" cy="42.81" r="11.01" transform="translate(-0.98 83.47) rotate(-48.98)"/><path class="cls-19" d="M63.51,23.21s5.47,5,8.06,26.58C71.57,49.79,69.42,32,63.51,23.21Z"/><path class="cls-20" d="M85,38.89s10.13,2.17,12,3.87-10.4,3.07-10.4,3.07S85.86,42.36,85,38.89Z"/><path class="cls-20" d="M139.89,38.11s-4.86,2.28-5,3.38,7.28,1.89,7.28,1.89S140.8,40.07,139.89,38.11Z"/></g></g></svg>