<svg xmlns="http://www.w3.org/2000/svg" viewBox="0 0 222.17 80.38"><defs><style>.cls-1{fill:#0b0d0b;}.cls-2,.cls-3,.cls-6{font-size:12.38px;font-family:Montserrat-Black, Montserrat;font-weight:800;letter-spacing:0.1em;}.cls-11,.cls-3{fill:#fff;}.cls-4{letter-spacing:0.09em;}.cls-5{letter-spacing:0.1em;}.cls-6,.cls-9{fill:#15e7d0;}.cls-7{fill:#a115fc;}.cls-8{fill:#eeeefc;}.cls-10{fill:#fe1229;}</style></defs><g id="Layer_12" data-name="Layer 12"><polygon class="cls-1" points="217.53 6.07 217.53 53.96 195.52 73.34 2.29 73.34 2.29 6.07 217.53 6.07"/><text class="cls-2" transform="translate(106.53 23.38)">SUBSCRIBER</text><text class="cls-3" transform="translate(106.53 23.38)">SUBSCRIBER</text><text class="cls-2" transform="translate(65.7 23.38)">N<tspan class="cls-4" x="11.19" y="0">E</tspan><tspan class="cls-5" x="20.64" y="0">W </tspan></text><text class="cls-6" transform="translate(65.7 23.38)">N<tspan class="cls-4" x="11.19" y="0">E</tspan><tspan class="cls-5" x="20.64" y="0">W </tspan></text><path class="cls-7" d="M195.78,74H1.61V5.39h216.6V54.26ZM3,72.66H195.26l21.58-19V6.76H3Z"/><rect class="cls-8" x="4.31" y="78.85" width="41.19" height="1.37"/><rect class="cls-8" y="78.69" width="1.69" height="1.69"/><rect class="cls-9" x="68.38" width="58.24" height="1.37"/><rect class="cls-10" x="212.46" y="28.35" width="9.71" height="4.11"/><path class="cls-11" d="M198.26,69l-4.18,4.19a.42.42,0,0,1-.6,0L189.29,69a.42.42,0,0,0-.6,0h0a.42.42,0,0,0,0,.6l4.19,4.19a.42.42,0,0,1,0,.6l-4.2,4.2a.42.42,0,0,0,0,.6h0a.42.42,0,0,0,.6,0L193.46,75a.42.42,0,0,1,.6,0l4.2,4.2a.42.42,0,0,0,.6,0h0a.42.42,0,0,0,0-.6l-4.17-4.2a.42.42,0,0,1,0-.6l4.19-4.18a.42.42,0,0,0,0-.6h0A.46.46,0,0,0,198.26,69Z"/><path class="cls-9" d="M33.81,18.41A11.18,11.18,0,1,0,45,29.58,11.18,11.18,0,0,0,33.81,18.41Zm0,19a7.81,7.81,0,1,1,7.79-7.81A7.82,7.82,0,0,1,33.81,37.39Z"/><path class="cls-9" d="M50.92,56.47a5.26,5.26,0,0,1-4.16,2.06,1.72,1.72,0,0,1-1.7-1.69,1.69,1.69,0,0,1,1.69-1.68,1.87,1.87,0,0,0,1.48-.74,1.79,1.79,0,0,0,.32-1.58,15.09,15.09,0,0,0-5-7.8,1.69,1.69,0,0,1-.62-1.14,1.76,1.76,0,0,1,.39-1.24,1.69,1.69,0,0,1,2.37-.23A18.47,18.47,0,0,1,51.81,52,5.24,5.24,0,0,1,50.92,56.47Z"/><path class="cls-9" d="M41.29,56.84a1.69,1.69,0,0,1-1.69,1.69H20.87a5.14,5.14,0,0,1-1.4-.19,5.23,5.23,0,0,1-3.64-6.45,18.35,18.35,0,0,1,6.11-9.43l0,0a1.68,1.68,0,0,1,2.35.27,1.65,1.65,0,0,1,.37,1.23,1.71,1.71,0,0,1-.6,1.14,15.11,15.11,0,0,0-5,7.72,1.85,1.85,0,0,0,.32,1.64,1.81,1.81,0,0,0,1.44.74H39.6A1.69,1.69,0,0,1,41.29,56.84Z"/></g></svg>