<svg xmlns="http://www.w3.org/2000/svg" xmlns:xlink="http://www.w3.org/1999/xlink" viewBox="0 0 65.99 65.99"><defs><style>.cls-1{isolation:isolate;}.cls-2,.cls-3,.cls-4,.cls-5,.cls-6,.cls-8{fill-rule:evenodd;}.cls-2{fill:url(#Áåçûìÿííûé_ãðàäèåíò_238);}.cls-3,.cls-5{fill:#7e2654;mix-blend-mode:multiply;}.cls-3{opacity:0.2;}.cls-4{fill:#aba7b5;}.cls-4,.cls-8{mix-blend-mode:soft-light;}.cls-5{opacity:0.4;}.cls-6{fill:#fff;}.cls-7{mix-blend-mode:screen;opacity:0.5;fill:url(#Áåçûìÿííûé_ãðàäèåíò_243);}.cls-8{fill:#e9e8ec;}</style><radialGradient id="Áåçûìÿííûé_ãðàäèåíò_238" cx="29.01" cy="24.06" r="42.65" gradientUnits="userSpaceOnUse"><stop offset="0" stop-color="#6aa2ff"/><stop offset="0.77" stop-color="#5b2d74"/><stop offset="1" stop-color="#9a3989"/></radialGradient><radialGradient id="Áåçûìÿííûé_ãðàäèåíò_243" cx="26.16" cy="46.25" r="18.28" gradientTransform="translate(0 -22.24) scale(1 0.94)" gradientUnits="userSpaceOnUse"><stop offset="0" stop-color="#ff6dff"/><stop offset="1"/></radialGradient></defs><g class="cls-1"><g id="Layer_14" data-name="Layer 14"><path class="cls-2" d="M66,33q0,1.18-.09,2.37a33,33,0,0,1-55,22.13,30,30,0,0,1-2.69-2.72A34.18,34.18,0,0,1,4.68,50c-.52-.88-1-1.79-1.45-2.72-.13-.25-.23-.48-.34-.73A32.56,32.56,0,0,1,1.6,43.19c-.26-.84-.51-1.68-.7-2.55A32.93,32.93,0,0,1,.21,29.28c.1-.9.23-1.78.4-2.66S1,24.89,1.23,24a33,33,0,0,1,50.82-18,32.19,32.19,0,0,1,3.62,3c.24.21.46.44.69.67a32.86,32.86,0,0,1,6.7,9.67A33.23,33.23,0,0,1,65,25h0a34.19,34.19,0,0,1,.79,4.56c.05.46.08.91.1,1.37h0C66,31.66,66,32.33,66,33Z"/><path class="cls-3" d="M66,33q0,1.18-.09,2.37a46.78,46.78,0,0,0-18.54-3,71.06,71.06,0,0,0-22.61,4.9C17.28,40.06,9.9,44,4.68,50c-.52-.88-1-1.79-1.45-2.72.41-.36.81-.69,1.14-1a65.85,65.85,0,0,1,17.09-10.2,82.57,82.57,0,0,1,23.65-6.46A58.05,58.05,0,0,1,65.92,31h0C66,31.66,66,32.33,66,33Z"/><path class="cls-4" d="M65.82,29.61a47,47,0,0,0-18.46-3,71.06,71.06,0,0,0-22.61,4.9c-8.38,3.16-16.66,7.74-21.86,15A32.56,32.56,0,0,1,1.6,43.19a18.82,18.82,0,0,1,2.77-2.63,65.85,65.85,0,0,1,17.09-10.2A82.57,82.57,0,0,1,45.11,23.9,59,59,0,0,1,65,25h0A34.19,34.19,0,0,1,65.82,29.61Z"/><path class="cls-5" d="M61.66,47.35a14.67,14.67,0,0,1-3.3,4.08A84.68,84.68,0,0,1,44.68,62a12.82,12.82,0,0,1-4.49,1.95,12.34,12.34,0,0,1-3.78-.15A71.71,71.71,0,0,1,21.6,59.85a4.41,4.41,0,0,1-2.07-1.31,3.67,3.67,0,0,1-.05-3.47A12.67,12.67,0,0,1,25,49.15a34.39,34.39,0,0,1,7.66-3c7.81-2.29,15.91-4.23,24-3.54-.65,4.18-3.56,7.62-6.63,10.52a28.68,28.68,0,0,1-3.68,3,18.5,18.5,0,0,1-18,1.21c-.26-.13-.55-.29-.62-.57s.31-.8.69-1a66.74,66.74,0,0,1,14.88-6.93,2.4,2.4,0,0,1,1.7-.11c.53.24.79,1.07.31,1.4a14.23,14.23,0,0,0-11,5.33,12.43,12.43,0,0,0,10.82-.84,17.77,17.77,0,0,0,7.29-8.33.56.56,0,0,0,.07-.45c-.07-.18-.3-.23-.49-.25-5.76-.79-11.62,0-17.27,1.36A28.3,28.3,0,0,0,26.49,50a11.65,11.65,0,0,0-5.4,6.76,1.61,1.61,0,0,0-.06.84,1.77,1.77,0,0,0,.81.9c4.08,2.67,9.14,3.22,14,3.71a9,9,0,0,0,2.37,0,8.87,8.87,0,0,0,1.92-.65A70,70,0,0,0,57.05,51.23a15,15,0,0,0,4.29-5A5.88,5.88,0,0,0,60.79,40c-1.48-1.67-4-2-6.21-2A75.84,75.84,0,0,0,41.3,39.14c-3.57.58-7.13,1.29-10.65,2.16a35.47,35.47,0,0,0-8.68,4c-5,3-7.84,7.41-11.07,12.16a30,30,0,0,1-2.69-2.72A54.57,54.57,0,0,1,32.3,40.09a82.16,82.16,0,0,1,29.4-3C62.53,40.46,63.2,44.2,61.66,47.35Z"/><path class="cls-3" d="M63.06,19.38c-10.9-2.32-22.49-1.12-33.23,2.09A62.26,62.26,0,0,0,11.6,29.94a41.17,41.17,0,0,0-9.52,9.34A7.27,7.27,0,0,1,.9,40.64,32.93,32.93,0,0,1,.21,29.28c.3-.45.63-.88,1-1.3C5.3,22.89,11,19.29,17,16.62c12.28-5.52,25.91-7.41,39.4-6.91A32.86,32.86,0,0,1,63.06,19.38Z"/><path class="cls-5" d="M55.67,9a54.75,54.75,0,0,0-30.5.89C15.3,13.15,7.38,19.07.61,26.62c.17-.87.38-1.73.62-2.58,4-5.56,10.52-10.2,16.09-12.92A55.49,55.49,0,0,1,29.43,7a56.79,56.79,0,0,1,22.62-.93A32.19,32.19,0,0,1,55.67,9Z"/><path class="cls-6" d="M23.39,18.85a5.14,5.14,0,0,0-.28,1.28.47.47,0,0,0,.05.31c.08.13.26.15.41.16l1.62.09a1.42,1.42,0,0,0,.46,0,1,1,0,0,0,.51-.34,1.69,1.69,0,0,0-.35-2.47,1.53,1.53,0,0,0-2.19,1Z"/><ellipse class="cls-7" cx="26.16" cy="21.37" rx="18.28" ry="17.24"/><path class="cls-5" d="M31.35,34c9.45-2.64,19.46-4.34,29.06-2.29,2.14.46,4.49,1.29,5.43,3.27-4.81-1.57-9.73-3-14.79-3.22s-10.11.9-15.07,2a59.69,59.69,0,0,0-8.1,2.16c-2.58,1-5,2.24-7.55,3.29a57.49,57.49,0,0,0-6.84,2.94,23.26,23.26,0,0,0-3.66,2.66c-.6.53-2.31,2.69-3,2.48,2-2.84,5.48-5.1,8.42-6.83a57.51,57.51,0,0,1,10.18-4.6C27.37,35.13,29.36,34.52,31.35,34Z"/><path class="cls-8" d="M19.39,32.16a61.91,61.91,0,0,1,9.13-3.66c2.66-.75,5.4-1.15,8.08-1.82,3-.76,5.95-1.88,9-2.37a46,46,0,0,1,6.54-.4l5.92-.08c-7.34-.35-14.78-.68-22,.87-4,.87-7.87,2.31-11.83,3.38a35,35,0,0,0-6.59,2.15,27.58,27.58,0,0,0-5.06,3.61L9.79,36.21C9,36.85,8.05,38,7.14,38.28c1.69-1.37,4.11-2.25,6.07-3.21S17.32,32.68,19.39,32.16Z"/><path class="cls-4" d="M60.15,24.13a6.05,6.05,0,0,1,3.46.73A4.3,4.3,0,0,1,59.94,24Z"/><path class="cls-5" d="M14,27.58a34.3,34.3,0,0,1,5.1-2.08c6.63-2.5,12.61-7.11,19.66-7.74,2.8-.25,5.6.15,8.41.17,4.77,0,9.8-1,14.13,1A34.15,34.15,0,0,0,51.19,18,76.78,76.78,0,0,0,15,28.06c-2.75,1.61-6.73,3.63-8.67,6.17C9.23,32.75,11.05,29.26,14,27.58Z"/><path class="cls-4" d="M6.4,18.69C8.77,17,10,14.12,12.22,12.27A17.13,17.13,0,0,1,17,9.77C19.37,8.86,21.7,8,24.09,7.23A75.79,75.79,0,0,1,33.9,5.11a35.5,35.5,0,0,1,9.8-.6c1.24.15,2.46.41,3.67.67C42.93,4.67,38.44,5.31,34,6a63.62,63.62,0,0,0-7.9,1.5A58.69,58.69,0,0,0,15.31,12c-2.85,1.46-5.79,3-7.68,5.62Z"/><path class="cls-3" d="M23.13,42.77c3.29-1.71,7-2.4,10.57-3.41,2.65-.75,5.25-1.69,7.93-2.34a37,37,0,0,1,17-.08,81.26,81.26,0,0,0-34.47,6.17,34.24,34.24,0,0,0-6,3.14A26.38,26.38,0,0,1,23.13,42.77Z"/></g></g></svg>