<svg xmlns="http://www.w3.org/2000/svg" xmlns:xlink="http://www.w3.org/1999/xlink" viewBox="0 0 242.2 209"><defs><style>.cls-1{mask:url(#mask);filter:url(#luminosity-noclip-2);}.cls-2{mix-blend-mode:multiply;fill:url(#linear-gradient);}.cls-3{fill:none;}.cls-4{isolation:isolate;}.cls-5{fill:#1a1a1a;}.cls-5,.cls-7,.cls-8{opacity:0.3;}.cls-6{fill:#6d0936;}.cls-9{clip-path:url(#clip-path);}.cls-10{fill:#49312c;}.cls-11,.cls-34{mix-blend-mode:screen;}.cls-11{opacity:0.5;fill:url(#Áåçûìÿííûé_ãðàäèåíò_139);}.cls-12{fill:#333;}.cls-13{mask:url(#mask-2);}.cls-14{fill:url(#linear-gradient-2);}.cls-15{fill:url(#linear-gradient-3);}.cls-16{fill:url(#linear-gradient-4);}.cls-17{fill:url(#linear-gradient-5);}.cls-18{fill:url(#linear-gradient-6);}.cls-19{fill:url(#linear-gradient-7);}.cls-20{fill:url(#linear-gradient-8);}.cls-21{fill:url(#linear-gradient-9);}.cls-22{fill:url(#linear-gradient-10);}.cls-23{fill:url(#linear-gradient-11);}.cls-24{fill:url(#linear-gradient-12);}.cls-25{fill:url(#linear-gradient-13);}.cls-26{fill:url(#linear-gradient-14);}.cls-27{fill:url(#linear-gradient-15);}.cls-28{fill:url(#linear-gradient-16);}.cls-29{fill:url(#linear-gradient-17);}.cls-30{fill:url(#linear-gradient-18);}.cls-31{fill:url(#linear-gradient-19);}.cls-32{fill:url(#linear-gradient-20);}.cls-33{fill:#fff;}.cls-34{fill:url(#radial-gradient);}.cls-35{filter:url(#luminosity-noclip);}</style><filter id="luminosity-noclip" x="10.48" y="-7418" width="220.05" height="32766" filterUnits="userSpaceOnUse" color-interpolation-filters="sRGB"><feFlood flood-color="#fff" result="bg"/><feBlend in="SourceGraphic" in2="bg"/></filter><mask id="mask" x="10.48" y="-7418" width="220.05" height="32766" maskUnits="userSpaceOnUse"><g class="cls-35"/></mask><linearGradient id="linear-gradient" x1="10.48" y1="82.14" x2="230.53" y2="82.14" gradientUnits="userSpaceOnUse"><stop offset="0"/><stop offset="0.1" stop-color="#030303"/><stop offset="0.17" stop-color="#0c0c0c"/><stop offset="0.23" stop-color="#1b1b1b"/><stop offset="0.28" stop-color="#303030"/><stop offset="0.32" stop-color="#4b4b4b"/><stop offset="0.37" stop-color="#6d6d6d"/><stop offset="0.41" stop-color="#969696"/><stop offset="0.45" stop-color="#c4c4c4"/><stop offset="0.49" stop-color="#f8f8f8"/><stop offset="0.5" stop-color="#fff"/><stop offset="0.54" stop-color="#ccc"/><stop offset="0.58" stop-color="#9d9d9d"/><stop offset="0.63" stop-color="#737373"/><stop offset="0.68" stop-color="#4f4f4f"/><stop offset="0.73" stop-color="#323232"/><stop offset="0.78" stop-color="#1c1c1c"/><stop offset="0.84" stop-color="#0c0c0c"/><stop offset="0.91" stop-color="#030303"/><stop offset="1"/></linearGradient><clipPath id="clip-path"><polygon class="cls-3" points="233.61 87.4 7.4 87.4 7.4 137.71 34.39 164.71 206.61 164.71 233.61 137.71 233.61 87.4"/></clipPath><radialGradient id="Áåçûìÿííûé_ãðàäèåíò_139" cx="120.5" cy="126.05" r="90.1" gradientUnits="userSpaceOnUse"><stop offset="0" stop-color="#ff0095"/><stop offset="1"/></radialGradient><filter id="luminosity-noclip-2" x="10.48" y="81.23" width="220.05" height="1.81" filterUnits="userSpaceOnUse" color-interpolation-filters="sRGB"><feFlood flood-color="#fff" result="bg"/><feBlend in="SourceGraphic" in2="bg"/></filter><mask id="mask-2" x="10.48" y="81.23" width="220.05" height="1.81" maskUnits="userSpaceOnUse"><g class="cls-1"><rect class="cls-2" x="10.48" y="81.23" width="220.05" height="1.81"/></g></mask><linearGradient id="linear-gradient-2" x1="10.48" y1="82.14" x2="230.53" y2="82.14" gradientUnits="userSpaceOnUse"><stop offset="0" stop-color="#fff"/><stop offset="0.43" stop-color="#fff"/><stop offset="0.5" stop-color="#fff"/><stop offset="0.55" stop-color="#fff"/><stop offset="1" stop-color="#fff"/></linearGradient><linearGradient id="linear-gradient-3" x1="7.4" y1="90.39" x2="7.4" y2="84.4" gradientTransform="translate(63.97 20.37) rotate(45)" gradientUnits="userSpaceOnUse"><stop offset="0" stop-color="#999"/><stop offset="0.35" stop-color="#9b9b9b"/><stop offset="0.53" stop-color="#a3a3a3"/><stop offset="0.67" stop-color="#b0b0b0"/><stop offset="0.78" stop-color="#c3c3c3"/><stop offset="0.89" stop-color="#dbdbdb"/><stop offset="0.98" stop-color="#f9f9f9"/><stop offset="1" stop-color="#fff"/></linearGradient><linearGradient id="linear-gradient-4" x1="7.4" y1="139.43" x2="7.4" y2="133.44" gradientTransform="translate(98.64 34.73) rotate(45)" xlink:href="#linear-gradient-3"/><linearGradient id="linear-gradient-5" x1="34.94" y1="166.97" x2="34.94" y2="160.98" gradientTransform="matrix(1, 0, 0, 1, 0, 0)" xlink:href="#linear-gradient-3"/><linearGradient id="linear-gradient-6" x1="63.95" y1="166.97" x2="63.95" y2="160.98" gradientTransform="matrix(1, 0, 0, 1, 0, 0)" xlink:href="#linear-gradient-3"/><linearGradient id="linear-gradient-7" x1="92.23" y1="166.97" x2="92.23" y2="160.98" gradientTransform="matrix(1, 0, 0, 1, 0, 0)" xlink:href="#linear-gradient-3"/><linearGradient id="linear-gradient-8" x1="148.78" y1="166.97" x2="148.78" y2="160.98" gradientTransform="matrix(1, 0, 0, 1, 0, 0)" xlink:href="#linear-gradient-3"/><linearGradient id="linear-gradient-9" x1="177.06" y1="166.97" x2="177.06" y2="160.98" gradientTransform="matrix(1, 0, 0, 1, 0, 0)" xlink:href="#linear-gradient-3"/><linearGradient id="linear-gradient-10" x1="4621.62" y1="139.43" x2="4621.62" y2="133.44" gradientTransform="matrix(-0.29, -0.96, -0.96, 0.29, 1725.28, 4512.84)" xlink:href="#linear-gradient-3"/><linearGradient id="linear-gradient-11" x1="4649.16" y1="166.97" x2="4649.16" y2="160.98" gradientTransform="matrix(-1, 0, 0, 1, 4855.23, 0)" xlink:href="#linear-gradient-3"/><linearGradient id="linear-gradient-12" x1="120.5" y1="166.97" x2="120.5" y2="160.98" gradientTransform="matrix(1, 0, 0, 1, 0, 0)" xlink:href="#linear-gradient-3"/><linearGradient id="linear-gradient-13" x1="63.95" y1="90.39" x2="63.95" y2="84.4" gradientTransform="translate(134.24 5.01) rotate(76.66)" xlink:href="#linear-gradient-3"/><linearGradient id="linear-gradient-14" x1="177.06" y1="90.39" x2="177.06" y2="84.4" gradientTransform="translate(227.4 -103.53) rotate(78.5)" xlink:href="#linear-gradient-3"/><linearGradient id="linear-gradient-15" x1="205.33" y1="90.39" x2="205.33" y2="84.4" gradientTransform="translate(243 -132.56) rotate(76.66)" xlink:href="#linear-gradient-3"/><linearGradient id="linear-gradient-16" x1="148.78" y1="90.39" x2="148.78" y2="84.4" gradientTransform="translate(118.1 -82.41) rotate(49.33)" xlink:href="#linear-gradient-3"/><linearGradient id="linear-gradient-17" x1="92.23" y1="90.39" x2="92.23" y2="84.4" gradientTransform="translate(40.18 -28.51) rotate(22.36)" xlink:href="#linear-gradient-3"/><linearGradient id="linear-gradient-18" x1="35.67" y1="90.39" x2="35.67" y2="84.4" gradientTransform="translate(112.48 32.52) rotate(76.66)" xlink:href="#linear-gradient-3"/><linearGradient id="linear-gradient-19" x1="233.61" y1="90.39" x2="233.61" y2="84.4" gradientTransform="translate(50.81 -82.3) rotate(22.36)" xlink:href="#linear-gradient-3"/><linearGradient id="linear-gradient-20" x1="120.5" y1="90.39" x2="120.5" y2="84.4" gradientTransform="translate(97.09 -59.61) rotate(45)" xlink:href="#linear-gradient-3"/><radialGradient id="radial-gradient" cx="120.5" cy="104.5" r="104.5" gradientUnits="userSpaceOnUse"><stop offset="0" stop-color="red"/><stop offset="0.55" stop-opacity="0"/></radialGradient></defs><g class="cls-4"><g id="Layer_1" data-name="Layer 1"><text/></g><g id="Layer_3" data-name="Layer 3"><g id="silver_frame_04"><path id="shadow" class="cls-5" d="M206.61,179.61H34.39a6.12,6.12,0,0,1-4.35-1.8l-27-27a6.14,6.14,0,0,1-1.81-4.36V96.14A6.17,6.17,0,0,1,7.4,90H233.61a6.17,6.17,0,0,1,6.17,6.17v50.31a6.14,6.14,0,0,1-1.81,4.36l-27,27A6.13,6.13,0,0,1,206.61,179.61Z"/><g id="button"><polygon class="cls-6" points="233.61 87.4 7.4 87.4 7.4 137.71 34.39 164.71 206.61 164.71 233.61 137.71 233.61 87.4"/><path class="cls-7" d="M222.52,98.49v34.63L202,153.61H39l-20.5-20.49V98.49h204M233.61,87.4H7.4v50.31l27,27H206.61l27-27V87.4Z"/><g class="cls-8"><g class="cls-9"><polygon class="cls-10" points="3.9 98.22 80.26 100.44 3.9 104.26 3.9 98.22"/><polygon class="cls-10" points="42.08 112.21 107.3 108.4 177.3 112.21 106.66 113.49 42.08 112.21"/><polygon class="cls-10" points="28.71 126.05 77.08 126.05 115.57 129.08 77.08 130.99 28.71 126.05"/><polygon class="cls-10" points="112.71 142.12 242.2 142.12 242.2 146.57 141.03 144.35 112.71 142.12"/><path class="cls-10" d="M237.75,121.12c-1,0-83,3.18-83,3.18l83,1.75Z"/><polygon class="cls-10" points="140.71 102.03 183.34 98.85 242.2 102.03 183.34 103.62 140.71 102.03"/><polygon class="cls-10" points="13.44 151.35 95.83 152.62 18.85 156.44 13.44 151.35"/></g></g><path class="cls-11" d="M206.61,170.87H34.39a6.12,6.12,0,0,1-4.35-1.8l-27-27a6.14,6.14,0,0,1-1.81-4.36V87.4A6.17,6.17,0,0,1,7.4,81.23H233.61a6.17,6.17,0,0,1,6.17,6.17v50.31a6.14,6.14,0,0,1-1.81,4.36l-27,27A6.13,6.13,0,0,1,206.61,170.87ZM37,158.55H204.06l23.39-23.39V93.56H13.56v41.6Z"/><path class="cls-12" d="M233.61,81.23a6.17,6.17,0,0,1,6.17,6.17v50.31a6.14,6.14,0,0,1-1.81,4.36l-27,27a6.13,6.13,0,0,1-4.36,1.8H34.39a6.12,6.12,0,0,1-4.35-1.8l-27-27a6.14,6.14,0,0,1-1.81-4.36V87.4A6.17,6.17,0,0,1,7.4,81.23H233.61M37,158.55H204.06l23.39-23.39V93.56H13.56v41.6L37,158.55M233.61,80H7.4A7.41,7.41,0,0,0,0,87.4v50.31a7.32,7.32,0,0,0,2.17,5.23l27,27a7.35,7.35,0,0,0,5.23,2.17H206.61a7.32,7.32,0,0,0,5.23-2.17l27-27a7.32,7.32,0,0,0,2.17-5.23V87.4a7.41,7.41,0,0,0-7.4-7.4ZM14.79,94.79H226.21v39.86l-22.66,22.66H37.46L14.79,134.65V94.79Z"/><g class="cls-13"><rect class="cls-14" x="10.48" y="81.23" width="220.05" height="1.81"/></g><circle class="cls-7" cx="7.4" cy="88.75" r="2.99" transform="translate(-60.59 31.22) rotate(-45)"/><circle class="cls-15" cx="7.4" cy="87.4" r="2.99" transform="translate(-59.63 30.83) rotate(-45)"/><path class="cls-12" d="M7.4,84.4a3,3,0,1,1-3,3,3,3,0,0,1,3-3m0-.61A3.61,3.61,0,1,0,11,87.4,3.61,3.61,0,0,0,7.4,83.79Z"/><circle class="cls-7" cx="7.4" cy="137.79" r="2.99" transform="translate(-95.26 45.59) rotate(-45)"/><circle class="cls-16" cx="7.4" cy="136.43" r="2.99" transform="translate(-94.31 45.19) rotate(-45)"/><path class="cls-12" d="M7.4,133.44a3,3,0,1,1-3,3,3,3,0,0,1,3-3m0-.61a3.61,3.61,0,1,0,3.61,3.6,3.61,3.61,0,0,0-3.61-3.6Z"/><circle class="cls-7" cx="34.94" cy="165.33" r="2.99"/><circle class="cls-17" cx="34.94" cy="163.97" r="2.99"/><path class="cls-12" d="M34.94,161a3,3,0,1,1-3,3,3,3,0,0,1,3-3m0-.61A3.61,3.61,0,1,0,38.55,164a3.61,3.61,0,0,0-3.61-3.61Z"/><circle class="cls-7" cx="63.95" cy="165.33" r="2.99"/><circle class="cls-18" cx="63.95" cy="163.97" r="2.99"/><path class="cls-12" d="M64,161a3,3,0,1,1-3,3,3,3,0,0,1,3-3m0-.61A3.61,3.61,0,1,0,67.56,164,3.61,3.61,0,0,0,64,160.37Z"/><circle class="cls-7" cx="92.23" cy="165.33" r="2.99"/><circle class="cls-19" cx="92.23" cy="163.97" r="2.99"/><path class="cls-12" d="M92.23,161a3,3,0,1,1-3,3,3,3,0,0,1,3-3m0-.61A3.61,3.61,0,1,0,95.84,164a3.61,3.61,0,0,0-3.61-3.61Z"/><circle class="cls-7" cx="148.78" cy="165.33" r="2.99"/><circle class="cls-20" cx="148.78" cy="163.97" r="2.99"/><path class="cls-12" d="M148.78,161a3,3,0,1,1-3,3,3,3,0,0,1,3-3m0-.61a3.61,3.61,0,1,0,3.61,3.61,3.61,3.61,0,0,0-3.61-3.61Z"/><circle class="cls-7" cx="177.06" cy="165.33" r="2.99"/><circle class="cls-21" cx="177.06" cy="163.97" r="2.99"/><path class="cls-12" d="M177.06,161a3,3,0,1,1-3,3,3,3,0,0,1,3-3m0-.61a3.61,3.61,0,1,0,3.61,3.61,3.61,3.61,0,0,0-3.61-3.61Z"/><circle class="cls-7" cx="233.61" cy="137.79" r="2.99" transform="translate(33.13 320.45) rotate(-72.87)"/><circle class="cls-22" cx="233.61" cy="136.43" r="2.99" transform="translate(34.42 319.5) rotate(-72.87)"/><path class="cls-12" d="M233.61,133.44a3,3,0,1,1-3,3,3,3,0,0,1,3-3m0-.61a3.61,3.61,0,1,0,3.61,3.6,3.61,3.61,0,0,0-3.61-3.6Z"/><circle class="cls-7" cx="206.07" cy="165.33" r="2.99"/><circle class="cls-23" cx="206.07" cy="163.97" r="2.99"/><path class="cls-12" d="M206.07,161a3,3,0,1,1-3,3,3,3,0,0,1,3-3m0-.61a3.61,3.61,0,1,0,3.61,3.61,3.61,3.61,0,0,0-3.61-3.61Z"/><circle class="cls-7" cx="120.5" cy="165.33" r="2.99"/><circle class="cls-24" cx="120.5" cy="163.97" r="2.99"/><path class="cls-12" d="M120.5,161a3,3,0,1,1-3,3,3,3,0,0,1,3-3m0-.61a3.61,3.61,0,1,0,3.61,3.61,3.61,3.61,0,0,0-3.61-3.61Z"/><circle class="cls-7" cx="63.95" cy="88.75" r="2.99" transform="translate(-37.16 130.5) rotate(-76.66)"/><circle class="cls-25" cx="63.95" cy="87.4" r="2.99" transform="translate(-35.84 129.46) rotate(-76.66)"/><path class="cls-12" d="M64,84.4a3,3,0,1,1-3,3,3,3,0,0,1,3-3m0-.61a3.61,3.61,0,1,0,3.61,3.61A3.61,3.61,0,0,0,64,83.79Z"/><circle class="cls-7" cx="177.06" cy="88.75" r="2.99" transform="translate(54.79 244.56) rotate(-78.5)"/><circle class="cls-26" cx="177.06" cy="87.4" r="2.99" transform="translate(56.11 243.48) rotate(-78.5)"/><path class="cls-12" d="M177.06,84.4a3,3,0,1,1-3,3,3,3,0,0,1,3-3m0-.61a3.61,3.61,0,1,0,3.61,3.61,3.61,3.61,0,0,0-3.61-3.61Z"/><circle class="cls-7" cx="205.33" cy="88.75" r="2.99" transform="translate(71.61 268.07) rotate(-76.66)"/><circle class="cls-27" cx="205.33" cy="87.4" r="2.99" transform="translate(72.92 267.03) rotate(-76.66)"/><path class="cls-12" d="M205.33,84.4a3,3,0,1,1-3,3,3,3,0,0,1,3-3m0-.61a3.61,3.61,0,1,0,3.61,3.61,3.61,3.61,0,0,0-3.61-3.61Z"/><circle class="cls-7" cx="148.78" cy="88.75" r="2.99" transform="matrix(0.65, -0.76, 0.76, 0.65, -15.5, 143.75)"/><circle class="cls-28" cx="148.78" cy="87.4" r="2.99" transform="translate(-14.47 143.28) rotate(-49.33)"/><path class="cls-12" d="M148.78,84.4a3,3,0,1,1-3,3,3,3,0,0,1,3-3m0-.61a3.61,3.61,0,1,0,3.61,3.61,3.61,3.61,0,0,0-3.61-3.61Z"/><circle class="cls-7" cx="92.23" cy="88.75" r="2.99" transform="translate(-26.83 41.76) rotate(-22.36)"/><circle class="cls-29" cx="92.23" cy="87.4" r="2.99" transform="translate(-26.31 41.66) rotate(-22.36)"/><path class="cls-12" d="M92.23,84.4a3,3,0,1,1-3,3,3,3,0,0,1,3-3m0-.61a3.61,3.61,0,1,0,3.61,3.61,3.61,3.61,0,0,0-3.61-3.61Z"/><circle class="cls-7" cx="35.67" cy="88.75" r="2.99" transform="translate(-58.91 102.99) rotate(-76.66)"/><circle class="cls-30" cx="35.67" cy="87.4" r="2.99" transform="translate(-57.6 101.94) rotate(-76.66)"/><path class="cls-12" d="M35.67,84.4a3,3,0,1,1-3,3,3,3,0,0,1,3-3m0-.61a3.61,3.61,0,1,0,3.61,3.61,3.61,3.61,0,0,0-3.61-3.61Z"/><circle class="cls-7" cx="233.61" cy="88.75" r="2.99" transform="translate(-16.2 95.55) rotate(-22.36)"/><circle class="cls-31" cx="233.61" cy="87.4" r="2.99" transform="translate(-15.68 95.44) rotate(-22.36)"/><path class="cls-12" d="M233.61,84.4a3,3,0,1,1-3,3,3,3,0,0,1,3-3m0-.61a3.61,3.61,0,1,0,3.61,3.61,3.61,3.61,0,0,0-3.61-3.61Z"/><circle class="cls-7" cx="120.5" cy="88.75" r="2.99" transform="translate(-27.46 111.2) rotate(-45)"/><circle class="cls-32" cx="120.5" cy="87.4" r="2.99" transform="translate(-26.5 110.81) rotate(-45)"/><path class="cls-12" d="M120.5,84.4a3,3,0,1,1-3,3,3,3,0,0,1,3-3m0-.61a3.61,3.61,0,1,0,3.61,3.61,3.61,3.61,0,0,0-3.61-3.61Z"/></g><path d="M79.15,129.86a1.92,1.92,0,0,1,.08-.55,1.27,1.27,0,0,0,0-.63,23.23,23.23,0,0,1,1.93-3.35,12.79,12.79,0,0,1,2.58-2.72,1.86,1.86,0,0,0,.4-.39l.3-.4a1.82,1.82,0,0,1,.34-.34,1.16,1.16,0,0,1,.49-.21,8.9,8.9,0,0,1,1.64-1.45c.64-.43,1.31-.85,2-1.25L91,117.33a12.44,12.44,0,0,0,1.9-1.36.54.54,0,0,0,.48.12.58.58,0,0,1,.37,0,1.48,1.48,0,0,0,.64.72c.27.14.54.28.82.41a5,5,0,0,1,.8.49,2,2,0,0,1,.56.78c-.13,0-.19,0-.18.14a1.28,1.28,0,0,0,.07.3,1.17,1.17,0,0,1,.05.3c0,.09-.08.14-.24.14a.17.17,0,0,0,.19.19.17.17,0,0,1,.19.19.4.4,0,0,1-.07.26.38.38,0,0,0,0,.32,12.62,12.62,0,0,1-1.47.83l-1.69.83c-.59.3-1.2.61-1.81,1a16.75,16.75,0,0,0-1.82,1.16c-.6.44-1.2.92-1.81,1.45s-1.2,1.09-1.77,1.68-1.09,1.2-1.58,1.83a15.59,15.59,0,0,0-1.26,1.85,1,1,0,0,0,.15.24,1.28,1.28,0,0,1,.15.25,15.59,15.59,0,0,0,1.94,0,6.16,6.16,0,0,1,1.81.12.38.38,0,0,0,.13-.22.27.27,0,0,1,.17-.19,22.33,22.33,0,0,0,3.47-.62l3.28-.86c-.33-.12-.62-.23-.87-.3s-.11-.2,0-.29a1.22,1.22,0,0,0,.29-.26,2.08,2.08,0,0,1-.73-.65,2.22,2.22,0,0,1-.34-1.07.47.47,0,0,0,.19-.38.42.42,0,0,0-.19-.36c-.09,0-.15,0-.16,0a.3.3,0,0,0,0,.11.24.24,0,0,1-.06.11s-.08,0-.15,0a1.13,1.13,0,0,1,.14-.49,1.77,1.77,0,0,0,.16-.46L95,124.06a8.41,8.41,0,0,0,.88.58c.34.2.71.4,1.09.6l1.17.61c.41.21.78.42,1.13.62a3.08,3.08,0,0,1,.84.53q.36.31.69.66l.65.67a2.68,2.68,0,0,0,.8.54,1.43,1.43,0,0,0,0,.71,1.41,1.41,0,0,1,.06.66,5.8,5.8,0,0,1-1.26,1.57,8,8,0,0,1-1.66,1.11,12,12,0,0,1-2,.78c-.69.21-1.41.41-2.13.6l-2.21.6c-.73.21-1.46.45-2.17.73-.31,0-.57,0-.79,0a4.17,4.17,0,0,0-.63.08l-.6.11-.66.08c-.09,0-.15,0-.18,0a.32.32,0,0,1-.12.14,7.29,7.29,0,0,1-1,.08h-.74a3.27,3.27,0,0,0-.8.11,2.27,2.27,0,0,1-.76.08,5.09,5.09,0,0,1-3.86-1.75,7.27,7.27,0,0,1-1.53-4.51c0-.09,0-.15,0-.18A.34.34,0,0,1,79.15,129.86Z"/><path d="M102,134c-.09,0-.17-.05-.25-.21a4.92,4.92,0,0,0-.24-.45h.3a2.28,2.28,0,0,1-.1-1.11c.07-.33.14-.66.24-1s.16-.63.23-.93a1.63,1.63,0,0,0-.1-.94.13.13,0,0,0,.21-.07,2.21,2.21,0,0,0,.11-.38,2.72,2.72,0,0,0,0-.5,3.75,3.75,0,0,0,0-.42,9.9,9.9,0,0,0,.56-1.75c.14-.6.26-1.2.37-1.79s.24-1.17.37-1.72a9.79,9.79,0,0,1,.54-1.58,1.75,1.75,0,0,1,.8.1,1,1,0,0,1,.56.37A7.38,7.38,0,0,0,107.1,120c.43-.62.88-1.22,1.32-1.82a9,9,0,0,1,1.52-1.57,4,4,0,0,1,2.11-.82c.43.31.93.64,1.47,1a4.36,4.36,0,0,1,1.34,1.33l.43.28a4.43,4.43,0,0,0,.42.29v.41a3.47,3.47,0,0,1,.64.83,9.56,9.56,0,0,1,.47,1c.13.35.27.71.39,1.08a8.53,8.53,0,0,0,.44,1,.59.59,0,0,0,0,.28,1.84,1.84,0,0,0,0,.25,1.76,1.76,0,0,1,.07.27,2,2,0,0,1,0,.37,3.71,3.71,0,0,1-.94,2.34,6.57,6.57,0,0,1-2,1.45,18.44,18.44,0,0,1-2.53,1,22,22,0,0,0-2.43.86c0,.07,0,.11.12.11s.11.05.07.16c.55.33,1,.59,1.27.79a8.29,8.29,0,0,0,.85.51,4.6,4.6,0,0,0,.88.34c.31.09.76.2,1.32.33s1,.23,1.33.32l.86.19.82.12,1.18.14a2.43,2.43,0,0,1,.49.71,3.15,3.15,0,0,1,.27.82,2.3,2.3,0,0,1,0,.78,1,1,0,0,1-.23.58.12.12,0,0,0,.15.1,1.15,1.15,0,0,1,.26,0,1.72,1.72,0,0,0-.33.33l-.27.38a2.17,2.17,0,0,1-.32.36.72.72,0,0,1-.45.19,4.21,4.21,0,0,1-2.51,0,32.5,32.5,0,0,1-3.91-1.26c-.79-.29-1.42-.55-1.92-.79a13.2,13.2,0,0,1-1.28-.7,7.73,7.73,0,0,1-1-.74c-.31-.26-.67-.58-1.07-.94a.14.14,0,0,0-.1.11.14.14,0,0,1-.09.11,6.53,6.53,0,0,1-.43,1.78,6.45,6.45,0,0,1-.83,1.39c-.29-.05-.49,0-.59.08a1.61,1.61,0,0,1-.37.3.68.68,0,0,1-.41,0l-.24-.15-.25-.17a.79.79,0,0,0-.44,0c0-.16-.11-.32-.16-.48s-.2-.22-.44-.2a.87.87,0,0,0,.06-.43,1.78,1.78,0,0,0-.09-.33l-.09-.31A.65.65,0,0,1,102,134Zm9.13-12.5a5.54,5.54,0,0,1-.79.94c-.29.29-.58.58-.86.88a6.52,6.52,0,0,0-.75,1,3.66,3.66,0,0,0-.47,1.28,9.75,9.75,0,0,0,2.41-.65c.84-.33,1.63-.66,2.38-1a2.88,2.88,0,0,0-.71-1.62A3.17,3.17,0,0,0,111.14,121.49Z"/><path d="M118.64,133.74l.35-.27,0-.58c.45-1.11.92-2.17,1.41-3.2s1-2.06,1.51-3.14l.51-1c.17-.34.34-.7.51-1.07a.85.85,0,0,1,0-.23,1.18,1.18,0,0,1,0-.29,9.48,9.48,0,0,0,.62-1q.23-.43.45-.9c.16-.37.34-.73.53-1.1a5.91,5.91,0,0,1,.73-1.06l.19-.28.3,0a1.57,1.57,0,0,1,.23-.09,1,1,0,0,1,.32,0l.49.08a5,5,0,0,0,1.6-1.19,16.7,16.7,0,0,0,1.41-1.88l.32-.46.44.27a1.83,1.83,0,0,0,.44.17c.2.05.41.12.63.19.38.09.75.2,1.12.31a2.16,2.16,0,0,1,.85.48l.13.25c0,.2.07.38.1.54s.06.33.1.5c.07.38.13.76.19,1.13s.09.79.11,1.25.17.73.26,1.1.15.75.23,1.11c.09.53.19,1,.3,1.52a7.93,7.93,0,0,0,.44,1.38.9.9,0,0,1,.32,0,2.49,2.49,0,0,1,.77-.17l.36,0,.1.33a2.09,2.09,0,0,0,.14.17l.19.16a1.29,1.29,0,0,1,.65.18,3.62,3.62,0,0,1,.34.29l.13.12a.4.4,0,0,0,.14.09l.49.2-.27.52a4.17,4.17,0,0,1-.92,1.12,5.86,5.86,0,0,1-1.38.9,1.8,1.8,0,0,1,.07.35,2.32,2.32,0,0,0,.07.39c.07.36.13.74.18,1.13a5,5,0,0,1,0,1.22,6.28,6.28,0,0,1-.64,1.27,5.59,5.59,0,0,1-.87,1,4.56,4.56,0,0,1-1.14.74,3.35,3.35,0,0,1-1.31.31,1.56,1.56,0,0,1-.56-.19,2,2,0,0,1-.32-.22,1.59,1.59,0,0,0-.35-.21l-.36-.17.11-.41a.42.42,0,0,0,0-.38,2.34,2.34,0,0,0-.4-.44,1.07,1.07,0,0,1-.19-.18l-.19-.2-.55-.63.9-.25a2,2,0,0,0,1.1-.56,1.85,1.85,0,0,0,.22-1.21,2.71,2.71,0,0,0-1.12,0l-.88.2c-.42.11-.83.21-1.23.29a6.71,6.71,0,0,1-1.31.12,7.06,7.06,0,0,1-1-.08l-.3,0-.08-.3a.15.15,0,0,0-.07-.12l-.12-.13c-.09-.11-.2-.25-.33-.43a.8.8,0,0,1-.08-.69,1.36,1.36,0,0,1-.22-.63c-.07.15-.13.29-.18.43l-.12.39-.11.36-.36,0a.87.87,0,0,0-.09.17.18.18,0,0,0,0,.16l.1.3-.27.25a.62.62,0,0,1-.14.14.47.47,0,0,0-.13.11,4.74,4.74,0,0,1-.15.57c-.07.18-.13.37-.21.55s-.18.57-.26.84a3,3,0,0,0-.12.82l-.11.36a.83.83,0,0,1-.34.33c-.14.07-.27.14-.4.19a1.15,1.15,0,0,0-.38.22l-.08.35-.41.06-.51.11a1.72,1.72,0,0,1-.34,0l-.36,0c-.21-.22-.39-.39-.53-.51a2.33,2.33,0,0,0-.48-.31l-.16-.22a1.28,1.28,0,0,1-.14-.4,2.74,2.74,0,0,0-.08-.37,1.21,1.21,0,0,0-.16-.49Zm8.72-7.11c-.26.37-.5.75-.74,1.15l.37,0,.37,0c.64,0,1.23-.09,1.78-.14s1.13-.15,1.77-.27q-.21-1-.48-2.07c-.17-.7-.36-1.41-.56-2.12l-.13.28a18.71,18.71,0,0,0-1.32,1.58,12.93,12.93,0,0,0-1,1.61Z"/><path d="M140.73,123.13a5,5,0,0,1-1.9-1.31,6.91,6.91,0,0,1-1.22-2,2.94,2.94,0,0,1,.88-1.24,6.21,6.21,0,0,1,1.35-.86,8.92,8.92,0,0,1,1.6-.58c.56-.14,1.11-.27,1.64-.38.11,0,.16,0,.16,0s0,0,.14.06c.66-.2,1.41-.4,2.27-.59a10.2,10.2,0,0,1,2.74-.21,1,1,0,0,1,.46-.12h.57l.58,0a1.44,1.44,0,0,0,.46-.09.81.81,0,0,0,.5.23,1.57,1.57,0,0,1,.68.29c.07,0,.07,0,0-.1s-.06-.14,0-.18a1.24,1.24,0,0,1,.63.17,3.08,3.08,0,0,1,.5.37c.16.13.3.26.44.36a.72.72,0,0,0,.45.17,3.16,3.16,0,0,0,.59.56c.23.17.44.35.65.53a2.87,2.87,0,0,1,.52.6,1.36,1.36,0,0,1,.21.74c0,.11,0,.18.11.19a.27.27,0,0,1,.19.17,4,4,0,0,1-.31,1.75,6,6,0,0,1-.87,1.35,12.06,12.06,0,0,1-1.1,1.16,9.21,9.21,0,0,0-1.08,1.18,4.83,4.83,0,0,0,.75.75c.28.23.57.45.86.67a9.3,9.3,0,0,1,.83.7,3.35,3.35,0,0,1,.67.83.47.47,0,0,0,.36.22,3.8,3.8,0,0,0,.23.67l.29.66a2,2,0,0,1,.16.56.47.47,0,0,1-.13.41.42.42,0,0,1,.21.34,1.13,1.13,0,0,1,0,.37c-.4.49-.67.84-.82,1l-.32.44-.22.24-.49.44a27.11,27.11,0,0,1-3,1.57,12,12,0,0,1-3.26.94,1.07,1.07,0,0,1-.4.32,2.91,2.91,0,0,1-.59.2,6.66,6.66,0,0,1-.7.14l-.67.11a.23.23,0,0,1-.15-.18.23.23,0,0,0-.15-.18c0,.22-.11.34-.28.35a1.77,1.77,0,0,1-.65-.13,4.71,4.71,0,0,1-.79-.38c-.27-.16-.51-.32-.71-.46a5,5,0,0,1-.34.52,1.24,1.24,0,0,1-.43.38l-.56-.08a.38.38,0,0,0-.34.13,1.27,1.27,0,0,1-.33-.23l-.21-.25a1.64,1.64,0,0,0-.25-.21,1.22,1.22,0,0,0-.41-.18.58.58,0,0,0-.08-.43.57.57,0,0,0-.39-.34c.09-.14.06-.33-.11-.56a2.83,2.83,0,0,1-.38-.78c0-.12,0-.26,0-.39a2.28,2.28,0,0,1,.06-.39,1.43,1.43,0,0,1,.12-.31.45.45,0,0,1,.27-.19,1.58,1.58,0,0,0-.21-.69.85.85,0,0,0,.32-.47c.06-.2.11-.39.15-.59a5.76,5.76,0,0,1,.18-.59,1.06,1.06,0,0,1,.36-.48l-.11-.14a.24.24,0,0,1-.06-.19,5.91,5.91,0,0,0,.58-1.16,9.38,9.38,0,0,0,.26-.93c.06-.3.13-.62.2-1a7.41,7.41,0,0,1,.44-1.31,2.24,2.24,0,0,1,.11-.88c.09-.25.19-.5.29-.75a4.71,4.71,0,0,0,.23-.78,2.64,2.64,0,0,0,0-1,1,1,0,0,0-.67.33,1.55,1.55,0,0,0-.26.74.83.83,0,0,1-.63.21A1.84,1.84,0,0,0,140.73,123.13Zm10.12-3.28a13.81,13.81,0,0,0-3.34.3,9.19,9.19,0,0,0-2.76,1,8.76,8.76,0,0,0,1.13.82,2.35,2.35,0,0,1,.89,1,8.61,8.61,0,0,0,2.3-1.33A12,12,0,0,0,150.85,119.85Zm1.91,8.56a5.41,5.41,0,0,0-1.9-.68,5.62,5.62,0,0,0-1.64,0,11.19,11.19,0,0,0-1.49.34,9.38,9.38,0,0,1-1.42.33c-.24.62-.49,1.3-.74,2.05s-.5,1.48-.74,2.19a10.25,10.25,0,0,0,1.81-.41,16.71,16.71,0,0,0,1.58-.62l1.51-.68c.49-.23,1-.44,1.53-.64a.83.83,0,0,1,.35-.52l.55-.37a2,2,0,0,0,.46-.4A.69.69,0,0,0,152.76,128.41Z"/><path class="cls-33" d="M79.15,129.86a1.92,1.92,0,0,1,.08-.55,1.27,1.27,0,0,0,0-.63,23.23,23.23,0,0,1,1.93-3.35,12.79,12.79,0,0,1,2.58-2.72,1.86,1.86,0,0,0,.4-.39l.3-.4a1.82,1.82,0,0,1,.34-.34,1.16,1.16,0,0,1,.49-.21,8.9,8.9,0,0,1,1.64-1.45c.64-.43,1.31-.85,2-1.25L91,117.33a12.44,12.44,0,0,0,1.9-1.36.54.54,0,0,0,.48.12.58.58,0,0,1,.37,0,1.48,1.48,0,0,0,.64.72c.27.14.54.28.82.41a5,5,0,0,1,.8.49,2,2,0,0,1,.56.78c-.13,0-.19,0-.18.14a1.28,1.28,0,0,0,.07.3,1.17,1.17,0,0,1,.05.3c0,.09-.08.14-.24.14a.17.17,0,0,0,.19.19.17.17,0,0,1,.19.19.4.4,0,0,1-.07.26.38.38,0,0,0,0,.32,12.62,12.62,0,0,1-1.47.83l-1.69.83c-.59.3-1.2.61-1.81,1a16.75,16.75,0,0,0-1.82,1.16c-.6.44-1.2.92-1.81,1.45s-1.2,1.09-1.77,1.68-1.09,1.2-1.58,1.83a15.59,15.59,0,0,0-1.26,1.85,1,1,0,0,0,.15.24,1.28,1.28,0,0,1,.15.25,15.59,15.59,0,0,0,1.94,0,6.16,6.16,0,0,1,1.81.12.38.38,0,0,0,.13-.22.27.27,0,0,1,.17-.19,22.33,22.33,0,0,0,3.47-.62l3.28-.86c-.33-.12-.62-.23-.87-.3s-.11-.2,0-.29a1.22,1.22,0,0,0,.29-.26,2.08,2.08,0,0,1-.73-.65,2.22,2.22,0,0,1-.34-1.07.47.47,0,0,0,.19-.38.42.42,0,0,0-.19-.36c-.09,0-.15,0-.16,0a.3.3,0,0,0,0,.11.24.24,0,0,1-.06.11s-.08,0-.15,0a1.13,1.13,0,0,1,.14-.49,1.77,1.77,0,0,0,.16-.46L95,124.06a8.41,8.41,0,0,0,.88.58c.34.2.71.4,1.09.6l1.17.61c.41.21.78.42,1.13.62a3.08,3.08,0,0,1,.84.53q.36.31.69.66l.65.67a2.68,2.68,0,0,0,.8.54,1.43,1.43,0,0,0,0,.71,1.41,1.41,0,0,1,.06.66,5.8,5.8,0,0,1-1.26,1.57,8,8,0,0,1-1.66,1.11,12,12,0,0,1-2,.78c-.69.21-1.41.41-2.13.6l-2.21.6c-.73.21-1.46.45-2.17.73-.31,0-.57,0-.79,0a4.17,4.17,0,0,0-.63.08l-.6.11-.66.08c-.09,0-.15,0-.18,0a.32.32,0,0,1-.12.14,7.29,7.29,0,0,1-1,.08h-.74a3.27,3.27,0,0,0-.8.11,2.27,2.27,0,0,1-.76.08,5.09,5.09,0,0,1-3.86-1.75,7.27,7.27,0,0,1-1.53-4.51c0-.09,0-.15,0-.18A.34.34,0,0,1,79.15,129.86Z"/><path class="cls-33" d="M102,134c-.09,0-.17-.05-.25-.21a4.92,4.92,0,0,0-.24-.45h.3a2.28,2.28,0,0,1-.1-1.11c.07-.33.14-.66.24-1s.16-.63.23-.93a1.63,1.63,0,0,0-.1-.94.13.13,0,0,0,.21-.07,2.21,2.21,0,0,0,.11-.38,2.72,2.72,0,0,0,0-.5,3.75,3.75,0,0,0,0-.42,9.9,9.9,0,0,0,.56-1.75c.14-.6.26-1.2.37-1.79s.24-1.17.37-1.72a9.79,9.79,0,0,1,.54-1.58,1.75,1.75,0,0,1,.8.1,1,1,0,0,1,.56.37A7.38,7.38,0,0,0,107.1,120c.43-.62.88-1.22,1.32-1.82a9,9,0,0,1,1.52-1.57,4,4,0,0,1,2.11-.82c.43.31.93.64,1.47,1a4.36,4.36,0,0,1,1.34,1.33l.43.28a4.43,4.43,0,0,0,.42.29v.41a3.47,3.47,0,0,1,.64.83,9.56,9.56,0,0,1,.47,1c.13.35.27.71.39,1.08a8.53,8.53,0,0,0,.44,1,.59.59,0,0,0,0,.28,1.84,1.84,0,0,0,0,.25,1.76,1.76,0,0,1,.07.27,2,2,0,0,1,0,.37,3.71,3.71,0,0,1-.94,2.34,6.57,6.57,0,0,1-2,1.45,18.44,18.44,0,0,1-2.53,1,22,22,0,0,0-2.43.86c0,.07,0,.11.12.11s.11.05.07.16c.55.33,1,.59,1.27.79a8.29,8.29,0,0,0,.85.51,4.6,4.6,0,0,0,.88.34c.31.09.76.2,1.32.33s1,.23,1.33.32l.86.19.82.12,1.18.14a2.43,2.43,0,0,1,.49.71,3.15,3.15,0,0,1,.27.82,2.3,2.3,0,0,1,0,.78,1,1,0,0,1-.23.58.12.12,0,0,0,.15.1,1.15,1.15,0,0,1,.26,0,1.72,1.72,0,0,0-.33.33l-.27.38a2.17,2.17,0,0,1-.32.36.72.72,0,0,1-.45.19,4.21,4.21,0,0,1-2.51,0,32.5,32.5,0,0,1-3.91-1.26c-.79-.29-1.42-.55-1.92-.79a13.2,13.2,0,0,1-1.28-.7,7.73,7.73,0,0,1-1-.74c-.31-.26-.67-.58-1.07-.94a.14.14,0,0,0-.1.11.14.14,0,0,1-.09.11,6.53,6.53,0,0,1-.43,1.78,6.45,6.45,0,0,1-.83,1.39c-.29-.05-.49,0-.59.08a1.61,1.61,0,0,1-.37.3.68.68,0,0,1-.41,0l-.24-.15-.25-.17a.79.79,0,0,0-.44,0c0-.16-.11-.32-.16-.48s-.2-.22-.44-.2a.87.87,0,0,0,.06-.43,1.78,1.78,0,0,0-.09-.33l-.09-.31A.65.65,0,0,1,102,134Zm9.13-12.5a5.54,5.54,0,0,1-.79.94c-.29.29-.58.58-.86.88a6.52,6.52,0,0,0-.75,1,3.66,3.66,0,0,0-.47,1.28,9.75,9.75,0,0,0,2.41-.65c.84-.33,1.63-.66,2.38-1a2.88,2.88,0,0,0-.71-1.62A3.17,3.17,0,0,0,111.14,121.49Z"/><path class="cls-33" d="M118.64,133.74l.35-.27,0-.58c.45-1.11.92-2.17,1.41-3.2s1-2.06,1.51-3.14l.51-1c.17-.34.34-.7.51-1.07a.85.85,0,0,1,0-.23,1.18,1.18,0,0,1,0-.29,9.48,9.48,0,0,0,.62-1q.23-.43.45-.9c.16-.37.34-.73.53-1.1a5.91,5.91,0,0,1,.73-1.06l.19-.28.3,0a1.57,1.57,0,0,1,.23-.09,1,1,0,0,1,.32,0l.49.08a5,5,0,0,0,1.6-1.19,16.7,16.7,0,0,0,1.41-1.88l.32-.46.44.27a1.83,1.83,0,0,0,.44.17c.2.05.41.12.63.19.38.09.75.2,1.12.31a2.16,2.16,0,0,1,.85.48l.13.25c0,.2.07.38.1.54s.06.33.1.5c.07.38.13.76.19,1.13s.09.79.11,1.25.17.73.26,1.1.15.75.23,1.11c.09.53.19,1,.3,1.52a7.93,7.93,0,0,0,.44,1.38.9.9,0,0,1,.32,0,2.49,2.49,0,0,1,.77-.17l.36,0,.1.33a2.09,2.09,0,0,0,.14.17l.19.16a1.29,1.29,0,0,1,.65.18,3.62,3.62,0,0,1,.34.29l.13.12a.4.4,0,0,0,.14.09l.49.2-.27.52a4.17,4.17,0,0,1-.92,1.12,5.86,5.86,0,0,1-1.38.9,1.8,1.8,0,0,1,.07.35,2.32,2.32,0,0,0,.07.39c.07.36.13.74.18,1.13a5,5,0,0,1,0,1.22,6.28,6.28,0,0,1-.64,1.27,5.59,5.59,0,0,1-.87,1,4.56,4.56,0,0,1-1.14.74,3.35,3.35,0,0,1-1.31.31,1.56,1.56,0,0,1-.56-.19,2,2,0,0,1-.32-.22,1.59,1.59,0,0,0-.35-.21l-.36-.17.11-.41a.42.42,0,0,0,0-.38,2.34,2.34,0,0,0-.4-.44,1.07,1.07,0,0,1-.19-.18l-.19-.2-.55-.63.9-.25a2,2,0,0,0,1.1-.56,1.85,1.85,0,0,0,.22-1.21,2.71,2.71,0,0,0-1.12,0l-.88.2c-.42.11-.83.21-1.23.29a6.71,6.71,0,0,1-1.31.12,7.06,7.06,0,0,1-1-.08l-.3,0-.08-.3a.15.15,0,0,0-.07-.12l-.12-.13c-.09-.11-.2-.25-.33-.43a.8.8,0,0,1-.08-.69,1.36,1.36,0,0,1-.22-.63c-.07.15-.13.29-.18.43l-.12.39-.11.36-.36,0a.87.87,0,0,0-.09.17.18.18,0,0,0,0,.16l.1.3-.27.25a.62.62,0,0,1-.14.14.47.47,0,0,0-.13.11,4.74,4.74,0,0,1-.15.57c-.07.18-.13.37-.21.55s-.18.57-.26.84a3,3,0,0,0-.12.82l-.11.36a.83.83,0,0,1-.34.33c-.14.07-.27.14-.4.19a1.15,1.15,0,0,0-.38.22l-.08.35-.41.06-.51.11a1.72,1.72,0,0,1-.34,0l-.36,0c-.21-.22-.39-.39-.53-.51a2.33,2.33,0,0,0-.48-.31l-.16-.22a1.28,1.28,0,0,1-.14-.4,2.74,2.74,0,0,0-.08-.37,1.21,1.21,0,0,0-.16-.49Zm8.72-7.11c-.26.37-.5.75-.74,1.15l.37,0,.37,0c.64,0,1.23-.09,1.78-.14s1.13-.15,1.77-.27q-.21-1-.48-2.07c-.17-.7-.36-1.41-.56-2.12l-.13.28a18.71,18.71,0,0,0-1.32,1.58,12.93,12.93,0,0,0-1,1.61Z"/><path class="cls-33" d="M140.73,123.13a5,5,0,0,1-1.9-1.31,6.91,6.91,0,0,1-1.22-2,2.94,2.94,0,0,1,.88-1.24,6.21,6.21,0,0,1,1.35-.86,8.92,8.92,0,0,1,1.6-.58c.56-.14,1.11-.27,1.64-.38.11,0,.16,0,.16,0s0,0,.14.06c.66-.2,1.41-.4,2.27-.59a10.2,10.2,0,0,1,2.74-.21,1,1,0,0,1,.46-.12h.57l.58,0a1.44,1.44,0,0,0,.46-.09.81.81,0,0,0,.5.23,1.57,1.57,0,0,1,.68.29c.07,0,.07,0,0-.1s-.06-.14,0-.18a1.24,1.24,0,0,1,.63.17,3.08,3.08,0,0,1,.5.37c.16.13.3.26.44.36a.72.72,0,0,0,.45.17,3.16,3.16,0,0,0,.59.56c.23.17.44.35.65.53a2.87,2.87,0,0,1,.52.6,1.36,1.36,0,0,1,.21.74c0,.11,0,.18.11.19a.27.27,0,0,1,.19.17,4,4,0,0,1-.31,1.75,6,6,0,0,1-.87,1.35,12.06,12.06,0,0,1-1.1,1.16,9.21,9.21,0,0,0-1.08,1.18,4.83,4.83,0,0,0,.75.75c.28.23.57.45.86.67a9.3,9.3,0,0,1,.83.7,3.35,3.35,0,0,1,.67.83.47.47,0,0,0,.36.22,3.8,3.8,0,0,0,.23.67l.29.66a2,2,0,0,1,.16.56.47.47,0,0,1-.13.41.42.42,0,0,1,.21.34,1.13,1.13,0,0,1,0,.37c-.4.49-.67.84-.82,1l-.32.44-.22.24-.49.44a27.11,27.11,0,0,1-3,1.57,12,12,0,0,1-3.26.94,1.07,1.07,0,0,1-.4.32,2.91,2.91,0,0,1-.59.2,6.66,6.66,0,0,1-.7.14l-.67.11a.23.23,0,0,1-.15-.18.23.23,0,0,0-.15-.18c0,.22-.11.34-.28.35a1.77,1.77,0,0,1-.65-.13,4.71,4.71,0,0,1-.79-.38c-.27-.16-.51-.32-.71-.46a5,5,0,0,1-.34.52,1.24,1.24,0,0,1-.43.38l-.56-.08a.38.38,0,0,0-.34.13,1.27,1.27,0,0,1-.33-.23l-.21-.25a1.64,1.64,0,0,0-.25-.21,1.22,1.22,0,0,0-.41-.18.58.58,0,0,0-.08-.43.57.57,0,0,0-.39-.34c.09-.14.06-.33-.11-.56a2.83,2.83,0,0,1-.38-.78c0-.12,0-.26,0-.39a2.28,2.28,0,0,1,.06-.39,1.43,1.43,0,0,1,.12-.31.45.45,0,0,1,.27-.19,1.58,1.58,0,0,0-.21-.69.85.85,0,0,0,.32-.47c.06-.2.11-.39.15-.59a5.76,5.76,0,0,1,.18-.59,1.06,1.06,0,0,1,.36-.48l-.11-.14a.24.24,0,0,1-.06-.19,5.91,5.91,0,0,0,.58-1.16,9.38,9.38,0,0,0,.26-.93c.06-.3.13-.62.2-1a7.41,7.41,0,0,1,.44-1.31,2.24,2.24,0,0,1,.11-.88c.09-.25.19-.5.29-.75a4.71,4.71,0,0,0,.23-.78,2.64,2.64,0,0,0,0-1,1,1,0,0,0-.67.33,1.55,1.55,0,0,0-.26.74.83.83,0,0,1-.63.21A1.84,1.84,0,0,0,140.73,123.13Zm10.12-3.28a13.81,13.81,0,0,0-3.34.3,9.19,9.19,0,0,0-2.76,1,8.76,8.76,0,0,0,1.13.82,2.35,2.35,0,0,1,.89,1,8.61,8.61,0,0,0,2.3-1.33A12,12,0,0,0,150.85,119.85Zm1.91,8.56a5.41,5.41,0,0,0-1.9-.68,5.62,5.62,0,0,0-1.64,0,11.19,11.19,0,0,0-1.49.34,9.38,9.38,0,0,1-1.42.33c-.24.62-.49,1.3-.74,2.05s-.5,1.48-.74,2.19a10.25,10.25,0,0,0,1.81-.41,16.71,16.71,0,0,0,1.58-.62l1.51-.68c.49-.23,1-.44,1.53-.64a.83.83,0,0,1,.35-.52l.55-.37a2,2,0,0,0,.46-.4A.69.69,0,0,0,152.76,128.41Z"/></g><circle class="cls-34" cx="120.5" cy="104.5" r="104.5"/></g></g></svg>