<svg xmlns="http://www.w3.org/2000/svg" enable-background="new 0 0 3000 3000" viewBox="0 0 3000 3000"><path fill="#ddf3fb" d="M879.9,2761.6c272.3,3,544.6,6.8,817,4.8c136.4-1,273.1-1.8,409.4-8.3c83.7-4,167.3-10.1,251-14.2
			c384-424.6,613.2-1006.8-155.1-2413.4c-91.9-168.3-406.3-384.3-759.4-107.8c-353.1,276.6-224,567.5-630.3,905.2
			c-406.3,337.6-608.9,490.7-593.7,1000.7c4.9,165.1,105.6,409.2,274.8,630C622.3,2759.1,751.1,2760.2,879.9,2761.6z"/><path fill="#202234" d="M736.2,2612.7c0,0-4.6,16.2,0.9,21c5.5,4.8,46.3,32.8,58.6,29.6c12.3-3.2-13.2-43.3-26.2-51
								C756.5,2604.5,743.1,2603.4,736.2,2612.7z"/><polygon fill="#e9aa8e" points="735.4 2582.2 739.8 2616.6 763.3 2613.2 761.7 2576.5"/><path fill="#fad1de" d="M737.9,2601.2c-1,4.4,1.9,15.8,1.9,15.8l22.8-3.7c0,0,2.7-15.9-0.1-16
								C751.1,2596.9,741.3,2596.9,737.9,2601.2z"/><path fill="#191b2b" d="M739.6,2618.3c0,0,1.5-10.1,7-12.3c5.5-2.2,11.8-2.6,19.7,8c7.9,10.6,28.7,32.3,26.5,35.4
								c-2.2,3.1-31.1-18.6-40.2-25.3C743.5,2617.4,741.5,2623.9,739.6,2618.3z"/><path fill="#202234" d="M576.1,2612.7c0,0,4.6,16.2-0.9,21c-5.5,4.8-46.3,32.8-58.6,29.6c-12.3-3.2,13.2-43.3,26.2-51
								C555.8,2604.5,569.3,2603.4,576.1,2612.7z"/><polygon fill="#e9aa8e" points="577 2582.2 572.5 2616.6 549.1 2613.2 550.7 2576.5"/><path fill="#fad1de" d="M574.5,2601.2c1,4.4-1.9,15.8-1.9,15.8l-22.8-3.7c0,0-2.7-15.9,0.1-16
								C561.3,2596.9,571.1,2596.9,574.5,2601.2z"/><path fill="#191b2b" d="M572.8,2618.3c0,0-1.5-10.1-7-12.3c-5.5-2.2-11.8-2.6-19.7,8c-7.9,10.6-28.7,32.3-26.5,35.4
								c2.2,3.1,31.1-18.6,40.2-25.3C568.8,2617.4,570.9,2623.9,572.8,2618.3z"/><path fill="#202234" d="M636.2 1556.4c0 0-26.2 11-39.4-21.6-13.2-32.5-9.3-71 40.7-72.5 50-1.5 50 47.8 37.9 72.7C663.4 1559.9 660.2 1567 636.2 1556.4zM537.5 2005.2c-28.3 151-11.2 244.5 9.7 585 .5 7.5 29.9-.3 29.9-.3 10.4-45.6 96.9-544.5 96.2-549.7C662.2 1959.9 543.8 1971.6 537.5 2005.2z"/><path fill="#202234" d="M537.5,2005.2c-7.1,37.6-11.3,71.7-13.3,106.9c6.6,3.5,14.2,4.7,21.6,4.7c6.5,0,13.5-0.4,19.5-3.1
							c5.6-2.5,10.8-5.8,16.2-8.8c7.4-4.1,18.7-11.1,27.3-6.6c11.4,6,7.6,23.1,3.5,32.2c-3.7,8.2-8.2,15.8-9.2,24.9
							c-0.9,8.5,0.8,16.7,3.1,24.8c4.8,17.2,8.9,33.6,6.2,51.7c-2.5,17.4-10.1,33.5-13.3,50.7c-1.6,8.8-2.2,17.9-3.7,26.7
							c-1.6,9.2-4.8,17.2-8.8,25.6c-3,6.4-4.9,13.1-4.2,20.2c0.6,6.1,2.6,12.1,3.8,18.1c1.8,8.7,2.8,17.4,2.2,26.2
							c-0.7,9.8-2.6,19.6-2.1,29.5c0.1,1.4-0.6,2.3-1.6,2.8c-1.2,13.6-3.7,27-6.5,40.3c-3,14.3-6.9,28.7-8.5,43.2
							c-1.2,10.8-0.2,21.6,0.3,32.4c0.4,10.1,0.4,20.5-2.9,30.2c-2,5.9-5.1,11-8.9,15.5c8.6-0.6,19.1-3.4,19.1-3.4
							c10.4-45.6,96.9-544.5,96.2-549.7C662.2,1959.9,543.8,1971.6,537.5,2005.2z" opacity=".5"/><path fill="#202234" d="M770.4,2005.2c28.3,151,35.4,125.4-6,583.7c-0.7,7.5-30.1,1-30.1,1c-10.5-44.6-100.3-545.4-99.7-549.7
							C645.7,1959.9,764.1,1971.6,770.4,2005.2z"/><path fill="#202234" d="M726.8,2541.1c-0.4-26.2-2-52.3-3.5-78.4c-1.7-31.6-3.8-63.2-8.4-94.5c-2.3-15.4-1.7-30.5-1.4-45.9
							c0.1-8,0-16.1-1.3-24c-1.2-7.2-3.8-14-5.8-21c-3.3-11.5-5.4-23.2-5.9-35.2c-0.2-6.4,0-12.7,0.4-19.1c0.3-4.5,1.1-9,0.8-13.4
							c-0.8-13.5-5.5-27-8.5-40.1c-3.7-16.1-7.4-32.8-7.1-49.4c0.3-12.3,3.4-26.6,15.7-32.3c6.4-2.9,12.5-3.2,18.9-0.2
							c8.4,4,15.8,10.3,23.1,15.9c8.2,6.4,16.1,11.6,25.9,15.4c6.9,2.8,14,4.8,21.3,6.1c-3.6-37-10.8-68-20.6-119.9
							c-6.3-33.6-124.7-45.3-135.8,35c-0.5,3.8,68.1,387.6,92.4,513.5C726.9,2549.4,726.8,2545.2,726.8,2541.1z" opacity=".5"/><path fill="#6f68ad" d="M636.6,1585.4c-56-0.1-107.8,31.1-118.2,58.9c-10.4,27.8-55.6,346.6,43.5,380.4
							c99.1,33.9,191.9,9.7,206.4-13.5c43.6-69.7,11-357.4-20.9-399.6C724.1,1580.8,636.6,1585.4,636.6,1585.4z"/><path fill="#231f20" d="M703.8,2009.9c0-5.1-2.3-10.4-0.6-15.4c2.6-7.9,11.8-10.4,18.9-11.8c7.3-1.5,16.3-2,22.6-6.4
							c7.5-5.2,2.7-15.6-3.2-20c-8.6-6.4-20.2-7.9-30.3-10.9c-9.1-2.7-21.6-7.6-23.4-18.2c-1.8-11,10.2-16.7,19.1-18.4
							c0,0,0.1,0,0.1,0c15.8-7.4,34.2-4.6,51.1-5.3c8.1-0.3,16.2-1.3,24.3-2.1c-2.5-3-4.6-6.2-6.2-9.9c-3.2-7.9-3.8-17.1-4.4-25.5
							c-0.6-9.2-0.5-18.5-0.3-27.7c0.5-19,1.6-38.2-1.8-56.9c-3.4-18.4-12.2-35.4-14.6-54.1c-2.1-16.5,1.6-33.2-0.2-49.6
							c-10.9,13.9-15.8,32.1-19.1,49.2c-1.8,9.5-3.3,19.1-4.4,28.8c-1.1,9.9-0.7,20.2-5.8,29.2c-4.3,7.5-12.4,12.6-15.1,21
							c-2.1,6.5-2.4,13.7-3,20.5c-0.9,11.9-2.7,23.5-13.5,30.5c-7.2,4.7-16.2,6.4-24.5,8.1c-10.7,2.2-21.5,3.5-32.2,4.8
							c-11.7,1.4-23.5,2.7-35.2,4.9c-7,1.3-13.9,3.1-21,3.6c-5.9,0.4-12.3-0.1-17.2-3.7c-6.3-4.7-7.8-12.8-7.9-20.2
							c-0.3-10.6,2.5-21.5,5.1-31.7c2.2-9,5.4-18.8,3.3-28c-2.3-9.9-6.7-19.1-7.8-29.2c-1.3-11.3-0.7-22.6-0.4-34
							c0.3-9.1,0.3-18.3,0.7-27.4c0.2-3.4,0.4-7.1,0.4-10.8c-3.1,10.1-7.8,19.8-13.2,29c-3.6,6.2-7.6,12.2-11.7,18.1
							c-2.7,4-5.5,7.8-9.1,11c-6.4,5.5-14.1,9.1-21.7,12.5c-7.5,103.7-2.7,239.6,60.1,261c39.9,13.7,78.9,17.9,112.1,16.5
							c8.2-3.9,16.1-8.8,22.6-15C701,2021.8,703.8,2016.3,703.8,2009.9z" opacity=".15"/><path fill="#e9aa8e" d="M618.7,1587.6l5.9-27.6l27.8-0.6l7.3,28c0,0-12,32.9-22.4,32.7C627.4,1619.9,618.6,1590.2,618.7,1587.6z
								"/><polygon fill="#433a87" points="629.2 1596 636.2 1622.1 614.7 1599.9"/><path fill="#574a9d" d="M598.6,1615.9l31.3-20l-9.3-17.1l-17.2,8.8C603.4,1587.6,608.5,1598.3,598.6,1615.9z"/><polygon fill="#433a87" points="649.3 1596.3 638.4 1622.2 660.6 1601.9"/><path fill="#574a9d" d="M678.2,1618l-30.2-21.6l9.5-18.6l17.2,6.5C674.7,1584.2,669.2,1599.9,678.2,1618z"/><path fill="#d0876a" d="M622.8,1569.1c0,0,10.4,18,17.3,11.9c6.8-6.2,15.8-7.2,15.8-7.2l-3.7-14.4l-27.5,1L622.8,1569.1z" opacity=".55"/><path fill="#574a9d" d="M637.8,1622.4c0,0-3.8,95.2,8.6,154.7c12.4,59.5,2.7,260.2,2.7,260.2h-2.7c0,0,8.3-180.2-1.9-239
							C626.7,1695.5,637.8,1622.4,637.8,1622.4z"/><g><path fill="#231f20" d="M721,1772.9c0,0-18.6,45.7-41.8,49.7c-23.2,3.9-115.6,78-156.8,78.1c-12.5,0-26.8-21.8-26.8-21.8
								L721,1772.9z" opacity=".15"/><path fill="#e9aa8e" d="M510.3,1888.6c7.8,1.7,19.1-0.1,32.4-5c51.8-19.4,132.1-79.7,132.1-79.7s-6.2-16.4-8.5-14.8
									c-2.4,1.5-126.6,42.9-133.4,36c-5.4-5.4,19.5-48.3,3.5-69.4c-4.3-5.7-8.4-9.9-12-11.4c-17-7-49.8,17.4-49.8,17.4
									S450.1,1875.2,510.3,1888.6z"/><path fill="#e9aa8e" d="M666.3,1789c0,0,4.2-11,6.9-23.3c2.8-12.3,6.8,9.2,6.8,9.2s51.1-16.2,37.5,1.7
									c-13.5,18-42.7,27.2-42.7,27.2L666.3,1789z"/></g><path fill="#6f68ad" d="M556.2,1611.5c0,0-68.2,20.5-88.4,167.3c0,0,53.7,21.5,69.7,10C553.4,1777.3,556.2,1611.5,556.2,1611.5z"/><path fill="#e9aa8e" d="M672.6,1513.4c-6.4,0-0.6-24.8-0.6-24.8c-5.1-13.1-32.6-6.9-34.2-6.6c-1.6-0.4-29.1-6.6-34.2,6.6
							c0,0,5.7,24.8-0.6,24.8c0,0-14.6-4.1-10.7,5.3c4,9.4,5.4,18.3,10.3,15.1c0,0,11.4,38.6,35,39v0c0.1,0,0.1,0,0.2,0
							c0.1,0,0.1,0,0.2,0v0c23.7-0.3,35-39,35-39c4.9,3.2,6.4-5.7,10.3-15.1C687.3,1509.3,672.6,1513.4,672.6,1513.4z"/><path fill="#202234" d="M680.3,1459.6c0,0-14.3-44-64.4-14.4c-41.4,24.4-19.7,73.6-13,68.3c5.2-4.1-4.3-24.1,28.3-44.6
							C651.6,1482.8,663.6,1463.5,680.3,1459.6z"/><path fill="#202234" d="M604.8 1508.6c0 0 .7 29.4 11.5 40.5 10.8 11.2 9.7-1.1 21.6-2.6 11.9-1.5 10.6 10.9 16.7 7.4 15-8.4 19-49.1 19-49.1s7.9 21.3-6.9 46.3c-10.9 18.4-16.1 29.9-30.2 25-14.1-4.8-32.7-21.2-33.8-43.9C601.5 1509.7 604.8 1508.6 604.8 1508.6zM577.3 2043.9c0 0-34 30.9-36.4 44.6C538.4 2102.2 577.3 2082.5 577.3 2043.9zM734.9 2045.3c0 0 34 30.9 36.4 44.6C773.8 2103.5 734.9 2083.9 734.9 2045.3z"/><g><path fill="#1b2142" d="M722.7,1746.9l-197.9,29c-12.9,1.9-20.7,14.7-17.5,28.4l23.2,99.8c2.7,11.6,14.2,19.5,25.8,17.8
									l178.1-26.1c11.6-1.7,20.4-12.6,19.6-24.5l-6.4-102.3C746.7,1755,735.5,1745,722.7,1746.9z"/><path fill="#202234" d="M718.8,1758.3l-186.2,27.3c-12.1,1.8-19.5,13.8-16.6,26.6l21.3,93.9c2.5,11,13.4,18.4,24.3,16.8
									l168.6-24.7c11-1.6,19.2-11.9,18.5-23.1l-6.4-96.1C741.4,1765.9,730.9,1756.5,718.8,1758.3z"/><path fill="#feb403" d="M648.4,1810.5c1,8.7-5.2,16.6-13.9,17.7c-8.7,1-16.6-5.2-17.7-13.9c-1-8.7,5.2-16.6,13.9-17.7
								C639.4,1795.6,647.3,1801.8,648.4,1810.5z"/></g><g><path fill="#231f20" d="M571.7,1923.5c0,0,43.1,28.3,65.4,17.8c22.3-10.4,118.4,7.8,146.8-17.1c7.9-6.9,10.8-40.5,10.8-40.5
								L571.7,1923.5z" opacity=".15"/><path fill="#e9aa8e" d="M821.5,1897.8c-5.3,6.4-16.4,11.3-30.8,14.9c-56,14.1-160.9,9.9-160.9,9.9s-4.4-17.7-1.5-17.8
									c3-0.1,134.3-38.3,136-48.2c1.4-7.8-7.8-55.1-6.6-82.7c0.3-7.5,1.4-13.5,3.6-16.9c10.5-16.1,53.2-14.6,53.2-14.6
									S847.4,1866.4,821.5,1897.8z"/><path fill="#e9aa8e" d="M628.3,1904.8c0,0-10.1-7-19.8-15.9c-9.7-8.9-0.4,11.9-0.4,11.9s-53.5,16.4-31.2,23.8
									c22.3,7.4,52.8-2,52.8-2L628.3,1904.8z"/><path fill="#d0876a" d="M821.5,1897.8c-5.3,6.4-16.4,11.3-30.8,14.9c-10.1-5.8,9.2-19.9,25.7-29.4
									c20.8-11.9,7.4-108.5-0.8-101.8c-8.2,6.7-52.1-2.3-52.1-2.3c-2.7-1.3-4.6-3.1-5.8-5.3c0.3-7.5,1.4-13.5,3.6-16.9
									c10.5-16.1,53.2-14.6,53.2-14.6S847.4,1866.4,821.5,1897.8z" opacity=".55"/></g><path fill="#6f68ad" d="M739.4,1605.5c0,0,68.2,20.5,88.4,167.3c0,0-53.7,21.5-69.7,10C742.3,1771.3,739.4,1605.5,739.4,1605.5z"/><g><path fill="#202234" d="M640,1541.5c-2.8,0-4.8-2.7-4.9-2.9c-0.4-0.5-0.3-1.3,0.3-1.7c0.5-0.4,1.3-0.3,1.7,0.3
										c0.4,0.5,1.7,1.9,3,1.9c1,0,2-0.8,2.9-2.3c0.4-0.6,1.1-0.7,1.7-0.4c0.6,0.4,0.7,1.1,0.4,1.7c-1.4,2.2-3,3.4-4.9,3.5
										C640,1541.5,640,1541.5,640,1541.5z"/><path fill="#fff" d="M632.9,1556.7c0,0,8.4-1.1,12.3,0.1C645.2,1556.8,638.9,1563.6,632.9,1556.7z"/><path fill="#202234" d="M648.7 1513.2c0 0 13-1.7 14.2-3.1 1.2-1.4-3.1-3.8-8.7-1.9C648.5 1510.2 647.2 1513.3 648.7 1513.2zM659.2 1519c0 2.1-1.5 3.8-3.2 3.8-1.8 0-3.2-1.7-3.2-3.8 0-2.1 1.5-3.8 3.2-3.8.5 0 1 .1 1.4.4-.6.2-1.1.9-1.1 1.7 0 1 .7 1.7 1.5 1.7.6 0 1.1-.4 1.3-1C659.2 1518.3 659.2 1518.6 659.2 1519z"/><g><path fill="#202234" d="M612.8 1510.9c0 0 12.9 2.6 14.5 1.7 1.6-.9-1.7-4.6-7.7-4.6C613.6 1508 611.3 1510.5 612.8 1510.9zM624 1519c0 2.1-1.5 3.8-3.2 3.8-1.8 0-3.2-1.7-3.2-3.8 0-2.1 1.5-3.8 3.2-3.8.5 0 1 .1 1.4.4-.6.2-1.1.9-1.1 1.7 0 1 .7 1.7 1.5 1.7.6 0 1.1-.4 1.3-1C623.9 1518.3 624 1518.6 624 1519z"/></g></g><g><path fill="#1b2142" d="M684.7 1484.9c0 0 5.8 19.4-1.2 22.6-6.1 2.8-4.3-19.2-4.3-19.2L684.7 1484.9zM594.6 1485.5c0 0-5.5 19.4 1.5 22.6 6.2 2.8 4-19.2 4-19.2L594.6 1485.5z"/><path fill="#db900b" d="M585.7,1484.9c0,0.7,0,1.3,0,2l105.5-0.7c0-0.7,0-1.3,0-2c0-5.2-0.7-10.3-1.9-15.1
									c-5.6-22-22.8-38.6-43.8-41.7c-2.4-0.4-4.9-0.5-7.4-0.5c-24.4,0.2-44.7,18.3-50.7,42.9
									C586.3,1474.6,585.6,1479.6,585.7,1484.9z"/><path fill="#eaa11f" d="M642.9,1427.8c19.9,4,35.8,20.2,41.2,41.3c1.2,4.8,1.9,9.9,1.9,15.1c0,0.7,0,1.3,0,2l5.2,0
									c0-0.7,0-1.3,0-2c0-5.2-0.7-10.3-1.9-15.1c-5.6-22-22.8-38.6-43.8-41.7C644.6,1427.5,643.7,1427.6,642.9,1427.8z" opacity=".7"/><path fill="#eaa00c" d="M581.9,1484.4c1.2,1.3,2.7,2.2,4.5,2.4l-0.5,0c0,0,7.9,17.1,22,17l28.6-0.2c0,0,1.6,0,4.3,0l28.6-0.2
									c14.1-0.1,21.8-17.3,21.8-17.3l-0.6-0.1c3.7-0.5,6.5-4.1,6.5-8.5c0-2.4-0.8-4.5-2.2-6.1c-0.2-0.2-0.5-0.5-0.7-0.7
									c-1.3-1.1-2.8-1.8-4.5-1.8l-102.6,0.7c-1.7,0-3.3,0.7-4.5,1.8c-1.7,1.6-2.8,4-2.8,6.8
									C579.7,1480.7,580.6,1482.8,581.9,1484.4z"/><path fill="#feb403" d="M582.5,1471.5c0.3,1.6,1,3,1.9,4c1.1,1.3,2.6,2.2,4.3,2.4l-0.4,0c0,0,7.6,17.1,21,17l27.3-0.2
									c0,0,1.6,0,4.1,0l27.3-0.2c13.4-0.1,20.8-17.3,20.8-17.3l-0.6-0.1c3-0.4,5.4-3.1,6-6.5c-1.3-1.1-2.8-1.8-4.5-1.8l-102.6,0.7
									C585.3,1469.7,583.8,1470.4,582.5,1471.5z"/><polygon fill="#feb403" points="653.7 1432.1 648.3 1420.6 626.3 1420.7 622.5 1432.6 626.9 1474.7 648.9 1474.6"/><g><polygon fill="#feb403" points="606.2 1471.6 606.1 1461.3 597.4 1460.2 592.7 1472.1"/><polygon fill="#feb403" points="670.6 1471.1 670.5 1460.8 679.1 1459.7 684 1471.5"/></g><path fill="#c67f0c" d="M623.2,1439.4l0.4,24l-17.4,6c0,0,16.4,8.2,20.3,4.8C633.1,1468.5,623.2,1439.4,623.2,1439.4z"/><path fill="#f4bd21" d="M653,1439.2l-0.7,24.1l17.5,5.8c0,0-16.3,8.4-20.2,5.1C642.9,1468.4,653,1439.2,653,1439.2z"/></g><g><polygon fill="#e9aa8e" points="2286.4 2520.2 2291 2558.3 2313.8 2555.7 2315.6 2514.1"/><path fill="#fad1de" d="M2287.6,2541.3c-1.2,4.8,3.2,17.4,3.2,17.4l24.1-3.8c0,0,3.2-17.6,0.1-17.7
								C2302.3,2536.6,2291.4,2536.5,2287.6,2541.3z"/><path fill="#202234" d="M2315 2579.6c-6.1 5.1-56.5 38.4-62.8 29.9-6.2-8.5-6.8-24.7 20.4-44.8 11.3-8.4 14-26.7 14.4-20.9.3 5.8 16.8 16.1 25.6 9 5.1-4.2 7.2 3.9 6.8 12.3 0 0 0 0 0 0C2319.1 2571.2 2317.6 2577.5 2315 2579.6zM2287.4 1891.9c0 0-77.1 86.5-1.8 637 1.1 8.2 30.8 14 32.7 5.9 95.1-405.7 108.3-516.7 89.2-607.9C2388.5 1835.6 2287.4 1891.9 2287.4 1891.9z"/><path fill="#202234" d="M2270.5,1947.4c5.1,7.9,13.3,13.9,20.5,19.9c7.3,6.1,14.8,12.3,20.3,20.2c5.1,7.3,5.2,14.3,2.9,22.7
								c-2.7,10-7.3,19.5-9.2,29.8c-4.1,21.4,11.9,41.2,17.9,60.7c3.4,11,2.4,22.4,0.8,33.7c-1.8,12.9-4.8,25.5-5.8,38.5
								c-1.9,23.4,11,45,9.6,68.5c-0.6,10-3.9,19.5-8,28.6c-3.3,7.2-7.2,14.2-9.4,21.8c-2.7,9.4-1.9,18.8,0.6,28.1
								c3.2,12.1,6.7,24.1,9.8,36.2c6,23.6,10.9,47.9,10.2,72.5c-0.6,21.7-6.3,42.7-8.9,64.2c-1.1,9.3-1.3,18.5-0.1,27.4
								c91.9-393.6,104.7-503.1,85.8-593.2c-19.1-91.3-120.1-34.9-120.1-34.9s-10.5,11.8-19.9,54.1
								C2268.6,1945.9,2269.7,1946.2,2270.5,1947.4z" opacity=".5"/><polygon fill="#e9aa8e" points="2496.2 2520.2 2500.8 2558.3 2523.5 2555.7 2525.3 2514.1"/><path fill="#fad1de" d="M2497.3,2541.3c-1.2,4.8,3.2,17.4,3.2,17.4l24.1-3.8c0,0,3.2-17.6,0.1-17.7
								C2512,2536.6,2501.2,2536.5,2497.3,2541.3z"/><path fill="#202234" d="M2524.7 2579.6c-6.1 5.1-56.5 38.4-62.8 29.9-6.2-8.5-6.8-24.7 20.4-44.8 11.3-8.4 14-26.7 14.4-20.9.3 5.8 16.8 16.1 25.6 9 5.1-4.2 7.2 3.9 6.8 12.3 0 0 0 0 0 0C2528.8 2571.2 2527.3 2577.5 2524.7 2579.6zM2343.1 1902.7c0 0-38.3 98 151.4 620.3 2.8 7.8 33.1 7.2 33.3-1.1 7.3-416.6-3.1-527.9-41-613.1C2448.8 1823.6 2343.1 1902.7 2343.1 1902.7z"/><path fill="#202234" d="M2486.7,1908.8c-37.9-85.2-143.6-6-143.6-6s-5,12.8-2.4,53.9c4.4,7.7,8.9,15.3,14.2,22.4
							c7.2,9.5,16.5,18.6,28.5,21.3c12.3,2.7,25-0.4,37.4,0.7c11,1,20.8,6.3,27,15.5c5.8,8.5,7.2,19.2,7.5,29.3
							c0.4,12.3-0.2,24.7,0.8,37c0.9,12,3.4,23.8,7.4,35.2c4.8,13.4,12.1,25.6,17,38.9c9.9,27.1,10.2,56.3,10.8,84.8
							c0.3,14.6,0.7,29.3,2.6,43.8c1.8,14.1,6.5,27.3,11.7,40.6c4.8,12.3,9.9,24.7,11.5,37.9c1.8,14.4-0.2,28.9-2.2,43.2
							c-1.9,13.3-4.4,27-3.4,40.5c0.7,9.1,3,18,5.3,26.8c4.3,16,10.1,32.6,10.1,49.4c0.5-0.6,0.8-1.3,0.8-2.1
							C2535.1,2105.3,2524.7,1994,2486.7,1908.8z" opacity=".5"/><g><path fill="#e9aa8e" d="M2288.2,1680.4c0,0-4.2,5.1-11.2,13.4c-8.6,10.2-21.6,25.2-36.4,41.2c-28.7,30.9-231.8,103-234.7,103.9
								c-0.1,0-0.1,0-0.1,0l-5.5-7c0,0,131.3-105.8,155.1-118.1c15.4-8,41-41.1,57-63.4c0,0,0,0,0,0l0.6-0.7
								c8.2-11.6,13.8-20,13.8-20L2288.2,1680.4z"/><path fill="#d0876a" d="M2277,1693.8c-8.6,10.2-21.6,25.2-36.4,41.2c-28.7,30.9-231.8,103-234.7,103.9
								c1.8-1.2,31.2-20,58.1-30.3c27.8-10.7,119.9-66.8,134-88.8c14.2-21.9,18.4-43,14.4-53c-3.2-8-1-14.2,0-16.3c0,0,0,0,0,0
								c0.2-0.5,0.4-0.8,0.4-0.8l0.2,0.1l26.1,11.8C2239.1,1661.5,2267.9,1673,2277,1693.8z" opacity=".55"/><path fill="#6f68ad" d="M2282.9,1564.6c0,0-51.2,36.4-96.3,103c0,0,57.8,65.6,75,57.3c9-4.3,23-33.6,49.6-61.1
								C2335.4,1638.7,2282.9,1564.6,2282.9,1564.6z"/><path fill="#231f20" d="M2289.4,1574.5c-2.5,1.7-4.9,3.5-7.1,5.4c-6.6,5.5-13.2,12-14.1,21c-0.8,7.9,1.3,15.8,0.8,23.7
								c-0.5,7.3-3.1,14-7.2,20.1c-4,5.9-9.1,11-13,17c-3.7,5.7-4.2,11.7-5.5,18.2c-1.1,5.6-3.8,10.2-9.2,12.6
								c-6.1,2.6-13.5,3.1-20.4,3.2c17.5,16.7,38.6,33.8,47.9,29.3c9-4.3,23-33.6,49.6-61.1
								C2330,1644.4,2302.6,1595.5,2289.4,1574.5z" opacity=".15"/><path fill="#e9aa8e" d="M2000.4,1832c0,0-48,43.1-51.1,49.7c-3.1,6.6,37.5-23.9,37.5-23.9s-9,16.7-1,14.7
								c8-2,22.1-34.8,22.1-34.8L2000.4,1832z"/><path fill="#6f68ad" d="M2297.3,1920.4c38.2,12,75.5,15.7,107.4,14.6c47.6-1.7,83.1-14.2,91.3-26.6c8.6-12.9,7.3-129-2.7-223.4
							c-6.1-57.1-15.3-106.3-27.6-119.9c-32.5-36-106.6-23-106.6-23c-35,4.1-83.5,17.7-87.4,32.7
							C2265.2,1600.1,2202,1890.5,2297.3,1920.4z"/><path fill="#231f20" d="M2490.7,1662.5c-3.2-1.9-6.3-3.8-9.4-5.7c-12.7-8-24.6-16.7-37.3-24.6c-5.8,10.2-8.8,21.6-9.7,32.8
							c-1,12.5,1.1,24,7.2,35.5c5.4,10.1,12.2,19.8,17.4,30c4.4,8.8,9,19.8,5.4,29.3c-3.5,9-16.5,16.2-13.3,26.4
							c1.5,4.6,4.6,8.7,5.3,13.6c0.7,4.6,0.4,9.5-0.9,14c-2,6.8-7.6,12.3-16,14.3c-9.4,2.2-20.1,0.1-28.8-2.9
							c-11.8-4.1-22.3-10.2-33.6-15.1c-9.9-4.3-12.1,17.2-4.1,29.3c6.8,10.3,15.2,24.4,8.7,36.1c-8.2,14.7-36.4,14.7-52.6,12.7
							c-10.1-1.2-18.7-4.6-26.5-9.8c-8.4-5.5-15.9-11.6-25.2-16.1c-10.3-5-20.4-5.8-30.4-4.5c10.1,31.3,26.1,54.9,50.5,62.6
							c38.2,12,75.5,15.7,107.4,14.6c47.6-1.7,83.1-14.2,91.3-26.6c8.6-12.9,7.3-129-2.7-223.4
							C2492.5,1677.4,2491.6,1669.8,2490.7,1662.5z" opacity=".15"/><g><path fill="#d0876a" d="M2390.9,1456.3c0,0,5.8,3.9,4.3,6.8c-1.5,2.9-3.2,6.4-3.2,6.4s2-4.7,1.5-7.1
								C2392.9,1460,2389.4,1457.6,2390.9,1456.3z"/><path fill="#574a9d" d="M2358.2,1574.8c0,0,5.6,83.9-12.8,136.4c-18.5,52.5,7.4,220.3,7.4,220.3h4c0,0-23.8-149.8-8.6-201.7
								C2374.7,1639.3,2358.2,1574.8,2358.2,1574.8z"/><path fill="#e9aa8e" d="M2336.5,1546.3l4.8-30.1l29.9-2.2l9.5,29.7c0,0-11.1,36.1-22.3,36.5
									C2347.7,1580.6,2336.6,1549.1,2336.5,1546.3z"/><polygon fill="#433a87" points="2348.4 1554.7 2357.3 1582.5 2332.9 1559.7"/><path fill="#574a9d" d="M2316.5,1577.9l32.6-23.3l-11-17.9l-18.1,10.4C2320.1,1547.1,2326.2,1558.4,2316.5,1577.9z"/><polygon fill="#433a87" points="2370.1 1553.9 2359.7 1582.4 2382.5 1559.3"/><path fill="#574a9d" d="M2387.5,1577.5l-18.9-23.5l9.3-20.6l18.9,6C2396.8,1539.5,2376.9,1558.5,2387.5,1577.5z"/><path fill="#d0876a" d="M2339.9,1526c0,0,12.2,18.9,19.3,11.8c7-7,16.7-8.6,16.7-8.6l-3.8-12.4L2339.9,1526z" opacity=".55"/><path fill="#202234" d="M2307,1436.6c2.1-13.6,102.9-40.5,96.1,18.6c-3.7,32.2-15.6,34.5-15.6,34.5l-70-5.4
										C2317.5,1484.3,2301.5,1472.7,2307,1436.6z"/><path fill="#e9aa8e" d="M2390.5,1476.1c-2.9,11-2.6,44.2-33.7,53c-31.1,8.9-39.5-50.8-39.2-54.8c0.1-1.2,0.2-2.3,0.5-3.4
										c4-17.8,30-12.7,48.5-12.8c0.7,0,1.4,0,2,0c19.6-0.5,19.5-4.2,19.5-4.2s6-5.9,10.1,3.4
										C2404.3,1470.9,2390.5,1476.1,2390.5,1476.1z"/><path fill="#d0876a" d="M2381.3,1475c0,0-20.7-6.2-33.9-10.2c-13.2-4-27.3,5.6-27.3,5.6c-0.5,0.2-1.2,0.4-2,0.5
										c1.9-20.6,40.6-13.9,59.1-14C2379.6,1463.8,2381.3,1475,2381.3,1475z" opacity=".55"/><path fill="#202234" d="M2375.9,1451.5c0,0,5.2,38.7,6.9,27.4c1.7-11.3,10.9-23.7,5.9-29.2
										C2386.5,1447.3,2375.9,1451.5,2375.9,1451.5z"/><path fill="#312c58" d="M2308.4,1468.1c0,0,8.6-26,56.2-16.6C2364.6,1451.5,2311.9,1419.9,2308.4,1468.1z" opacity=".5"/><g><path fill="#121e3c" d="M2344 1474.7c.8 7.6 7 13.4 14.2 13 7.5-.4 13.2-7.5 12.3-15.8-.9-8.3-7.9-14.1-15.4-12.9C2348 1460.1 2343.2 1467.2 2344 1474.7zM2345.3 1474.6c-.7-6.8 3.6-13.1 10-14.1 6.7-1 12.9 4.1 13.7 11.5.8 7.4-4.3 13.8-11 14.2C2351.6 1486.6 2346 1481.4 2345.3 1474.6zM2320.1 1476.7c.7 6.9 5.9 12.2 11.7 11.9 6.1-.3 10.7-6.7 9.9-14.2-.8-7.5-6.6-12.7-12.6-11.8C2323.3 1463.5 2319.4 1469.8 2320.1 1476.7zM2321.2 1476.6c-.7-6.2 2.9-11.8 8.1-12.6 5.4-.8 10.6 3.9 11.3 10.6.7 6.7-3.3 12.4-8.8 12.7C2326.5 1487.5 2321.8 1482.8 2321.2 1476.6z"/></g><polygon fill="#121e3c" points="2346.8 1465.3 2336.7 1465.9 2339.9 1469.4 2344.7 1469.1"/><g><path fill="#1b2142" d="M2392.4 1447.3c0 0 2.2 17.5-4.3 20.4-5.7 2.5-1.1-17.1-1.1-17.1L2392.4 1447.3zM2312 1448.6c0 0-4.8 17.4 1.1 20.1 5.2 2.3 3.7-17 3.7-17L2312 1448.6z"/><path fill="#db900b" d="M2304.2,1448.1c0,0.6,0,1.2,0.1,1.8l93.9-1.5c0.1-0.6,0.2-1.2,0.3-1.9c0.8-5,1-9.9,0.7-14.6
											c-1.6-22.6-15.7-40.9-36.2-44.1c-2.4-0.4-4.8-0.5-7.3-0.5c-24.2,0.6-44.4,21-49.9,46.3
											C2304.6,1438.3,2304.1,1443.2,2304.2,1448.1z"/><path fill="#eaa11f" d="M2360.3,1388.4c19.2,4.3,32.4,22,34.1,43.6c0.4,4.7,0.2,9.6-0.6,14.6c-0.1,0.6-0.2,1.2-0.3,1.9
											l4.6-0.1c0.1-0.6,0.2-1.2,0.3-1.9c0.8-5,1-9.9,0.7-14.6c-1.6-22.6-15.7-40.9-36.2-44.1
											C2362,1388,2361.1,1388.2,2360.3,1388.4z" opacity=".7"/><path fill="#eaa00c" d="M2300.9,1447.6c1.1,1.2,2.4,2,4,2.2l-0.4,0c0,0,6.9,15.2,18.9,15l24.6-0.3c0,0,1.4,0,3.7-0.1
											l24.8-0.3c12.2-0.2,21.6-15.8,21.6-15.8l-0.5,0c3.4-0.5,6.6-4,7.3-8.1c0.4-2.3,0-4.4-1-5.9c-0.2-0.2-0.3-0.5-0.5-0.7
											c-1-1.1-2.3-1.7-3.9-1.7l-94.2,1.7c-1.5,0-3,0.7-4.1,1.8c-1.5,1.6-2.5,3.9-2.4,6.5
											C2298.9,1444.2,2299.6,1446.2,2300.9,1447.6z"/><path fill="#feb403" d="M2301.2,1435.4c0.3,1.5,0.9,2.9,1.7,3.9c1,1.3,2.4,2.1,3.8,2.3l-0.4,0.1c0,0,6.6,15.7,18.3,15.5
											l23.9-0.4c0,0,1.4,0,3.6-0.1l24-0.4c11.9-0.2,21-16.2,21-16.2l-0.5-0.1c2.8-0.4,5.4-3,6.6-6.4c-1-1.1-2.3-1.7-3.9-1.7
											l-94.2,1.7C2303.8,1433.7,2302.4,1434.3,2301.2,1435.4z"/><polygon fill="#feb403" points="2370.5 1393.2 2366.4 1379.9 2344.3 1380.4 2339.7 1394.2 2327.4 1436.9 2353.7 1437.6"/><g><polygon fill="#feb403" points="2322.6 1435.3 2322.9 1425 2314.9 1424.1 2310.5 1435.9"/><polygon fill="#feb403" points="2381.5 1434.2 2382.9 1423.9 2391.1 1422.6 2393.9 1434.4"/></g><path fill="#f4bd21" d="M2370.5,1393.2l-12.5,33.4l15.5,5.6c0,0-15.9,8.4-19.1,5.1
										C2348.9,1431.8,2370.5,1393.2,2370.5,1393.2z"/></g></g><g><path fill="#f4bd21" d="M2561.1,1925.7l-50.9,34.4l-57.2,38.6c0,0,18-61.4-1.1-91.1c-19.1-29.7-143-31.8-143-31.8l64.6-72.1
								c0,0,54,73.1,84.8,89C2489.1,1908.7,2561.1,1925.7,2561.1,1925.7z"/><path fill="#efeece" d="M2453.1,1998.8c0,0,18-61.4-1.1-91.1c-19.1-29.7-143-31.8-143-31.8s95.9-19.1,145.7,23.3
								c49.8,42.4,55.6,60.9,55.6,60.9L2453.1,1998.8z" opacity=".25"/></g><g><path fill="#e9aa8e" d="M2621.2,1729.9c-3.2-26-40.7-62.8-71.4-89.1c-22.1-18.9-40.7-32.3-40.7-32.3s-43.1,71.5-38.3,78
								c8.2,10.9,23.8,21.2,38.5,29.8c17.5,10.1,33.9,18,36.2,22c5.4,9.5-78,131.4-80.4,133.5c-2.4,2.1,13.4,13.9,13.4,13.9
								s90.4-68.5,127.5-118.6c9.5-12.9,15.5-24.6,15.5-33.6C2621.5,1732.3,2621.4,1731.1,2621.2,1729.9z"/><path fill="#e9aa8e" d="M2437.6,1872c14.2,0.8,27.4-0.3,27.4-0.3l13.4,13.9c0,0,0,0-0.1,0.1c-1.1,1.7-11,31.1-35.6,31.5
								c-15.7,0.2,2.7-34.9,2.7-34.9s-0.1-0.1-0.2-0.1C2442.8,1880.9,2424.4,1871.3,2437.6,1872z"/></g><path fill="#6f68ad" d="M2435,1553.5c0,0,54.6,10.7,125.3,81.4c0,0-42.9,82.1-63.2,76C2375.1,1674.4,2435,1553.5,2435,1553.5z"/></g><g><path fill="#33133f" d="M2377.4 1494.8c.2 2.2-2.3 4.2-5.6 4.5-3.3.3-6.1-1.2-6.4-3.3-.2-2.2 2.3-4.2 5.6-4.5C2374.4 1491.1 2377.2 1492.6 2377.4 1494.8zM2333.9 1496.7c.2 2.2-2.3 4.2-5.6 4.5-3.3.3-6.1-1.2-6.4-3.3-.2-2.2 2.3-4.2 5.6-4.5C2330.8 1493.1 2333.7 1494.6 2333.9 1496.7z" opacity=".05"/><path fill="#202234" d="M2339.5 1473.8c.1 0 .1 0 .2-.1.3-.1.4-.5.3-.8 0-.1-3.8-7.5-14-3.8-.3.1-.5.5-.4.8.1.3.4.5.8.4 9.2-3.4 12.4 3 12.5 3.2C2339 1473.7 2339.3 1473.9 2339.5 1473.8zM2346.4 1483.1c0 0 .1 0 .1 0 .1.1.1.2-.1.4-.2.2-3.9 5.7 1.6 6.8.2 0 .2.3 0 .5-.2.3-.5.4-.7.4-6.1-1.2-1.7-7.7-1.7-7.7C2345.9 1483.3 2346.2 1483.1 2346.4 1483.1zM2353.2 1472.5c.2 0 .4-.1.5-.3.1-.3 3.4-6.6 13.9-3.6.3.1.6-.1.7-.4.1-.3-.1-.6-.4-.7-11.5-3.3-15.3 4.2-15.3 4.3-.1.3 0 .6.3.8C2353 1472.5 2353.1 1472.5 2353.2 1472.5z"/><path fill="#fcfaf7" d="M2337.8,1509.7c0,0,10.1,5.4,22,0.8C2362.2,1515.5,2347.5,1527.1,2337.8,1509.7z"/><path fill="#202234" d="M2334.4 1478.7c-.2 2.8-1.9 5-3.9 4.9-1.9-.1-3.4-2.5-3.2-5.4.2-2.8 1.9-5 3.9-4.9C2333.2 1473.5 2334.6 1475.9 2334.4 1478.7zM2363.6 1478.7c-.2 2.8-1.9 5-3.9 4.9s-3.4-2.5-3.2-5.4c.2-2.8 1.9-5 3.9-4.9S2363.8 1475.9 2363.6 1478.7z"/><path fill="#33133f" d="M2350.4,1523.5c-1-0.1-1.6-0.2-1.6-0.3c-0.2-0.1-0.4-0.3-0.3-0.6c0.1-0.2,0.3-0.4,0.6-0.3
							c0,0,4,1.2,7.8-1.7c0.2-0.1,0.5-0.1,0.6,0.1c0.1,0.2,0.1,0.5-0.1,0.6C2354.7,1523.4,2352,1523.6,2350.4,1523.5z" opacity=".05"/></g></g><ellipse cx="1500" cy="2723.9" fill="#1c2959" rx="1436.3" ry="185.8"/><g><path fill="#202234" d="M2884.3,2717c0,66.3-478.4,105.6-1036.5,117.1C1066,2850.3,127.6,2812,127.6,2717
						C127.6,2553.7,2884.3,2554.7,2884.3,2717z" opacity=".5"/><path fill="#6838ad" d="M2594.9,2629.6c-162.1-51.8-587.6,79.1-1087,79.1c-499.4,0-924.9-130.9-1087-79.1l-70.1,31.6v14.9
							c0,74.7,518.1,135.3,1157.1,135.3c639.1,0,1157.1-60.6,1157.1-135.3v-14.9L2594.9,2629.6z"/><linearGradient id="a" x1="350.776" x2="2665.028" y1="2660.783" y2="2660.783" gradientUnits="userSpaceOnUse"><stop offset="0" stop-color="#efd490"/><stop offset=".597" stop-color="#9966e2"/><stop offset=".617" stop-color="#915fd9"/><stop offset=".677" stop-color="#7f4dc6"/><stop offset=".745" stop-color="#7241b8"/><stop offset=".829" stop-color="#6a3aaf"/><stop offset=".975" stop-color="#6838ad"/></linearGradient><path fill="url(#a)" d="M2665,2660.8c0,70.2-457.6,127.9-1043.2,134.6c-37.5,0.4-75.5,0.7-113.9,0.7
							c-218.4,0-422.6-7.1-596.8-19.3c-27.5-1.9-54.3-4-80.2-6.2c-9.1-0.7-18.1-1.6-26.9-2.3c-49.5-4.4-95.9-9.3-138.6-14.7
							c-195-24.2-314.5-56.8-314.5-92.7c0-13.8,125.6-98.8,125.6-98.8h241.2c22.1-2.4,45-4.8,68.8-6.9c14-1.3,28.3-2.6,42.9-3.9
							c3.7-0.3,7.3-0.6,11-0.9c15.8-1.3,32-2.6,48.4-3.8c179-13.3,391.4-21,619.2-21c297.8,0,569.3,13.2,774.4,34.8
							c5.3,0.6,10.6,1.1,15.9,1.7h241.3C2539.4,2562,2665,2647,2665,2660.8z"/><linearGradient id="b" x1="1834.407" x2="2824.234" y1="2565.937" y2="3019.222" gradientUnits="userSpaceOnUse"><stop offset="0" stop-color="#979899"/><stop offset=".513" stop-color="#959799" stop-opacity=".778"/><stop offset=".698" stop-color="#8e9398" stop-opacity=".698"/><stop offset=".829" stop-color="#838d96" stop-opacity=".641"/><stop offset=".935" stop-color="#728493" stop-opacity=".595"/><stop offset="1" stop-color="#637c91" stop-opacity=".567"/></linearGradient><path fill="url(#b)" d="M2665,2660.8c0,17.4-28.3,34.1-79.7,49.4c-155.6,46.3-523.4,80.2-963.4,85.2
							c142.6-11.8,319.2-32.8,395.1-67.3c137.4-62.4-4.2-115.2-4.2-115.2l269.4-52.6c5.3,0.6,10.6,1.1,15.9,1.7h241.3
							C2539.4,2562,2665,2647,2665,2660.8z" opacity=".25"/><linearGradient id="c" x1="2528.986" x2="2552.019" y1="2383.02" y2="2661.068" gradientUnits="userSpaceOnUse"><stop offset="0" stop-color="#979899"/><stop offset=".513" stop-color="#959799" stop-opacity=".778"/><stop offset=".698" stop-color="#8e9398" stop-opacity=".698"/><stop offset=".829" stop-color="#838d96" stop-opacity=".641"/><stop offset=".935" stop-color="#728493" stop-opacity=".595"/><stop offset="1" stop-color="#637c91" stop-opacity=".567"/></linearGradient><path fill="url(#c)" d="M2665,2660.8c0,17.4-28.3,34.1-79.7,49.4l-154.8-151.4l108.9,3.2C2539.4,2562,2665,2647,2665,2660.8z" opacity=".15"/><path fill="#d4eef9" d="M830.6 2488l-1.3 63.2-1.4 67.3-23.9 149.7c-49.5-4.4-95.9-9.3-138.6-14.7l112.6-142 8.6-56.4 9.5-62.9L830.6 2488zM911.1 2776.7c-27.5-1.9-54.3-4-80.2-6.2l9.5-147.9V2488l47.2 1.4 1.2 57.1 1.6 71.9L911.1 2776.7z" opacity=".35"/><linearGradient id="d" x1="565.73" x2="2526.436" y1="1967.584" y2="3083.231" gradientUnits="userSpaceOnUse"><stop offset="0" stop-color="#efd490"/><stop offset=".597" stop-color="#9966e2"/><stop offset=".617" stop-color="#915fd9"/><stop offset=".677" stop-color="#7f4dc6"/><stop offset=".745" stop-color="#7241b8"/><stop offset=".829" stop-color="#6a3aaf"/><stop offset=".975" stop-color="#6838ad"/></linearGradient><path fill="url(#d)" d="M2542.5,2446v109.6c0,2.1-1.1,4.3-3.1,6.4c-29.9,30.6-273.3,56.5-612.9,68.4c-128,4.5-269.6,7-418.6,7
								c-544.3,0-990.4-33.2-1031.5-75.4c-2-2.1-3.1-4.2-3.1-6.4V2446H2542.5z"/><path fill="#d4eef9" d="M947.2,2606c-155.4,16.7-291.4-61-374.7-87.4c-83.2-26.4-96.1,43.4-96.1,43.4c-2-2.1-3.1-4.2-3.1-6.4
								V2446h653c43.5,10.6,71,21.7,73.4,32.3C1212.2,2533.8,1102.6,2589.3,947.2,2606z" opacity=".35"/><linearGradient id="e" x1="-253.99" x2="3825.6" y1="2448.248" y2="2448.248" gradientUnits="userSpaceOnUse"><stop offset="0" stop-color="#efd490"/><stop offset=".597" stop-color="#9966e2"/><stop offset=".617" stop-color="#915fd9"/><stop offset=".677" stop-color="#7f4dc6"/><stop offset=".745" stop-color="#7241b8"/><stop offset=".829" stop-color="#6a3aaf"/><stop offset=".975" stop-color="#6838ad"/></linearGradient><path fill="url(#e)" d="M2542.5,2448.8c0,49.7-359.1,79.2-778,87.9c-586.8,12.1-1291.1-16.6-1291.1-87.9
								C473.3,2326.3,2542.5,2327,2542.5,2448.8z"/><path fill="#f6c400" d="M2523.1,2448.8c0,38.5-336.6,70.8-789.8,79.5c677.7-59.2,425.9-128.2,338.2-147
								C2344.1,2395.9,2523.1,2420.7,2523.1,2448.8z" opacity=".25"/><linearGradient id="f" x1="1764.454" x2="2542.475" y1="2539.573" y2="2539.573" gradientUnits="userSpaceOnUse"><stop offset="0" stop-color="#979899"/><stop offset=".513" stop-color="#959799" stop-opacity=".778"/><stop offset=".698" stop-color="#8e9398" stop-opacity=".698"/><stop offset=".829" stop-color="#838d96" stop-opacity=".641"/><stop offset=".935" stop-color="#728493" stop-opacity=".595"/><stop offset="1" stop-color="#637c91" stop-opacity=".567"/></linearGradient><path fill="url(#f)" d="M2542.5,2448.8v106.8c0,2.1-1.1,4.3-3.1,6.4c-29.9,30.6-273.3,56.5-612.9,68.4
								c9.4-31.2-20.8-53.2-60.3-68.4c-33.3-12.8-73.3-20.8-101.8-25.3C2183.4,2528,2542.5,2498.5,2542.5,2448.8z" opacity=".25"/></g><ellipse cx="1468.4" cy="2419.6" fill="#6838ad" opacity=".3" rx="742.1" ry="101.7"/><g><path fill="#c0f0ff" d="M823.3,2414.2c0,0,523,123,1358.7,0C2182,2414.2,1500.7,2261.3,823.3,2414.2z"/><polygon fill="#fbe0b8" points="1502.7 124.3 1501.7 123.4 1501.7 125.3 690.7 922.7 1032.8 922.7 823.3 2414.2 2182 2414.2 1972.6 922.7 2314.6 922.7 1503.7 125.3 1503.7 123.4"/><linearGradient id="g" x1="35.011" x2="2273.373" y1="2291.406" y2="2291.406" gradientTransform="rotate(-90 829.206 1617.941)" gradientUnits="userSpaceOnUse"><stop offset="0" stop-color="#bc6c0c"/><stop offset="1" stop-color="#f6bb36"/></linearGradient><path fill="url(#g)" d="M1932.1,887.4c0,0,159.5,1155.1,207.2,1475c-324.7,62.2-969.6,70.3-1273.3,0
								c38.9-281.5,207.2-1475,207.2-1475H776.9l725.8-713.7l725.8,713.7H1932.1z"/><path fill="#fff" d="M972.4,2266.6c0,0,408.3,123,1060.6,0C2033,2266.6,1501.1,2113.7,972.4,2266.6z"/><polygon fill="#fff" points="972.8 2267 1174.3 799.3 992.2 799.3 1502.7 297.4 2013.1 799.3 1831.1 799.3 2032.6 2267"/><g opacity=".35"><path fill="#d89f21" d="M1616.5 1293.6c54.9-1.3 110.1-3.3 165.9-6 20.2-1.1 37.4 12.3 38.2 30.2.8 18-15.1 32.7-35.4 32.6-56.1.1-111.9.3-167.4.4-20.1 0-36.6-12.7-36.8-28.4C1580.7 1306.9 1596.6 1294.1 1616.5 1293.6zM1222.7 1290.7c93.4 3.4 185.4 5 277.5 4.5 19.8-.1 36 12.1 36.1 27.5.1 15.5-16.1 28.2-36.2 28.3-93.2.2-186.3.4-280.6.7-20.3.1-36.1-14-35.1-31.4C1185.3 1303 1202.6 1289.9 1222.7 1290.7zM1214.2 1497.8c65.4 7.4 131.3 12.3 197.2 14.7 29.5 1 59 1.6 88.5 1.6 40.2 0 80.3-.9 120.5-2.7 25.8-1.2 51.6-2.8 77.3-4.8 30.8-2.4 61.6-5.3 92.4-8.8 20.3-2.4 39.8 10.2 43.6 28.7 3.8 18.7-10.3 35.2-31.6 36.5-32.1 2.1-64.2 3.9-96.4 5.3-26.8 1.2-53.7 2.1-80.5 2.8-41.8 1.1-83.6 1.5-125.4 1.4-30.7-.1-61.5-.6-92.2-1.3-68.7-1.7-137.2-5.1-205.6-10.1-21.4-1.5-35.4-17.6-31.5-35.6C1174.4 1507.5 1193.9 1495.4 1214.2 1497.8zM1214.2 1390.6c65.4 7.4 131.3 12.3 197.2 14.7 29.5 1 59 1.6 88.5 1.6 40.2 0 80.3-.9 120.5-2.7 25.8-1.2 51.6-2.8 77.3-4.8 30.8-2.4 61.6-5.3 92.4-8.8 20.3-2.4 39.8 10.2 43.6 28.7 3.8 18.7-10.3 35.2-31.6 36.5-32.1 2.1-64.2 3.9-96.4 5.3-26.8 1.2-53.7 2.1-80.5 2.8-41.8 1.1-83.6 1.5-125.4 1.4-30.7-.1-61.5-.6-92.2-1.3-68.7-1.7-137.2-5.1-205.6-10.1-21.4-1.5-35.4-17.6-31.5-35.6C1174.4 1400.4 1193.9 1388.2 1214.2 1390.6z"/></g><path fill="#f6bb36" d="M1549.3,239.2c0,28.1-22.6,50.7-50.7,50.7c-28.1,0-50.8-22.6-50.8-50.7c0-28.1,22.7-50.7,50.8-50.7
								C1526.7,188.5,1549.3,211.2,1549.3,239.2z"/><radialGradient id="h" cx="1498.553" cy="239.236" r="50.734" gradientUnits="userSpaceOnUse"><stop offset="0" stop-color="#fff"/><stop offset=".209" stop-color="#f9f2a2"/><stop offset=".357" stop-color="#f5e857"/><stop offset=".456" stop-color="#ffc424"/><stop offset=".522" stop-color="#f2a624"/><stop offset=".582" stop-color="#db8a17"/><stop offset=".654" stop-color="#c46b11"/><stop offset=".736" stop-color="#47310a"/><stop offset=".819"/><stop offset=".868" stop-color="#493203"/><stop offset=".907" stop-color="#84601d"/><stop offset="1" stop-color="#efb44c"/></radialGradient><path fill="url(#h)" d="M1549.3,239.2c0,28.1-22.6,50.7-50.7,50.7c-28.1,0-50.8-22.6-50.8-50.7c0-28.1,22.7-50.7,50.8-50.7
								C1526.7,188.5,1549.3,211.2,1549.3,239.2z"/><path fill="#bfcf54" d="M1498.6,292.4c-29.3,0-53.1-23.9-53.1-53.1c0-29.3,23.8-53.1,53.1-53.1c29.3,0,53.1,23.8,53.1,53.1
									C1551.7,268.5,1527.9,292.4,1498.6,292.4z M1498.6,190.8c-26.7,0-48.4,21.7-48.4,48.4c0,26.7,21.6,48.4,48.4,48.4
									c26.7,0,48.3-21.7,48.3-48.4C1546.9,212.5,1525.3,190.8,1498.6,190.8z"/><path fill="#f6bb36" d="M1708,390.3c0,28.1-22.6,50.7-50.7,50.7c-28.1,0-50.8-22.6-50.8-50.7c0-28.1,22.7-50.7,50.8-50.7
								C1685.4,339.6,1708,362.3,1708,390.3z"/><radialGradient id="i" cx="1657.249" cy="390.353" r="50.735" gradientUnits="userSpaceOnUse"><stop offset="0" stop-color="#fff"/><stop offset=".209" stop-color="#f9f2a2"/><stop offset=".357" stop-color="#f5e857"/><stop offset=".456" stop-color="#ffc424"/><stop offset=".522" stop-color="#f2a624"/><stop offset=".582" stop-color="#db8a17"/><stop offset=".654" stop-color="#c46b11"/><stop offset=".736" stop-color="#47310a"/><stop offset=".819"/><stop offset=".868" stop-color="#493203"/><stop offset=".907" stop-color="#84601d"/><stop offset="1" stop-color="#efb44c"/></radialGradient><path fill="url(#i)" d="M1708,390.3c0,28.1-22.6,50.7-50.7,50.7c-28.1,0-50.8-22.6-50.8-50.7c0-28.1,22.7-50.7,50.8-50.7
								C1685.4,339.6,1708,362.3,1708,390.3z"/><path fill="#bfcf54" d="M1657.3,443.5c-29.3,0-53.1-23.9-53.1-53.1c0-29.3,23.8-53.1,53.1-53.1c29.3,0,53.1,23.8,53.1,53.1
									C1710.4,419.6,1686.6,443.5,1657.3,443.5z M1657.3,341.9c-26.7,0-48.4,21.7-48.4,48.4c0,26.7,21.6,48.4,48.4,48.4
									c26.7,0,48.3-21.7,48.3-48.4C1705.6,363.6,1684,341.9,1657.3,341.9z"/><g><path fill="#f6bb36" d="M1866.7,541.5c0,28.1-22.6,50.7-50.7,50.7c-28.1,0-50.8-22.6-50.8-50.7c0-28.1,22.7-50.7,50.8-50.7
								C1844.1,490.8,1866.7,513.4,1866.7,541.5z"/><radialGradient id="j" cx="1815.947" cy="541.468" r="50.734" gradientUnits="userSpaceOnUse"><stop offset="0" stop-color="#fff"/><stop offset=".209" stop-color="#f9f2a2"/><stop offset=".357" stop-color="#f5e857"/><stop offset=".456" stop-color="#ffc424"/><stop offset=".522" stop-color="#f2a624"/><stop offset=".582" stop-color="#db8a17"/><stop offset=".654" stop-color="#c46b11"/><stop offset=".736" stop-color="#47310a"/><stop offset=".819"/><stop offset=".868" stop-color="#493203"/><stop offset=".907" stop-color="#84601d"/><stop offset="1" stop-color="#efb44c"/></radialGradient><path fill="url(#j)" d="M1866.7,541.5c0,28.1-22.6,50.7-50.7,50.7c-28.1,0-50.8-22.6-50.8-50.7c0-28.1,22.7-50.7,50.8-50.7
								C1844.1,490.8,1866.7,513.4,1866.7,541.5z"/><path fill="#bfcf54" d="M1816,594.6c-29.3,0-53.1-23.9-53.1-53.1c0-29.3,23.8-53.1,53.1-53.1c29.3,0,53.1,23.8,53.1,53.1
									C1869.1,570.8,1845.3,594.6,1816,594.6z M1816,493c-26.7,0-48.4,21.7-48.4,48.4c0,26.7,21.6,48.4,48.4,48.4
									c26.7,0,48.3-21.7,48.3-48.4C1864.3,514.8,1842.7,493,1816,493z"/></g><g><path fill="#f6bb36" d="M2025.4,692.6c0,28.1-22.6,50.7-50.7,50.7c-28.1,0-50.8-22.6-50.8-50.7c0-28.1,22.7-50.7,50.8-50.7
								C2002.8,641.9,2025.4,664.5,2025.4,692.6z"/><radialGradient id="k" cx="1974.644" cy="692.585" r="50.735" gradientUnits="userSpaceOnUse"><stop offset="0" stop-color="#fff"/><stop offset=".209" stop-color="#f9f2a2"/><stop offset=".357" stop-color="#f5e857"/><stop offset=".456" stop-color="#ffc424"/><stop offset=".522" stop-color="#f2a624"/><stop offset=".582" stop-color="#db8a17"/><stop offset=".654" stop-color="#c46b11"/><stop offset=".736" stop-color="#47310a"/><stop offset=".819"/><stop offset=".868" stop-color="#493203"/><stop offset=".907" stop-color="#84601d"/><stop offset="1" stop-color="#efb44c"/></radialGradient><path fill="url(#k)" d="M2025.4,692.6c0,28.1-22.6,50.7-50.7,50.7c-28.1,0-50.8-22.6-50.8-50.7c0-28.1,22.7-50.7,50.8-50.7
								C2002.8,641.9,2025.4,664.5,2025.4,692.6z"/><path fill="#bfcf54" d="M1974.7,745.7c-29.3,0-53.1-23.9-53.1-53.1c0-29.3,23.8-53.1,53.1-53.1c29.3,0,53.1,23.8,53.1,53.1
									C2027.8,721.9,2004,745.7,1974.7,745.7z M1974.7,644.1c-26.7,0-48.4,21.7-48.4,48.4c0,26.7,21.6,48.4,48.4,48.4
									c26.7,0,48.3-21.7,48.3-48.4C2023,665.9,2001.4,644.1,1974.7,644.1z"/></g><g><path fill="#f6bb36" d="M2184.1,843.7c0,28.1-22.6,50.7-50.7,50.7c-28.1,0-50.8-22.6-50.8-50.7c0-28.1,22.7-50.7,50.8-50.7
								C2161.5,793,2184.1,815.6,2184.1,843.7z"/><radialGradient id="l" cx="2133.341" cy="843.7" r="50.734" gradientUnits="userSpaceOnUse"><stop offset="0" stop-color="#fff"/><stop offset=".209" stop-color="#f9f2a2"/><stop offset=".357" stop-color="#f5e857"/><stop offset=".456" stop-color="#ffc424"/><stop offset=".522" stop-color="#f2a624"/><stop offset=".582" stop-color="#db8a17"/><stop offset=".654" stop-color="#c46b11"/><stop offset=".736" stop-color="#47310a"/><stop offset=".819"/><stop offset=".868" stop-color="#493203"/><stop offset=".907" stop-color="#84601d"/><stop offset="1" stop-color="#efb44c"/></radialGradient><path fill="url(#l)" d="M2184.1,843.7c0,28.1-22.6,50.7-50.7,50.7c-28.1,0-50.8-22.6-50.8-50.7c0-28.1,22.7-50.7,50.8-50.7
								C2161.5,793,2184.1,815.6,2184.1,843.7z"/><path fill="#bfcf54" d="M2133.4,896.8c-29.3,0-53.1-23.9-53.1-53.1c0-29.3,23.8-53.1,53.1-53.1c29.3,0,53.1,23.8,53.1,53.1
									C2186.5,873,2162.6,896.8,2133.4,896.8z M2133.4,795.3c-26.7,0-48.4,21.7-48.4,48.4c0,26.7,21.6,48.4,48.4,48.4
									c26.7,0,48.3-21.7,48.3-48.4C2181.7,817,2160.1,795.3,2133.4,795.3z"/></g><g><path fill="#f6bb36" d="M912.5,843.7c0-28.1-22.6-50.7-50.7-50.7c-28.1,0-50.8,22.6-50.8,50.7c0,28.1,22.7,50.7,50.8,50.7
								C889.9,894.4,912.5,871.8,912.5,843.7z"/><radialGradient id="m" cx="861.742" cy="2308.747" r="50.735" gradientTransform="matrix(1 0 0 -1 0 3152.47)" gradientUnits="userSpaceOnUse"><stop offset="0" stop-color="#fff"/><stop offset=".209" stop-color="#f9f2a2"/><stop offset=".357" stop-color="#f5e857"/><stop offset=".456" stop-color="#ffc424"/><stop offset=".522" stop-color="#f2a624"/><stop offset=".582" stop-color="#db8a17"/><stop offset=".654" stop-color="#c46b11"/><stop offset=".736" stop-color="#47310a"/><stop offset=".819"/><stop offset=".868" stop-color="#493203"/><stop offset=".907" stop-color="#84601d"/><stop offset="1" stop-color="#efb44c"/></radialGradient><path fill="url(#m)" d="M912.5,843.7c0-28.1-22.6-50.7-50.7-50.7c-28.1,0-50.8,22.6-50.8,50.7c0,28.1,22.7,50.7,50.8,50.7
								C889.9,894.4,912.5,871.8,912.5,843.7z"/><path fill="#bfcf54" d="M914.9,843.7c0,29.3-23.8,53.1-53.1,53.1c-29.3,0-53.1-23.8-53.1-53.1c0-29.3,23.8-53.1,53.1-53.1
									C891,790.6,914.9,814.4,914.9,843.7z M910.1,843.7c0-26.7-21.6-48.5-48.3-48.5c-26.7,0-48.4,21.7-48.4,48.5
									c0,26.7,21.6,48.4,48.4,48.4C888.5,892.2,910.1,870.4,910.1,843.7z"/><g><path fill="#f6bb36" d="M1071.2,692.6c0-28.1-22.6-50.7-50.7-50.7c-28.1,0-50.8,22.6-50.8,50.7c0,28.1,22.7,50.7,50.8,50.7
								C1048.6,743.3,1071.2,720.7,1071.2,692.6z"/><radialGradient id="n" cx="1020.439" cy="2459.863" r="50.734" gradientTransform="matrix(1 0 0 -1 0 3152.47)" gradientUnits="userSpaceOnUse"><stop offset="0" stop-color="#fff"/><stop offset=".209" stop-color="#f9f2a2"/><stop offset=".357" stop-color="#f5e857"/><stop offset=".456" stop-color="#ffc424"/><stop offset=".522" stop-color="#f2a624"/><stop offset=".582" stop-color="#db8a17"/><stop offset=".654" stop-color="#c46b11"/><stop offset=".736" stop-color="#47310a"/><stop offset=".819"/><stop offset=".868" stop-color="#493203"/><stop offset=".907" stop-color="#84601d"/><stop offset="1" stop-color="#efb44c"/></radialGradient><path fill="url(#n)" d="M1071.2,692.6c0-28.1-22.6-50.7-50.7-50.7c-28.1,0-50.8,22.6-50.8,50.7c0,28.1,22.7,50.7,50.8,50.7
								C1048.6,743.3,1071.2,720.7,1071.2,692.6z"/><path fill="#bfcf54" d="M1073.6,692.6c0,29.3-23.8,53.1-53.1,53.1c-29.3,0-53.1-23.8-53.1-53.1c0-29.3,23.8-53.1,53.1-53.1
									C1049.7,639.5,1073.6,663.3,1073.6,692.6z M1068.8,692.6c0-26.7-21.6-48.4-48.3-48.4c-26.7,0-48.4,21.7-48.4,48.4
									c0,26.7,21.6,48.4,48.4,48.4C1047.2,741.1,1068.8,719.3,1068.8,692.6z"/></g><g><path fill="#f6bb36" d="M1229.9,541.5c0-28.1-22.6-50.7-50.7-50.7c-28.1,0-50.8,22.6-50.8,50.7c0,28.1,22.7,50.7,50.8,50.7
								C1207.3,592.2,1229.9,569.6,1229.9,541.5z"/><radialGradient id="o" cx="1179.137" cy="2610.979" r="50.735" gradientTransform="matrix(1 0 0 -1 0 3152.47)" gradientUnits="userSpaceOnUse"><stop offset="0" stop-color="#fff"/><stop offset=".209" stop-color="#f9f2a2"/><stop offset=".357" stop-color="#f5e857"/><stop offset=".456" stop-color="#ffc424"/><stop offset=".522" stop-color="#f2a624"/><stop offset=".582" stop-color="#db8a17"/><stop offset=".654" stop-color="#c46b11"/><stop offset=".736" stop-color="#47310a"/><stop offset=".819"/><stop offset=".868" stop-color="#493203"/><stop offset=".907" stop-color="#84601d"/><stop offset="1" stop-color="#efb44c"/></radialGradient><path fill="url(#o)" d="M1229.9,541.5c0-28.1-22.6-50.7-50.7-50.7c-28.1,0-50.8,22.6-50.8,50.7c0,28.1,22.7,50.7,50.8,50.7
								C1207.3,592.2,1229.9,569.6,1229.9,541.5z"/><path fill="#bfcf54" d="M1232.3,541.5c0,29.3-23.8,53.1-53.1,53.1c-29.3,0-53.1-23.8-53.1-53.1c0-29.3,23.8-53.1,53.1-53.1
									C1208.4,488.4,1232.3,512.2,1232.3,541.5z M1227.5,541.5c0-26.7-21.6-48.5-48.3-48.5c-26.7,0-48.4,21.7-48.4,48.5
									c0,26.7,21.6,48.4,48.4,48.4C1205.9,589.9,1227.5,568.2,1227.5,541.5z"/></g><g><path fill="#f6bb36" d="M1388.6,390.4c0-28.1-22.6-50.7-50.7-50.7c-28.1,0-50.8,22.6-50.8,50.7c0,28.1,22.7,50.7,50.8,50.7
								C1366,441.1,1388.6,418.4,1388.6,390.4z"/><radialGradient id="p" cx="1337.834" cy="2762.095" r="50.734" gradientTransform="matrix(1 0 0 -1 0 3152.47)" gradientUnits="userSpaceOnUse"><stop offset="0" stop-color="#fff"/><stop offset=".209" stop-color="#f9f2a2"/><stop offset=".357" stop-color="#f5e857"/><stop offset=".456" stop-color="#ffc424"/><stop offset=".522" stop-color="#f2a624"/><stop offset=".582" stop-color="#db8a17"/><stop offset=".654" stop-color="#c46b11"/><stop offset=".736" stop-color="#47310a"/><stop offset=".819"/><stop offset=".868" stop-color="#493203"/><stop offset=".907" stop-color="#84601d"/><stop offset="1" stop-color="#efb44c"/></radialGradient><path fill="url(#p)" d="M1388.6,390.4c0-28.1-22.6-50.7-50.7-50.7c-28.1,0-50.8,22.6-50.8,50.7c0,28.1,22.7,50.7,50.8,50.7
								C1366,441.1,1388.6,418.4,1388.6,390.4z"/><path fill="#bfcf54" d="M1391,390.4c0,29.3-23.8,53.1-53.1,53.1c-29.3,0-53.1-23.8-53.1-53.1c0-29.3,23.8-53.1,53.1-53.1
									C1367.1,337.2,1391,361.1,1391,390.4z M1386.2,390.4c0-26.7-21.6-48.5-48.3-48.5c-26.7,0-48.4,21.7-48.4,48.5
									c0,26.7,21.6,48.4,48.4,48.4C1364.6,438.8,1386.2,417.1,1386.2,390.4z"/></g></g><g><path fill="#f6bb36" d="M1933.4,843.7c0,28.1-22.6,50.7-50.7,50.7c-28.1,0-50.8-22.6-50.8-50.7c0-28.1,22.7-50.7,50.8-50.7
								C1910.8,793,1933.4,815.6,1933.4,843.7z"/><radialGradient id="q" cx="1882.66" cy="843.7" r="50.734" gradientUnits="userSpaceOnUse"><stop offset="0" stop-color="#fff"/><stop offset=".209" stop-color="#f9f2a2"/><stop offset=".357" stop-color="#f5e857"/><stop offset=".456" stop-color="#ffc424"/><stop offset=".522" stop-color="#f2a624"/><stop offset=".582" stop-color="#db8a17"/><stop offset=".654" stop-color="#c46b11"/><stop offset=".736" stop-color="#47310a"/><stop offset=".819"/><stop offset=".868" stop-color="#493203"/><stop offset=".907" stop-color="#84601d"/><stop offset="1" stop-color="#efb44c"/></radialGradient><path fill="url(#q)" d="M1933.4,843.7c0,28.1-22.6,50.7-50.7,50.7c-28.1,0-50.8-22.6-50.8-50.7c0-28.1,22.7-50.7,50.8-50.7
								C1910.8,793,1933.4,815.6,1933.4,843.7z"/><path fill="#bfcf54" d="M1882.7,896.8c-29.3,0-53.1-23.9-53.1-53.1c0-29.3,23.8-53.1,53.1-53.1c29.3,0,53.1,23.8,53.1,53.1
									C1935.8,873,1912,896.8,1882.7,896.8z M1882.7,795.3c-26.7,0-48.4,21.7-48.4,48.4c0,26.7,21.6,48.4,48.4,48.4
									c26.7,0,48.3-21.7,48.3-48.4C1931,817,1909.4,795.3,1882.7,795.3z"/><path fill="#f6bb36" d="M1960.8,1053.3c0,28.1-22.6,50.7-50.7,50.7c-28.1,0-50.8-22.6-50.8-50.7c0-28.1,22.7-50.7,50.8-50.7
								C1938.2,1002.6,1960.8,1025.2,1960.8,1053.3z"/><radialGradient id="r" cx="1910.049" cy="1053.284" r="50.734" gradientUnits="userSpaceOnUse"><stop offset="0" stop-color="#fff"/><stop offset=".209" stop-color="#f9f2a2"/><stop offset=".357" stop-color="#f5e857"/><stop offset=".456" stop-color="#ffc424"/><stop offset=".522" stop-color="#f2a624"/><stop offset=".582" stop-color="#db8a17"/><stop offset=".654" stop-color="#c46b11"/><stop offset=".736" stop-color="#47310a"/><stop offset=".819"/><stop offset=".868" stop-color="#493203"/><stop offset=".907" stop-color="#84601d"/><stop offset="1" stop-color="#efb44c"/></radialGradient><path fill="url(#r)" d="M1960.8,1053.3c0,28.1-22.6,50.7-50.7,50.7c-28.1,0-50.8-22.6-50.8-50.7c0-28.1,22.7-50.7,50.8-50.7
								C1938.2,1002.6,1960.8,1025.2,1960.8,1053.3z"/><path fill="#bfcf54" d="M1910.1,1106.4c-29.3,0-53.1-23.9-53.1-53.1c0-29.3,23.8-53.1,53.1-53.1c29.3,0,53.1,23.8,53.1,53.1
									C1963.2,1082.6,1939.4,1106.4,1910.1,1106.4z M1910.1,1004.8c-26.7,0-48.4,21.7-48.4,48.4c0,26.7,21.6,48.5,48.4,48.5
									c26.7,0,48.3-21.7,48.3-48.5C1958.4,1026.6,1936.8,1004.8,1910.1,1004.8z"/><g><path fill="#f6bb36" d="M1988.2,1262.9c0,28.1-22.6,50.7-50.7,50.7c-28.1,0-50.8-22.6-50.8-50.7c0-28.1,22.7-50.7,50.8-50.7
								C1965.6,1212.2,1988.2,1234.8,1988.2,1262.9z"/><radialGradient id="s" cx="1937.437" cy="1262.867" r="50.734" gradientUnits="userSpaceOnUse"><stop offset="0" stop-color="#fff"/><stop offset=".209" stop-color="#f9f2a2"/><stop offset=".357" stop-color="#f5e857"/><stop offset=".456" stop-color="#ffc424"/><stop offset=".522" stop-color="#f2a624"/><stop offset=".582" stop-color="#db8a17"/><stop offset=".654" stop-color="#c46b11"/><stop offset=".736" stop-color="#47310a"/><stop offset=".819"/><stop offset=".868" stop-color="#493203"/><stop offset=".907" stop-color="#84601d"/><stop offset="1" stop-color="#efb44c"/></radialGradient><path fill="url(#s)" d="M1988.2,1262.9c0,28.1-22.6,50.7-50.7,50.7c-28.1,0-50.8-22.6-50.8-50.7c0-28.1,22.7-50.7,50.8-50.7
								C1965.6,1212.2,1988.2,1234.8,1988.2,1262.9z"/><path fill="#bfcf54" d="M1937.5,1316c-29.3,0-53.1-23.9-53.1-53.1c0-29.3,23.8-53.1,53.1-53.1c29.3,0,53.1,23.8,53.1,53.1
									C1990.6,1292.2,1966.7,1316,1937.5,1316z M1937.5,1214.4c-26.7,0-48.4,21.7-48.4,48.4c0,26.7,21.6,48.4,48.4,48.4
									c26.7,0,48.3-21.7,48.3-48.4C1985.8,1236.2,1964.2,1214.4,1937.5,1214.4z"/></g><g><path fill="#f6bb36" d="M2015.6,1472.4c0,28.1-22.6,50.7-50.7,50.7c-28.1,0-50.8-22.6-50.8-50.7c0-28.1,22.7-50.7,50.8-50.7
								C1992.9,1421.7,2015.6,1444.4,2015.6,1472.4z"/><radialGradient id="t" cx="1964.825" cy="1472.449" r="50.734" gradientUnits="userSpaceOnUse"><stop offset="0" stop-color="#fff"/><stop offset=".209" stop-color="#f9f2a2"/><stop offset=".357" stop-color="#f5e857"/><stop offset=".456" stop-color="#ffc424"/><stop offset=".522" stop-color="#f2a624"/><stop offset=".582" stop-color="#db8a17"/><stop offset=".654" stop-color="#c46b11"/><stop offset=".736" stop-color="#47310a"/><stop offset=".819"/><stop offset=".868" stop-color="#493203"/><stop offset=".907" stop-color="#84601d"/><stop offset="1" stop-color="#efb44c"/></radialGradient><path fill="url(#t)" d="M2015.6,1472.4c0,28.1-22.6,50.7-50.7,50.7c-28.1,0-50.8-22.6-50.8-50.7c0-28.1,22.7-50.7,50.8-50.7
								C1992.9,1421.7,2015.6,1444.4,2015.6,1472.4z"/><path fill="#bfcf54" d="M1964.9,1525.6c-29.3,0-53.1-23.9-53.1-53.1c0-29.3,23.8-53.1,53.1-53.1c29.3,0,53.1,23.8,53.1,53.1
									C2018,1501.7,1994.1,1525.6,1964.9,1525.6z M1964.9,1424c-26.7,0-48.4,21.7-48.4,48.4c0,26.7,21.6,48.4,48.4,48.4
									c26.7,0,48.3-21.7,48.3-48.4C2013.1,1445.7,1991.6,1424,1964.9,1424z"/></g><g><path fill="#f6bb36" d="M2043,1682c0,28.1-22.6,50.7-50.7,50.7c-28.1,0-50.8-22.6-50.8-50.7c0-28.1,22.7-50.7,50.8-50.7
								C2020.3,1631.3,2043,1654,2043,1682z"/><radialGradient id="u" cx="1992.213" cy="1682.032" r="50.735" gradientUnits="userSpaceOnUse"><stop offset="0" stop-color="#fff"/><stop offset=".209" stop-color="#f9f2a2"/><stop offset=".357" stop-color="#f5e857"/><stop offset=".456" stop-color="#ffc424"/><stop offset=".522" stop-color="#f2a624"/><stop offset=".582" stop-color="#db8a17"/><stop offset=".654" stop-color="#c46b11"/><stop offset=".736" stop-color="#47310a"/><stop offset=".819"/><stop offset=".868" stop-color="#493203"/><stop offset=".907" stop-color="#84601d"/><stop offset="1" stop-color="#efb44c"/></radialGradient><path fill="url(#u)" d="M2043,1682c0,28.1-22.6,50.7-50.7,50.7c-28.1,0-50.8-22.6-50.8-50.7c0-28.1,22.7-50.7,50.8-50.7
								C2020.3,1631.3,2043,1654,2043,1682z"/><path fill="#bfcf54" d="M1992.3,1735.2c-29.3,0-53.1-23.9-53.1-53.1c0-29.3,23.8-53.1,53.1-53.1c29.3,0,53.1,23.8,53.1,53.1
									C2045.4,1711.3,2021.5,1735.2,1992.3,1735.2z M1992.3,1633.6c-26.7,0-48.4,21.7-48.4,48.4c0,26.7,21.6,48.5,48.4,48.5
									c26.7,0,48.3-21.7,48.3-48.5C2040.5,1655.3,2019,1633.6,1992.3,1633.6z"/></g><g><path fill="#f6bb36" d="M2070.4,1891.6c0,28.1-22.6,50.7-50.7,50.7c-28.1,0-50.8-22.6-50.8-50.7c0-28.1,22.7-50.7,50.8-50.7
								C2047.7,1840.9,2070.4,1863.5,2070.4,1891.6z"/><radialGradient id="v" cx="2019.602" cy="1891.615" r="50.734" gradientUnits="userSpaceOnUse"><stop offset="0" stop-color="#fff"/><stop offset=".209" stop-color="#f9f2a2"/><stop offset=".357" stop-color="#f5e857"/><stop offset=".456" stop-color="#ffc424"/><stop offset=".522" stop-color="#f2a624"/><stop offset=".582" stop-color="#db8a17"/><stop offset=".654" stop-color="#c46b11"/><stop offset=".736" stop-color="#47310a"/><stop offset=".819"/><stop offset=".868" stop-color="#493203"/><stop offset=".907" stop-color="#84601d"/><stop offset="1" stop-color="#efb44c"/></radialGradient><path fill="url(#v)" d="M2070.4,1891.6c0,28.1-22.6,50.7-50.7,50.7c-28.1,0-50.8-22.6-50.8-50.7c0-28.1,22.7-50.7,50.8-50.7
								C2047.7,1840.9,2070.4,1863.5,2070.4,1891.6z"/><path fill="#bfcf54" d="M2019.6,1944.8c-29.3,0-53.1-23.9-53.1-53.1c0-29.3,23.8-53.1,53.1-53.1c29.3,0,53.1,23.8,53.1,53.1
									C2072.7,1920.9,2048.9,1944.8,2019.6,1944.8z M2019.6,1843.2c-26.7,0-48.4,21.7-48.4,48.4c0,26.7,21.6,48.5,48.4,48.5
									c26.7,0,48.3-21.7,48.3-48.5C2067.9,1864.9,2046.3,1843.2,2019.6,1843.2z"/></g><g><path fill="#f6bb36" d="M2097.8,2101.2c0,28.1-22.6,50.7-50.7,50.7c-28.1,0-50.8-22.6-50.8-50.7c0-28.1,22.7-50.7,50.8-50.7
								C2075.1,2050.5,2097.8,2073.1,2097.8,2101.2z"/><radialGradient id="w" cx="2046.99" cy="2101.197" r="50.735" gradientUnits="userSpaceOnUse"><stop offset="0" stop-color="#fff"/><stop offset=".209" stop-color="#f9f2a2"/><stop offset=".357" stop-color="#f5e857"/><stop offset=".456" stop-color="#ffc424"/><stop offset=".522" stop-color="#f2a624"/><stop offset=".582" stop-color="#db8a17"/><stop offset=".654" stop-color="#c46b11"/><stop offset=".736" stop-color="#47310a"/><stop offset=".819"/><stop offset=".868" stop-color="#493203"/><stop offset=".907" stop-color="#84601d"/><stop offset="1" stop-color="#efb44c"/></radialGradient><path fill="url(#w)" d="M2097.8,2101.2c0,28.1-22.6,50.7-50.7,50.7c-28.1,0-50.8-22.6-50.8-50.7c0-28.1,22.7-50.7,50.8-50.7
								C2075.1,2050.5,2097.8,2073.1,2097.8,2101.2z"/><path fill="#bfcf54" d="M2047,2154.3c-29.3,0-53.1-23.9-53.1-53.1c0-29.3,23.8-53.1,53.1-53.1c29.3,0,53.1,23.8,53.1,53.1
									C2100.1,2130.5,2076.3,2154.3,2047,2154.3z M2047,2052.8c-26.7,0-48.4,21.7-48.4,48.4c0,26.7,21.6,48.4,48.4,48.4
									c26.7,0,48.3-21.7,48.3-48.4C2095.3,2074.5,2073.7,2052.8,2047,2052.8z"/></g><g><path fill="#f6bb36" d="M2125.1,2310.8c0,28.1-22.6,50.7-50.7,50.7c-28.1,0-50.8-22.6-50.8-50.7c0-28.1,22.7-50.7,50.8-50.7
								C2102.5,2260.1,2125.1,2282.7,2125.1,2310.8z"/><radialGradient id="x" cx="2074.379" cy="2310.78" r="50.735" gradientUnits="userSpaceOnUse"><stop offset="0" stop-color="#fff"/><stop offset=".209" stop-color="#f9f2a2"/><stop offset=".357" stop-color="#f5e857"/><stop offset=".456" stop-color="#ffc424"/><stop offset=".522" stop-color="#f2a624"/><stop offset=".582" stop-color="#db8a17"/><stop offset=".654" stop-color="#c46b11"/><stop offset=".736" stop-color="#47310a"/><stop offset=".819"/><stop offset=".868" stop-color="#493203"/><stop offset=".907" stop-color="#84601d"/><stop offset="1" stop-color="#efb44c"/></radialGradient><path fill="url(#x)" d="M2125.1,2310.8c0,28.1-22.6,50.7-50.7,50.7c-28.1,0-50.8-22.6-50.8-50.7c0-28.1,22.7-50.7,50.8-50.7
								C2102.5,2260.1,2125.1,2282.7,2125.1,2310.8z"/><path fill="#bfcf54" d="M2074.4,2363.9c-29.3,0-53.1-23.9-53.1-53.1c0-29.3,23.8-53.1,53.1-53.1c29.3,0,53.1,23.8,53.1,53.1
									C2127.5,2340.1,2103.7,2363.9,2074.4,2363.9z M2074.4,2262.3c-26.7,0-48.4,21.7-48.4,48.4c0,26.7,21.6,48.4,48.4,48.4
									c26.7,0,48.3-21.7,48.3-48.4C2122.7,2284.1,2101.1,2262.3,2074.4,2262.3z"/></g></g><g><path fill="#f6bb36" d="M975.2,2310.8c0-28.1-22.6-50.7-50.7-50.7c-28.1,0-50.8,22.6-50.8,50.7c0,28.1,22.7,50.7,50.8,50.7
								C952.5,2361.5,975.2,2338.9,975.2,2310.8z"/><radialGradient id="y" cx="924.413" cy="1183.233" r="50.734" gradientTransform="matrix(1 0 0 -1 0 3494.036)" gradientUnits="userSpaceOnUse"><stop offset="0" stop-color="#fff"/><stop offset=".209" stop-color="#f9f2a2"/><stop offset=".357" stop-color="#f5e857"/><stop offset=".456" stop-color="#ffc424"/><stop offset=".522" stop-color="#f2a624"/><stop offset=".582" stop-color="#db8a17"/><stop offset=".654" stop-color="#c46b11"/><stop offset=".736" stop-color="#47310a"/><stop offset=".819"/><stop offset=".868" stop-color="#493203"/><stop offset=".907" stop-color="#84601d"/><stop offset="1" stop-color="#efb44c"/></radialGradient><path fill="url(#y)" d="M975.2,2310.8c0-28.1-22.6-50.7-50.7-50.7c-28.1,0-50.8,22.6-50.8,50.7c0,28.1,22.7,50.7,50.8,50.7
								C952.5,2361.5,975.2,2338.9,975.2,2310.8z"/><path fill="#bfcf54" d="M977.6,2310.8c0,29.3-23.8,53.1-53.1,53.1c-29.3,0-53.1-23.8-53.1-53.1c0-29.3,23.8-53.1,53.1-53.1
									C953.7,2257.7,977.6,2281.5,977.6,2310.8z M972.7,2310.8c0-26.7-21.6-48.4-48.3-48.4c-26.7,0-48.4,21.7-48.4,48.4
									c0,26.7,21.6,48.4,48.4,48.4C951.2,2359.2,972.7,2337.5,972.7,2310.8z"/><path fill="#f6bb36" d="M1002.6,2101.2c0-28.1-22.6-50.7-50.7-50.7c-28.1,0-50.8,22.6-50.8,50.7c0,28.1,22.7,50.7,50.8,50.7
								C979.9,2151.9,1002.6,2129.3,1002.6,2101.2z"/><radialGradient id="z" cx="951.801" cy="1392.815" r="50.734" gradientTransform="matrix(1 0 0 -1 0 3494.036)" gradientUnits="userSpaceOnUse"><stop offset="0" stop-color="#fff"/><stop offset=".209" stop-color="#f9f2a2"/><stop offset=".357" stop-color="#f5e857"/><stop offset=".456" stop-color="#ffc424"/><stop offset=".522" stop-color="#f2a624"/><stop offset=".582" stop-color="#db8a17"/><stop offset=".654" stop-color="#c46b11"/><stop offset=".736" stop-color="#47310a"/><stop offset=".819"/><stop offset=".868" stop-color="#493203"/><stop offset=".907" stop-color="#84601d"/><stop offset="1" stop-color="#efb44c"/></radialGradient><path fill="url(#z)" d="M1002.6,2101.2c0-28.1-22.6-50.7-50.7-50.7c-28.1,0-50.8,22.6-50.8,50.7c0,28.1,22.7,50.7,50.8,50.7
								C979.9,2151.9,1002.6,2129.3,1002.6,2101.2z"/><path fill="#bfcf54" d="M1004.9,2101.2c0,29.3-23.8,53.1-53.1,53.1c-29.3,0-53.1-23.8-53.1-53.1c0-29.3,23.8-53.1,53.1-53.1
									C981.1,2048.1,1004.9,2071.9,1004.9,2101.2z M1000.1,2101.2c0-26.7-21.6-48.4-48.3-48.4c-26.7,0-48.4,21.7-48.4,48.4
									c0,26.7,21.6,48.4,48.4,48.4C978.5,2149.7,1000.1,2127.9,1000.1,2101.2z"/><g><path fill="#f6bb36" d="M1029.9,1891.6c0-28.1-22.6-50.7-50.7-50.7c-28.1,0-50.8,22.6-50.8,50.7c0,28.1,22.7,50.7,50.8,50.7
								C1007.3,1942.3,1029.9,1919.7,1029.9,1891.6z"/><radialGradient id="A" cx="979.189" cy="1602.398" r="50.734" gradientTransform="matrix(1 0 0 -1 0 3494.036)" gradientUnits="userSpaceOnUse"><stop offset="0" stop-color="#fff"/><stop offset=".209" stop-color="#f9f2a2"/><stop offset=".357" stop-color="#f5e857"/><stop offset=".456" stop-color="#ffc424"/><stop offset=".522" stop-color="#f2a624"/><stop offset=".582" stop-color="#db8a17"/><stop offset=".654" stop-color="#c46b11"/><stop offset=".736" stop-color="#47310a"/><stop offset=".819"/><stop offset=".868" stop-color="#493203"/><stop offset=".907" stop-color="#84601d"/><stop offset="1" stop-color="#efb44c"/></radialGradient><path fill="url(#A)" d="M1029.9,1891.6c0-28.1-22.6-50.7-50.7-50.7c-28.1,0-50.8,22.6-50.8,50.7c0,28.1,22.7,50.7,50.8,50.7
								C1007.3,1942.3,1029.9,1919.7,1029.9,1891.6z"/><path fill="#bfcf54" d="M1032.3,1891.6c0,29.3-23.8,53.1-53.1,53.1c-29.3,0-53.1-23.8-53.1-53.1c0-29.3,23.8-53.1,53.1-53.1
									C1008.5,1838.5,1032.3,1862.4,1032.3,1891.6z M1027.5,1891.6c0-26.7-21.6-48.4-48.3-48.4c-26.7,0-48.4,21.7-48.4,48.4
									c0,26.7,21.6,48.4,48.4,48.4C1005.9,1940.1,1027.5,1918.3,1027.5,1891.6z"/></g><g><path fill="#f6bb36" d="M1057.3,1682.1c0-28.1-22.6-50.7-50.7-50.7c-28.1,0-50.8,22.6-50.8,50.7c0,28.1,22.7,50.7,50.8,50.7
								C1034.7,1732.8,1057.3,1710.1,1057.3,1682.1z"/><radialGradient id="B" cx="1006.578" cy="1811.98" r="50.734" gradientTransform="matrix(1 0 0 -1 0 3494.036)" gradientUnits="userSpaceOnUse"><stop offset="0" stop-color="#fff"/><stop offset=".209" stop-color="#f9f2a2"/><stop offset=".357" stop-color="#f5e857"/><stop offset=".456" stop-color="#ffc424"/><stop offset=".522" stop-color="#f2a624"/><stop offset=".582" stop-color="#db8a17"/><stop offset=".654" stop-color="#c46b11"/><stop offset=".736" stop-color="#47310a"/><stop offset=".819"/><stop offset=".868" stop-color="#493203"/><stop offset=".907" stop-color="#84601d"/><stop offset="1" stop-color="#efb44c"/></radialGradient><path fill="url(#B)" d="M1057.3,1682.1c0-28.1-22.6-50.7-50.7-50.7c-28.1,0-50.8,22.6-50.8,50.7c0,28.1,22.7,50.7,50.8,50.7
								C1034.7,1732.8,1057.3,1710.1,1057.3,1682.1z"/><path fill="#bfcf54" d="M1059.7,1682.1c0,29.3-23.8,53.1-53.1,53.1c-29.3,0-53.1-23.8-53.1-53.1c0-29.3,23.8-53.1,53.1-53.1
									C1035.9,1628.9,1059.7,1652.8,1059.7,1682.1z M1054.9,1682.1c0-26.7-21.6-48.5-48.3-48.5c-26.7,0-48.4,21.7-48.4,48.5
									c0,26.7,21.6,48.4,48.4,48.4C1033.3,1730.5,1054.9,1708.8,1054.9,1682.1z"/></g><g><path fill="#f6bb36" d="M1084.7,1472.5c0-28.1-22.6-50.7-50.7-50.7c-28.1,0-50.8,22.6-50.8,50.7c0,28.1,22.7,50.7,50.8,50.7
								C1062.1,1523.2,1084.7,1500.5,1084.7,1472.5z"/><radialGradient id="C" cx="1033.966" cy="2021.564" r="50.734" gradientTransform="matrix(1 0 0 -1 0 3494.036)" gradientUnits="userSpaceOnUse"><stop offset="0" stop-color="#fff"/><stop offset=".209" stop-color="#f9f2a2"/><stop offset=".357" stop-color="#f5e857"/><stop offset=".456" stop-color="#ffc424"/><stop offset=".522" stop-color="#f2a624"/><stop offset=".582" stop-color="#db8a17"/><stop offset=".654" stop-color="#c46b11"/><stop offset=".736" stop-color="#47310a"/><stop offset=".819"/><stop offset=".868" stop-color="#493203"/><stop offset=".907" stop-color="#84601d"/><stop offset="1" stop-color="#efb44c"/></radialGradient><path fill="url(#C)" d="M1084.7,1472.5c0-28.1-22.6-50.7-50.7-50.7c-28.1,0-50.8,22.6-50.8,50.7c0,28.1,22.7,50.7,50.8,50.7
								C1062.1,1523.2,1084.7,1500.5,1084.7,1472.5z"/><path fill="#bfcf54" d="M1087.1,1472.5c0,29.3-23.8,53.1-53.1,53.1c-29.3,0-53.1-23.8-53.1-53.1c0-29.3,23.8-53.1,53.1-53.1
									C1063.3,1419.3,1087.1,1443.2,1087.1,1472.5z M1082.3,1472.5c0-26.7-21.6-48.5-48.3-48.5c-26.7,0-48.4,21.7-48.4,48.5
									c0,26.7,21.6,48.4,48.4,48.4C1060.7,1520.9,1082.3,1499.2,1082.3,1472.5z"/></g><g><path fill="#f6bb36" d="M1112.1,1262.9c0-28.1-22.6-50.7-50.7-50.7c-28.1,0-50.8,22.6-50.8,50.7c0,28.1,22.7,50.7,50.8,50.7
								C1089.5,1313.6,1112.1,1291,1112.1,1262.9z"/><radialGradient id="D" cx="1061.354" cy="2231.146" r="50.734" gradientTransform="matrix(1 0 0 -1 0 3494.036)" gradientUnits="userSpaceOnUse"><stop offset="0" stop-color="#fff"/><stop offset=".209" stop-color="#f9f2a2"/><stop offset=".357" stop-color="#f5e857"/><stop offset=".456" stop-color="#ffc424"/><stop offset=".522" stop-color="#f2a624"/><stop offset=".582" stop-color="#db8a17"/><stop offset=".654" stop-color="#c46b11"/><stop offset=".736" stop-color="#47310a"/><stop offset=".819"/><stop offset=".868" stop-color="#493203"/><stop offset=".907" stop-color="#84601d"/><stop offset="1" stop-color="#efb44c"/></radialGradient><path fill="url(#D)" d="M1112.1,1262.9c0-28.1-22.6-50.7-50.7-50.7c-28.1,0-50.8,22.6-50.8,50.7c0,28.1,22.7,50.7,50.8,50.7
								C1089.5,1313.6,1112.1,1291,1112.1,1262.9z"/><path fill="#bfcf54" d="M1114.5,1262.9c0,29.3-23.8,53.1-53.1,53.1c-29.3,0-53.1-23.8-53.1-53.1c0-29.3,23.8-53.1,53.1-53.1
									C1090.7,1209.8,1114.5,1233.6,1114.5,1262.9z M1109.7,1262.9c0-26.7-21.6-48.4-48.3-48.4c-26.7,0-48.4,21.7-48.4,48.4
									c0,26.7,21.6,48.4,48.4,48.4C1088.1,1311.3,1109.7,1289.6,1109.7,1262.9z"/></g><g><path fill="#f6bb36" d="M1139.5,1053.3c0-28.1-22.6-50.7-50.7-50.7c-28.1,0-50.8,22.6-50.8,50.7c0,28.1,22.7,50.7,50.8,50.7
								C1116.9,1104,1139.5,1081.4,1139.5,1053.3z"/><radialGradient id="E" cx="1088.743" cy="2440.729" r="50.734" gradientTransform="matrix(1 0 0 -1 0 3494.036)" gradientUnits="userSpaceOnUse"><stop offset="0" stop-color="#fff"/><stop offset=".209" stop-color="#f9f2a2"/><stop offset=".357" stop-color="#f5e857"/><stop offset=".456" stop-color="#ffc424"/><stop offset=".522" stop-color="#f2a624"/><stop offset=".582" stop-color="#db8a17"/><stop offset=".654" stop-color="#c46b11"/><stop offset=".736" stop-color="#47310a"/><stop offset=".819"/><stop offset=".868" stop-color="#493203"/><stop offset=".907" stop-color="#84601d"/><stop offset="1" stop-color="#efb44c"/></radialGradient><path fill="url(#E)" d="M1139.5,1053.3c0-28.1-22.6-50.7-50.7-50.7c-28.1,0-50.8,22.6-50.8,50.7c0,28.1,22.7,50.7,50.8,50.7
								C1116.9,1104,1139.5,1081.4,1139.5,1053.3z"/><path fill="#bfcf54" d="M1141.9,1053.3c0,29.3-23.8,53.1-53.1,53.1c-29.3,0-53.1-23.8-53.1-53.1c0-29.3,23.8-53.1,53.1-53.1
									C1118,1000.2,1141.9,1024,1141.9,1053.3z M1137.1,1053.3c0-26.7-21.6-48.4-48.3-48.4c-26.7,0-48.4,21.7-48.4,48.4
									c0,26.7,21.6,48.4,48.4,48.4C1115.5,1101.8,1137.1,1080,1137.1,1053.3z"/></g><g><path fill="#f6bb36" d="M1166.9,843.7c0-28.1-22.6-50.7-50.7-50.7c-28.1,0-50.8,22.6-50.8,50.7c0,28.1,22.7,50.7,50.8,50.7
								C1144.3,894.4,1166.9,871.8,1166.9,843.7z"/><radialGradient id="F" cx="1116.131" cy="2650.311" r="50.735" gradientTransform="matrix(1 0 0 -1 0 3494.036)" gradientUnits="userSpaceOnUse"><stop offset="0" stop-color="#fff"/><stop offset=".209" stop-color="#f9f2a2"/><stop offset=".357" stop-color="#f5e857"/><stop offset=".456" stop-color="#ffc424"/><stop offset=".522" stop-color="#f2a624"/><stop offset=".582" stop-color="#db8a17"/><stop offset=".654" stop-color="#c46b11"/><stop offset=".736" stop-color="#47310a"/><stop offset=".819"/><stop offset=".868" stop-color="#493203"/><stop offset=".907" stop-color="#84601d"/><stop offset="1" stop-color="#efb44c"/></radialGradient><path fill="url(#F)" d="M1166.9,843.7c0-28.1-22.6-50.7-50.7-50.7c-28.1,0-50.8,22.6-50.8,50.7c0,28.1,22.7,50.7,50.8,50.7
								C1144.3,894.4,1166.9,871.8,1166.9,843.7z"/><path fill="#bfcf54" d="M1169.3,843.7c0,29.3-23.8,53.1-53.1,53.1c-29.3,0-53.1-23.8-53.1-53.1c0-29.3,23.8-53.1,53.1-53.1
									C1145.4,790.6,1169.3,814.4,1169.3,843.7z M1164.4,843.7c0-26.7-21.6-48.5-48.3-48.5c-26.7,0-48.4,21.7-48.4,48.5
									c0,26.7,21.6,48.4,48.4,48.4C1142.9,892.2,1164.4,870.4,1164.4,843.7z"/></g></g><g><path fill="#f6bb36" d="M1258.2,2347.2c0-28.1-22.6-50.7-50.7-50.7c-28.1,0-50.8,22.6-50.8,50.7c0,28.1,22.7,50.7,50.8,50.7
							C1235.6,2397.9,1258.2,2375.3,1258.2,2347.2z"/><radialGradient id="G" cx="1207.439" cy="1146.843" r="50.734" gradientTransform="matrix(1 0 0 -1 0 3494.036)" gradientUnits="userSpaceOnUse"><stop offset="0" stop-color="#fff"/><stop offset=".209" stop-color="#f9f2a2"/><stop offset=".357" stop-color="#f5e857"/><stop offset=".456" stop-color="#ffc424"/><stop offset=".522" stop-color="#f2a624"/><stop offset=".582" stop-color="#db8a17"/><stop offset=".654" stop-color="#c46b11"/><stop offset=".736" stop-color="#47310a"/><stop offset=".819"/><stop offset=".868" stop-color="#493203"/><stop offset=".907" stop-color="#84601d"/><stop offset="1" stop-color="#efb44c"/></radialGradient><path fill="url(#G)" d="M1258.2,2347.2c0-28.1-22.6-50.7-50.7-50.7c-28.1,0-50.8,22.6-50.8,50.7c0,28.1,22.7,50.7,50.8,50.7
							C1235.6,2397.9,1258.2,2375.3,1258.2,2347.2z"/><path fill="#bfcf54" d="M1260.6,2347.2c0,29.3-23.8,53.1-53.1,53.1c-29.3,0-53.1-23.8-53.1-53.1c0-29.3,23.8-53.1,53.1-53.1
								C1236.7,2294.1,1260.6,2317.9,1260.6,2347.2z M1255.8,2347.2c0-26.7-21.6-48.4-48.3-48.4c-26.7,0-48.4,21.7-48.4,48.4
								c0,26.7,21.6,48.4,48.4,48.4C1234.2,2395.6,1255.8,2373.9,1255.8,2347.2z"/></g><g><path fill="#f6bb36" d="M1575.3,2368.4c0-28.1-22.6-50.7-50.7-50.7c-28.1,0-50.8,22.6-50.8,50.7c0,28.1,22.7,50.7,50.8,50.7
							C1552.7,2419.1,1575.3,2396.5,1575.3,2368.4z"/><radialGradient id="H" cx="1524.586" cy="1125.616" r="50.734" gradientTransform="matrix(1 0 0 -1 0 3494.036)" gradientUnits="userSpaceOnUse"><stop offset="0" stop-color="#fff"/><stop offset=".209" stop-color="#f9f2a2"/><stop offset=".357" stop-color="#f5e857"/><stop offset=".456" stop-color="#ffc424"/><stop offset=".522" stop-color="#f2a624"/><stop offset=".582" stop-color="#db8a17"/><stop offset=".654" stop-color="#c46b11"/><stop offset=".736" stop-color="#47310a"/><stop offset=".819"/><stop offset=".868" stop-color="#493203"/><stop offset=".907" stop-color="#84601d"/><stop offset="1" stop-color="#efb44c"/></radialGradient><path fill="url(#H)" d="M1575.3,2368.4c0-28.1-22.6-50.7-50.7-50.7c-28.1,0-50.8,22.6-50.8,50.7c0,28.1,22.7,50.7,50.8,50.7
							C1552.7,2419.1,1575.3,2396.5,1575.3,2368.4z"/><path fill="#bfcf54" d="M1577.7,2368.4c0,29.3-23.8,53.1-53.1,53.1c-29.3,0-53.1-23.8-53.1-53.1c0-29.3,23.8-53.1,53.1-53.1
								C1553.9,2315.3,1577.7,2339.1,1577.7,2368.4z M1572.9,2368.4c0-26.7-21.6-48.5-48.3-48.5c-26.7,0-48.4,21.7-48.4,48.5
								c0,26.7,21.6,48.4,48.4,48.4C1551.3,2416.9,1572.9,2395.1,1572.9,2368.4z"/></g><g><path fill="#f6bb36" d="M1892.5,2347.2c0-28.1-22.6-50.7-50.7-50.7c-28.1,0-50.8,22.6-50.8,50.7c0,28.1,22.7,50.7,50.8,50.7
							C1869.9,2397.9,1892.5,2375.3,1892.5,2347.2z"/><radialGradient id="I" cx="1841.734" cy="1146.843" r="50.734" gradientTransform="matrix(1 0 0 -1 0 3494.036)" gradientUnits="userSpaceOnUse"><stop offset="0" stop-color="#fff"/><stop offset=".209" stop-color="#f9f2a2"/><stop offset=".357" stop-color="#f5e857"/><stop offset=".456" stop-color="#ffc424"/><stop offset=".522" stop-color="#f2a624"/><stop offset=".582" stop-color="#db8a17"/><stop offset=".654" stop-color="#c46b11"/><stop offset=".736" stop-color="#47310a"/><stop offset=".819"/><stop offset=".868" stop-color="#493203"/><stop offset=".907" stop-color="#84601d"/><stop offset="1" stop-color="#efb44c"/></radialGradient><path fill="url(#I)" d="M1892.5,2347.2c0-28.1-22.6-50.7-50.7-50.7c-28.1,0-50.8,22.6-50.8,50.7c0,28.1,22.7,50.7,50.8,50.7
							C1869.9,2397.9,1892.5,2375.3,1892.5,2347.2z"/><path fill="#bfcf54" d="M1894.9,2347.2c0,29.3-23.8,53.1-53.1,53.1c-29.3,0-53.1-23.8-53.1-53.1c0-29.3,23.8-53.1,53.1-53.1
								C1871,2294.1,1894.9,2317.9,1894.9,2347.2z M1890.1,2347.2c0-26.7-21.6-48.4-48.3-48.4c-26.7,0-48.4,21.7-48.4,48.4
								c0,26.7,21.6,48.4,48.4,48.4C1868.5,2395.6,1890.1,2373.9,1890.1,2347.2z"/></g><g><path fill="#d89f21" d="M1423.3 758.6V861h-23.9l-45.2-54.6V861h-28.4V758.6h23.9l45.2 54.6v-54.6H1423.3zM1526.1 838.7V861h-82.2V758.6h80.3V781h-51.7v17.3h45.5v21.7h-45.5v18.7H1526.1zM1701.4 758.6L1668.1 861h-31l-19.6-62.3L1597 861h-31l-33.2-102.4h29.9l20.6 65.4 21.7-65.4h26.6l20.6 66 21.5-66H1701.4z"/><g><path fill="#d89f21" d="M1314.5 899.3c0 16-12.1 26-31.3 26h-12.3v18.4H1251v-70.4h32.2C1302.4 873.3 1314.5 883.2 1314.5 899.3zM1294.4 899.3c0-6.5-4.1-10.4-12.4-10.4h-11.1v20.6h11.1C1290.2 909.6 1294.4 905.8 1294.4 899.3zM1355 925h-10.9v18.7h-19.9v-70.4h32.2c19.2 0 31.3 10 31.3 26.1 0 10.4-5 18-13.8 22.2l15.2 22.1h-21.3L1355 925zM1355.2 889h-11.1v20.6h11.1c8.2 0 12.4-3.8 12.4-10.3C1367.5 892.8 1363.4 889 1355.2 889zM1395 908.5c0-21.1 16.6-36.6 39.1-36.6 22.5 0 39.1 15.5 39.1 36.6 0 21.1-16.6 36.6-39.1 36.6C1411.6 945.1 1395 929.6 1395 908.5zM1453.2 908.5c0-12.2-8.4-20.1-19-20.1-10.7 0-19 8-19 20.1 0 12.2 8.4 20.1 19 20.1C1444.9 928.6 1453.2 920.7 1453.2 908.5zM1483.8 873.3h33.3c23.3 0 39.3 13.6 39.3 35.2 0 21.6-16 35.2-39.3 35.2h-33.3V873.3zM1516.3 927.8c12 0 20-7.1 20-19.3 0-12.2-8.1-19.3-20-19.3h-12.6v38.6H1516.3zM1566.4 912.3v-39h19.9v38.4c0 12.1 5 16.9 13.4 16.9 8.3 0 13.3-4.8 13.3-16.9v-38.4h19.6v39c0 21-12.3 32.8-33.1 32.8C1578.6 945.1 1566.4 933.3 1566.4 912.3zM1642.5 908.5c0-21.4 16.4-36.6 38.7-36.6 13 0 23.4 4.7 30.3 13.3l-12.7 11.5c-4.4-5.3-9.9-8.3-16.6-8.3-11.6 0-19.6 8.1-19.6 20.1 0 12.1 8 20.1 19.6 20.1 6.7 0 12.2-2.9 16.6-8.3l12.7 11.5c-6.8 8.6-17.3 13.3-30.3 13.3C1658.9 945.1 1642.5 929.9 1642.5 908.5zM1734.8 889.1h-21.6v-15.8h63.1v15.8h-21.5v54.6h-19.9V889.1z"/></g></g></g><g><polygon fill="#e9aa8e" points="1210.3 2438.9 1210.8 2465.7 1226.8 2465.5 1231 2436.8"/><path fill="#fad1de" d="M1209.6,2453.6c-1.2,3.3,1,12.3,1,12.3l17-0.9c0,0,3.5-12,1.3-12.3
							C1220.2,2451.4,1212.6,2450.6,1209.6,2453.6z"/><path fill="#202234" d="M1225.9,2482.2c-4.6,3.1-42,22.6-45.7,16.3c-3.7-6.4-3-17.6,17.4-29.7c8.4-5,11.6-17.6,11.5-13.5
							c-0.2,4.1,9.4,11.1,17.2,8c4.3-1.7,4.7,3.2,3.8,9.1c0,0,0,0,0,0C1229.4,2476.6,1227.9,2480.9,1225.9,2482.2z"/><polygon fill="#e9aa8e" points="1407.7 2438.9 1407.3 2465.7 1391.3 2465.5 1387.1 2436.8"/><path fill="#fad1de" d="M1408.4,2453.6c1.2,3.3-1,12.3-1,12.3l-17-0.9c0,0-3.5-12-1.3-12.3
							C1397.9,2451.4,1405.4,2450.6,1408.4,2453.6z"/><path fill="#202234" d="M1392.1,2482.2c4.6,3.1,42,22.6,45.7,16.3c3.7-6.4,3-17.6-17.4-29.7c-8.4-5-11.6-17.6-11.5-13.5
							c0.2,4.1-9.4,11.1-17.2,8c-4.3-1.7-4.7,3.2-3.8,9.1c0,0,0,0,0,0C1388.7,2476.6,1390.2,2480.9,1392.1,2482.2z"/><path fill="#151723" d="M1378 1337c0 0 91.7 65.8 134.9 177.4 56.7 146.6-176.7 131.8-176.7 131.8l-8.1-12.2c0 0 76.3-47.6 100.7-76.1 0 0-31.2-35.3-42.1-65.1S1379.3 1350.5 1378 1337zM1203.9 1337c0 0-91.7 65.8-134.9 177.4-56.7 146.6 176.7 131.8 176.7 131.8l8.1-12.2c0 0-76.3-47.6-100.7-76.1 0 0 31.2-35.3 42.1-65.1C1206.1 1462.8 1202.6 1350.5 1203.9 1337z"/><path fill="#202234" d="M1323.9,1749.1c0,0-67.9,624.3-92.3,697.6h-24.1c0,0-114.3-599.9-65.5-689.4
						C1190.9,1667.7,1323.9,1749.1,1323.9,1749.1z"/><path fill="#202234" d="M1153.1,1867.7c12.4-4.5,26.9-3.1,38,4.1c6.3,4.1,11.7,9.6,14.9,16.4c3.1,6.8,4.4,14.1,6,21.3
						c3.6,16.3,14.5,29,23.6,42.5c4.8,7.1,8.4,14.8,8.5,23.5c0.2,8.6-3,17-7.5,24.3c-7,11.4-17.4,23.1-17.1,37.2
						c0.3,17.8,13.8,31.1,17.9,47.7c2.1,8.4,1,17-0.6,25.4c-1.8,9.3-2.9,17.7-1.4,27.1c2.8,17.9,8.3,36.1,3,54.1
						c-0.7,2.3-3,2.8-4.7,2.1c-1,2.8-2,5.7-2.9,8.6c-3.3,10.8-4,21.7-2.4,32.9c1.4,10,4,19.7,5.4,29.6c1.4,9.4,1.6,19.1,1.8,28.6
						c0.6,20.8,0.1,41.6-0.4,62.5c-0.4,18.2-0.6,36.4-0.9,54.5c-0.1,6.5,0,13.6,1.6,20c27.3-122.7,87.9-680.8,87.9-680.8
						s-133-81.4-181.9,8.1c-11.2,20.5-13.8,67.8-11.2,128.4C1136.2,1877.7,1143.3,1871.2,1153.1,1867.7z" opacity=".5"/><path fill="#202234" d="M1277.9,1735.6c0,0,66.5,627.8,107.2,706.6l25.4-0.5c0,0,79.1-581.2,8.3-711.5
						C1418.9,1730.1,1381,1689.4,1277.9,1735.6z"/><path fill="#202234" d="M1375.3,2390.4c0.1-14.8-1.3-28.8-4.1-43.3c-2.7-13.4-5.6-26.9-6.2-40.6c-0.7-15.6,0.2-31.4,0.2-47
						c0-15.4-0.3-30.9-2.2-46.3c-1.8-15.2-4.9-30.2-7.9-45.2c-2.9-14.1-6.5-28.4-6.5-42.8c0-15.1,2.9-30.1,4-45.2
						c1-14-1.4-28,0.5-41.9c1.4-10.5,4.9-20.3,8.2-30.3c3.1-9.5,6.5-19,6.1-29.1c-0.7-18-7.2-35.5-11.2-52.9
						c-3.3-14.8-7-33.6,2-47.2c13.7-20.8,41.9-14.2,62.7-15.1c8.7-0.4,16.8-3,24.4-6.6c-3.9-55.1-12.1-100.2-26.5-126.7
						c0,0-37.9-40.7-141,5.4c0,0,56.1,530,96.8,677.1C1375.1,2405.2,1375.3,2397.8,1375.3,2390.4z" opacity=".5"/><path fill="#fff" d="M1293.3,1302.6c-126.2-2-170.3,418.7-151.3,454.6c19,36,271.4,44.1,285.7-4.8
						C1441.9,1703.7,1407.4,1304.5,1293.3,1302.6z"/><path fill="#202234" d="M1290.3,1302.5c-1.4,0.3-2.8,0.8-4.3,1.3c-27.9,9.4,3.1,186.9,3.1,186.9l-3.1,130.7l1.2,5.6v166.9
						c0,0-0.4,0.2-1.2,0.7c-12.9,7.3-126.5,67.9-152.1-31.9c-27.2-105.9-29.2-379.2,90.9-443.8c21.9-11.8,44.2-15.6,57.3-16.3h0
						C1285.6,1302.5,1288.4,1302.5,1290.3,1302.5z"/><path fill="#202234" d="M1438.1,1762.7c-1,3.8-2.1,7.4-3.3,10.7c-30.8,84.4-136.1,28.3-148.8,21.2c0,0,0,0,0,0
						c-0.8-0.4-1.2-0.7-1.2-0.7V1627l1.2-5.6l3.1-130.7c0,0,24.8-177.5-3.1-186.9c-1.3-0.4-2.6-0.8-3.8-1.1
						c20.4-2,47.4,9.8,68.1,17.3C1461.2,1360.1,1465.2,1656.8,1438.1,1762.7z"/><path fill="#151723" d="M1366.8 1681.3l55 23.4c0 0 7.1 11.2-2 19.3C1410.5 1732.2 1368.8 1696.5 1366.8 1681.3zM1214.7 1681.3l-55 23.4c0 0-7.1 11.2 2 19.3C1170.9 1732.2 1212.7 1696.5 1214.7 1681.3zM1289.1 1490.7c0 0 1.3 273.2 1.2 311.8C1290.3 1802.5 1254.5 1573.1 1289.1 1490.7z"/><g><path fill="#fff" d="M1238.2,1312.1c0,0,40.9-21.2,94.1,1.3c0,0-10.8,139.2-43.3,177.4
							C1289,1490.8,1229.5,1357.1,1238.2,1312.1z"/><path fill="#231f20" d="M1258.7,1305.2c1.8,9.1,7.8,15.6,16.9,18.9c6.3,2.2,13.8,4.1,20.4,2.2c5.1-1.5,9.1-5.8,14.7-5.6
							c9.7,0.3,11.9,11.3,12.5,19c0.6,9.2-3.6,14.7-10.2,20.5c-3.6,3.2-5.8,6.2-4.9,11.2c1,5.5,3.5,10.6,3.4,16.2
							c0,5.7-2.5,10.4-4.8,15.5c-3,6.7-0.6,13.1-1.2,20.1c-1.5,16.4-14.6,30.2-30.1,35c7.8,19.5,13.6,32.6,13.6,32.6
							c32.6-38.2,44.5-178.7,44.5-178.7C1302.9,1299.2,1276,1301.2,1258.7,1305.2z" opacity=".15"/><path fill="#151723" d="M1288.4,1493.1l0.8-0.1l3.3-0.6c0.2-0.3,0.4-0.6,0.6-0.9c9.4-13.3,22.4-34.6,29-47.2
								c11.8-22.1,15-39.9,38.6-67.3l-27-4.6c11.5-6.5,24.1-10.6,39.8-23.3c-9.3-9.7-17.1-13.3-23.6-23.7v-0.3
								c-1.7-1.8-4.1-4.5-7.8-7.3l-0.1,0c-3.7-2.9-8.6-5.9-15.4-8.3c0.1,0.2-12.6-5.3-12.4-5.1c6.6,12.5,16.2,45.1,8.2,75.9
								c-8.2,31.9-23.6,77-33.5,110.5c0,0,0,0.1,0,0.1C1288.8,1491.6,1288.6,1492.3,1288.4,1493.1z"/><path fill="#151723" d="M1238.1,1372.5l-21.3,13.8c24.1,13.1,51.9,70.4,67.9,103.9l4.4,0.7l0.1,0c0,0,0-0.1,0-0.1
								c-7.6-27.5-18.6-67.6-23.5-79.8c-16.6-41.8-14.8-79.3-12.8-104.3c0.1-1.2-13.3,4.2-14.5,5.4c-9.2,9-14.1,15.9-23.7,24.9
								c-6.6,8-12.4,13.6-16.3,18.2C1214.6,1363.2,1220.1,1368.1,1238.1,1372.5z"/><g><path fill="#33133f" d="M1314.3,1312.1c0,7.7-12.3,14-27.6,14s-27.6-6.3-27.6-14c0-7.7,12.3-14,27.6-14
								S1314.3,1304.3,1314.3,1312.1z" opacity=".15"/><path fill="#e9aa8e" d="M1302,1301.4l10.4,4.8c0,0-4.3,7.7-24.1,11.3c-19.8,3.5-35.5-10.8-35.5-10.8l14.4-2.9l6-28.7
									c8.9,0.1,17.2,0.1,26.2,0L1302,1301.4z"/><path fill="#33133f" d="M1302,1301.4l-2.7-26.4c-8.9,0.1-17.3,0.1-26.2,0l-1.1,7c1.5,2.6,3.2,5,5.4,7.1
									c1.6,1.5,3.4,3.1,5.5,3.8c1.9,0.7,4,0.9,5.9,1.3c1.2,0.2,2.5,0.5,3.6,1c-0.6,0.4-1.2,0.9-1.6,1.5c-1.3,2.1,2.1,3.6,3.4,4.4
									c2.1,1.3,5.2,3.6,3.6,6.4c-1.3,2.3-4.7,1.6-6.8,2.4c-1.8,0.7-1,2-0.4,3.4c0.5,1.2,0.9,2.4,0.8,3.6
									c17-3.8,20.9-10.6,20.9-10.6L1302,1301.4z" opacity=".15"/><path fill="#e9aa8e" d="M1317.1,1252.2c-0.7-0.9-1.1-1.8-1.4-2.8c0,0,0,0.2-0.1,0.6c0,0.2-0.1,0.4-0.2,0.7
									c-0.1,0.3-0.2,0.6-0.2,1c-0.1,0.4-0.2,0.9-0.4,1.4c-0.1,0.3-0.2,0.7-0.3,1.1c0,0.1-0.1,0.3-0.1,0.4
									c-0.1,0.3-0.2,0.6-0.3,0.9c-3.3,10.1-11.8,28.9-28.5,28.5c-21.7-0.5-30.7-30.8-31.6-33.9c0-0.2,0-0.2,0-0.2s0,0,0,0.1
									c-0.4,0.6-4.1,4.8-8.8-5c-5-10.5,7.3-7.9,7.3-7.9s-5.9-41.1,18.9-41.7c17-0.4,33.7-8.2,44.1,8.5c3.9,6.3,4.6,19.4,2.7,33.5
									c0.8-0.7,5.2-4.8,6.7-0.9C1326.3,1240.7,1321.8,1258.2,1317.1,1252.2z"/><path fill="#33133f" d="M1260.9,1215.5c5.5,1.9,11.4,2.2,17.2,2.1c5.3-0.1,10.3-0.9,15.3-2.5c5.8-1.8,11.5-4.3,16.6-7.7
									c1.7-1.2,3.3-2.5,4.8-3.9c-10.4-16.2-26.9-8.4-43.8-8.1c-10.2,0.2-15.3,7.3-17.6,15.6
									C1255.5,1213.1,1258,1214.6,1260.9,1215.5z" opacity=".15"/><path fill="#33133f" d="M1320.8 1238.5c0 0 4.5-1.3 3.4 2.6-1.1 3.9-3.1 8.1-6.2 7.6 0 0 3.6-1.5 4.1-5.5C1322.6 1239.1 1318 1240.8 1320.8 1238.5zM1255.8 1250.2c-.1 2.2 2.5 4.1 5.9 4.3 3.3.1 6.1-1.5 6.2-3.7.1-2.2-2.5-4.1-5.9-4.3C1258.7 1246.4 1255.9 1248 1255.8 1250.2zM1299.8 1249.8c-.1 2.2 2.5 4.1 5.9 4.3 3.3.1 6.1-1.5 6.2-3.7.1-2.2-2.5-4.1-5.9-4.3C1302.7 1245.9 1299.9 1247.6 1299.8 1249.8z" opacity=".05"/><path fill="#202234" d="M1292.9 1227c-.1 0-.1 0-.2 0-.3-.1-.4-.5-.3-.8 0-.1 3.4-7.8 13.9-4.6.3.1.5.4.4.7-.1.3-.4.5-.7.4-9.4-2.9-12.3 3.7-12.5 4C1293.3 1226.9 1293.1 1227 1292.9 1227zM1286.5 1236.8c0 0-.1 0-.1 0-.1.1-.1.2.1.4.2.2 4.2 5.6-1.3 6.9-.2.1-.2.3 0 .5.2.2.5.4.7.4 6.1-1.6 1.3-7.8 1.3-7.9C1287 1236.9 1286.7 1236.7 1286.5 1236.8zM1279 1226.5c-.2 0-.4-.1-.5-.3-.1-.3-3.8-6.5-14.2-2.9-.3.1-.7-.1-.8-.4-.1-.3.1-.7.4-.8 11.4-4 15.6 3.4 15.6 3.4.2.3.1.7-.2.8C1279.2 1226.4 1279.1 1226.5 1279 1226.5z"/><path fill="#fcfaf7" d="M1296.6,1263.1c0,0-9.8,6-22.2,2C1272.4,1270.3,1287.8,1281.2,1296.6,1263.1z"/><path fill="#202234" d="M1296.7 1234.6c.4 2.8 2.2 5 4.2 4.7 1.9-.2 3.2-2.7 2.9-5.6-.4-2.8-2.2-5-4.2-4.7C1297.7 1229.2 1296.4 1231.7 1296.7 1234.6zM1268.1 1235.2c.4 2.8 2.2 5 4.2 4.7 1.9-.2 3.2-2.7 2.9-5.6-.4-2.8-2.2-5-4.2-4.7C1269.1 1229.9 1267.8 1232.4 1268.1 1235.2z"/><path fill="#33133f" d="M1284.7 1277.7c1-.1 1.6-.3 1.6-.4.2-.1.4-.4.3-.6-.1-.2-.4-.4-.6-.3 0 0-3.9 1.4-8-1.3-.2-.1-.5-.1-.6.1-.1.2-.1.5.1.6C1280.3 1277.8 1283 1277.9 1284.7 1277.7zM1249.5 1239.8c0 0-4.4-1.6-3.5 2.3.9 4 2.6 8.3 5.7 8 0 0-3.5-1.7-3.8-5.8C1247.6 1240.3 1252 1242.3 1249.5 1239.8z" opacity=".05"/><path fill="#202234" d="M1310.4,1205.7c0,0-80.2,28.8-72.7-3.5c7.5-32.3,25.6-21.3,25.6-21.3s-13.5-5.7-6.4-11.7
									c7.1-6,14.9,8.5,44.7,7.5c29.8-1.1,30.3,47.1,17,59.9C1318.5,1236.6,1301.2,1230.6,1310.4,1205.7z"/><path fill="#202234" d="M1258,1206.4c0,0-0.6,22.3-6.1,30.6c0,0-7.4-14.6-5-28.5C1249.3,1194.6,1258,1206.4,1258,1206.4z"/><g><path fill="#fff" d="M1243.7,1206.1c0,0,34.8,8.2,65.8-6.9C1309.5,1199.2,1272.9,1222,1243.7,1206.1z" opacity=".25"/><path fill="#fff" d="M1269.2 1200.3c0 0 22.4 5.3 42.4-4.4C1311.6 1195.9 1288 1210.6 1269.2 1200.3zM1316.7 1195.3c0 0 1.2 11.2-4.7 20.3C1312 1215.6 1320.6 1205 1316.7 1195.3zM1319.3 1195.8c0 0 5.2 16.9-1.3 32.7C1318 1228.5 1328.1 1209.7 1319.3 1195.8zM1246.9 1188.6c0 0 2.9-7.6 18.6-7.4 0 0-9.3-6.5-3.6-8.3 5.7-1.8 17.6 6.5 25.2 5.7 7.6-.9 17.2-.5 20.3 1 0 0-13.2-2.1-19.4 1.1-6.2 3.2-18.3-2.5-18.3-2.5s5.5 6.5-1.3 7.2C1261.5 1185.9 1255.6 1181.8 1246.9 1188.6z" opacity=".25"/></g><path fill="#202234" d="M1284.6,1306.6c0,0,3.9,30.1-20.2,20.2c-24.1-9.9-11.9-24.6,3.9-28.7c0,0,3.5,6.6-3.9,9.6
								C1266.6,1313.7,1284.6,1306.6,1284.6,1306.6z"/><path fill="#202234" d="M1285.1,1306.6c0,0-3.9,30.1,20.2,20.2c24.1-9.9,11.9-24.6-3.8-28.7c0,0-3.6,6.6,3.8,9.6
								C1303.2,1313.7,1285.1,1306.6,1285.1,1306.6z"/></g></g></g><g><linearGradient id="J" x1="240.263" x2="1432.827" y1="1809.557" y2="1809.557" gradientUnits="userSpaceOnUse"><stop offset="0" stop-color="#d49b28"/><stop offset=".5" stop-color="#fff4d9"/><stop offset="1" stop-color="#bf9337"/></linearGradient><path fill="url(#J)" d="M1120.4,1874.3c-220.3,0-514.4-14.7-874.2-43.8l-6-0.5l12-85.3l5.7,0.9c3.5,0.6,350.4,55,713.6,55
						c160.8,0,301.8-10.6,419.3-31.5l4.4-0.8l37.6,85.3l-6.1,1.9C1424.2,1856.4,1362.4,1874.3,1120.4,1874.3z"/><path fill="#f6bb36" d="M257.1,1751.3c0,0,669.1,106.3,1134.8,23.5l33.2,75.4c0,0-181.4,55.2-1178.3-25.3L257.1,1751.3z"/><linearGradient id="K" x1="1568.022" x2="2755.691" y1="1807.32" y2="1807.32" gradientUnits="userSpaceOnUse"><stop offset="0" stop-color="#d49b28"/><stop offset=".5" stop-color="#fff4d9"/><stop offset="1" stop-color="#bf9337"/></linearGradient><path fill="url(#K)" d="M1944.8,1869.9c-297.1,0-368.5-26.2-371.4-27.3l-5.4-2.1l28.5-70.2l4.5,0.8
						c116.1,20.6,255.6,31.1,414.6,31.1c366.4,0,718.8-56,722.3-56.5l5.7-0.9l12,85.3l-6,0.5
						C2426.6,1856.6,2155.8,1869.9,1944.8,1869.9C1944.8,1869.9,1944.8,1869.9,1944.8,1869.9z"/><path fill="#f6bb36" d="M2738.9,1751.3c0,0-673.1,108.2-1138.8,25.4l-24.6,60.6c0,0,176.8,68.1,1173.8-12.4L2738.9,1751.3z"/><path fill="#352168" d="M280.9,2720.6c0,0.2,0,0.5-0.1,0.7c-1.2,7.3-22.7,13.1-49.1,13.1c-8.2,0-16-0.6-22.8-1.5
							c-15.3-2.3-25.9-6.8-26.3-11.9c-0.1-0.1-0.1-0.2-0.1-0.3c0-0.1,0-0.2,0.1-0.3v-32.4h98.1v32.1
							C280.9,2720.1,280.9,2720.4,280.9,2720.6z"/><path fill="#fff" d="M280.9,2720.6c0,0.2,0,0.5-0.1,0.7c-1.2,7.3-22.7,13.1-49.1,13.1c-8.2,0-16-0.6-22.8-1.5
							c3.3-2.2,11.5-3.3,20.9-1.1c18,4.3,38.7-9.6,26.9-7.9c-11.8,1.8-15.7-8.9-2.3-9.6c13.4-0.8,14.4-10.4,4.2-8.6
							c-10.2,1.7-36.4-3.7-36.4-3.7s21.3-8,39.6-14.1h18.9v32.1C280.9,2720.1,280.9,2720.4,280.9,2720.6z" opacity=".21"/><ellipse cx="231.9" cy="2687.9" fill="#231a56" rx="49.2" ry="13.8"/><linearGradient id="L" x1="246.725" x2="1425.052" y1="1809.976" y2="1809.976" gradientUnits="userSpaceOnUse"><stop offset="0" stop-color="#f6bb36"/><stop offset="1" stop-color="#bc6c0c"/></linearGradient><path fill="url(#L)" d="M257.1,1751.3c0,0,669.1,106.3,1134.8,23.5l33.2,75.4c0,0-181.4,55.2-1178.3-25.3L257.1,1751.3z"/><rect width="20.7" height="139.9" x="246.7" y="1722.8" fill="#241442"/><path fill="#352168" d="M253.4,1681.2l-0.3,1007.3c-1.4,2.8-9.9,5-20.4,5c-10.5,0-19-2.2-20.4-5L212,1681.2H253.4z"/><path fill="#fff" d="M253.4,1681.2l-0.3,1007.3c-1.4,2.8-9.9,5-20.4,5c-10.5,0-19-2.2-20.4-5l-0.2-27.9
							c7.3-11.6,14.1-22.6,18.6-31.9c23-48.3,23-900.4,6.9-904.9c-16.1-4.6-19.6-37.9-19.6-37.9s2.3-1.7,6.3-4.6H253.4z" opacity=".21"/><path fill="#50468c" d="M253.5,1681.2c0,3.2-9.3,5.8-20.8,5.8c-11.5,0-20.8-2.6-20.8-5.8c0-3.2,9.3-5.8,20.8-5.8
							C244.2,1675.3,253.5,1677.9,253.5,1681.2z"/><g><path fill="#352168" d="M2715,2720.6c0,0.2,0,0.5,0.1,0.7c1.2,7.3,22.7,13.1,49.1,13.1c8.2,0,16-0.6,22.8-1.5
							c15.3-2.3,25.9-6.8,26.3-11.9c0.1-0.1,0.1-0.2,0.1-0.3c0-0.1,0-0.2-0.1-0.3v-32.4h-98.1v32.1
							C2715,2720.1,2715,2720.4,2715,2720.6z"/><path fill="#fff" d="M2715,2720.6c0,0.2,0,0.5,0.1,0.7c1.2,7.3,22.7,13.1,49.1,13.1c8.2,0,16-0.6,22.8-1.5
							c-3.3-2.2-11.5-3.3-20.9-1.1c-18,4.3-38.7-9.6-26.9-7.9c11.8,1.8,15.7-8.9,2.3-9.6c-13.4-0.8-14.4-10.4-4.2-8.6
							c10.2,1.7,36.4-3.7,36.4-3.7s-21.3-8-39.6-14.1h-18.9v32.1C2715,2720.1,2715,2720.4,2715,2720.6z" opacity=".21"/><ellipse cx="2764.1" cy="2687.9" fill="#231a56" rx="49.2" ry="13.8"/><linearGradient id="M" x1="1575.458" x2="2749.23" y1="1807.744" y2="1807.744" gradientUnits="userSpaceOnUse"><stop offset="0" stop-color="#bc6c0c"/><stop offset="1" stop-color="#f6bb36"/></linearGradient><path fill="url(#M)" d="M2738.9,1751.3c0,0-673.1,108.2-1138.8,25.4l-24.6,60.6c0,0,176.8,68.1,1173.8-12.4L2738.9,1751.3z"/><rect width="20.7" height="139.9" x="2728.5" y="1722.8" fill="#241442" transform="rotate(-180 2738.88 1792.696)"/><path fill="#352168" d="M2742.5,1681.2l0.3,1007.3c1.4,2.8,9.9,5,20.4,5c10.5,0,19-2.2,20.4-5l0.2-1007.3H2742.5z"/><path fill="#fff" d="M2742.5,1681.2l0.3,1007.3c1.4,2.8,9.9,5,20.4,5c10.5,0,19-2.2,20.4-5l0.2-27.9
							c-7.3-11.6-14.1-22.6-18.6-31.9c-23-48.3-23-900.4-6.9-904.9c16.1-4.6,19.6-37.9,19.6-37.9s-2.3-1.7-6.3-4.6H2742.5z" opacity=".21"/><path fill="#50468c" d="M2742.5,1681.2c0,3.2,9.3,5.8,20.8,5.8c11.5,0,20.8-2.6,20.8-5.8c0-3.2-9.3-5.8-20.8-5.8
							C2751.8,1675.3,2742.5,1677.9,2742.5,1681.2z"/></g><g><linearGradient id="N" x1="3633.708" x2="3637.196" y1="3038.924" y2="3243.545" gradientTransform="matrix(-.4796 .5437 .9189 .8106 415.587 -2653.23)" gradientUnits="userSpaceOnUse"><stop offset="0" stop-color="#916200"/><stop offset=".095" stop-color="#ae8838"/><stop offset=".19" stop-color="#c6a969"/><stop offset=".284" stop-color="#dbc491"/><stop offset=".377" stop-color="#ead9b1"/><stop offset=".466" stop-color="#f6e8c7"/><stop offset=".551" stop-color="#fdf1d4"/><stop offset=".626" stop-color="#fff4d9"/><stop offset="1" stop-color="#bf9337"/></linearGradient><path fill="url(#N)" d="M1567.8,1908.9c-18.1-23.4-77.9-87.3-77.9-87.3l11.4-32.7c0,0,35,31.9,77.9,62.5
							c16.6,11.8,27.5,19.4,34.7,24.3c0,0.2,0,0.4-0.1,0.5c15.8,34.9,25.6,70.6,24.1,103.6c-0.7,2.8-1.1,4.4-1.1,4.4
							S1596.2,1945.6,1567.8,1908.9z"/><linearGradient id="O" x1="1491.799" x2="1638.036" y1="1886.481" y2="1886.481" gradientUnits="userSpaceOnUse"><stop offset="0" stop-color="#f6bb36"/><stop offset="1" stop-color="#bc6c0c"/></linearGradient><path fill="url(#O)" d="M1491.8,1816.4l7.4-20.6c13.8,11.9,45.4,39.6,81.6,64.4c18.7,12.8,30,20.8,37.5,26.1
							c12.7,30.7,20.5,61.7,19.7,90.8c-14.9-14.6-42.5-40.9-65.1-70.3C1556.1,1885.1,1509.7,1835.5,1491.8,1816.4z"/><path fill="#bc6c0c" d="M1340.4,1752.4c2.2,0,53.9,8.7,81.9,13.4c18.6,3.1,36.1,10.2,43.6,12.9c7.5,2.7,19.1,12.9,19.1,12.9
								l-0.6,9.2c0,0-2.1,1.7-10.7,0.7c-24.6-2.9-24.3-0.3-36.5-2.9c-12.1-2.6-52.6-9.1-66.2-15.1c-13.6-6-19.7-9.3-24.5-14
								C1341.7,1764.6,1340.4,1752.4,1340.4,1752.4z"/><linearGradient id="P" x1="1340.398" x2="1484.391" y1="1784.469" y2="1784.469" gradientUnits="userSpaceOnUse"><stop offset="0" stop-color="#f6bb36"/><stop offset="1" stop-color="#bc6c0c"/></linearGradient><path fill="url(#P)" d="M1340.4,1760.6c2.2,0,53.9,7.2,81.9,11.9c18.6,3.1,36.1,10.2,43.6,12.9c7.5,2.7,18.5,11.5,18.5,11.5
								l0,10.6c0,0-2.2,1.7-10.7,0.7c-24.6-2.9-24.3-0.3-36.5-2.9c-12.2-2.6-52.6-7.6-66.2-13.6c-13.6-6-19.7-9.3-24.5-14
								C1341.7,1772.8,1340.4,1760.6,1340.4,1760.6z"/><linearGradient id="Q" x1="803.722" x2="955.867" y1="3961.253" y2="3961.253" gradientTransform="translate(529.305 -2149.163)" gradientUnits="userSpaceOnUse"><stop offset="0" stop-color="#d49b28"/><stop offset=".5" stop-color="#fff4d9"/><stop offset="1" stop-color="#bf9337"/></linearGradient><path fill="url(#Q)" d="M1484.8,1791.1c0,0-32.5-0.7-64-6.5c-29.7-5.5-80.3-32.4-80.3-32.4s-8.5,41-7.8,63.4
								c1.5,43.6,7.6,57.1,7.6,56.5c0-0.3,56-9.7,85.1-13.6c29-3.9,58.8-24,58.8-24L1484.8,1791.1z"/><linearGradient id="R" x1="1332.532" x2="1484.74" y1="1812.611" y2="1812.611" gradientUnits="userSpaceOnUse"><stop offset="0" stop-color="#f6bb36"/><stop offset="1" stop-color="#bc6c0c"/></linearGradient><path fill="url(#R)" d="M1349,1862c-1.8,0-10.3,0.7-11.6,0.7c-1.5-6.2-4-19.7-4.9-46.2c-0.4-12.9,3.4-39.6,6-54
								c10.9,6.4,59.7,26.4,81.5,30.4c23.9,4.4,54.1,5.8,64.7,6.3l-0.5,29.6c-8.3,5.1-36.8,18.4-59.2,21.4
								c-15.7,2.1-46.8,8.8-59,10.1C1359.2,1861,1354.7,1862.1,1349,1862z"/><g><path fill="#bc6c0c" d="M1636.4,1749.1c-2.2,0-32.8-1.7-67.1,4.8c-22.8,4.4-51.5,24.6-59.1,27.5c-7.5,2.9-18.8,10.1-18.8,10.1
								l0.5,9.2c0,0,2.1,1.6,10.7,0.4c24.6-3.5,24.3-0.8,36.5-3.8c12.2-2.9,52.8-10.3,66.4-16.6c13.6-6.3,19.8-9.8,24.6-14.6
								C1635,1761.3,1636.4,1749.1,1636.4,1749.1z"/><linearGradient id="S" x1="1491.9" x2="1636.33" y1="1782.613" y2="1782.613" gradientUnits="userSpaceOnUse"><stop offset="0" stop-color="#f6bb36"/><stop offset="1" stop-color="#bc6c0c"/></linearGradient><path fill="url(#S)" d="M1636.3,1757.2c-2.2,0-32.8-1.7-67.1,4.8c-22.8,4.3-51.1,19.9-58.6,22.8c-7.5,2.9-18.7,11.9-18.7,11.9
								l-0.1,10.6c0,0,2.1,1.6,10.7,0.4c24.6-3.5,24.3-0.8,36.5-3.7c12.2-2.9,52.7-8.8,66.4-15.1c13.6-6.3,19.8-9.8,24.6-14.6
								C1635,1769.5,1636.3,1757.2,1636.3,1757.2z"/><linearGradient id="T" x1="962.713" x2="1114.687" y1="3957.91" y2="3957.91" gradientTransform="translate(529.305 -2149.163)" gradientUnits="userSpaceOnUse"><stop offset="0" stop-color="#d49b28"/><stop offset=".5" stop-color="#fff4d9"/><stop offset="1" stop-color="#bf9337"/></linearGradient><path fill="url(#T)" d="M1491.6,1791c0,0,40.7-14.4,79.3-22.3c36.5-7.5,65.4-19.8,65.4-19.8s8.1,40.8,7.1,63.3
								c-1.9,43.6-8.2,57.3-8.2,56.6c0-0.3-34.9,0.8-71-5.4c-37.3-6.4-72.6-29-72.6-29L1491.6,1791z"/><linearGradient id="U" x1="1693.053" x2="1468.761" y1="1842.002" y2="1761.086" gradientUnits="userSpaceOnUse"><stop offset="0" stop-color="#f6bb36"/><stop offset="1" stop-color="#bc6c0c"/></linearGradient><path fill="url(#U)" d="M1610.4,1859.3c5.3-0.1,10.6-0.2,16.3-0.4c1.8-0.1,10.3,0.5,11.6,0.4c1.6-6.3,4.7-11.1,5.1-37.6
								c0.6-39.5-2.8-48.2-5.3-62.5c-10.9,6.6-39.6,14.2-66.4,19.7c-29.3,6-69.6,19.6-80.1,20.3l0.2,29.6c8.3,4.9,45.6,23.5,73,26.5
								C1578.4,1856.8,1593.8,1859.5,1610.4,1859.3L1610.4,1859.3z"/></g><g><linearGradient id="V" x1="1713.706" x2="1717.526" y1="4077.217" y2="4301.333" gradientTransform="rotate(38.048 4938.405 2587.325)" gradientUnits="userSpaceOnUse"><stop offset="0" stop-color="#d49b28"/><stop offset=".5" stop-color="#fff4d9"/><stop offset="1" stop-color="#bf9337"/></linearGradient><path fill="url(#V)" d="M1417.7,1904.6c12.7-23.1,57.5-86.3,57.5-86.3l-18.9-31.7c0,0-27.5,31.6-63.2,62.1
								c-13.8,11.8-23,19.3-29,24.2c0.1,0.2,0.1,0.4,0.2,0.5c-7.7,34.3-9.2,69.2-0.1,101.3c1.3,2.7,2.1,4.2,2.1,4.2
								S1397.8,1940.7,1417.7,1904.6z"/><linearGradient id="W" x1="1465.739" x2="1330.88" y1="1831.398" y2="1957.74" gradientUnits="userSpaceOnUse"><stop offset="0" stop-color="#f6bb36"/><stop offset="1" stop-color="#bc6c0c"/></linearGradient><path fill="url(#W)" d="M1472.1,1813.3l-12.1-19.9c-11,11.8-36.1,39.3-66.4,64c-15.6,12.8-25.1,20.7-31.4,26
								c-5.6,30.1-6.3,60.4,1.2,88.7c11.5-14.5,32.9-40.5,48.7-69.5C1423.8,1881.2,1458.7,1832.2,1472.1,1813.3z"/></g><g><linearGradient id="X" x1="950.519" x2="952.184" y1="3901.986" y2="3999.683" gradientTransform="translate(529.305 -2149.163)" gradientUnits="userSpaceOnUse"><stop offset="0" stop-color="#d49b28"/><stop offset=".5" stop-color="#fff4d9"/><stop offset="1" stop-color="#bf9337"/></linearGradient><path fill="url(#X)" d="M1506.5,1811.2c-0.5,28,2.7,31.9,2.7,31.9s-15.1,11.3-25.6,11.4c-15.5,0.2-24.4-4.6-24.4-4.6
								s-10.5-16-10.3-44.5c0.1-27.4,9.7-36.7,9.7-36.7s7.9-6,25.4-4.6c16.5,1.3,27.3,15.8,27.3,15.8S1507,1783.3,1506.5,1811.2z"/><path fill="#bc6c0c" d="M1483.6,1854.5c-11.4,0.1-18.4-2.3-21.1-3.6c-2.2-4.5-8.8-19.6-8.7-42.6c0.1-22.4,8.1-39,9.4-40.7
								c1.3-0.9,5.8-3.5,16.2-3.7c1.8,0,5.7,0.9,7.6,1.1c9.3,0.8,15.9,6.3,20,10.6c-1.5,6.6-5.2,23.6-5.5,39.1
								c-0.2,16,1.5,25.4,2.2,32.2C1498.8,1849.6,1489.7,1854.4,1483.6,1854.5L1483.6,1854.5z"/></g></g></g></svg>