<svg xmlns="http://www.w3.org/2000/svg" viewBox="0 0 194.53 310.36"><defs><style>.cls-1{opacity:0.2;}.cls-2{fill:#371a45;}.cls-3,.cls-7{fill:#606060;}.cls-3,.cls-4,.cls-5,.cls-9{fill-rule:evenodd;}.cls-11,.cls-4{fill:#996250;}.cls-5{fill:#39005e;}.cls-6{fill:#adadad;}.cls-8{opacity:0.6;}.cls-10,.cls-9{fill:#fff;}.cls-12{fill:#22a7f0;}.cls-13{fill:#137ce5;}.cls-14{opacity:0.7;}.cls-15{fill:#e8e8e8;}.cls-16{fill:#220f2d;}.cls-17{opacity:0.5;}</style></defs><g id="Layer_4" data-name="Layer 4"><g class="cls-1"><ellipse class="cls-2" cx="95.9" cy="297.78" rx="76.11" ry="12.33" transform="translate(-9.76 3.32) rotate(-1.89)"/></g><path class="cls-3" d="M2.91,106.12a5.48,5.48,0,0,1,2-7.48l15-8.6a5.49,5.49,0,0,1,7.49,2L31,98.32a5.49,5.49,0,0,1-2,7.48"/><path class="cls-4" d="M120.1,189l10.26,5,4.93,2.4,45.25-92.58a8.43,8.43,0,0,0-3.87-11.29h0a8.44,8.44,0,0,0-11.28,3.88l-2.47,5Z"/><g class="cls-1"><path class="cls-5" d="M130.36,194.05l4.93,2.4,45.25-92.58a8.43,8.43,0,0,0-3.87-11.29h0a8.44,8.44,0,0,0-11.28,3.88l-2.47,5,6.84,3.63a3.08,3.08,0,0,1,1.34,4.06Z"/></g><path class="cls-2" d="M134.39,198.29l-15.18-7.42a2,2,0,0,1-.94-2.74l45.25-92.58a10.5,10.5,0,0,1,18.86,9.22l-45.26,92.58a2,2,0,0,1-1.17,1,2.44,2.44,0,0,1-.6.11A2,2,0,0,1,134.39,198.29Zm32.8-100.94-44.36,90.74,11.52,5.63L178.71,103a6.4,6.4,0,0,0-3-8.56,6.39,6.39,0,0,0-8.56,2.94Z"/><rect class="cls-6" x="137.13" y="128.94" width="39.66" height="7.86" transform="translate(239.63 321.17) rotate(-153.95)"/><path class="cls-2" d="M172.15,146.94l-35.63-17.41a2.08,2.08,0,0,1-1-1.17,2,2,0,0,1,.1-1.56l3.45-7.07a2,2,0,0,1,2.73-.93l35.63,17.41a2.05,2.05,0,0,1,.94,2.73L174.89,146a2.07,2.07,0,0,1-1.18,1,1.77,1.77,0,0,1-.6.11A2,2,0,0,1,172.15,146.94Zm-30.34-23.58-1.66,3.39,32,15.63,1.66-3.4Z"/><rect class="cls-7" x="168.58" y="76.4" width="18.16" height="28.25" rx="5.48" transform="translate(18.31 210.38) rotate(-63.95)"/><g class="cls-8"><path class="cls-9" d="M162.85,90.42l2.73-5.57a5.48,5.48,0,0,1,7.33-2.53l15.53,7.6a5.47,5.47,0,0,1,3.05,4.46l.44-.88a5.49,5.49,0,0,0-2.52-7.34l-15.53-7.59a5.48,5.48,0,0,0-7.33,2.52l-3.16,6.47A5.46,5.46,0,0,0,162.85,90.42Z"/></g><g class="cls-1"><path class="cls-5" d="M165.91,94.89l15.53,7.59a5.48,5.48,0,0,0,7.33-2.52l3.16-6.46a5.48,5.48,0,0,0-2.18-7.15,1.11,1.11,0,0,1-.07.16L186.51,93a5.47,5.47,0,0,1-7.33,2.52l-15.53-7.59-.34-.18A5.47,5.47,0,0,0,165.91,94.89Z"/></g><path class="cls-2" d="M180.54,104.32,165,96.73a7.54,7.54,0,0,1-3.46-10.07l3.17-6.47a7.53,7.53,0,0,1,10.06-3.45l15.53,7.59a7.52,7.52,0,0,1,3.45,10.06l-3.16,6.47a7.52,7.52,0,0,1-10.06,3.46ZM168.39,82l-3.17,6.47a3.45,3.45,0,0,0,1.58,4.6h0l15.53,7.59a3.45,3.45,0,0,0,4.6-1.58l3.16-6.47a3.43,3.43,0,0,0-1.58-4.6L173,80.41a3.54,3.54,0,0,0-1.6-.35A3.45,3.45,0,0,0,168.39,82Z"/><path class="cls-4" d="M14.82,111.53l51.25,89.4,2.46-1.41,12.21-7L32.43,108.27l-2.95-5.15A8.44,8.44,0,0,0,18,100h0A8.44,8.44,0,0,0,14.82,111.53Z"/><g class="cls-1"><path class="cls-5" d="M14.82,111.53l51.25,89.4,2.46-1.41L25.77,118.05a5.59,5.59,0,0,1,2.38-7.56l4.28-2.22-2.95-5.15A8.44,8.44,0,0,0,18,100h0A8.44,8.44,0,0,0,14.82,111.53Z"/></g><path class="cls-2" d="M64.3,202,13,112.55a10.5,10.5,0,0,1,18.21-10.44l51.26,89.4a2,2,0,0,1-.76,2.79l-14.66,8.41a2.11,2.11,0,0,1-1,.27A2,2,0,0,1,64.3,202ZM27.71,104.14a6.38,6.38,0,0,0-3.88-3A6.44,6.44,0,0,0,16,105.66a6.4,6.4,0,0,0,.63,4.86l50.24,87.63L78,191.77Z"/><rect class="cls-6" x="20.43" y="134.98" width="39.66" height="7.86" transform="translate(-63.76 38.42) rotate(-29.83)"/><path class="cls-2" d="M24.47,154.16a2,2,0,0,1-1.23-1l-3.91-6.82a2,2,0,0,1,.75-2.78l34.41-19.73a2,2,0,0,1,2.79.76l3.91,6.82a2,2,0,0,1-.76,2.78L26,154a2.07,2.07,0,0,1-1,.27A2.46,2.46,0,0,1,24.47,154.16Zm30.28-25.73L23.89,146.12l1.88,3.28,30.86-17.69Z"/><rect class="cls-7" x="2.69" y="88.95" width="28.25" height="18.16" rx="5.48" transform="translate(-46.53 21.35) rotate(-29.83)"/><g class="cls-8"><path class="cls-9" d="M2.53,101.46a5.5,5.5,0,0,1,2.41-2.82l15-8.6a5.49,5.49,0,0,1,7.49,2L31,98.32a4,4,0,0,1,.23.46,5.42,5.42,0,0,0-.37-4.65l-3.58-6.25a5.48,5.48,0,0,0-7.48-2l-15,8.6A5.47,5.47,0,0,0,2.53,101.46Z"/></g><g class="cls-1"><path class="cls-5" d="M2.77,101.93l3.58,6.24a5.49,5.49,0,0,0,7.48,2l15-8.6a5.48,5.48,0,0,0,2-7.48l-.5-.88a5.43,5.43,0,0,1-1.75,1.61l-15,8.59a5.47,5.47,0,0,1-7.48-2L3.05,96.05A5.48,5.48,0,0,0,2.77,101.93Z"/></g><path class="cls-2" d="M9.14,112.71a7.44,7.44,0,0,1-4.56-3.52L1,103A7.53,7.53,0,0,1,3.78,92.68l15-8.6a7.54,7.54,0,0,1,10.27,2.78l3.58,6.25a7.54,7.54,0,0,1-2.78,10.27l-15,8.6a7.5,7.5,0,0,1-3.52,1A7.42,7.42,0,0,1,9.14,112.71Zm20-17.57L25.5,88.9a3.37,3.37,0,0,0-2.08-1.61,3.45,3.45,0,0,0-2.61.33l-15,8.6a3.44,3.44,0,0,0-1.28,4.69l3.59,6.25a3.37,3.37,0,0,0,2.08,1.61,3.41,3.41,0,0,0,2.61-.34l15-8.59A3.45,3.45,0,0,0,29.09,95.14Z"/><path class="cls-10" d="M12.5,216.25s-2.23,11.9,9,13.83c11,1.89,18.71-.53,22.16-8.13.08-.16.15-.33.22-.5,0,0-7.84,41-4.5,62.57a14.26,14.26,0,0,0-5.25,3.05,7.28,7.28,0,0,0-2.32,6.72C33,301,44.5,299.94,56.67,300.53s24.67.83,25.61-10.38,2.36-35.88,13.15-48.38c0,0,10.4,25.6,13.61,43.24,0,0-4.73,5.73-3.59,10.62s15.36,7.38,32.05,5.51,20.61-2.64,14.06-41.85c0,0-5.81-46.45-6.72-54.3s.7-18.42.7-18.42,5.4,14.28,8,22.73c0,0-7.77,13.39,5.09,14.94,0,0-1.39,7.6,15.74,9,13.91,1.14,17.55-13.41,15.31-28.13a59.41,59.41,0,0,0-2.45-10.07c-5.82-17.22-24.07-79.16-95.89-78-26.23.43-50.92,18.12-62.77,47.73C21.12,183.36,16.37,194.94,13,200.66c-.32.55-.63,1-.93,1.48C8.59,207.18,8.75,212.1,12.5,216.25Z"/><path class="cls-2" d="M103.46,296.1c-1.09-4.68,2-9.7,3.41-11.61-2.58-13.4-9.18-31.25-12-38.59-7.9,11.83-9.49,31.45-10.38,42.38-.06.72-.11,1.41-.16,2.05-1.14,13.51-16.52,12.78-27.75,12.24-1.9-.09-3.81-.15-5.65-.2-10.19-.27-19.81-.53-21.12-8.24-1-6.1,3.67-9.84,7.33-11.45-2-16.08,1.29-40.72,3.33-53.44-4.47,3.33-10.93,4.29-19.3,2.85a12.41,12.41,0,0,1-8.5-5c-2.56-3.69-2.49-8.18-2.3-10.16-3.79-4.73-3.81-10.34,0-15.9,3.38-5,8.65-17.84,16.3-36.94,5.88-14.7,15.1-27,26.67-35.68a64.88,64.88,0,0,1,38-13.33l0,2,0-2c71-1.18,90.77,58.08,97.27,77.56q.31,1,.6,1.8c3.93,11.63,5,27.1-1.5,35.41-3.16,4.05-7.82,5.94-13.47,5.48-8-.66-13.39-2.73-16-6.16a7.84,7.84,0,0,1-1.48-3.14c-3.22-.71-5.44-2.27-6.63-4.65-2.22-4.46.17-10.1,1.26-12.25-1.26-4-3.06-9.16-4.61-13.45a55.27,55.27,0,0,0,.16,9.11c.89,7.66,6.51,52.63,6.71,54.25,4,24,4,33.32.14,38.48-3.23,4.27-8.86,4.9-16,5.7-2.79.31-5.62.51-8.4.58C116.45,304.12,104.81,301.84,103.46,296.1Zm44-110.25c0,.14,5.45,14.43,8,22.85a2,2,0,0,1-.18,1.62c-.92,1.6-3,6.37-1.57,9.2.73,1.47,2.46,2.37,5.14,2.69a2,2,0,0,1,1.45.81,1.9,1.9,0,0,1,.32,1.56,3.36,3.36,0,0,0,.89,2.21c1.11,1.34,4.27,3.71,13,4.42,4.28.35,7.61-1,9.92-3.91,4.74-6.07,5.09-19.06.85-31.59l-.61-1.82c-6.26-18.77-25.31-75.89-93.32-74.77h0l-.65,0c-26,.71-49.06,18.45-60.26,46.43-8,19.93-13.09,32.42-16.71,37.72-2.91,4.26-2.82,8.16.29,11.59a2,2,0,0,1,.49,1.74s-.82,4.76,1.52,8.11a8.49,8.49,0,0,0,5.82,3.33c10.7,1.84,17.29-.58,20.15-7.39a2,2,0,0,1,3.89,1.17c-.08.41-7.74,40.89-4.5,61.86A2.05,2.05,0,0,1,40,286c-.07,0-7,2.13-6.12,7.47.69,4.1,7,4.56,17.21,4.84,1.86,0,3.78.1,5.73.2,12.84.61,22.72.38,23.47-8.51.06-.63.11-1.31.17-2,1-12.31,2.86-35.22,13.47-47.52a2,2,0,0,1,3.44.57c.43,1.05,10.52,26,13.73,43.64a2,2,0,0,1-.43,1.66c-1.13,1.39-3.92,5.69-3.18,8.87.58,2.47,11.34,6,29.83,3.95,7-.79,11.12-1.37,13.19-4.1,3-3.95,2.73-13.54-.92-35.39,0,0,0-.05,0-.08-.06-.47-5.81-46.55-6.72-54.32-.94-8,.65-18.53.72-19a2,2,0,0,1,1.8-1.72h.16A2,2,0,0,1,147.46,185.85Z"/><path class="cls-2" d="M40.13,285.91l.24-.1.28-.12.6-.21c.4-.15.83-.27,1.25-.39a22.46,22.46,0,0,1,2.61-.59A31.14,31.14,0,0,1,50.5,284c.46,0,.91,0,1.37,0s.91,0,1.37.08l1.37.12,1.36.2c.92.11,1.81.34,2.72.53s1.78.49,2.68.73l.07,0a.73.73,0,0,0,.46-1.39c-.9-.36-1.78-.76-2.7-1.08s-1.83-.65-2.78-.88L55,282l-1.43-.3c-.48-.11-1-.18-1.45-.25s-1-.15-1.47-.19a33.63,33.63,0,0,0-5.94-.15c-1,.05-2,.17-3,.32-.5.09-1,.17-1.51.29l-.76.18-.39.1-.43.14-.21.07a2.06,2.06,0,1,0,1.37,3.89A1.89,1.89,0,0,0,40.13,285.91Z"/><path class="cls-2" d="M110,286.79l.72-.4c.26-.13.53-.27.8-.39.54-.26,1.09-.51,1.65-.74,1.13-.46,2.28-.86,3.45-1.21a35.88,35.88,0,0,1,7.2-1.36,31.65,31.65,0,0,1,7.36.23,32,32,0,0,1,7.14,1.94h0a.93.93,0,0,0,1.2-.52.92.92,0,0,0-.45-1.16,34.26,34.26,0,0,0-7.46-2.63,37.17,37.17,0,0,0-3.94-.64c-1.32-.13-2.65-.19-4-.19a39.37,39.37,0,0,0-7.94.91,37.69,37.69,0,0,0-3.88,1.05c-.64.21-1.28.44-1.91.68-.32.12-.63.25-1,.39s-.61.27-1,.46a2,2,0,1,0,1.84,3.65l.14-.07Z"/><path class="cls-2" d="M67.79,269.61c9.31-.25,17-1.16,17.64-1.24a2,2,0,0,0-.49-4.06c-.33,0-33.31,3.94-45.31-2.08a2,2,0,1,0-1.83,3.65C44.74,269.36,57.3,269.9,67.79,269.61Z"/><path class="cls-2" d="M116.67,267.14c15.74-.43,34.47-4.59,35.5-4.82a2,2,0,1,0-.89-4c-.33.07-32.78,7.27-47.3,3.82a2,2,0,0,0-.94,4A55.35,55.35,0,0,0,116.67,267.14Z"/><path class="cls-2" d="M118.74,233.44a60.49,60.49,0,0,1-14.16,4.68,55.23,55.23,0,0,1-7.36.92l-1.85.09H91.64c-.62,0-1.24-.06-1.86-.09a59.23,59.23,0,0,1-14.59-2.62,54.61,54.61,0,0,1-6.86-2.82c-.55-.29-1.11-.56-1.65-.86s-1.08-.61-1.6-.94-1-.66-1.55-1-1-.72-1.44-1.07l-.07-.05a1,1,0,0,0-1.37,1.48c.5.53,1,1,1.47,1.43s1,.86,1.54,1.27,1.07.78,1.61,1.17,1.11.72,1.67,1.08a47.47,47.47,0,0,0,7.13,3.48,53.16,53.16,0,0,0,15.49,3.23c.66,0,1.32.12,2,.11h3.95l2-.11a49.44,49.44,0,0,0,7.84-1.26,45.42,45.42,0,0,0,14.46-6.23,1.06,1.06,0,0,0-1-1.84Z"/><path class="cls-2" d="M133.77,152l9.82,35.19a2,2,0,1,0,3.94-1.1l0-.1-11.75-34.61a1,1,0,0,0-2,.62Z"/><path class="cls-2" d="M147,192.47a2,2,0,0,0,1.67-.95c.41-.64,9.72-14.82,31.57-12.65a2,2,0,1,0,.41-4.07c-24.5-2.43-35,13.85-35.44,14.54a2,2,0,0,0,1.79,3.13Z"/><g class="cls-1"><path class="cls-2" d="M12.47,215.2s-2.23,11.89,9,13.82c11,1.89,18.7-.52,22.16-8.13,2.07-8,5.14-16.75,9.72-21.25,0,0-2.87-26.36-1.93-37.51,0,0-9.56.61-12.92,16.31S37.92,208.84,30,213s-13,3.74-15.46-3.5a42.3,42.3,0,0,1-1.55-9.86c-.32.54-.63,1-.94,1.48C8.56,206.13,8.72,211.05,12.47,215.2Z"/></g><path class="cls-2" d="M57.27,194.4a2,2,0,0,0,1.31-3.56c-.62-.55-15.29-13.58-35-15.27a2,2,0,1,0-.35,4.07c18.38,1.57,32.49,14.11,32.63,14.24A2.09,2.09,0,0,0,57.27,194.4Z"/><path class="cls-2" d="M158.67,226.29a2.06,2.06,0,0,0,1.86-1.35h0a19.69,19.69,0,0,1,4.57-6.8,2,2,0,1,0-2.75-3,23.36,23.36,0,0,0-5.66,8.43,2,2,0,0,0,1.23,2.61A2.15,2.15,0,0,0,158.67,226.29Z"/><path class="cls-2" d="M157.46,217.18a6.43,6.43,0,0,0,.8.11l.82.11c.54.06,1.06.15,1.56.24a14.62,14.62,0,0,1,2.81.81c.45.15.84.39,1.27.58a14,14,0,0,1,1.2.75,14.9,14.9,0,0,1,1.21.89c.43.31.79.71,1.29,1.05l.2.13a1.22,1.22,0,0,0,1.7-.33,1.27,1.27,0,0,0,.18-.94c-.08-.34-.18-.66-.29-1a5.5,5.5,0,0,0-.4-1,8,8,0,0,0-1.22-1.75,9.1,9.1,0,0,0-1.63-1.46,9.89,9.89,0,0,0-8.22-1.19,8.72,8.72,0,0,0-1,.36,7.3,7.3,0,0,0-1,.5,1.11,1.11,0,0,0-.37,1.53,1.13,1.13,0,0,0,.71.51Z"/><path class="cls-2" d="M10.65,217.1c.13.27.21.44.33.64s.21.38.32.57c.23.36.46.72.72,1.07a14.45,14.45,0,0,0,1.72,2A12.71,12.71,0,0,0,15.9,223a11.62,11.62,0,0,0,1.28.62l.68.24.34.11.35.07a7.06,7.06,0,0,0,1.43.21l.72,0a5.52,5.52,0,0,0,.71-.05l.71-.07c.23,0,.43-.09.65-.13a11.33,11.33,0,0,0,1.27-.34,12.44,12.44,0,0,0,4.61-2.56,8.78,8.78,0,0,0,2.92-4.81,5.07,5.07,0,0,0,.1-.77,4.16,4.16,0,0,0,0-.79c0-.26,0-.53-.08-.79s-.13-.52-.21-.77a3.67,3.67,0,0,0-.29-.74,4.92,4.92,0,0,0-.37-.68,7.83,7.83,0,0,0-.95-1.2A5.81,5.81,0,0,0,27.05,209a6.64,6.64,0,0,0-2.94,0,9.68,9.68,0,0,0-2.47.91,10.74,10.74,0,0,0-1.08.66,9.71,9.71,0,0,0-1,.79,1.23,1.23,0,0,0,1.3,2l.14-.06c.25-.11.59-.27.9-.39s.63-.24.94-.35a9.84,9.84,0,0,1,1.82-.41,4,4,0,0,1,1.54.12,2.53,2.53,0,0,1,1.11.7,2.76,2.76,0,0,1,.69,2.55,5.17,5.17,0,0,1-1.83,2.65,9.28,9.28,0,0,1-3.26,1.68,5.86,5.86,0,0,1-.92.22,4.14,4.14,0,0,1-.46.09l-.41,0c-.14,0-.28,0-.41,0l-.41,0a3,3,0,0,1-.79-.13l-.2,0L19.1,220l-.38-.14c-.25-.11-.5-.26-.75-.38a7.9,7.9,0,0,1-1.4-1.09A10.11,10.11,0,0,1,15.33,217c-.18-.25-.36-.52-.53-.79l-.25-.41-.19-.36,0-.09a2,2,0,0,0-3.67,1.79Z"/><path class="cls-2" d="M40.25,228.81a1.54,1.54,0,0,0,.43-.06,2,2,0,0,0,1.51-2.46c-2.69-11.13-11.69-12.11-12.07-12.14a2,2,0,0,0-.4,4.06c.3,0,6.52.85,8.49,9A2,2,0,0,0,40.25,228.81Z"/><path class="cls-2" d="M45.92,221.4c-.16-5.91,0-11.93.23-17.9s.73-11.95,1.47-17.88c.37-3,.8-5.92,1.32-8.86s1.11-5.87,1.84-8.76a96.24,96.24,0,0,1,5.69-16.9h0a.73.73,0,0,0-.36-1,.71.71,0,0,0-.91.3,72,72,0,0,0-6.83,16.93c-.83,2.93-1.53,5.89-2.15,8.86s-1.17,6-1.64,9c-.94,6-1.6,12-2.07,18.08-.24,3-.4,6.06-.52,9.09s-.18,6-.16,9.14a2,2,0,1,0,4.09,0v-.08Z"/><path class="cls-11" d="M150.26,135.54s-34,4.7-67,34-39.35,51.89-39.35,51.89a53.77,53.77,0,0,1-5.59-13.4s15-32,45.1-53.6,55.92-26.26,55.92-26.26A98.52,98.52,0,0,1,150.26,135.54Z"/><g class="cls-8"><path class="cls-10" d="M42.68,219.3a46.19,46.19,0,0,1-2.58-7.47s15-32,45.09-53.6S141.11,132,141.11,132s3.21,1.86,6.48,4.05c1.73-.35,2.67-.48,2.67-.48a99.51,99.51,0,0,0-10.95-7.34s-25.86,4.63-55.92,26.26-45.1,53.6-45.1,53.6A52.15,52.15,0,0,0,42.68,219.3Z"/></g><path class="cls-2" d="M42.14,222.52a55.57,55.57,0,0,1-5.83-14,2.07,2.07,0,0,1,.14-1.36c.62-1.32,15.6-32.71,45.75-54.39s55.67-26.42,56.75-26.61a2,2,0,0,1,1.38.24A98.47,98.47,0,0,1,151.58,134a2,2,0,0,1-1,3.59c-.33.05-33.87,5-65.95,33.54S45.91,221.8,45.85,222a2.05,2.05,0,0,1-1.69,1.47l-.22,0A2,2,0,0,1,42.14,222.52ZM139,130.36c-4.36.94-27.83,6.66-54.37,25.76-26.92,19.37-41.8,47.55-44.12,52.17a48.87,48.87,0,0,0,3.11,8.22c3.48-8,13.39-26.3,38.3-48.46,26.28-23.38,52.91-31.29,63.45-33.65C142.8,132.68,140.15,131.07,139,130.36Z"/><path class="cls-11" d="M50.89,132.93s5.81,24,37.32,45.84S144.84,205,144.84,205a98.08,98.08,0,0,1,0-11.81s-29.92-7.72-58.13-31.6c-23.65-20-28-34.43-28-34.43Z"/><g class="cls-8"><path class="cls-10" d="M50.89,132.93a30.86,30.86,0,0,0,1.23,3.66L55.59,134a1.38,1.38,0,0,1,2.06.5c1.84,3.77,8.13,14.33,26.76,30.1,28.21,23.88,58.13,31.6,58.13,31.6-.16,1.63.4,6.46.42,8.38,1.23.28,1.88.4,1.88.4a98.08,98.08,0,0,1,0-11.81s-29.92-7.72-58.13-31.6c-23.65-20-28-34.44-28-34.44Z"/></g><path class="cls-2" d="M144.48,207c-1-.18-25.91-4.76-57.43-26.55-31.79-22-37.9-46-38.14-47a2,2,0,0,1,.76-2.12l7.78-5.78a2,2,0,0,1,1.85-.3,2,2,0,0,1,1.32,1.34c0,.14,4.61,14.18,27.39,33.47,27.5,23.27,57,31.11,57.32,31.18a2,2,0,0,1,1.52,2.18,94.91,94.91,0,0,0,0,11.49,2,2,0,0,1-2,2.16ZM85.37,163.13c-18.26-15.45-25.25-27.63-27.61-32.77l-4.5,3.36c1.69,5.14,9.67,25.08,36.12,43.37,25.07,17.34,46.22,23.59,53.29,25.32-.07-2.12-.13-5.13,0-7.71A166.87,166.87,0,0,1,85.37,163.13Z"/><path class="cls-10" d="M44.58,173.32H65.24A3.79,3.79,0,0,1,69,177.12v6a3.79,3.79,0,0,1-3.79,3.79H44.58a0,0,0,0,1,0,0V173.32a0,0,0,0,1,0,0Z" transform="translate(119.52 358.3) rotate(178.11)"/><polygon class="cls-10" points="119.25 171.26 119.7 184.88 144.15 184.07 144.11 182.95 139.97 170.58 119.25 171.26"/><path class="cls-2" d="M42.63,183.15l-.17-5.09a6.3,6.3,0,0,1,6.1-6.51l20.18-.67a2.08,2.08,0,0,1,1.46.55,2,2,0,0,1,.65,1.43l.45,13.61a2,2,0,0,1-2,2.11l-20.18.67h0A6.32,6.32,0,0,1,42.63,183.15ZM66.83,175l-18.14.6a2.22,2.22,0,0,0-2.15,2.3l.17,5.08A2.22,2.22,0,0,0,49,185.16h0l18.14-.59Z"/><path class="cls-2" d="M117.66,184.94l-.45-13.61a2,2,0,0,1,2-2.11l20.73-.69h0a2,2,0,0,1,2,1.4l4.14,12.38a1.85,1.85,0,0,1,.1.57l0,1.12a2,2,0,0,1-2,2.11l-24.45.81h0A2,2,0,0,1,117.66,184.94Zm20.86-12.27-17.16.56.32,9.54,20-.66Z"/><rect class="cls-10" x="51.36" y="157.44" width="68.12" height="42.84" rx="4.51" transform="matrix(1, -0.03, 0.03, 1, -5.85, 2.91)"/><g class="cls-1"><path class="cls-2" d="M51.7,189.58l.24,7.3a4.52,4.52,0,0,0,4.66,4.37l59.06-1.95a4.52,4.52,0,0,0,4.37-4.66l-.24-7.3a4.52,4.52,0,0,1-4.37,4.66L56.36,194A4.52,4.52,0,0,1,51.7,189.58Z"/></g><path class="cls-2" d="M49.9,197l-1.12-33.8a6.58,6.58,0,0,1,6.34-6.77l59.06-1.94a6.61,6.61,0,0,1,4.7,1.76,6.48,6.48,0,0,1,2.07,4.57l1.12,33.8a6.56,6.56,0,0,1-6.34,6.77l-59.06,1.95h0A6.56,6.56,0,0,1,49.9,197Zm65.7.31a2.46,2.46,0,0,0,2.38-2.55l-1.11-33.8a2.48,2.48,0,0,0-2.54-2.39h0l-59.06,1.95A2.46,2.46,0,0,0,52.87,163L54,196.82a2.49,2.49,0,0,0,2.54,2.39h0Z"/><path class="cls-2" d="M49.9,197l-1.12-33.8a6.58,6.58,0,0,1,6.34-6.77l48.24-1.59h0a6.56,6.56,0,0,1,6.73,6.34l1.12,33.8a6.56,6.56,0,0,1-6.34,6.77l-48.23,1.59h0A6.56,6.56,0,0,1,49.9,197Zm54.87.66a2.48,2.48,0,0,0,2.39-2.55L106,161.27a2.46,2.46,0,0,0-2.54-2.39h0l-48.23,1.59A2.46,2.46,0,0,0,52.87,163L54,196.82a2.49,2.49,0,0,0,2.54,2.39h0Z"/><path class="cls-12" d="M62.84,177.72c0,.8,1.12,7.2,1.12,7.2h4.52c3.11,0,5.63-3.22,5.63-7.2s-2.52-7.19-5.63-7.19H64S62.84,176.43,62.84,177.72Z"/><path class="cls-13" d="M62.84,177.72c0,.8,1.12,7.2,1.12,7.2h4.52c3.11,0,5.63-3.22,5.63-7.2s-2.52-7.19-5.63-7.19H64S62.84,176.43,62.84,177.72Z"/><path class="cls-2" d="M68.48,186.39H65.34a3.1,3.1,0,0,1-3.07-2.59,52,52,0,0,1-.9-6.08h0a51.42,51.42,0,0,1,.89-6.11,3.14,3.14,0,0,1,3.06-2.56h3.16c3.92,0,7.11,3.89,7.11,8.67s-3.11,8.57-7,8.67Zm-3.31-14.25c-.62,3.43-.84,5.13-.85,5.58,0,.12.07.94.86,5.59a.17.17,0,0,0,.16.13h3.22c2.25-.07,4.07-2.6,4.07-5.72S70.77,172,68.48,172H65.32A.14.14,0,0,0,65.17,172.14Z"/><ellipse class="cls-12" cx="63.96" cy="177.72" rx="5.63" ry="7.19"/><g class="cls-14"><path class="cls-10" d="M58.45,179.2c.53-3.27,2.8-5.71,5.51-5.71s5,2.46,5.51,5.73a9.11,9.11,0,0,0,.12-1.5c0-4-2.52-7.19-5.63-7.19s-5.63,3.22-5.63,7.19A8.87,8.87,0,0,0,58.45,179.2Z"/></g><path class="cls-13" d="M64,184.91c3.11,0,5.63-3.21,5.63-7.19a9.11,9.11,0,0,0-.37-2.59c-.81,2.7-2.87,4.62-5.26,4.62s-4.45-1.91-5.26-4.61a9,9,0,0,0-.37,2.58C58.33,181.69,60.85,184.91,64,184.91Z"/><path class="cls-2" d="M64,186.39c-3.92,0-7.11-3.89-7.11-8.67h0c0-4.78,3.18-8.67,7.11-8.67s7.11,3.89,7.11,8.67-3.1,8.56-6.95,8.67Zm-4.15-8.67h0c0,3.15,1.86,5.72,4.15,5.72s4.15-2.57,4.15-5.72S66.25,172,64,172h-.08C61.62,172.07,59.81,174.61,59.81,177.72Z"/><path class="cls-2" d="M83.54,201.74h0a2,2,0,0,0,2-2.1l-.43-12.9A4.75,4.75,0,0,1,87,182.8l1.85-1.42a8.86,8.86,0,0,0,3.49-7.33l-.55-16.83a2,2,0,0,0-4.09.14l.56,16.83a4.76,4.76,0,0,1-1.88,3.94l-1.85,1.41A8.86,8.86,0,0,0,81,186.88l.42,12.89A2,2,0,0,0,83.54,201.74Z"/><path class="cls-10" d="M32.53,99.26a67.82,67.82,0,0,0,22.13,26.51,71.1,71.1,0,0,0,6.25,4c1.06.6,2.15,1.17,3.26,1.73a69.69,69.69,0,0,0,30.2,7.25c1.33,0,2.66,0,4-.07A69.65,69.65,0,0,0,157.27,101,67.7,67.7,0,0,0,126.7,9.29a69.56,69.56,0,0,0-20.36-6.43c-.8-.13-1.62-.24-2.43-.33q-3.27-.39-6.53-.47A70.61,70.61,0,0,0,68.27,7.63q-2.17.92-4.29,2a69.76,69.76,0,0,0-6.18,3.52A68.58,68.58,0,0,0,33.6,39.78,67.29,67.29,0,0,0,32.53,99.26Z"/><path class="cls-2" d="M94.37,138.89a70.62,70.62,0,0,1-11-1,70.74,70.74,0,0,1-19.29-6.28c-1.21-.61-2.27-1.17-3.26-1.73a74.12,74.12,0,0,1-6.27-4A68.24,68.24,0,0,1,32.36,99.34h0a67.33,67.33,0,0,1,1.07-59.65A69.58,69.58,0,0,1,63.89,9.45c1.39-.7,2.84-1.37,4.31-2A70.69,70.69,0,0,1,97.39,1.88c2.17.05,4.37.21,6.54.46.87.1,1.67.21,2.44.34a69.45,69.45,0,0,1,20.41,6.45A68,68,0,0,1,161.5,49a67.29,67.29,0,0,1-4.07,52.11,70,70,0,0,1-59.07,37.76l-1.26.05C96.19,138.89,95.28,138.9,94.37,138.89ZM82.51,3.49A70.23,70.23,0,0,0,68.34,7.8c-1.46.62-2.9,1.28-4.28,2a69.13,69.13,0,0,0-30.3,30.08,67,67,0,0,0-1.07,59.32h0a68,68,0,0,0,22.07,26.44A69.69,69.69,0,0,0,61,129.57c1,.55,2,1.12,3.24,1.72a69.63,69.63,0,0,0,30.12,7.23c1.32,0,2.66,0,4-.07a69.6,69.6,0,0,0,58.76-37.56,66.86,66.86,0,0,0,4.05-51.83,67.59,67.59,0,0,0-34.54-39.6A69.31,69.31,0,0,0,106.31,3c-.76-.13-1.55-.23-2.42-.33-2.16-.26-4.35-.41-6.51-.46q-1.77,0-3.54,0A70.89,70.89,0,0,0,82.51,3.49Z"/><path class="cls-15" d="M157.27,101a69.65,69.65,0,0,1-58.92,37.67c-1.32.06-2.65.08-4,.07a69.51,69.51,0,0,1-20-3.16,71,71,0,0,1-10.22-4.09c-1.1-.56-2.19-1.13-3.25-1.72a72.79,72.79,0,0,1-6.25-4A67.83,67.83,0,0,1,27,81.33a67.71,67.71,0,0,0,21.45,25.09,69.73,69.73,0,0,0,6.25,4c1.06.6,2.14,1.16,3.25,1.72a69.69,69.69,0,0,0,30.2,7.25c1.34,0,2.66,0,4-.07A69.64,69.64,0,0,0,151,81.62a67.24,67.24,0,0,0,6.6-41.56A67.36,67.36,0,0,1,157.27,101Z"/><path class="cls-2" d="M94.35,140.12a70.64,70.64,0,0,1-11.19-1,71.23,71.23,0,0,1-19.63-6.39c-1.23-.62-2.31-1.19-3.31-1.75a72.82,72.82,0,0,1-6.38-4,69.44,69.44,0,0,1-22.6-27.06h0a68.6,68.6,0,0,1,1.09-60.73,70.77,70.77,0,0,1,31-30.78c1.41-.71,2.88-1.39,4.38-2A72,72,0,0,1,97.42.65c2.21,0,4.45.21,6.65.47.89.1,1.71.21,2.49.34A70.83,70.83,0,0,1,127.32,8a69.22,69.22,0,0,1,35.35,40.54,68.5,68.5,0,0,1-4.14,53.06,71.24,71.24,0,0,1-60.12,38.43l-1.27,0C96.21,140.12,95.28,140.13,94.35,140.12ZM82.75,4.7A69.12,69.12,0,0,0,68.82,8.93c-1.44.61-2.85,1.26-4.2,2A67.86,67.86,0,0,0,34.85,40.42a65.74,65.74,0,0,0-1,58.24h0a66.49,66.49,0,0,0,21.67,26,67.22,67.22,0,0,0,6.13,3.89c1,.54,2,1.1,3.18,1.69a67.94,67.94,0,0,0,10,4,66.08,66.08,0,0,0,8.83,2.13,68.5,68.5,0,0,0,10.74,1c1.3,0,2.62,0,3.91-.07A68.38,68.38,0,0,0,156,100.33a65.69,65.69,0,0,0,4-50.88,66.4,66.4,0,0,0-33.91-38.89,68.52,68.52,0,0,0-19.95-6.31c-.75-.12-1.52-.22-2.38-.32-2.12-.25-4.27-.4-6.39-.45-1.16,0-2.32,0-3.47,0A69.42,69.42,0,0,0,82.75,4.7ZM32.52,99.26h0Z"/><path class="cls-2" d="M94.34,140.75a71.85,71.85,0,0,1-31.09-7.47c-1.24-.62-2.33-1.2-3.34-1.77a71.79,71.79,0,0,1-6.44-4.08,70.1,70.1,0,0,1-22.79-27.31h0a69.14,69.14,0,0,1,1.1-61.27A70.74,70.74,0,0,1,56.7,11.43a69.74,69.74,0,0,1,6.36-3.64c1.42-.72,2.9-1.41,4.41-2A72.84,72.84,0,0,1,97.43,0c2.23.05,4.49.21,6.71.48.9.1,1.73.21,2.51.34A71.53,71.53,0,0,1,127.6,7.46a69.74,69.74,0,0,1,31.49,94.44,71.88,71.88,0,0,1-60.65,38.78l-1.29,0C96.22,140.75,95.28,140.76,94.34,140.75ZM82.86,5.32a68,68,0,0,0-13.8,4.19c-1.42.6-2.82,1.25-4.16,1.93A67.33,67.33,0,0,0,35.41,40.71a65.1,65.1,0,0,0-1,57.68h0A66,66,0,0,0,55.84,124.1,68.24,68.24,0,0,0,61.92,128c.95.54,2,1.09,3.15,1.68a69.34,69.34,0,0,0,9.92,4,68.27,68.27,0,0,0,19.39,3.07c1.29,0,2.6,0,3.88-.07A67.79,67.79,0,0,0,155.45,100a65,65,0,0,0,3.93-50.39,65.77,65.77,0,0,0-33.59-38.53A67.88,67.88,0,0,0,106,4.87c-.74-.12-1.5-.22-2.35-.31-2.1-.25-4.24-.41-6.34-.46-1.14,0-2.29,0-3.44,0A68.3,68.3,0,0,0,82.86,5.32ZM32.52,99.26h0Z"/><path class="cls-2" d="M42,114.05c38.68,30.35,95.09,13.75,101.15-34.26C147.24,47.12,118,18,85.94,16.26,62.61,15,39.22,23.77,27.15,58.93c0,0-2.91,16.37.9,27.61a153.71,153.71,0,0,0,9.45,21.54Z"/><path class="cls-16" d="M143.12,79.79c-6.06,48-62.47,64.6-101.15,34.26l-.91-1.21c44.06,10.52,90.2-13.13,97.24-61.57A50.81,50.81,0,0,1,143.12,79.79Z"/><path class="cls-2" d="M74.12,137.35l-.28-.06a71.51,71.51,0,0,1-10.49-4.2c-1.24-.62-2.33-1.2-3.33-1.77a67.91,67.91,0,0,1-6.42-4.07A69.77,69.77,0,0,1,30.87,100h0A69,69,0,0,1,32,38.94,70.67,70.67,0,0,1,56.82,11.61L57,11.5l.17-.06c8.55-3.26,18.32-4.61,29-4,19.28,1.08,38.46,10.91,51.29,26.3C149,47.58,154.25,64.33,152.16,80.88c-2.27,18-10.73,33.05-24.47,43.49A69.91,69.91,0,0,1,87.3,138.13,76.09,76.09,0,0,1,74.12,137.35ZM58.63,14.78A67.06,67.06,0,0,0,35.22,40.61a65.34,65.34,0,0,0-1,57.87h0a66.12,66.12,0,0,0,21.54,25.8,65,65,0,0,0,6.09,3.86c.95.54,2,1.09,3.17,1.68a67.43,67.43,0,0,0,9.81,3.94c18.44,2.66,36.91-1.82,50.69-12.3,12.94-9.83,20.91-24,23.06-41,2-15.53-3-31.28-13.86-44.36-12.2-14.63-30.4-24-48.7-25q-3.48-.2-6.81-.1A62.82,62.82,0,0,0,58.63,14.78ZM32.52,99.26h0Z"/><path class="cls-2" d="M40.84,115.49l-.19-.15L36,109.18,35.9,109a153.55,153.55,0,0,1-9.58-21.83c-3.92-11.55-1.09-27.83-1-28.52l.07-.27C36,27.56,56.38,12.79,86,14.44c17.21,1,34.33,9.73,45.78,23.46,10.32,12.38,15,27.34,13.11,42.11-2.7,21.42-15.49,38.32-35.08,46.38a64.28,64.28,0,0,1-22.73,4.76A72.09,72.09,0,0,1,40.84,115.49ZM28.92,59.38C28.66,61,26.34,75.82,29.78,86A152.79,152.79,0,0,0,39,107.09l4.24,5.67c19.21,15,44.16,18.89,65.19,10.25,18.33-7.54,30.3-23.38,32.84-43.45C143,65.8,138.68,51.83,129,40.24c-10.82-13-27-21.25-43.18-22.16q-3.07-.16-6-.08C55.28,18.67,38.17,32.57,28.92,59.38Zm13,54.67h0Z"/><path class="cls-10" d="M174,78.62c0,13.48-8.15,24.78-18.11,25.24s-18-10.08-18-23.56V80c.15-13.36,8.22-24.52,18.11-25,7.69-.36,14.23,5.86,16.8,14.91A31.67,31.67,0,0,1,174,78.62Z"/><path class="cls-15" d="M174,78.62c0,13.48-8.15,24.78-18.11,25.24s-18-10.08-18-23.56V80a4.94,4.94,0,0,0,5.1,2c4-1,11.33-10,11.33-10s8-1,18.48-2.12A31.67,31.67,0,0,1,174,78.62Z"/><path class="cls-2" d="M143.76,101.06c-5-4.82-7.91-12.39-7.88-20.77,0-14.52,9-26.76,20.05-27.27a16.3,16.3,0,0,1,12.21,4.84c5,4.82,7.91,12.39,7.88,20.77h0C176,93.16,167,105.39,156,105.9h-.3A16.33,16.33,0,0,1,143.76,101.06Zm21.55-40.25a12.35,12.35,0,0,0-9.19-3.71C147.25,57.51,140,67.92,140,80.31c0,7.15,2.45,13.81,6.63,17.8a12.35,12.35,0,0,0,9.18,3.71c8.88-.41,16.13-10.82,16.17-23.2C172,71.46,169.48,64.8,165.31,60.81Z"/><ellipse class="cls-10" cx="161.82" cy="80.99" rx="19.93" ry="13.58" transform="translate(71.14 237.59) rotate(-86.51)"/><path class="cls-15" d="M161.68,100.88c7.52-.4,13.67-9.64,13.75-20.63a26.41,26.41,0,0,0-.18-3.48c-2,7.56-7.06,13.11-12.91,13.42-6.6.36-12.08-6.1-13.33-15a29.11,29.11,0,0,0-.8,6.57C148.13,92.72,154.16,101.29,161.68,100.88Z"/><path class="cls-2" d="M152.61,99.31c-4.09-3.9-6.49-10.48-6.44-17.6.09-12.23,7-22.18,15.69-22.65A12.19,12.19,0,0,1,171,62.67c4.08,3.9,6.49,10.48,6.44,17.6h0c-.09,12.23-7,22.18-15.69,22.65l-.31,0A12.22,12.22,0,0,1,152.61,99.31Zm20.78-19.07c.05-6-1.89-11.48-5.17-14.61a8.16,8.16,0,0,0-6.14-2.49c-6.34.34-11.76,8.86-11.83,18.6,0,6,1.9,11.48,5.18,14.61a8.18,8.18,0,0,0,6.14,2.49c6.34-.34,11.75-8.86,11.82-18.6Z"/><g class="cls-17"><path class="cls-10" d="M101.91,29.86s-31-1.6-49,15l0,.06c-3.79,3.49-6.5,9.75-8,14.64a58.09,58.09,0,0,0-2.55,15.4c-.56,12.73,1.6,18.79,1.6,18.79C36.83,86.7,33,78.9,33.39,68.29c0-1,.11-2.12.23-3.22,0-.26.05-.51.09-.76,0,0,0,0,0,0a73.09,73.09,0,0,1,2-8.32c3-9.68,9.17-22.22,21.87-27.66C81.33,18.15,103,28.57,101.91,29.86Z"/></g><g class="cls-17"><ellipse class="cls-10" cx="123.64" cy="61.97" rx="9.26" ry="10.64" transform="translate(-10.87 29.8) rotate(-13.17)"/></g><g class="cls-17"><ellipse class="cls-10" cx="127.88" cy="80.83" rx="3.82" ry="4.4" transform="translate(-19.04 44.76) rotate(-18.5)"/></g><g class="cls-1"><path class="cls-2" d="M31.81,293.79C33,301,44.5,299.94,56.67,300.53s24.67.83,25.61-10.38,2.36-35.88,13.15-48.38c0,0,10.4,25.6,13.61,43.24,0,0-4.73,5.73-3.59,10.62s15.36,7.38,32.05,5.51,20.61-2.64,14.06-41.85c0,0-5.81-46.45-6.72-54.3s.7-18.42.7-18.42,5.4,14.28,8,22.73c0,0-7.77,13.39,5.09,14.94,0,0-1.39,7.6,15.74,9,13.91,1.14,17.55-13.41,15.31-28.13-2,5.76-5.47,12.47-10.87,13.8-9.83,2.43-9-10.92-16.25-11.32-6.48-.35-9.95-28-22.83-54a3.85,3.85,0,0,0-7.24,1.13,61.22,61.22,0,0,0-.82,11.63c.38,11.37,16.14,115,11,122.18s-37.6,6.45-29-5.57l8.07-1.29s-11.22-37.56-6.28-45c0,0-1.76.21-4.66.43a49.48,49.48,0,0,0,15.29-9.24.42.42,0,0,0-.42-.7c-10.53,3.81-18,5.12-36,3.94a88.69,88.69,0,0,1-29.86-6.87,1.17,1.17,0,0,0-1.26,1.92,50.09,50.09,0,0,0,11.2,8.25,31,31,0,0,1-4.87-2.07,24.54,24.54,0,0,0,6.31,11.59,9.68,9.68,0,0,1,2.91,8c-.79,7.1-2.12,20.06-2.53,30.5a9.42,9.42,0,0,1-8.91,9.05c-10.45.55-26.64.6-28.21-4.34l-.3,0A7.28,7.28,0,0,0,31.81,293.79Z"/></g></g></svg>