<svg xmlns="http://www.w3.org/2000/svg" viewBox="0 0 155.42 114.74"><defs><style>.cls-1{isolation:isolate;}.cls-2,.cls-6,.cls-9{fill:#6a9aa5;}.cls-2,.cls-7,.cls-9{mix-blend-mode:multiply;}.cls-2{opacity:0.4;}.cls-3,.cls-7{fill:#433e72;}.cls-4{fill:#fff;}.cls-5{fill:#26013f;}.cls-7{opacity:0.3;}.cls-8{fill:#1a0026;}</style></defs><g class="cls-1"><g id="Layer_8" data-name="Layer 8"><g id="Layer_9" data-name="Layer 9"><g id="Layer_10" data-name="Layer 10"><path class="cls-2" d="M109.87,107.05c.11,3.72-13.81,7.14-31.07,7.63s-31.36-2.12-31.47-5.84,13.81-7.14,31.08-7.63S109.77,103.33,109.87,107.05Z"/><path class="cls-3" d="M139.8,37,125.61,88.16a8.26,8.26,0,0,1-10.13,5.73L19.66,67.31a8.25,8.25,0,0,1-5.73-10.13L28.12,6A8.25,8.25,0,0,1,38.25.3l95.81,26.58A8.26,8.26,0,0,1,139.8,37Z"/><path class="cls-4" d="M139.8,37l-3.93,14.14-111.68-31L28.12,6A8.25,8.25,0,0,1,38.25.3l95.81,26.58A8.26,8.26,0,0,1,139.8,37Z"/><path class="cls-5" d="M125.59,19.27l-1.35,4.88-10-2.78,1.35-4.89a.84.84,0,0,1,1-.57L125,18.26A.82.82,0,0,1,125.59,19.27Z"/><path class="cls-6" d="M58.57,11.74a2.48,2.48,0,0,1,1.71,3l-1.81,6.53a2.47,2.47,0,0,1-3,1.72L39.81,18.69a2.47,2.47,0,0,1-1.72-3L39.9,9.13a2.48,2.48,0,0,1,3-1.72Z"/><path class="cls-2" d="M59,19.42l-.53,1.89a2.47,2.47,0,0,1-3,1.72L39.81,18.69a2.47,2.47,0,0,1-1.72-3l.53-1.89a2.47,2.47,0,0,0,1.72,3L56,21.14A2.48,2.48,0,0,0,59,19.42Z"/><path class="cls-5" d="M55.33,23.42,39.7,19.09a2.87,2.87,0,0,1-2-3.54L39.51,9a2.88,2.88,0,0,1,3.54-2l15.63,4.34a2.87,2.87,0,0,1,2,3.54l-1.81,6.53A2.87,2.87,0,0,1,55.33,23.42ZM42.83,7.81A2.05,2.05,0,0,0,40.3,9.24l-1.81,6.53a2.07,2.07,0,0,0,1.43,2.53l15.62,4.33a2.07,2.07,0,0,0,2.54-1.43l1.81-6.53a2.06,2.06,0,0,0-1.43-2.53Z"/><path class="cls-4" d="M52.77,12.43,45,16.85a.54.54,0,1,1-.54-.94l7.83-4.43a.54.54,0,0,1,.53.95Z"/><path class="cls-4" d="M54,14.53,46.14,19a.55.55,0,0,1-.74-.21.54.54,0,0,1,.2-.74l7.83-4.43a.55.55,0,0,1,.74.21A.54.54,0,0,1,54,14.53Z"/><path class="cls-5" d="M25.17,16.65l.44-1.59a5.71,5.71,0,0,0-3.05,11L23,24.48a4.06,4.06,0,1,1,2.17-7.83Z"/><path class="cls-6" d="M69.55,20.87a3.33,3.33,0,1,1-2.32-4.11A3.34,3.34,0,0,1,69.55,20.87Z"/><path class="cls-3" d="M78.08,23.23a3.34,3.34,0,1,1-2.32-4.1A3.32,3.32,0,0,1,78.08,23.23Z"/><path class="cls-4" d="M33.42,45.21,36,40.54l1.07.3-2.57,4.67Z"/><path class="cls-4" d="M38.42,46.6,38.31,44c0-.32,0-.72,0-.72h0s-.16.35-.32.65l-1.2,2.19-1-.28,2.57-4.67.89.24.11,2.51c0,.34,0,.69,0,.69h0s.15-.36.29-.61l1.19-2.15,1,.29-2.57,4.67Z"/><path class="cls-4" d="M41.65,46a1,1,0,0,0,.73.85c.41.11.83,0,.95-.43.19-.66-1.54-1.43-1.21-2.62a1.64,1.64,0,0,1,2.15-1c.91.25,1.36.86,1.3,1.52l-1.1.21a.69.69,0,0,0-.55-.86.54.54,0,0,0-.71.36c-.19.68,1.55,1.4,1.22,2.57A1.8,1.8,0,0,1,42,47.67a1.68,1.68,0,0,1-1.4-1.48Z"/><path class="cls-4" d="M44.91,48.4,47,44.56l-1-.27.45-.83,3,.83-.46.84-1-.27L46,48.7Z"/><path class="cls-4" d="M49.64,49.71l.22-.78-1.29-.36-.58.68-1.12-.31,3.89-4.3,1.18.32L50.7,50Zm.82-2.89c.1-.33.27-.84.27-.84h0a8.58,8.58,0,0,1-.54.72l-.94,1.09.89.25Z"/><path class="cls-4" d="M51.4,50.2,54,45.53l1.41.39a1.51,1.51,0,0,1,1.18,1.88,2.2,2.2,0,0,1-2.87,1.53l-.52-.14-.71,1.3ZM54,48.46a1.19,1.19,0,0,0,1.45-.86.64.64,0,0,0-.52-.85l-.39-.1-.93,1.7Z"/><path class="cls-4" d="M55.59,51.36l2.57-4.67,1.06.3-2.56,4.67Z"/><path class="cls-4" d="M61.66,52a2.07,2.07,0,0,1-2,.52,1.52,1.52,0,0,1-1.1-2.05c.38-1.35,1.56-3.36,3.37-2.85a1.45,1.45,0,0,1,1.18,1.58l-1.13.2c.11-.46,0-.8-.38-.91-.84-.24-1.73,1.34-2,2.2-.13.47-.07.85.37,1s.7-.12,1-.46Z"/><path class="cls-5" d="M67.16,62.55l-43-11.93a1.89,1.89,0,0,1,1-3.64l43,11.93a1.89,1.89,0,0,1-1,3.64Z"/><rect class="cls-4" x="21.35" y="52.08" width="39.96" height="40.23" transform="matrix(0.27, -0.96, 0.96, 0.27, -39.28, 92.73)"/><rect class="cls-6" x="23.39" y="53.63" width="36.74" height="34.04" transform="translate(-37.47 92) rotate(-74.5)"/><path class="cls-4" d="M52.59,72.61A11,11,0,1,1,44.91,59,11,11,0,0,1,52.59,72.61Z"/><path class="cls-6" d="M38.7,67.92a.7.7,0,0,1-.48-.85l1-3.6a.69.69,0,1,1,1.33.37l-1,3.6A.7.7,0,0,1,38.7,67.92Z"/><path class="cls-6" d="M45.65,69.84a.69.69,0,0,1-.48-.85l1-3.59a.68.68,0,0,1,.85-.48.69.69,0,0,1,.48.84l-1,3.6A.68.68,0,0,1,45.65,69.84Z"/><path class="cls-6" d="M40.38,75.37a7.08,7.08,0,0,1-5.1-5.56.68.68,0,0,1,.55-.81.69.69,0,0,1,.8.55,5.74,5.74,0,0,0,9.95,2.76.69.69,0,0,1,1,.92A7.08,7.08,0,0,1,40.38,75.37Z"/><rect class="cls-7" x="44.28" y="34.65" width="3.78" height="40.23" transform="translate(-18.94 84.62) rotate(-74.5)"/><rect class="cls-7" x="77.76" y="45.93" width="34.77" height="48.55" transform="translate(2.06 143.12) rotate(-74.5)"/><path class="cls-5" d="M123.18,59.94a24.27,24.27,0,1,1-16.9-29.88A24.28,24.28,0,0,1,123.18,59.94Z"/><path class="cls-6" d="M115.54,57.82a16.34,16.34,0,1,1-11.38-20.11A16.35,16.35,0,0,1,115.54,57.82Z"/><path class="cls-8" d="M105.48,60.15l-14-3.88a4.94,4.94,0,0,1,2.64-9.52l14,3.89a4.93,4.93,0,0,1-2.64,9.51Z"/><path class="cls-6" d="M103.44,54.47a3.79,3.79,0,1,1-2.64-4.67A3.79,3.79,0,0,1,103.44,54.47Z"/><path class="cls-9" d="M101.92,54a2.21,2.21,0,1,1-1.54-2.72A2.2,2.2,0,0,1,101.92,54Z"/><path class="cls-4" d="M105.12,54.05a2.39,2.39,0,1,1-1.66-2.94A2.39,2.39,0,0,1,105.12,54.05Z"/><path class="cls-6" d="M94.21,73.57A20.88,20.88,0,1,1,119.91,59,20.89,20.89,0,0,1,94.21,73.57Zm11-39.64a20.26,20.26,0,1,0,14.11,24.94A20.29,20.29,0,0,0,105.21,33.93Z"/><path class="cls-2" d="M115.53,57.82a13.64,13.64,0,0,1-.62,1.8,16.33,16.33,0,0,0-31.26-8.68,15.71,15.71,0,0,1,.4-1.85,16.33,16.33,0,1,1,31.48,8.73Z"/><path class="cls-4" d="M21.65,18.5a4,4,0,0,0-.56-.67,4.16,4.16,0,0,0-1.4-.92,7.38,7.38,0,0,0-3.17-.53,18.65,18.65,0,0,0-9,3.18,19.38,19.38,0,0,0-6.25,6.21C-.18,28.19-.38,30.42.66,32c.92,1.44,2.74,2.2,5.12,2.13A18.65,18.65,0,0,0,14.83,31a19.85,19.85,0,0,0,6-5.75A5.4,5.4,0,0,1,19.56,24a18.07,18.07,0,0,1-5.64,5.53,16.93,16.93,0,0,1-8.19,2.91C4,32.53,2.67,32,2.07,31.12s-.45-2.68.61-4.51A17.73,17.73,0,0,1,8.38,21a17,17,0,0,1,8.19-2.91,6.36,6.36,0,0,1,2.25.3,2.82,2.82,0,0,1,1.38,1l0,.05a3.32,3.32,0,0,1,.15,2.82,4.06,4.06,0,0,0,1.22,1.54C22.52,21.74,22.54,19.89,21.65,18.5Z"/><path class="cls-5" d="M144.41,31.66a1.12,1.12,0,0,1-.38-2.18L151.41,27a1.12,1.12,0,0,1,1.42.71,1.14,1.14,0,0,1-.71,1.42l-7.39,2.46A1.13,1.13,0,0,1,144.41,31.66Z"/><path class="cls-5" d="M142.51,26a1.16,1.16,0,0,1-.84-.35,1.11,1.11,0,0,1,0-1.58l5.81-5.62A1.12,1.12,0,0,1,149.07,20l-5.81,5.62A1.15,1.15,0,0,1,142.51,26Z"/><path class="cls-5" d="M154.33,38.38h-.17l-8-1a1.12,1.12,0,0,1,.28-2.23l8,1a1.12,1.12,0,0,1-.11,2.23Z"/></g></g></g></g></svg>