<svg xmlns="http://www.w3.org/2000/svg" viewBox="0 0 407.77 45.81"><defs><style>.cls-1{isolation:isolate;}.cls-2{fill:#021619;}.cls-3{fill:#1a4350;}.cls-4{fill:#366e7d;}.cls-5,.cls-6{fill:#8bc53f;}.cls-6{mix-blend-mode:multiply;}.cls-7{fill:#ffcd35;}</style></defs><g class="cls-1"><g id="Layer_1" data-name="Layer 1"><path class="cls-2" d="M359.26,22.14A13.56,13.56,0,0,0,362.83,20a1.07,1.07,0,0,0,.46-.81c0-.47-.61-.68-1.08-.74a18.34,18.34,0,0,0-2.87,0c.82-.57,1.68-1.09,2.5-1.67a3.9,3.9,0,0,0,1-.93,1.42,1.42,0,0,0,.16-1.29,1.8,1.8,0,0,0-.82-.79,5.92,5.92,0,0,0-3.71-.7A5.94,5.94,0,0,0,361,11.7a3.77,3.77,0,0,0,1.28-1.55,1.63,1.63,0,0,0-.41-1.85,2.45,2.45,0,0,0-1.63-.3,6.31,6.31,0,0,0-2,.35c-.2.08-1.11.33-1.17.52.52-1.78.59-4-.72-5.45a2.49,2.49,0,0,0-1.64-.92,2.55,2.55,0,0,0-1.26.3,5.15,5.15,0,0,0-2.8,3.76,7.41,7.41,0,0,0-1.51-4.37A2.68,2.68,0,0,0,347.6,1.1a2.9,2.9,0,0,0-2.54,1.26,11.65,11.65,0,0,0-1.94,3.18c-.1.24-.22.23-.29.49q5.48.3,10.9,1.14A5,5,0,0,1,356,7.9a4.73,4.73,0,0,1,1.46,2.26,26.1,26.1,0,0,1,1.47,6.16q.19,1.59.24,3.18c0,.53,0,1.06,0,1.59,0,.37-.21.76-.09,1.12Z"/><path class="cls-3" d="M358.85,43.54l2.3-.31a2.92,2.92,0,0,0,2.09-.93c.66-1,.28-2.16.11-3.25l-.84-5.38q-1.15-7.47-2.33-14.93c-.48-3.1-.92-6.2-1.45-9.29-.28-1.68-1.79-2-3.22-2.14l-5.65-.57L336.62,5.42a9.47,9.47,0,0,0-1.3-.09A2.27,2.27,0,0,0,333,7.4c-.08,1-.13,2-.19,3.08l-.9,13.85-.84,13.14c-.05.77-.15,1.55-.15,2.33,0,2.71,3.46,2.32,5.29,2.34l7.07.08a6,6,0,0,0,2.07-.15,2.17,2.17,0,0,0,1.14-1c0,.5.08,1,.14,1.5a2.6,2.6,0,0,0,2.81,2.13,26.33,26.33,0,0,0,3.43-.42Zm-9.49.58c-1.42.18-1.35-2-1.44-2.93-.15-1.6-.29-3.2-.44-4.8,0-.32-.64-.38-.86-.39h-.42c-.13,0-.55,0-.56.2-.06.93-.11,1.86-.17,2.8s-.07,2.51-1.43,2.65a14.24,14.24,0,0,1-1.6,0l-3.43,0-3.57,0a14.83,14.83,0,0,1-2,0c-1.34-.17-1.06-1.9-1-2.85l.75-11.51q.45-7.1.91-14.18c.1-1.49.19-3,.29-4.47.06-1,.09-2.57,1.48-2.59.43,0,.89.09,1.31.13l2.58.26,7.11.71,6.67.66,2.09.21a1.76,1.76,0,0,1,1.18.36c.65.61.65,1.88.78,2.7.26,1.72.53,3.44.8,5.16l2.25,14.42c.51,3.25,1,6.51,1.52,9.76a2.13,2.13,0,0,1-.27,1.68c-.72.88-2.21.79-3.25.93l-5.35.7Z"/><path class="cls-3" d="M333.55,39.92l2.09-32.4,20.5,2.05L361,41l-11.78,1.55-.75-8.1-3.95-.12L344.21,40Zm14.28-14.51-.73-9.88h-1.83l-.33,10Z"/><path class="cls-4" d="M358.18,42.87l2.3-.31a2.92,2.92,0,0,0,2.09-.93c.66-1,.28-2.16.12-3.25q-.42-2.68-.85-5.38-1.15-7.47-2.33-14.93c-.48-3.1-.92-6.2-1.44-9.29-.29-1.68-1.8-2-3.23-2.14l-5.65-.57L336,4.75a9.47,9.47,0,0,0-1.3-.09,2.27,2.27,0,0,0-2.29,2.07c-.08,1-.13,2-.19,3.08l-.9,13.85-.84,13.14c-.05.77-.15,1.56-.15,2.33,0,2.71,3.46,2.32,5.29,2.34l7.07.08a6,6,0,0,0,2.07-.15,2.17,2.17,0,0,0,1.14-1c0,.5.08,1,.14,1.5a2.6,2.6,0,0,0,2.81,2.13,26.33,26.33,0,0,0,3.43-.42Zm-9.49.58c-1.42.18-1.35-2-1.44-2.93-.15-1.6-.29-3.2-.44-4.8,0-.32-.64-.38-.86-.39h-.42c-.13,0-.55,0-.56.2-.06.93-.11,1.86-.17,2.8s-.07,2.51-1.43,2.65a14.24,14.24,0,0,1-1.6,0l-3.43,0-3.57,0a14.83,14.83,0,0,1-2,0c-1.34-.17-1.06-1.9-1-2.85l.75-11.51q.45-7.09.91-14.18c.1-1.49.19-3,.29-4.47.06-1,.09-2.57,1.48-2.59.43,0,.89.09,1.31.13l2.58.26,7.11.71,6.67.66,2.09.21a1.76,1.76,0,0,1,1.18.36c.65.61.65,1.88.78,2.7.26,1.72.53,3.44.8,5.16L360,29.86c.51,3.25,1,6.51,1.52,9.76a2.13,2.13,0,0,1-.27,1.68c-.72.88-2.21.79-3.25.93l-5.35.7Z"/><path class="cls-5" d="M332.88,39.25,335,6.85l20.5,2.05,4.9,31.43-11.78,1.55-.75-8.1-3.95-.12-.35,5.71Zm14.28-14.51-.73-9.88H344.6l-.33,10Z"/><path class="cls-6" d="M346.85,20.57l.31,4.17-2.89.12.14-4.22a30.06,30.06,0,0,0-10.5,2.66l-1,16,10.66.12.35-5.71,3.95.12.75,8.1,11.78-1.55-2.8-18A38.3,38.3,0,0,0,346.85,20.57Z"/><path class="cls-7" d="M355.56,24.06c.86-.6.05-2.81-.95-2.11S354.56,24.76,355.56,24.06Z"/><path class="cls-7" d="M353,30.75l.36.11a1,1,0,0,0,.67-.12.85.85,0,0,0,.38-.37,1.1,1.1,0,0,0,.23-.55,1.34,1.34,0,0,0,0-.66,1.53,1.53,0,0,0-.17-.64l-.21-.38a1.7,1.7,0,0,0-.63-.54l-.36-.12a1.08,1.08,0,0,0-.67.12.85.85,0,0,0-.37.38,1,1,0,0,0-.24.55,1.47,1.47,0,0,0,0,.66,1.7,1.7,0,0,0,.17.64l.22.38A1.88,1.88,0,0,0,353,30.75Z"/><path class="cls-7" d="M351.63,22.18l.23.07a.67.67,0,0,0,.42-.07.49.49,0,0,0,.23-.24.63.63,0,0,0,.15-.34,1,1,0,0,0,0-.42,1.27,1.27,0,0,0-.11-.4c0-.08-.09-.15-.14-.23a.91.91,0,0,0-.39-.34l-.23-.08a.64.64,0,0,0-.41.08.53.53,0,0,0-.24.23.69.69,0,0,0-.15.35,1.13,1.13,0,0,0,0,.41,1.14,1.14,0,0,0,.11.4l.14.24A1.14,1.14,0,0,0,351.63,22.18Z"/><path class="cls-7" d="M354.58,16.37l.24.16.25.08h.24l.22-.08.19-.15a.78.78,0,0,0,.19-.36.65.65,0,0,0,.06-.29,1.17,1.17,0,0,0,0-.45v-.09a1.11,1.11,0,0,0-.16-.39.93.93,0,0,0-.26-.33l-.22-.15a.76.76,0,0,0-.46-.07l-.06,0-.22.08-.19.15a.67.67,0,0,0-.19.35.72.72,0,0,0-.06.29.81.81,0,0,0,0,.31,1.09,1.09,0,0,0,.07.3.68.68,0,0,0,.13.27A.92.92,0,0,0,354.58,16.37Z"/><path class="cls-7" d="M356.39,20.11c.37-.26,0-1.2-.4-.9S356,20.4,356.39,20.11Z"/><path class="cls-7" d="M351.13,15c.37-.26,0-1.2-.4-.9S350.71,15.24,351.13,15Z"/><path class="cls-7" d="M353.11,25.85l.07,0a.25.25,0,0,0,.29-.05.35.35,0,0,0,.07-.15.67.67,0,0,0,0-.2l0-.09a.49.49,0,0,0-.25-.34.27.27,0,0,0-.33.06.44.44,0,0,0-.08.4A.51.51,0,0,0,353.11,25.85Z"/><path class="cls-7" d="M357,29.8l.17.06a.58.58,0,0,0,.32-.06.42.42,0,0,0,.17-.18.52.52,0,0,0,.12-.26.81.81,0,0,0,0-.31.67.67,0,0,0-.08-.3l-.1-.18a.83.83,0,0,0-.3-.26l-.17,0a.46.46,0,0,0-.31,0,.39.39,0,0,0-.18.18.57.57,0,0,0-.12.26.81.81,0,0,0,0,.31.89.89,0,0,0,.08.31l.1.18A.89.89,0,0,0,357,29.8Z"/><path class="cls-7" d="M352.35,12.92a.86.86,0,0,0,.44.19h.28l.26-.1a.69.69,0,0,0,.31-.3.92.92,0,0,0,.19-.45.14.14,0,0,0,0-.06,1.6,1.6,0,0,0,0-.72l-.11-.35a1.69,1.69,0,0,0-.42-.57,1,1,0,0,0-.43-.24.72.72,0,0,0-.43,0,.65.65,0,0,0-.38.18.81.81,0,0,0-.28.35,1.52,1.52,0,0,0-.15.69,3.41,3.41,0,0,0,.06.43l.12.34a1.06,1.06,0,0,0,.29.43A.65.65,0,0,0,352.35,12.92Z"/><path class="cls-7" d="M357.2,25.29l.1.11a.39.39,0,0,0,.19.1.17.17,0,0,0,.12,0,.27.27,0,0,0,.18,0l0,0,.11-.09a.45.45,0,0,0,.12-.21.48.48,0,0,0,0-.18.37.37,0,0,0,0-.18.9.9,0,0,0-.07-.27l-.09-.16-.12-.13a.53.53,0,0,0-.22-.12.26.26,0,0,0-.15,0,.22.22,0,0,0-.14,0,.36.36,0,0,0-.18.12l-.09.13a1,1,0,0,1-.05.16l0,.19A.66.66,0,0,0,357,25a.64.64,0,0,0,.12.25Z"/><path class="cls-7" d="M354.74,33.33l.1.11a.39.39,0,0,0,.19.1.17.17,0,0,0,.12,0,.34.34,0,0,0,.18,0l.05,0,.11-.09a.43.43,0,0,0,.12-.22.47.47,0,0,0,0-.17.37.37,0,0,0,0-.18.9.9,0,0,0-.07-.27l-.09-.16-.12-.13a.53.53,0,0,0-.22-.12.26.26,0,0,0-.15,0,.22.22,0,0,0-.14,0,.36.36,0,0,0-.18.12l-.09.13-.05.16,0,.19a.66.66,0,0,0,.06.27.55.55,0,0,0,.12.24Z"/><path class="cls-7" d="M352.78,18.28c.48-.34,0-1.57-.53-1.18S352.22,18.66,352.78,18.28Z"/><path class="cls-2" d="M300,7.74c1.6.15,3.2.23,4.81.24.81,0,1.63,0,2.44,0a7.87,7.87,0,0,1,2,.15,7.65,7.65,0,0,0,1.35.08c2.5,0,5,.16,7.49.32a6.37,6.37,0,0,0-.88-2.91,2.84,2.84,0,0,0-.79-.9,2.59,2.59,0,0,0-1-.37,4.55,4.55,0,0,0-5.11,3.57c-.18-.55-.16-1.12-.3-1.68a7.19,7.19,0,0,0-.66-1.66,3.24,3.24,0,0,0-2.34-1.87,3.51,3.51,0,0,0-2.85,1.64,11.21,11.21,0,0,0-1.71,3,8.66,8.66,0,0,0-1.4-2,7.53,7.53,0,0,0-1.77-1.61,2.94,2.94,0,0,0-2.29-.37c-1.86.55-2.08,2.68-2.42,4.27a.51.51,0,0,1-.07.17.38.38,0,0,1-.23.08,7.08,7.08,0,0,0-4.13,1.46,2,2,0,0,0-.7,1.27,2,2,0,0,0,1,1.67,6.55,6.55,0,0,0,2.25.78l1.12.24c-.13,0-.38.16-.51.19s-.48.08-.72.13a9.71,9.71,0,0,0-1.39.43c-.81.32-1.67.91-1.7,1.78a2.06,2.06,0,0,0,.63,1.39,5,5,0,0,0,4,1.61,46.75,46.75,0,0,0,.37-6.26,10.2,10.2,0,0,1,.16-2.53A3,3,0,0,1,296,8a3.74,3.74,0,0,1,1.9-.36C298.61,7.61,299.3,7.68,300,7.74Z"/><path class="cls-3" d="M294.42,43.1a1.94,1.94,0,0,0,.35,0c2.87,0,5.74-.08,8.61-.12l13.91-.19c1.08,0,2.17,0,3.25,0A2.28,2.28,0,0,0,323,40.53c0-.46-.08-.93-.11-1.39-.18-2.32-.35-4.64-.53-7l-.21-2.74a2.81,2.81,0,0,0-.69-2,3.64,3.64,0,0,0-3.11-.67l-3.13.41-3.4.45a5.45,5.45,0,0,0-2.15.49,2.09,2.09,0,0,0-1,1.7h-.34l.27-6.56a8.33,8.33,0,0,0,3.27-.32l5.2-1.09c.41-.09.82-.16,1.22-.26a2.17,2.17,0,0,0,1.75-2.09c0-1.24-.06-2.48-.1-3.71L319.84,11a2.52,2.52,0,0,0-.54-1.71,3,3,0,0,0-2.24-.91c-2.41-.11-4.81-.16-7.22-.24l-10.57-.36-2.74-.09a2.34,2.34,0,0,0-2.69,2.05c-.15,1.83-.22,3.67-.33,5.5q-.3,5.31-.62,10.62c-.2,3.43-.41,6.87-.61,10.31-.07,1.11-.13,2.23-.2,3.34,0,.46-.09.94-.07,1.4A2.43,2.43,0,0,0,294.42,43.1Zm-.95-2.88.15-2.64.54-9.07q.51-8.84,1-17.66a6.46,6.46,0,0,1,.14-1.46c.39-1.21,1.36-1.11,2.33-1.07l8.61.29,9.37.32a10.68,10.68,0,0,1,1.79.06c1.21.25,1,2.27,1,3.22,0,1.68.09,3.36.13,5,0,1.07.36,2.72-.58,3.48a2.85,2.85,0,0,1-1.33.45l-2.14.45-4.65,1c-.54.11-.84.26-1.32-.18-.18-.16-1.32-.45-1.34,0q-.15,3.81-.31,7.62c0,.31.68.39.86.39l1.76-.07c.1,0,.57,0,.55-.21a1.73,1.73,0,0,1,1.27-1.83c.15,0,.31,0,.46-.06l2.79-.36,3.41-.45a5.89,5.89,0,0,1,1.72-.18c.91.18,1,1.26,1,2s.13,1.72.19,2.58l.51,6.71c.1,1.21.56,3.5-1.26,3.65-1,.08-2,0-3.05,0L304,42.42c-3.14,0-6.28.07-9.42.13h-.16c-.76,0-1.06-1.11-1-1.72C293.44,40.63,293.45,40.43,293.47,40.22Z"/><path class="cls-3" d="M320.41,40.59l-25.8.35,1.84-31,20.77.7.24,8.85-8.17,1.71L309,19.51l-2.87-.14-.51,12.72,5.77-.21-.14-2,8.24-1.08Z"/><path class="cls-4" d="M293.75,42.43a1.94,1.94,0,0,0,.35,0c2.87,0,5.74-.08,8.61-.12l13.91-.19c1.08,0,2.17,0,3.25,0a2.28,2.28,0,0,0,2.48-2.26c0-.46-.08-.93-.11-1.39l-.53-7-.21-2.74a2.81,2.81,0,0,0-.69-2,3.64,3.64,0,0,0-3.11-.67l-3.13.41-3.4.45a5.45,5.45,0,0,0-2.15.49,2.09,2.09,0,0,0-1,1.7h-.34l.27-6.56a8.15,8.15,0,0,0,3.27-.32l5.2-1.09c.41-.09.82-.16,1.22-.26a2.17,2.17,0,0,0,1.75-2.09c0-1.23-.06-2.48-.1-3.71l-.12-4.75a2.52,2.52,0,0,0-.54-1.71,3,3,0,0,0-2.24-.91c-2.41-.11-4.81-.16-7.22-.24l-10.56-.36L295.86,7a2.34,2.34,0,0,0-2.69,2.05c-.15,1.83-.22,3.67-.33,5.5q-.3,5.31-.62,10.62c-.2,3.44-.41,6.87-.61,10.31-.07,1.11-.13,2.23-.2,3.34,0,.46-.09.94-.07,1.4A2.43,2.43,0,0,0,293.75,42.43Zm-.95-2.88.15-2.64.54-9.07q.51-8.84,1-17.66a6.46,6.46,0,0,1,.14-1.46c.39-1.21,1.36-1.11,2.33-1.07l8.61.29,9.37.32a10.68,10.68,0,0,1,1.79.06c1.21.25,1,2.27,1,3.22,0,1.68.09,3.36.13,5,0,1.07.36,2.72-.58,3.48a2.85,2.85,0,0,1-1.33.45l-2.14.45-4.65,1c-.54.11-.84.26-1.32-.18-.18-.16-1.32-.45-1.34,0q-.15,3.81-.31,7.62c0,.31.68.39.86.39l1.76-.07c.1,0,.57,0,.55-.21a1.73,1.73,0,0,1,1.27-1.83c.15,0,.31,0,.46-.06l2.79-.36,3.41-.45a5.89,5.89,0,0,1,1.72-.18c.91.18,1,1.26,1,2s.13,1.72.19,2.58l.51,6.71c.1,1.21.56,3.5-1.26,3.65-1,.08-2,0-3,0l-13.11.18c-3.14,0-6.28.07-9.42.13h-.16c-.76,0-1.06-1.11-1-1.72C292.77,40,292.78,39.76,292.8,39.55Z"/><path class="cls-5" d="M319.74,39.92l-25.8.35,1.84-31.05,20.77.7.24,8.85-8.17,1.71-.26-1.64-2.87-.14L305,31.42l5.77-.21-.14-2,8.24-1.08Z"/><path class="cls-6" d="M310.61,29.24l.14,2-5.77.21.45-11.16a113.13,113.13,0,0,0-10.63,5.42l-.86,14.59,25.8-.35-.89-11.76Z"/><path class="cls-7" d="M300,25.17c.95-.43.56-2.75-.55-2.25C298.48,23.35,298.87,25.67,300,25.17Z"/><path class="cls-7" d="M296.27,31.28l.34.18a1.06,1.06,0,0,0,.68,0,.94.94,0,0,0,.43-.3,1.2,1.2,0,0,0,.34-.5,1.54,1.54,0,0,0,.13-.65,1.88,1.88,0,0,0-.05-.66L298,29a1.82,1.82,0,0,0-.51-.65l-.34-.17a1.06,1.06,0,0,0-.68,0,.87.87,0,0,0-.44.3,1.13,1.13,0,0,0-.33.5,1.51,1.51,0,0,0-.13.65,1.67,1.67,0,0,0,.05.66l.15.41A1.61,1.61,0,0,0,296.27,31.28Z"/><path class="cls-7" d="M296.45,22.6l.21.12a.63.63,0,0,0,.43,0,.52.52,0,0,0,.27-.19.62.62,0,0,0,.21-.31.79.79,0,0,0,.08-.41,1,1,0,0,0,0-.41l-.09-.26a1,1,0,0,0-.32-.4l-.21-.12a.63.63,0,0,0-.43,0,.52.52,0,0,0-.27.19.62.62,0,0,0-.21.31.91.91,0,0,0-.08.41,1,1,0,0,0,0,.41l.09.26A1.07,1.07,0,0,0,296.45,22.6Z"/><path class="cls-7" d="M300.41,17.43l.2.2.24.12.24,0,.23,0,.21-.11a.76.76,0,0,0,.25-.31.54.54,0,0,0,.11-.28,1.09,1.09,0,0,0,.06-.45v-.08a1.16,1.16,0,0,0-.08-.42,1,1,0,0,0-.2-.37l-.19-.19a.75.75,0,0,0-.44-.15H301l-.23,0-.22.12a.7.7,0,0,0-.25.31.64.64,0,0,0-.11.27.81.81,0,0,0-.05.31.76.76,0,0,0,0,.3.84.84,0,0,0,.08.3A1,1,0,0,0,300.41,17.43Z"/><path class="cls-7" d="M301.51,21.43c.41-.18.24-1.17-.23-1S301,21.65,301.51,21.43Z"/><path class="cls-7" d="M297.28,15.4c.41-.18.24-1.17-.23-1S296.81,15.62,297.28,15.4Z"/><path class="cls-7" d="M297.24,26.48l.07,0a.23.23,0,0,0,.29,0,.5.5,0,0,0,.1-.14.58.58,0,0,0,0-.19v-.1a.51.51,0,0,0-.18-.38.28.28,0,0,0-.34,0,.45.45,0,0,0-.15.38A.53.53,0,0,0,297.24,26.48Z"/><path class="cls-7" d="M300.3,31.07l.16.08a.44.44,0,0,0,.32,0A.35.35,0,0,0,301,31a.46.46,0,0,0,.16-.23.56.56,0,0,0,.06-.31.65.65,0,0,0,0-.31c0-.07-.05-.13-.07-.2a.8.8,0,0,0-.24-.3l-.16-.09a.44.44,0,0,0-.32,0,.41.41,0,0,0-.21.14A.6.6,0,0,0,300,30a.73.73,0,0,0-.06.3.89.89,0,0,0,0,.32l.06.19A.76.76,0,0,0,300.3,31.07Z"/><path class="cls-7" d="M298.85,13.63a.86.86,0,0,0,.39.27l.28,0,.27,0a.64.64,0,0,0,.36-.24.92.92,0,0,0,.27-.41l0-.05a1.71,1.71,0,0,0,.12-.72l-.05-.36a1.66,1.66,0,0,0-.31-.64.86.86,0,0,0-.38-.31.66.66,0,0,0-.42-.12.62.62,0,0,0-.4.11.88.88,0,0,0-.35.29,1.51,1.51,0,0,0-.26.65,3.1,3.1,0,0,0,0,.43l.05.36a1.3,1.3,0,0,0,.21.48A.61.61,0,0,0,298.85,13.63Z"/><path class="cls-7" d="M301.37,26.68l.08.12a.36.36,0,0,0,.16.14.28.28,0,0,0,.12,0,.28.28,0,0,0,.18,0l0,0,.13-.07a.36.36,0,0,0,.15-.19.29.29,0,0,0,.07-.16.57.57,0,0,0,0-.18.9.9,0,0,0,0-.28l-.06-.17-.09-.15a.43.43,0,0,0-.2-.16.24.24,0,0,0-.14-.05.17.17,0,0,0-.14,0,.32.32,0,0,0-.2.08l-.11.11-.08.15-.05.18a.66.66,0,0,0,0,.28.77.77,0,0,0,.07.26Z"/><path class="cls-7" d="M297.49,34.13l.08.13a.33.33,0,0,0,.16.13.19.19,0,0,0,.12,0,.23.23,0,0,0,.18,0h.05l.13-.07a.4.4,0,0,0,.15-.19.33.33,0,0,0,.07-.17.48.48,0,0,0,0-.18.82.82,0,0,0,0-.27l-.06-.18-.09-.15a.48.48,0,0,0-.2-.15.19.19,0,0,0-.14,0,.17.17,0,0,0-.14,0,.3.3,0,0,0-.2.08l-.11.11-.08.15-.05.18a.66.66,0,0,0,0,.28.84.84,0,0,0,.07.26Z"/><path class="cls-7" d="M298.3,19c.53-.24.31-1.53-.31-1.25S297.68,19.26,298.3,19Z"/><path class="cls-2" d="M264.82.24a3.8,3.8,0,0,1,2.36.4A5.26,5.26,0,0,1,269,2.34a6,6,0,0,1,.62,1.1,5.33,5.33,0,0,0,.31,1,5.54,5.54,0,0,1,.33-1,6.4,6.4,0,0,1,2.47-3,3,3,0,0,1,3.64.39,4.12,4.12,0,0,1,.68,3.1,19.41,19.41,0,0,1-.57,3.38A2.91,2.91,0,0,1,279,6.92a2.94,2.94,0,0,1,1.84,1.71,1.88,1.88,0,0,1,.12,1A2.55,2.55,0,0,1,280,11a11.73,11.73,0,0,1-1.64,1.18,6.26,6.26,0,0,0-1.57,1,9.45,9.45,0,0,1,4.34,1.62,2.29,2.29,0,0,1,1.19,1.68c0,.82-.73,1.43-1.44,1.83a11.43,11.43,0,0,1-3.72,1.33A24,24,0,0,1,279.67,21c.84.51,1.75,1.28,1.63,2.26s-.94,1.4-1.69,1.83a5.08,5.08,0,0,1-2.39.85,42,42,0,0,1-.54-6.62c0-1.3.06-2.6,0-3.9-.06-1.14-.24-2.26-.41-3.38s-.31-2.07-.47-3.11a5,5,0,0,0-.52-1.79A3.87,3.87,0,0,0,272.8,5.6,8.82,8.82,0,0,0,271,5.23a11.37,11.37,0,0,0-4.1.65,15.17,15.17,0,0,1-3.79.82c-.78.1-9.48,1-9.49.84a6.79,6.79,0,0,1,.56-2.92,3.31,3.31,0,0,1,1.44-1.7,3.54,3.54,0,0,1,3,.24,8.39,8.39,0,0,1,3.24,2.73C262,3.92,262.48.63,264.82.24Z"/><path class="cls-3" d="M251.11,8.11a2.3,2.3,0,0,0-.81,2v5.44c0,3.69-.13,7.41,0,11.1a2.17,2.17,0,0,0,.8,1.64,2.12,2.12,0,0,0-1.55,1.89l-.21,7a7.3,7.3,0,0,0,.1,2.72,2.94,2.94,0,0,0,2.43,1.55L266.25,44,274,45.34c1.49.26,3.89,1.07,5-.34a2.71,2.71,0,0,0,.4-2c-.06-.83-.11-1.66-.16-2.48-.18-2.75-.35-5.49-.53-8.23-.28-4.4-.47-8.81-.84-13.2a2.3,2.3,0,0,0-.74-1.5,2.76,2.76,0,0,0,.47-2.48c-.16-1.09-.31-2.19-.46-3.29s-.31-2.26-.47-3.39a3,3,0,0,0-.92-2.23c-1.22-1-2.84-.62-4.27-.47l-6.35.63L252.73,7.62A2.94,2.94,0,0,0,251.11,8.11Zm12.24-.86,6.88-.69c1.28-.13,2.6-.37,3.89-.39.68,0,1,.75,1.09,1.35.12.77.21,1.55.32,2.33.27,1.93.6,3.85.8,5.78a1.87,1.87,0,0,1-.59,1.64c-.12.12,0,.25.12.31a2.24,2.24,0,0,1,.67,1.86c.05.8.11,1.6.16,2.4.17,2.64.33,5.28.5,7.92.29,4.47.61,8.94.86,13.41.06.93-.52,2.1-1.51,2A12.56,12.56,0,0,1,275.2,45l-6.68-1.16-15.45-2.7c-.46-.08-.94-.13-1.39-.25-1-.24-1-1.27-1-2.09.07-2.53.15-5.06.22-7.59,0-.23,0-.45,0-.68a1.74,1.74,0,0,1,1.55-1.69c.25,0,.32-.25.08-.39-1.25-.7-.88-2.74-.88-3.95V11.51c0-1.27-.2-3,1.52-3.24C256.57,7.81,260,7.59,263.35,7.25Z"/><path class="cls-3" d="M251.89,39.25l.25-8.85,7.38-.19,0,3h2.61v-5.3l-9.27-1.08V9.86L274,7.75l1.15,8.31-11.22,1.69-.14-1.84-2.3.22.07,2.72,13.73.19,1.57,24.58Z"/><path class="cls-4" d="M250.44,7.44a2.3,2.3,0,0,0-.81,2v5.44c0,3.69-.13,7.41,0,11.1a2.17,2.17,0,0,0,.8,1.64,2.12,2.12,0,0,0-1.55,1.89l-.21,7a7.1,7.1,0,0,0,.11,2.72,2.91,2.91,0,0,0,2.42,1.55l14.38,2.52,7.79,1.36c1.49.26,3.89,1.07,5-.34a2.71,2.71,0,0,0,.4-2c-.06-.83-.11-1.66-.16-2.48-.18-2.75-.35-5.49-.53-8.23-.28-4.4-.47-8.81-.84-13.2a2.3,2.3,0,0,0-.74-1.5,2.75,2.75,0,0,0,.47-2.47l-.46-3.3c-.16-1.13-.31-2.26-.47-3.39a3,3,0,0,0-.92-2.23c-1.22-1-2.84-.62-4.27-.47l-6.35.63L252.06,7A3,3,0,0,0,250.44,7.44Zm12.24-.86,6.88-.69c1.28-.13,2.6-.37,3.89-.39.68,0,1,.75,1.09,1.35.12.77.21,1.55.32,2.33.27,1.93.6,3.85.8,5.78a1.87,1.87,0,0,1-.59,1.64c-.12.12,0,.25.12.31a2.24,2.24,0,0,1,.67,1.86c.06.8.11,1.6.16,2.4q.25,4,.5,7.92c.29,4.47.61,8.94.86,13.41.06.93-.52,2.1-1.51,2a12.56,12.56,0,0,1-1.34-.24l-6.68-1.16-15.45-2.7c-.46-.08-.94-.13-1.39-.25-1-.24-1-1.27-1-2.09.07-2.53.15-5.06.22-7.59,0-.23,0-.45,0-.68a1.74,1.74,0,0,1,1.55-1.69c.25,0,.32-.25.08-.39C250.65,27,251,25,251,23.79V10.84c0-1.27-.2-3,1.52-3.24C255.9,7.14,259.31,6.92,262.68,6.58Z"/><path class="cls-5" d="M251.22,38.58l.25-8.85,7.38-.19,0,3h2.61v-5.3l-9.27-1.08v-17l21.1-2.11,1.15,8.31-11.22,1.69-.14-1.83-2.3.21.07,2.72,13.73.19L276.19,43Z"/><path class="cls-6" d="M265.39,18.24c-1.87.49-3.72,1-5.55,1.46q-3.79,1-7.61,1.81v4.63l9.27,1.08v5.3h-2.61l0-3-7.38.19-.25,8.85,25,4.37-1.57-24.58Z"/><path class="cls-7" d="M273.14,32.24c.88-.47.35-2.67-.68-2.11C271.58,30.61,272.12,32.8,273.14,32.24Z"/><path class="cls-7" d="M270,38.35l.34.15a1,1,0,0,0,.65,0,.86.86,0,0,0,.4-.31,1.17,1.17,0,0,0,.28-.5,1.44,1.44,0,0,0,.08-.63,1.78,1.78,0,0,0-.09-.63L271.5,36a1.59,1.59,0,0,0-.54-.58l-.33-.15a1,1,0,0,0-.65,0,.87.87,0,0,0-.4.31,1.12,1.12,0,0,0-.28.5,1.48,1.48,0,0,0-.08.63,1.53,1.53,0,0,0,.09.63l.17.39A1.65,1.65,0,0,0,270,38.35Z"/><path class="cls-7" d="M269.59,30l.21.1a.7.7,0,0,0,.41,0,.49.49,0,0,0,.25-.2.73.73,0,0,0,.18-.31,1,1,0,0,0,.05-.4.91.91,0,0,0-.06-.39l-.1-.24a1.1,1.1,0,0,0-.34-.37L270,28.1a.58.58,0,0,0-.41,0,.53.53,0,0,0-.25.2.73.73,0,0,0-.18.31,1,1,0,0,0-.05.39,1.44,1.44,0,0,0,.06.4l.11.24A1,1,0,0,0,269.59,30Z"/><path class="cls-7" d="M273,24.81l.2.18.24.1.23,0,.22-.05.19-.12a.74.74,0,0,0,.22-.32.62.62,0,0,0,.09-.27.92.92,0,0,0,0-.44v-.08a1.45,1.45,0,0,0-.32-.73l-.2-.17a.71.71,0,0,0-.43-.12l-.06,0-.22.05L273,23a.66.66,0,0,0-.22.32.62.62,0,0,0-.09.27.7.7,0,0,0,0,.29.72.72,0,0,0,0,.29,1.31,1.31,0,0,0,.09.28A1,1,0,0,0,273,24.81Z"/><path class="cls-7" d="M274.35,28.56c.38-.2.15-1.13-.29-.9S273.92,28.8,274.35,28.56Z"/><path class="cls-7" d="M269.89,23.08c.38-.2.15-1.13-.29-.9S269.46,23.32,269.89,23.08Z"/><path class="cls-7" d="M270.61,33.69l.07,0a.22.22,0,0,0,.28,0,.25.25,0,0,0,.08-.14.4.4,0,0,0,0-.19v-.09a.5.5,0,0,0-.21-.35.27.27,0,0,0-.32,0,.44.44,0,0,0-.12.38A.55.55,0,0,0,270.61,33.69Z"/><path class="cls-7" d="M273.85,37.86l.16.08a.54.54,0,0,0,.31,0,.38.38,0,0,0,.18-.15.53.53,0,0,0,.14-.24.73.73,0,0,0,0-.3.82.82,0,0,0-.05-.3,1.42,1.42,0,0,0-.08-.18.81.81,0,0,0-.25-.27l-.16-.07a.44.44,0,0,0-.3,0,.4.4,0,0,0-.19.15.49.49,0,0,0-.14.23,1,1,0,0,0,0,.3.79.79,0,0,0,0,.3,1.42,1.42,0,0,0,.08.18A.66.66,0,0,0,273.85,37.86Z"/><path class="cls-7" d="M271.27,21.29a.84.84,0,0,0,.4.22l.27,0,.26-.06a.68.68,0,0,0,.32-.26.79.79,0,0,0,.23-.41.08.08,0,0,0,0,0,1.61,1.61,0,0,0,.07-.7l-.08-.34a1.59,1.59,0,0,0-.33-.58.75.75,0,0,0-.38-.27.65.65,0,0,0-.42-.09.59.59,0,0,0-.37.13.81.81,0,0,0-.31.3,1.39,1.39,0,0,0-.21.64,3,3,0,0,0,0,.42l.07.33a1.37,1.37,0,0,0,.23.45A.73.73,0,0,0,271.27,21.29Z"/><path class="cls-7" d="M274.57,33.59l.09.12a.33.33,0,0,0,.16.11.19.19,0,0,0,.12,0,.32.32,0,0,0,.17,0l.05,0,.12-.07a.36.36,0,0,0,.13-.19.44.44,0,0,0,.06-.16.55.55,0,0,0,0-.18.59.59,0,0,0,0-.26l-.07-.16-.1-.14a.43.43,0,0,0-.19-.14.25.25,0,0,0-.14,0,.33.33,0,0,0-.14,0,.31.31,0,0,0-.18.09l-.1.12-.07.15,0,.17a.62.62,0,0,0,0,.27.63.63,0,0,0,.09.25Z"/><path class="cls-7" d="M271.37,41l.09.12a.36.36,0,0,0,.16.11.14.14,0,0,0,.12,0,.2.2,0,0,0,.17,0l0,0,.12-.07a.5.5,0,0,0,.13-.19.31.31,0,0,0,.05-.17.32.32,0,0,0,0-.17.63.63,0,0,0,0-.27l-.07-.16-.1-.13a.41.41,0,0,0-.19-.14.27.27,0,0,0-.14,0,.22.22,0,0,0-.14,0,.31.31,0,0,0-.18.09l-.1.12-.07.15,0,.17a.5.5,0,0,0,0,.27.59.59,0,0,0,.09.24Z"/><path class="cls-7" d="M271.11,26.43c.49-.26.19-1.48-.38-1.17S270.54,26.75,271.11,26.43Z"/><path class="cls-2" d="M385.1.42a3.66,3.66,0,0,0-2.36.4,5.33,5.33,0,0,0-1.81,1.69,6,6,0,0,0-.62,1.11,5.58,5.58,0,0,1-.31,1,5.28,5.28,0,0,0-.33-1,6.35,6.35,0,0,0-2.47-3,3,3,0,0,0-3.64.39,4.1,4.1,0,0,0-.68,3.1,19.41,19.41,0,0,0,.57,3.38,2.87,2.87,0,0,0-4.31,1.33,1.76,1.76,0,0,0-.13,1,2.54,2.54,0,0,0,.95,1.36,13.63,13.63,0,0,0,1.64,1.18,6.52,6.52,0,0,1,1.57,1A9.68,9.68,0,0,0,368.83,15a2.32,2.32,0,0,0-1.19,1.69c0,.81.73,1.42,1.44,1.82a11.45,11.45,0,0,0,3.72,1.34,24,24,0,0,0-2.55,1.37c-.84.51-1.75,1.28-1.63,2.25s.94,1.41,1.69,1.83a5.08,5.08,0,0,0,2.39.85,41.83,41.83,0,0,0,.54-6.62c0-1.3-.06-2.6,0-3.89s.24-2.26.41-3.39.31-2.07.47-3.1a4.94,4.94,0,0,1,.52-1.79,3.92,3.92,0,0,1,2.46-1.54,9.51,9.51,0,0,1,1.81-.36,14.48,14.48,0,0,1,2.27.26,45.43,45.43,0,0,1,4.49.82,5,5,0,0,0,1.21.18.45.45,0,0,0,.28-.07.52.52,0,0,0,.19-.27,6.06,6.06,0,0,0,.3-2,4.38,4.38,0,0,0-1-3.11A2.82,2.82,0,0,0,385.1.42Z"/><path class="cls-3" d="M406.62,14.66l-.26-6.07c0-.93.1-2.29-.41-3.11a3,3,0,0,0-2-1.21,2.1,2.1,0,0,0-.43-.07L395,3.69c-1.05-.06-2.5-.37-3.47.15-1.37.74-1.14,2.6-1.23,3.92,0,.72-.09,1.44-.14,2.16l-.05-.12c-.42-1-.76-2.38-1.7-3a5.57,5.57,0,0,0-2.95-.66l-4.1-.26-3.82-.25c-1.16-.07-2.41,0-2.95,1.24a4.25,4.25,0,0,0-.2,1.33c-.06.74-.11,1.48-.17,2.23Q373.59,18.7,373,27l-.54,7.3c-.08,1.18-.51,2.95.28,4a4.08,4.08,0,0,0,2.81,1.18l3.66.58c2.29.37,4.59.78,6.89,1.1a3.35,3.35,0,0,0,1,0l.78,2.31a3,3,0,0,0,.72,1.36,3.33,3.33,0,0,0,2.63.84c1.65-.18,3.29-.49,4.93-.73L404,43.71l1.84-.28a2.13,2.13,0,0,0,1.91-2.15c-.06-3.33-.29-6.65-.43-10Zm-2.05,28.18-6.3.93-7,1c-.5.07-1.19.31-1.59-.1a3.44,3.44,0,0,1-.58-1.29l-.62-1.85-.35-1c-.12-.38-1-.58-1.32-.37-.74.51-1.57.21-2.38.08l-3.77-.6-4-.64a18.17,18.17,0,0,1-2.21-.36c-1.23-.36-.78-2.42-.71-3.36.16-2.13.31-4.26.47-6.38l1.2-16.22.33-4.54c.06-.87.46-1.83,1.46-1.92a14.79,14.79,0,0,1,2.1.12l7.45.48a1.13,1.13,0,0,1,.66.15,2.51,2.51,0,0,1,.67,1.12c.5,1.2,1,2.4,1.52,3.6l.36.84c.11.26,1.34.72,1.36.31.08-1.27.17-2.53.25-3.79l.15-2.42A3.69,3.69,0,0,1,392,5.1c.65-1.21,2.16-.82,3.28-.76l5.18.31,3.61.22c.67.06.8,1,.83,1.61L405,7.89l.24,5.48q.33,7.83.67,15.67.25,5.66.49,11.31c0,.23,0,.45,0,.67A1.86,1.86,0,0,1,404.57,42.84Z"/><path class="cls-3" d="M374.83,37.09,377,7.79l9.81.63L392,20.79l1-15,10.68.64,1.5,34.79L390.49,43.4l-4.44-13.29.28,8.81Z"/><path class="cls-4" d="M406,14c-.09-2-.18-4.05-.26-6.07,0-.93.1-2.29-.41-3.11a3,3,0,0,0-2-1.21,2.1,2.1,0,0,0-.43-.07L394.3,3c-1.05-.06-2.5-.37-3.47.15-1.37.74-1.14,2.6-1.23,3.92,0,.72-.09,1.44-.14,2.16l0-.12c-.42-1-.76-2.38-1.7-3a5.57,5.57,0,0,0-2.95-.66l-4.1-.26-3.82-.25c-1.16-.07-2.41,0-2.95,1.24a4.25,4.25,0,0,0-.2,1.33c-.06.74-.11,1.49-.17,2.23L372.3,26.31l-.54,7.3c-.08,1.18-.51,3,.28,4a4.08,4.08,0,0,0,2.81,1.18l3.66.58c2.29.37,4.59.78,6.89,1.1a3.35,3.35,0,0,0,1,0l.78,2.31a3,3,0,0,0,.72,1.36,3.33,3.33,0,0,0,2.63.84c1.65-.18,3.29-.49,4.93-.73L403.35,43l1.84-.28a2.12,2.12,0,0,0,1.91-2.15c-.06-3.33-.29-6.65-.43-10ZM403.9,42.17l-6.3.93-7,1c-.5.07-1.19.31-1.59-.09a3.56,3.56,0,0,1-.58-1.3l-.62-1.85c-.12-.35-.23-.69-.34-1s-1-.58-1.33-.37c-.74.51-1.57.21-2.38.08L380,39l-4-.64A20.33,20.33,0,0,1,373.8,38c-1.23-.37-.78-2.43-.71-3.37.16-2.13.31-4.26.47-6.38L374.76,12l.33-4.54c.06-.87.46-1.83,1.46-1.92a14.79,14.79,0,0,1,2.1.12l7.45.48a1.13,1.13,0,0,1,.66.15,2.51,2.51,0,0,1,.67,1.12L389,11l.36.84c.11.26,1.34.72,1.36.31.08-1.27.17-2.53.25-3.79L391.07,6a3.69,3.69,0,0,1,.27-1.54c.65-1.21,2.16-.82,3.28-.76L399.8,4l3.61.22c.67.06.8,1,.83,1.61l.06,1.41.24,5.48q.33,7.83.67,15.67.26,5.65.49,11.31c0,.23,0,.45,0,.67A1.86,1.86,0,0,1,403.9,42.17Z"/><path class="cls-5" d="M374.16,36.42l2.16-29.3,9.81.63,5.24,12.37,1-15L403,5.76l1.51,34.79-14.7,2.18-4.44-13.29.28,8.81Z"/><path class="cls-6" d="M387.18,25.68c-3.85-1.63-7.8-3.49-11.87-4.81l-1.15,15.55,11.5,1.83-.28-8.81,4.44,13.29,14.7-2.18-.43-9.83C398.25,30,392.69,28,387.18,25.68Z"/><path class="cls-7" d="M400.39,22.05c.95-.44.56-2.75-.55-2.25C398.89,20.23,399.28,22.55,400.39,22.05Z"/><path class="cls-7" d="M396.68,28.16l.34.18a1.06,1.06,0,0,0,.68,0,.94.94,0,0,0,.43-.3,1.2,1.2,0,0,0,.34-.5,1.54,1.54,0,0,0,.13-.65,1.67,1.67,0,0,0-.05-.66l-.15-.41a1.65,1.65,0,0,0-.51-.65l-.34-.18a1.13,1.13,0,0,0-.68,0,.81.81,0,0,0-.43.3,1.14,1.14,0,0,0-.34.5,1.51,1.51,0,0,0-.13.65,1.67,1.67,0,0,0,0,.66l.15.41A1.61,1.61,0,0,0,396.68,28.16Z"/><path class="cls-7" d="M396.86,19.48l.21.12a.63.63,0,0,0,.43,0,.52.52,0,0,0,.27-.19.62.62,0,0,0,.21-.31.91.91,0,0,0,.09-.41,1.17,1.17,0,0,0,0-.41l-.09-.26a1,1,0,0,0-.32-.4l-.21-.12a.63.63,0,0,0-.43,0,.52.52,0,0,0-.27.19.77.77,0,0,0-.21.31.91.91,0,0,0-.08.41,1,1,0,0,0,0,.41l.09.26A1.07,1.07,0,0,0,396.86,19.48Z"/><path class="cls-7" d="M400.82,14.31l.2.2.24.12.24,0,.23,0,.21-.11a.76.76,0,0,0,.25-.31.54.54,0,0,0,.11-.28,1.09,1.09,0,0,0,.06-.45v-.09a1.15,1.15,0,0,0-.08-.41,1,1,0,0,0-.2-.37l-.19-.19a.75.75,0,0,0-.44-.15h-.06l-.23,0-.22.12a.7.7,0,0,0-.25.31,1.34,1.34,0,0,0-.16.58,1,1,0,0,0,0,.3.84.84,0,0,0,.08.3A1.2,1.2,0,0,0,400.82,14.31Z"/><path class="cls-7" d="M401.92,18.31c.41-.18.24-1.17-.23-1S401.45,18.52,401.92,18.31Z"/><path class="cls-7" d="M397.69,12.28c.41-.18.24-1.17-.23-1S397.22,12.49,397.69,12.28Z"/><path class="cls-7" d="M397.65,23.36l.07,0a.23.23,0,0,0,.29,0,.36.36,0,0,0,.1-.14.58.58,0,0,0,0-.19V23a.49.49,0,0,0-.18-.38.28.28,0,0,0-.34,0,.43.43,0,0,0-.15.38A.55.55,0,0,0,397.65,23.36Z"/><path class="cls-7" d="M400.71,28l.16.08a.44.44,0,0,0,.32,0,.41.41,0,0,0,.21-.14.51.51,0,0,0,.15-.23.67.67,0,0,0,.07-.31.82.82,0,0,0,0-.31l-.07-.2a.8.8,0,0,0-.24-.3l-.16-.09a.44.44,0,0,0-.32,0,.41.41,0,0,0-.21.14.6.6,0,0,0-.16.24.73.73,0,0,0-.06.3.89.89,0,0,0,0,.32l.07.19A.74.74,0,0,0,400.71,28Z"/><path class="cls-7" d="M399.26,10.51a.86.86,0,0,0,.39.27l.28,0,.27,0a.64.64,0,0,0,.36-.24,1,1,0,0,0,.27-.41l0-.05a1.71,1.71,0,0,0,.12-.72L400.93,9a1.66,1.66,0,0,0-.31-.64.86.86,0,0,0-.38-.31.64.64,0,0,0-.42-.12.62.62,0,0,0-.4.11.79.79,0,0,0-.34.29,1.41,1.41,0,0,0-.27.65,3.1,3.1,0,0,0,0,.43c0,.12,0,.24,0,.36a1.3,1.3,0,0,0,.21.48A.61.61,0,0,0,399.26,10.51Z"/><path class="cls-7" d="M401.78,23.56l.08.12a.36.36,0,0,0,.16.14.28.28,0,0,0,.12,0,.28.28,0,0,0,.18,0l.05,0,.13-.07a.49.49,0,0,0,.16-.19.38.38,0,0,0,.06-.16.57.57,0,0,0,0-.18.67.67,0,0,0,0-.28l-.06-.17-.09-.15a.43.43,0,0,0-.2-.16.24.24,0,0,0-.14,0,.17.17,0,0,0-.14,0,.32.32,0,0,0-.2.08l-.11.11-.08.15,0,.18a.66.66,0,0,0,0,.28.61.61,0,0,0,.08.26Z"/><path class="cls-7" d="M397.9,31l.08.13a.33.33,0,0,0,.16.13.19.19,0,0,0,.12,0,.23.23,0,0,0,.18,0l.05,0,.13-.06a.4.4,0,0,0,.15-.19.33.33,0,0,0,.07-.17.48.48,0,0,0,0-.18.68.68,0,0,0,0-.28l-.06-.17-.09-.15a.48.48,0,0,0-.2-.15.19.19,0,0,0-.14-.05.23.23,0,0,0-.14,0,.5.5,0,0,0-.2.08l-.11.12-.08.15-.05.18a.61.61,0,0,0,0,.27.9.9,0,0,0,.07.27Z"/><path class="cls-7" d="M398.71,15.85c.53-.24.31-1.53-.31-1.25S398.09,16.13,398.71,15.85Z"/><path class="cls-2" d="M28.37,23.89a77.64,77.64,0,0,1,1.92,9.67C31.59,33,33,32.31,33.48,31a2.5,2.5,0,0,0-3.63-3,4.21,4.21,0,0,0-1.58-7.4,3.74,3.74,0,0,0,3-3.67,3.74,3.74,0,0,0-3.22-3.5,8,8,0,0,0,2.69-3.33,3.63,3.63,0,0,0-.84-4,2.38,2.38,0,0,0-3.63.75,5.6,5.6,0,0,0-5.6-5,6.8,6.8,0,0,0-6.1,4.83A5.35,5.35,0,0,0,9.39,1.51,5.35,5.35,0,0,0,4.29,6.8c0,.28-.11.4,0,.67,3.1-.38,6.26-.09,9.38-.37,3.33-.3,6.63-1.25,10-1a2.77,2.77,0,0,1,.86.14,2.59,2.59,0,0,1,1.22,1.12,10.59,10.59,0,0,1,1.21,4.89c.09,1,.17,2.08.26,3.12a10.77,10.77,0,0,1,0,2.6A3.67,3.67,0,0,1,26,20.2,5.62,5.62,0,0,1,28.37,23.89Z"/><path class="cls-3" d="M32.34,38.21,29.6,23.09c0-.22-.07-.44-.12-.66a2.2,2.2,0,0,0-1.88-1.69,2.45,2.45,0,0,0,1-1.95c0-.38-.06-.75-.09-1.12-.13-1.73-.25-3.45-.38-5.17L27.77,8c-.12-1.65-1.38-2.36-2.95-2.25-6.15.45-12.3.93-18.44,1.39-.66,0-1.32.08-2,.15A2.49,2.49,0,0,0,2,9.5c0,.13,0,.26,0,.38l-.33,7.21Q1.2,27.16.74,37.24a6,6,0,0,0,0,1.89c.46,1.51,2,1.54,3.34,1.69l9.6,1.11a4.78,4.78,0,0,0,1.07,0,2.67,2.67,0,0,0,.7,1.76,2.92,2.92,0,0,0,2.75.53c.86-.22,1.71-.49,2.57-.73L29.6,41l.9-.26A2.28,2.28,0,0,0,32.34,38.21Zm-2.36,2c-.27.1-.55.16-.82.24l-3.56,1-7.39,2.11a1.23,1.23,0,0,1-1.06,0c-.87-.46-.9-1.41-1-2.26-.05-.41-1-.16-1.23-.06a2,2,0,0,1-1.07,0l-2.06-.23-5.33-.62c-1-.11-2-.16-3.05-.35-1.19-.23-1.32-1.37-1.28-2.35l.81-18.18L3.31,11c0-.54,0-1.08.08-1.62A1.52,1.52,0,0,1,4.5,7.88c.23,0,.47,0,.7,0L23.54,6.45c.82-.06,1.66-.32,2.3.35s.59,2.43.66,3.41c.22,2.9.53,5.81.65,8.72,0,.93-.5,1.4-1.13,2-.32.27.33.37.47.36,1.29,0,1.54,1.17,1.72,2.17.22,1.17.43,2.34.64,3.52q.84,4.61,1.67,9.21c.14.74.27,1.48.41,2.23A1.67,1.67,0,0,1,30,40.23Z"/><path class="cls-3" d="M3.29,38.49l1.29-29L25.14,8,26,19l-4.43,3.9,5.37-.07,2.87,15.77L17.44,42.15l-1.31-10H14l.54,7.63Zm13.94-19.6.35-3.33L13,16.71l.26,2.79Z"/><path class="cls-4" d="M31.67,37.54Q30.31,30,28.93,22.42c0-.22-.07-.44-.12-.66a2.2,2.2,0,0,0-1.88-1.69,2.45,2.45,0,0,0,1-1.95c0-.38-.06-.75-.09-1.12-.13-1.73-.25-3.45-.38-5.17L27.1,7.36C27,5.72,25.72,5,24.15,5.11,18,5.56,11.85,6,5.71,6.5c-.66,0-1.32.08-2,.15A2.49,2.49,0,0,0,1.3,8.83c0,.13,0,.26,0,.38C1.18,11.61,1.07,14,1,16.42L.07,36.57a6,6,0,0,0,0,1.89C.55,40,2.13,40,3.43,40.15L13,41.26a4.78,4.78,0,0,0,1.07,0A2.72,2.72,0,0,0,14.8,43a2.92,2.92,0,0,0,2.75.53c.86-.22,1.71-.49,2.57-.73l8.81-2.52.9-.26A2.28,2.28,0,0,0,31.67,37.54Zm-2.36,2c-.26.1-.55.16-.82.24l-3.56,1-7.39,2.11a1.2,1.2,0,0,1-1.06,0c-.87-.46-.9-1.41-1-2.26-.05-.41-1-.16-1.23-.06a2,2,0,0,1-1.07,0l-2.06-.23-5.33-.62c-1-.11-2.05-.16-3.05-.35-1.19-.23-1.32-1.37-1.28-2.35l.81-18.18q.2-4.31.38-8.59c0-.54,0-1.08.08-1.62A1.52,1.52,0,0,1,3.83,7.21c.23,0,.47,0,.7,0L22.87,5.78c.82-.06,1.66-.32,2.3.35s.59,2.43.66,3.41c.22,2.9.53,5.81.65,8.72,0,.93-.5,1.4-1.13,2-.32.27.33.37.47.36,1.29,0,1.54,1.17,1.72,2.17.22,1.17.43,2.34.64,3.52q.84,4.61,1.67,9.21c.14.74.27,1.48.41,2.23A1.67,1.67,0,0,1,29.31,39.56Z"/><path class="cls-5" d="M2.62,37.82l1.29-29L24.47,7.28l.82,11.08-4.43,3.9,5.37-.07L29.1,38,16.77,41.48l-1.31-10H13.3l.54,7.63Zm13.94-19.6.35-3.33L12.29,16l.26,2.79Z"/><path class="cls-6" d="M3.23,24.17,2.62,37.82l11.22,1.29-.54-7.63h2.16l1.31,10L29.1,38,26.36,22.9A129.76,129.76,0,0,1,3.23,24.17Z"/><path class="cls-7" d="M7.86,24.08c.94-.46.47-2.77-.62-2.23S6.77,24.62,7.86,24.08Z"/><path class="cls-7" d="M4.35,30.31l.34.17a1.05,1.05,0,0,0,.68,0,.91.91,0,0,0,.43-.32,1.23,1.23,0,0,0,.32-.5A1.58,1.58,0,0,0,6.23,29a1.91,1.91,0,0,0-.07-.66c-.06-.13-.11-.27-.16-.4a1.85,1.85,0,0,0-.54-.63l-.34-.17a1.05,1.05,0,0,0-.68,0,.94.94,0,0,0-.43.31A1.1,1.1,0,0,0,3.7,28a1.42,1.42,0,0,0-.11.65,1.69,1.69,0,0,0,.07.66c0,.14.1.27.16.41A1.61,1.61,0,0,0,4.35,30.31Z"/><path class="cls-7" d="M4.25,21.64l.22.1a.6.6,0,0,0,.42,0,.54.54,0,0,0,.27-.2.67.67,0,0,0,.2-.31,1,1,0,0,0,.07-.41,1,1,0,0,0,0-.42l-.09-.25a1.12,1.12,0,0,0-.34-.4l-.22-.1a.6.6,0,0,0-.42,0,.58.58,0,0,0-.27.19.76.76,0,0,0-.2.32,1.1,1.1,0,0,0-.07.41,1.24,1.24,0,0,0,0,.42l.1.25A1.08,1.08,0,0,0,4.25,21.64Z"/><path class="cls-7" d="M8,16.33l.21.2.24.11.24,0L9,16.63l.21-.12a.77.77,0,0,0,.24-.32.63.63,0,0,0,.1-.28,1.14,1.14,0,0,0,.05-.46v-.08A1,1,0,0,0,9.45,15a1,1,0,0,0-.2-.37l-.2-.18a.82.82,0,0,0-.44-.14H8.54l-.23.05-.2.12a.8.8,0,0,0-.25.32.63.63,0,0,0-.1.28.73.73,0,0,0,0,.3,1.1,1.1,0,0,0,0,.31.81.81,0,0,0,.09.29A1,1,0,0,0,8,16.33Z"/><path class="cls-7" d="M9.27,20.3c.4-.2.2-1.18-.26-.95S8.81,20.53,9.27,20.3Z"/><path class="cls-7" d="M4.85,14.41c.4-.2.2-1.18-.27-.95S4.38,14.64,4.85,14.41Z"/><path class="cls-7" d="M5.17,25.48l.06,0a.24.24,0,0,0,.29,0,.28.28,0,0,0,.1-.14.64.64,0,0,0,0-.2v-.09a.47.47,0,0,0-.19-.37.28.28,0,0,0-.34,0,.46.46,0,0,0-.14.39A.49.49,0,0,0,5.17,25.48Z"/><path class="cls-7" d="M8.37,30l.16.08a.5.5,0,0,0,.32,0,.51.51,0,0,0,.21-.15.7.7,0,0,0,.15-.24,1,1,0,0,0,0-.31.68.68,0,0,0,0-.31l-.07-.19a.85.85,0,0,0-.26-.3l-.16-.08a.5.5,0,0,0-.32,0,.43.43,0,0,0-.2.15.49.49,0,0,0-.15.24.62.62,0,0,0-.05.31.84.84,0,0,0,0,.31c0,.06.05.13.08.19A.81.81,0,0,0,8.37,30Z"/><path class="cls-7" d="M6.36,12.59a.82.82,0,0,0,.4.25l.28,0,.27-.05a.75.75,0,0,0,.35-.26.83.83,0,0,0,.26-.41l0-.06A1.7,1.7,0,0,0,8,11.38L8,11a1.76,1.76,0,0,0-.33-.62.8.8,0,0,0-.39-.3A.67.67,0,0,0,6.84,10a.62.62,0,0,0-.4.13.72.72,0,0,0-.33.29,1.59,1.59,0,0,0-.25.67,3,3,0,0,0,0,.43l.07.35a1.23,1.23,0,0,0,.22.48A.76.76,0,0,0,6.36,12.59Z"/><path class="cls-7" d="M9.3,25.55l.08.12a.43.43,0,0,0,.17.13.36.36,0,0,0,.3,0l.05,0,.13-.07a.43.43,0,0,0,.14-.2.29.29,0,0,0,.07-.16.58.58,0,0,0,0-.19.64.64,0,0,0,0-.27l-.07-.17-.09-.15a.55.55,0,0,0-.2-.15.21.21,0,0,0-.15,0,.17.17,0,0,0-.14,0,.34.34,0,0,0-.19.09l-.11.11s0,.1-.08.16l0,.18a.62.62,0,0,0,0,.27.79.79,0,0,0,.08.26Z"/><path class="cls-7" d="M5.66,33.12l.08.13a.38.38,0,0,0,.17.12.19.19,0,0,0,.12,0,.28.28,0,0,0,.18,0l0,0,.13-.08a.49.49,0,0,0,.15-.19.43.43,0,0,0,.06-.17.35.35,0,0,0,0-.18.63.63,0,0,0,0-.27l-.06-.17a1.3,1.3,0,0,1-.1-.15.55.55,0,0,0-.2-.15A.27.27,0,0,0,6.09,32a.26.26,0,0,0-.15,0,.29.29,0,0,0-.19.08l-.11.12-.08.15,0,.18a.88.88,0,0,0,0,.28.79.79,0,0,0,.08.26Z"/><path class="cls-7" d="M6,18c.52-.26.26-1.55-.35-1.24S5.37,18.25,6,18Z"/><path class="cls-2" d="M230.15,23.89a75.86,75.86,0,0,1,1.92,9.67c1.31-.55,2.75-1.25,3.2-2.59a2.5,2.5,0,0,0-3.64-3,4.2,4.2,0,0,0-1.57-7.4,3.76,3.76,0,0,0,3-3.67,3.75,3.75,0,0,0-3.23-3.5,7.91,7.91,0,0,0,2.69-3.33,3.63,3.63,0,0,0-.84-4,2.37,2.37,0,0,0-3.62.75,5.61,5.61,0,0,0-5.6-5,6.77,6.77,0,0,0-6.1,4.83,5.16,5.16,0,1,0-10.32.11c0,.28-.1.4,0,.67,3.11-.38,6.26-.09,9.38-.37,3.34-.3,6.63-1.25,10-1a2.72,2.72,0,0,1,.86.14,2.62,2.62,0,0,1,1.23,1.12,10.71,10.71,0,0,1,1.2,4.89c.09,1,.18,2.08.26,3.12a10.77,10.77,0,0,1,0,2.6,3.64,3.64,0,0,1-1.19,2.27A5.62,5.62,0,0,1,230.15,23.89Z"/><path class="cls-3" d="M234.13,38.21l-2.75-15.12c0-.22-.07-.44-.12-.66a2.19,2.19,0,0,0-1.88-1.69,2.42,2.42,0,0,0,1-1.95c0-.38-.06-.75-.08-1.12l-.39-5.17L229.55,8c-.12-1.65-1.37-2.36-3-2.25-6.15.45-12.29.93-18.44,1.39-.66,0-1.32.08-2,.15a2.47,2.47,0,0,0-2.43,2.18c0,.13,0,.26,0,.38-.11,2.4-.21,4.81-.32,7.21l-.9,20.15a5.71,5.71,0,0,0,0,1.89c.46,1.51,2,1.54,3.33,1.69l9.61,1.11a4.79,4.79,0,0,0,1.07,0,2.71,2.71,0,0,0,.69,1.76,2.93,2.93,0,0,0,2.75.53c.87-.22,1.72-.49,2.57-.73L231.38,41l.9-.26A2.29,2.29,0,0,0,234.13,38.21Zm-2.37,2c-.26.1-.55.16-.82.24l-3.56,1L220,43.59c-.39.11-.66.24-1.06,0-.88-.46-.9-1.41-1-2.26,0-.41-1-.16-1.23-.06a1.91,1.91,0,0,1-1.06,0l-2.07-.23-5.33-.62c-1-.11-2-.16-3-.35-1.2-.23-1.33-1.37-1.28-2.35l.81-18.18L205.1,11c0-.54,0-1.08.07-1.62a1.53,1.53,0,0,1,1.12-1.47c.22,0,.46,0,.69,0l18.35-1.38c.82-.06,1.66-.32,2.3.35s.58,2.43.66,3.41c.21,2.9.52,5.81.64,8.72,0,.93-.5,1.4-1.13,2-.31.27.33.37.47.36,1.3,0,1.55,1.17,1.73,2.17.21,1.17.42,2.34.64,3.52q.83,4.61,1.67,9.21c.13.74.27,1.48.4,2.23A1.67,1.67,0,0,1,231.76,40.23Z"/><path class="cls-3" d="M205.07,38.49l1.29-29L226.93,8,227.75,19l-4.44,3.9,5.38-.07,2.86,15.77-12.32,3.52-1.32-10h-2.16l.54,7.63Zm14-19.6.35-3.33-4.63,1.15L215,19.5Z"/><path class="cls-4" d="M233.46,37.54q-1.38-7.56-2.75-15.12c0-.22-.07-.44-.12-.66a2.19,2.19,0,0,0-1.88-1.69,2.42,2.42,0,0,0,1-1.95c0-.38-.06-.75-.08-1.12l-.39-5.17-.33-4.47c-.12-1.64-1.37-2.36-2.95-2.25-6.15.45-12.29.93-18.44,1.39-.66,0-1.32.08-2,.15a2.47,2.47,0,0,0-2.43,2.18c0,.13,0,.26,0,.38-.11,2.4-.21,4.81-.32,7.21l-.9,20.15a6,6,0,0,0,0,1.89c.46,1.51,2,1.54,3.33,1.69l9.61,1.11a4.79,4.79,0,0,0,1.07,0,2.71,2.71,0,0,0,.69,1.76,2.93,2.93,0,0,0,2.75.53c.87-.22,1.72-.49,2.57-.73l8.81-2.52.9-.26A2.29,2.29,0,0,0,233.46,37.54Zm-2.37,2c-.26.1-.55.16-.82.24l-3.56,1-7.38,2.11a1.2,1.2,0,0,1-1.06,0c-.88-.46-.9-1.41-1-2.26-.05-.41-1-.16-1.23-.06a1.91,1.91,0,0,1-1.06,0l-2.07-.23-5.33-.62c-1-.11-2.05-.16-3-.35-1.2-.23-1.33-1.37-1.28-2.35l.81-18.18q.18-4.31.38-8.59c0-.54,0-1.08.07-1.62a1.53,1.53,0,0,1,1.12-1.47c.22,0,.46,0,.69,0l18.35-1.38c.82-.06,1.66-.32,2.3.35s.58,2.43.66,3.41c.21,2.9.52,5.81.64,8.72,0,.93-.5,1.4-1.13,2-.31.27.33.37.47.36,1.3,0,1.55,1.17,1.73,2.17.21,1.17.42,2.34.64,3.52q.83,4.61,1.67,9.21c.13.74.27,1.48.4,2.23A1.67,1.67,0,0,1,231.09,39.56Z"/><path class="cls-5" d="M204.4,37.82l1.29-29,20.57-1.55.82,11.08-4.44,3.9,5.38-.07L230.88,38l-12.32,3.52-1.32-10h-2.16l.54,7.63Zm13.95-19.6.35-3.33L214.07,16l.26,2.79Z"/><path class="cls-6" d="M205,24.17l-.61,13.65,11.22,1.29-.54-7.63h2.16l1.32,10L230.88,38,228.15,22.9A129.87,129.87,0,0,1,205,24.17Z"/><path class="cls-7" d="M209.65,24.08c.93-.46.47-2.77-.63-2.23C208.09,22.32,208.55,24.62,209.65,24.08Z"/><path class="cls-7" d="M206.14,30.31l.34.17a1.05,1.05,0,0,0,.68,0,.88.88,0,0,0,.42-.32,1.14,1.14,0,0,0,.32-.5A1.58,1.58,0,0,0,208,29a1.69,1.69,0,0,0-.07-.66l-.16-.4a1.65,1.65,0,0,0-.54-.63l-.34-.17a1,1,0,0,0-.67,0,.84.84,0,0,0-.43.31,1.12,1.12,0,0,0-.32.51,1.56,1.56,0,0,0-.11.65,1.69,1.69,0,0,0,.07.66c.06.14.11.27.16.41A1.63,1.63,0,0,0,206.14,30.31Z"/><path class="cls-7" d="M206,21.64l.21.1a.63.63,0,0,0,.43,0,.54.54,0,0,0,.27-.2.76.76,0,0,0,.2-.31,1,1,0,0,0,.06-.41,1,1,0,0,0,0-.42l-.1-.25a1.12,1.12,0,0,0-.34-.4l-.21-.1a.63.63,0,0,0-.43,0,.61.61,0,0,0-.26.19.67.67,0,0,0-.2.32.81.81,0,0,0-.07.41,1,1,0,0,0,0,.42l.1.25A1.21,1.21,0,0,0,206,21.64Z"/><path class="cls-7" d="M209.83,16.33l.21.2.23.11.24,0,.23-.05.21-.12a.7.7,0,0,0,.24-.32.63.63,0,0,0,.11-.28,1.15,1.15,0,0,0,0-.46v-.08a1.17,1.17,0,0,0-.1-.41.91.91,0,0,0-.21-.37l-.19-.18a.88.88,0,0,0-.45-.14h-.06l-.23.05-.21.12a.7.7,0,0,0-.24.32.63.63,0,0,0-.11.28,1,1,0,0,0,0,.3.84.84,0,0,0,0,.31.79.79,0,0,0,.08.29A1,1,0,0,0,209.83,16.33Z"/><path class="cls-7" d="M211.06,20.3c.4-.2.2-1.18-.27-.95S210.59,20.53,211.06,20.3Z"/><path class="cls-7" d="M206.63,14.41c.4-.2.2-1.18-.26-.95S206.17,14.64,206.63,14.41Z"/><path class="cls-7" d="M207,25.48l.07,0a.24.24,0,0,0,.29,0,.34.34,0,0,0,.09-.14.44.44,0,0,0,0-.2v-.09a.51.51,0,0,0-.2-.37.27.27,0,0,0-.33,0,.43.43,0,0,0-.14.39A.48.48,0,0,0,207,25.48Z"/><path class="cls-7" d="M210.15,30l.17.08a.5.5,0,0,0,.32,0,.43.43,0,0,0,.2-.15.49.49,0,0,0,.15-.24.63.63,0,0,0,0-.31.84.84,0,0,0,0-.31l-.08-.19a.82.82,0,0,0-.25-.3l-.16-.08a.5.5,0,0,0-.32,0,.45.45,0,0,0-.21.15.58.58,0,0,0-.15.24.75.75,0,0,0-.05.31.68.68,0,0,0,0,.31l.07.19A.91.91,0,0,0,210.15,30Z"/><path class="cls-7" d="M208.14,12.59a.85.85,0,0,0,.41.25l.28,0,.27-.05a.81.81,0,0,0,.35-.26.89.89,0,0,0,.25-.41l0-.06a1.7,1.7,0,0,0,.09-.72l-.06-.36a1.6,1.6,0,0,0-.32-.62.9.9,0,0,0-.39-.3.68.68,0,0,0-.43-.11.64.64,0,0,0-.4.13.83.83,0,0,0-.33.29,1.45,1.45,0,0,0-.24.67,2,2,0,0,0,0,.43l.06.35a1.26,1.26,0,0,0,.23.48A.64.64,0,0,0,208.14,12.59Z"/><path class="cls-7" d="M211.08,25.55l.08.12a.52.52,0,0,0,.17.13.28.28,0,0,0,.12,0,.27.27,0,0,0,.18,0l.06,0,.12-.07a.74.74,0,0,0,.21-.36.4.4,0,0,0,0-.19.64.64,0,0,0,0-.27l-.06-.17-.1-.15a.48.48,0,0,0-.2-.15.19.19,0,0,0-.14,0,.17.17,0,0,0-.14,0,.37.37,0,0,0-.2.09l-.1.11a.8.8,0,0,0-.08.16l-.05.18a.82.82,0,0,0,0,.27.62.62,0,0,0,.09.26Z"/><path class="cls-7" d="M207.44,33.12l.09.13a.31.31,0,0,0,.16.12.19.19,0,0,0,.12,0,.27.27,0,0,0,.18,0l.06,0,.12-.08a.36.36,0,0,0,.15-.19.43.43,0,0,0,.06-.17.48.48,0,0,0,0-.18,1.24,1.24,0,0,0,0-.27c0-.06,0-.12-.07-.17l-.1-.15A.48.48,0,0,0,208,32a.24.24,0,0,0-.14-.05.22.22,0,0,0-.14,0,.3.3,0,0,0-.2.08l-.1.12-.08.15,0,.18a.67.67,0,0,0,0,.28.61.61,0,0,0,.08.26Z"/><path class="cls-7" d="M207.76,18c.53-.26.27-1.55-.34-1.24S207.15,18.25,207.76,18Z"/><path class="cls-2" d="M153.6,25.46l2.21-2a8.44,8.44,0,0,0,1.51-1.65,4.19,4.19,0,0,0,.5-3.24.76.76,0,0,0-.61-.64,8.32,8.32,0,0,0-4.58-.37A13.09,13.09,0,0,0,155,13.87a2.61,2.61,0,0,0,.17-2.27,2.46,2.46,0,0,0-2.32-.91,8.09,8.09,0,0,0-4,1.3,8.81,8.81,0,0,0,1.38-4.4,4.54,4.54,0,0,0-.58-2.4,2.53,2.53,0,0,0-2-1.25,3.18,3.18,0,0,0-1.75.69,7.86,7.86,0,0,0-2.76,3.48,11.06,11.06,0,0,0-.38-2.63,4.06,4.06,0,0,0-1.47-2.17,2.51,2.51,0,0,0-2.53-.24,3.39,3.39,0,0,0-.86.7,11.12,11.12,0,0,0-2.36,3.76,8,8,0,0,0-1.2-4.26,2.75,2.75,0,0,0-1.63-1.37,2.71,2.71,0,0,0-2.31.93,7.4,7.4,0,0,0-2.24,4.77c.22-.46.72-.33,1.23-.36a27.25,27.25,0,0,1,6.22.68,64.81,64.81,0,0,0,8.79,1,5.62,5.62,0,0,1,2,.3A5.43,5.43,0,0,1,148,10.62a16.52,16.52,0,0,1,2.34,2.94c.33.57.59,1.17.91,1.74a13.43,13.43,0,0,1,.76,1.33,9.38,9.38,0,0,1,.33,4.42,26.58,26.58,0,0,0,0,3.34,3.43,3.43,0,0,0,.57,1.95A4.1,4.1,0,0,1,153.6,25.46Z"/><path class="cls-3" d="M127.07,43.94a1.29,1.29,0,0,0,.4,0,1.32,1.32,0,0,0,.2,0c3.37-.1,6.74-.39,10.09-.58l13.68-.78c.34,0,.68,0,1-.06a2.31,2.31,0,0,0,2.32-2.36c-.06-1.31-.17-2.61-.26-3.92q-.51-7.58-1-15.15c-.1-1.41-.17-2.82-.29-4.23a2.93,2.93,0,0,0-.73-1.64l-2.09-2.64-2.11-2.7a3,3,0,0,0-2.19-1.26c-1.65-.14-3.29-.22-4.94-.33l-7.85-.52-2.81-.19a7.56,7.56,0,0,0-1.84,0,2.3,2.3,0,0,0-2,2.15c0,.41,0,.81-.07,1.21l-.29,5.31-.87,15.63c-.18,3.24-.42,6.48-.54,9.72A2.28,2.28,0,0,0,127.07,43.94Zm-.76-2.53c0-.46,0-.92.07-1.38l.3-5.38.84-15.12c.18-3.25.33-6.51.55-9.76,0-.67.4-1.58,1.18-1.65a10.3,10.3,0,0,1,1.56.1l6.91.46,6.75.45c.43,0,.87,0,1.29.08.76.12,1.26,1,1.71,1.58,1.29,1.65,2.62,3.27,3.89,5,.63.83.5,2.24.57,3.24q.48,7.13.95,14.26l.39,5.78c.08,1.14.31,2.88-1.31,3-3.7.27-7.4.42-11.1.63l-12.72.73-.55,0h-.12C126.51,43.36,126.26,42.18,126.31,41.41Z"/><path class="cls-3" d="M127.47,41.8l1.79-32.07,16.57,1.11,4.77,6.05,1.57,23.5Zm15.12-11.9L142,18.79l-1-1h-1.5L138.79,30Z"/><path class="cls-4" d="M126.4,43.27a1.29,1.29,0,0,0,.4,0h.2c3.37-.1,6.74-.39,10.09-.58L150.77,42c.34,0,.68,0,1-.06a2.31,2.31,0,0,0,2.32-2.36c-.06-1.31-.17-2.61-.26-3.92q-.51-7.58-1-15.15c-.1-1.41-.17-2.82-.29-4.23a2.93,2.93,0,0,0-.73-1.64L149.72,12l-2.11-2.7A3,3,0,0,0,145.42,8c-1.65-.14-3.29-.22-4.94-.33l-7.85-.52L129.82,7a7.56,7.56,0,0,0-1.84,0,2.3,2.3,0,0,0-2,2.15c0,.41,0,.81-.07,1.21-.09,1.77-.19,3.54-.29,5.31l-.87,15.63c-.18,3.24-.42,6.48-.54,9.72A2.28,2.28,0,0,0,126.4,43.27Zm-.76-2.53c0-.46,0-.92.07-1.38L126,34l.84-15.12c.18-3.25.33-6.51.55-9.75,0-.68.4-1.59,1.18-1.66a10.3,10.3,0,0,1,1.56.1l6.91.46,6.75.45c.43,0,.87,0,1.29.08.76.12,1.26,1,1.71,1.58,1.29,1.65,2.62,3.27,3.89,5,.63.83.5,2.24.57,3.24q.48,7.13,1,14.26l.39,5.78c.08,1.14.31,2.88-1.31,3-3.7.27-7.4.42-11.1.63l-12.72.73-.55,0h-.12C125.84,42.69,125.59,41.51,125.64,40.74Z"/><path class="cls-5" d="M126.8,41.13l1.79-32.07,16.57,1.11,4.77,6,1.57,23.5Zm15.12-11.9-.61-11.11-1-1h-1.5l-.68,12.18Z"/><path class="cls-6" d="M141.8,27.05l.12,2.18-3.8.07.2-3.6c-3.48-1.43-6.91-3-10.41-4.4L126.8,41.13l24.7-1.41-.7-10.48A39.72,39.72,0,0,1,141.8,27.05Z"/><path class="cls-7" d="M133.64,24.88c1-.43.56-2.75-.55-2.24C132.14,23.07,132.53,25.39,133.64,24.88Z"/><path class="cls-7" d="M129.93,31l.34.18a1,1,0,0,0,.68,0,.92.92,0,0,0,.44-.29,1.25,1.25,0,0,0,.33-.5,1.54,1.54,0,0,0,.13-.65,1.67,1.67,0,0,0,0-.66l-.15-.41a1.65,1.65,0,0,0-.51-.65l-.34-.18a1,1,0,0,0-.68,0,.81.81,0,0,0-.43.3,1.17,1.17,0,0,0-.34.49,1.57,1.57,0,0,0-.13.65,1.85,1.85,0,0,0,.05.66l.15.41A1.74,1.74,0,0,0,129.93,31Z"/><path class="cls-7" d="M130.11,22.32l.22.11a.67.67,0,0,0,.42,0,.67.67,0,0,0,.28-.19.77.77,0,0,0,.21-.31,1.11,1.11,0,0,0,.08-.41,1.17,1.17,0,0,0,0-.41l-.09-.26a1.09,1.09,0,0,0-.32-.41l-.21-.11a.63.63,0,0,0-.43,0,.54.54,0,0,0-.27.18.81.81,0,0,0-.21.32.9.9,0,0,0-.08.4,1,1,0,0,0,0,.42l.09.26A1.16,1.16,0,0,0,130.11,22.32Z"/><path class="cls-7" d="M134.07,17.14l.21.2.23.13.24,0,.23,0,.21-.11a.69.69,0,0,0,.25-.31.54.54,0,0,0,.11-.28,1,1,0,0,0,.06-.45v-.09a1.27,1.27,0,0,0-.09-.42,1,1,0,0,0-.19-.36l-.2-.19a.77.77,0,0,0-.44-.16h-.06l-.23,0-.21.11a.82.82,0,0,0-.26.32,1.35,1.35,0,0,0-.16.57.83.83,0,0,0,0,.31.59.59,0,0,0,.07.29A1,1,0,0,0,134.07,17.14Z"/><path class="cls-7" d="M135.17,21.15c.41-.19.24-1.18-.23-1S134.7,21.36,135.17,21.15Z"/><path class="cls-7" d="M130.94,15.12c.41-.19.24-1.18-.23-1S130.47,15.33,130.94,15.12Z"/><path class="cls-7" d="M130.9,26.19l.07,0a.24.24,0,0,0,.29,0,.32.32,0,0,0,.1-.13.64.64,0,0,0,0-.2v-.09a.49.49,0,0,0-.18-.38.28.28,0,0,0-.34,0,.43.43,0,0,0-.15.38A.51.51,0,0,0,130.9,26.19Z"/><path class="cls-7" d="M134,30.78l.16.09a.58.58,0,0,0,.32,0,.49.49,0,0,0,.21-.14.6.6,0,0,0,.16-.24.73.73,0,0,0,.06-.3.87.87,0,0,0,0-.32l-.07-.19a.83.83,0,0,0-.24-.31l-.16-.08a.44.44,0,0,0-.32,0,.41.41,0,0,0-.21.14.56.56,0,0,0-.16.23.81.81,0,0,0-.06.31.84.84,0,0,0,0,.31l.07.2A.89.89,0,0,0,134,30.78Z"/><path class="cls-7" d="M132.51,13.35a.82.82,0,0,0,.39.26l.28.05.28,0a.73.73,0,0,0,.35-.25,1,1,0,0,0,.28-.4s0,0,0-.06a1.63,1.63,0,0,0,.12-.71l0-.37a1.69,1.69,0,0,0-.31-.63.81.81,0,0,0-.38-.31.64.64,0,0,0-.42-.12.62.62,0,0,0-.4.11.73.73,0,0,0-.34.29,1.41,1.41,0,0,0-.27.65,3,3,0,0,0,0,.43c0,.12,0,.24.05.36a1.46,1.46,0,0,0,.21.48A.67.67,0,0,0,132.51,13.35Z"/><path class="cls-7" d="M135,26.39l.08.13a.33.33,0,0,0,.16.13.31.31,0,0,0,.12.05.37.37,0,0,0,.18,0l.06,0,.12-.07a.49.49,0,0,0,.16-.19.43.43,0,0,0,.06-.17.27.27,0,0,0,0-.18.62.62,0,0,0,0-.27l-.06-.18-.09-.15a.53.53,0,0,0-.19-.15.23.23,0,0,0-.15,0,.17.17,0,0,0-.14,0,.32.32,0,0,0-.2.08l-.11.11-.08.15-.05.18a.66.66,0,0,0,0,.28.65.65,0,0,0,.08.26Z"/><path class="cls-7" d="M131.15,33.85l.08.13a.4.4,0,0,0,.16.13.19.19,0,0,0,.12,0,.28.28,0,0,0,.18,0l.06,0,.12-.07a.46.46,0,0,0,.16-.18.49.49,0,0,0,.06-.17.38.38,0,0,0,0-.18.68.68,0,0,0,0-.28l-.06-.17-.09-.15a.51.51,0,0,0-.2-.16.24.24,0,0,0-.14,0h-.14a.39.39,0,0,0-.2.08l-.11.11c0,.05,0,.11-.08.16l-.05.17a.66.66,0,0,0,0,.28.61.61,0,0,0,.08.26Z"/><path class="cls-7" d="M132,18.69c.53-.24.31-1.53-.31-1.25S131.34,19,132,18.69Z"/><path class="cls-2" d="M94.71.44a3.66,3.66,0,0,0-2.36.4,5.21,5.21,0,0,0-1.8,1.69,5.56,5.56,0,0,0-.63,1.11,4.85,4.85,0,0,1-.31,1,4.62,4.62,0,0,0-.33-1,6.33,6.33,0,0,0-2.46-3A3,3,0,0,0,83.17,1a4.19,4.19,0,0,0-.68,3.1,18.53,18.53,0,0,0,.58,3.38,2.88,2.88,0,0,0-4.32,1.33,1.85,1.85,0,0,0-.13,1,2.51,2.51,0,0,0,1,1.36,13.52,13.52,0,0,0,1.63,1.18,6.52,6.52,0,0,1,1.57,1A9.72,9.72,0,0,0,78.44,15a2.32,2.32,0,0,0-1.19,1.69c0,.81.73,1.42,1.44,1.82a11.45,11.45,0,0,0,3.72,1.34,24,24,0,0,0-2.55,1.37c-.84.51-1.74,1.28-1.63,2.25s.94,1.41,1.69,1.83a5.08,5.08,0,0,0,2.4.85,41.82,41.82,0,0,0,.53-6.62c0-1.3-.06-2.6,0-3.89.07-1.14.24-2.26.41-3.39s.32-2.07.47-3.1a4.77,4.77,0,0,1,.53-1.79,3.87,3.87,0,0,1,2.45-1.54,9.51,9.51,0,0,1,1.81-.36,14.48,14.48,0,0,1,2.27.26,45.43,45.43,0,0,1,4.49.82,5.62,5.62,0,0,0,1.22.18.47.47,0,0,0,.28-.07A.56.56,0,0,0,97,6.35a5.82,5.82,0,0,0,.3-2,4.38,4.38,0,0,0-1-3.11A2.79,2.79,0,0,0,94.71.44Z"/><path class="cls-3" d="M116.23,14.68,116,8.61c0-.93.1-2.29-.41-3.11a3,3,0,0,0-2-1.21,2.1,2.1,0,0,0-.43-.07l-8.55-.51c-1-.06-2.5-.37-3.46.15-1.37.74-1.15,2.6-1.23,3.92,0,.72-.1,1.44-.14,2.16l0-.12c-.43-1-.77-2.38-1.71-3A5.57,5.57,0,0,0,95,6.13l-4.1-.26-3.82-.25c-1.16-.07-2.41,0-3,1.24A4.25,4.25,0,0,0,84,8.19c0,.74-.11,1.48-.16,2.23L82.58,27l-.53,7.3c-.09,1.18-.52,3,.27,4a4.12,4.12,0,0,0,2.81,1.18l3.66.58c2.3.37,4.59.78,6.89,1.1a3.42,3.42,0,0,0,1,0c.25.77.51,1.54.77,2.31a3.14,3.14,0,0,0,.72,1.36,3.34,3.34,0,0,0,2.63.84c1.65-.18,3.29-.49,4.93-.73l7.89-1.17,1.85-.28a2.12,2.12,0,0,0,1.9-2.16c-.06-3.32-.29-6.64-.43-10Zm-2,28.18-6.3.93-7,1c-.5.07-1.19.31-1.58-.1a3.31,3.31,0,0,1-.59-1.29c-.21-.62-.41-1.24-.62-1.85l-.34-1c-.13-.38-1-.58-1.33-.37-.74.51-1.56.21-2.38.08l-3.77-.6-4-.64a18.5,18.5,0,0,1-2.21-.36c-1.23-.36-.78-2.42-.71-3.36q.24-3.2.47-6.38L85,12.71l.33-4.54c.07-.87.46-1.83,1.46-1.92a14.71,14.71,0,0,1,2.1.12l7.45.48A1.13,1.13,0,0,1,97,7a2.51,2.51,0,0,1,.67,1.12l1.52,3.6.36.84c.11.26,1.34.72,1.37.31l.24-3.79.15-2.42a3.85,3.85,0,0,1,.27-1.54c.65-1.21,2.16-.82,3.28-.76l5.19.31,3.6.22c.67.06.81,1.05.83,1.61l.06,1.41.24,5.48q.33,7.83.67,15.67.26,5.65.49,11.31c0,.23,0,.45,0,.67C116,42.18,115.17,42.71,114.18,42.86Z"/><path class="cls-3" d="M84.44,37.11,86.6,7.81l9.82.63,5.23,12.37,1-15,10.68.64,1.51,34.79-14.7,2.18L95.66,30.13,96,38.94Z"/><path class="cls-4" d="M115.56,14c-.09-2-.17-4-.26-6.07,0-.93.1-2.29-.41-3.11a3,3,0,0,0-2-1.21,2,2,0,0,0-.43-.07L103.91,3c-1-.06-2.5-.37-3.46.15-1.37.74-1.15,2.6-1.23,3.92,0,.72-.1,1.44-.14,2.16l0-.12c-.43-1-.77-2.38-1.71-3a5.57,5.57,0,0,0-2.95-.66l-4.1-.26L86.45,5c-1.16-.07-2.41,0-3,1.24a4.25,4.25,0,0,0-.2,1.33c0,.74-.11,1.48-.16,2.23L81.91,26.33q-.27,3.66-.53,7.3c-.09,1.18-.52,2.95.27,4a4.12,4.12,0,0,0,2.81,1.18l3.66.58c2.3.37,4.59.78,6.89,1.1a3.42,3.42,0,0,0,1,0c.25.77.51,1.54.77,2.31a3.14,3.14,0,0,0,.72,1.36,3.34,3.34,0,0,0,2.63.84c1.65-.18,3.29-.49,4.93-.73L113,43.06l1.85-.28a2.12,2.12,0,0,0,1.9-2.15c-.06-3.33-.29-6.65-.43-10Zm-2,28.18-6.3.93-7,1c-.5.07-1.19.31-1.58-.1a3.31,3.31,0,0,1-.59-1.29l-.62-1.85c-.11-.35-.23-.69-.34-1s-1-.58-1.33-.37c-.74.51-1.56.21-2.38.08L89.64,39l-4-.64A20.73,20.73,0,0,1,83.41,38c-1.23-.37-.78-2.43-.71-3.37q.24-3.2.47-6.38L84.37,12,84.7,7.5c.07-.87.46-1.83,1.46-1.92a14.71,14.71,0,0,1,2.1.12l7.45.48a1.13,1.13,0,0,1,.66.15A2.51,2.51,0,0,1,97,7.45l1.52,3.6.36.84c.11.26,1.34.72,1.37.31l.24-3.79L100.68,6A3.85,3.85,0,0,1,101,4.45c.65-1.21,2.16-.82,3.28-.76l5.19.31,3.6.22c.67.06.81,1,.83,1.61l.06,1.41.24,5.48q.33,7.83.68,15.67l.48,11.31c0,.23,0,.45,0,.67C115.33,41.51,114.5,42,113.51,42.19Z"/><path class="cls-5" d="M83.77,36.44l2.16-29.3,9.82.63L101,20.14l1-15,10.68.64,1.51,34.79-14.7,2.18L95,29.46l.29,8.81Z"/><path class="cls-6" d="M96.79,25.7c-3.85-1.63-7.8-3.49-11.87-4.81L83.77,36.44l11.51,1.83L95,29.46l4.44,13.29,14.7-2.18-.43-9.83C107.86,30.05,102.3,28.05,96.79,25.7Z"/><path class="cls-7" d="M110,22.07c1-.44.56-2.75-.55-2.25C108.5,20.25,108.89,22.57,110,22.07Z"/><path class="cls-7" d="M106.29,28.18l.34.18a1.06,1.06,0,0,0,.68,0,1,1,0,0,0,.44-.3,1.19,1.19,0,0,0,.33-.5,1.54,1.54,0,0,0,.13-.65,1.67,1.67,0,0,0,0-.66l-.15-.41a1.65,1.65,0,0,0-.51-.65l-.34-.18a1.09,1.09,0,0,0-.67,0,.8.8,0,0,0-.44.3,1.14,1.14,0,0,0-.34.5,1.51,1.51,0,0,0-.13.65,1.88,1.88,0,0,0,0,.66l.15.41A1.81,1.81,0,0,0,106.29,28.18Z"/><path class="cls-7" d="M106.48,19.5l.21.12a.61.61,0,0,0,.42,0,.59.59,0,0,0,.28-.19.77.77,0,0,0,.21-.31,1.07,1.07,0,0,0,.08-.41,1.44,1.44,0,0,0,0-.41l-.1-.26a.91.91,0,0,0-.32-.4l-.21-.12a.61.61,0,0,0-.42,0,.54.54,0,0,0-.28.19.77.77,0,0,0-.21.31,1.07,1.07,0,0,0-.08.41,1,1,0,0,0,0,.41l.09.26A1,1,0,0,0,106.48,19.5Z"/><path class="cls-7" d="M110.43,14.33l.21.2.23.12.24,0,.23,0,.21-.11a.69.69,0,0,0,.25-.31.65.65,0,0,0,.12-.28,1,1,0,0,0,0-.45v-.09a1,1,0,0,0-.09-.41,1,1,0,0,0-.19-.37c-.07-.06-.13-.13-.19-.19a.78.78,0,0,0-.45-.15H111l-.23,0-.21.12a.72.72,0,0,0-.26.31.81.81,0,0,0-.11.27,1.06,1.06,0,0,0,0,.31.77.77,0,0,0,0,.3.66.66,0,0,0,.07.3A1.2,1.2,0,0,0,110.43,14.33Z"/><path class="cls-7" d="M111.54,18.33c.4-.18.23-1.17-.24-1S111.06,18.54,111.54,18.33Z"/><path class="cls-7" d="M107.3,12.3c.41-.18.24-1.17-.23-1S106.83,12.51,107.3,12.3Z"/><path class="cls-7" d="M107.26,23.38l.07,0a.23.23,0,0,0,.29,0,.36.36,0,0,0,.1-.14.58.58,0,0,0,0-.19V23a.49.49,0,0,0-.18-.38.27.27,0,0,0-.33,0,.42.42,0,0,0-.16.38A.55.55,0,0,0,107.26,23.38Z"/><path class="cls-7" d="M110.32,28l.16.09a.44.44,0,0,0,.32,0,.41.41,0,0,0,.21-.14.63.63,0,0,0,.16-.23,1.09,1.09,0,0,0,0-.62l-.07-.2a.71.71,0,0,0-.24-.3l-.16-.09a.44.44,0,0,0-.32,0,.41.41,0,0,0-.21.14.49.49,0,0,0-.15.24.6.6,0,0,0-.07.3.89.89,0,0,0,0,.32l.07.19A.73.73,0,0,0,110.32,28Z"/><path class="cls-7" d="M108.87,10.53a1,1,0,0,0,.4.27l.28,0,.27,0a.65.65,0,0,0,.35-.24,1,1,0,0,0,.28-.41s0,0,0-.05a1.71,1.71,0,0,0,.12-.72l0-.36a1.8,1.8,0,0,0-.3-.64.88.88,0,0,0-.39-.31.64.64,0,0,0-.42-.12.62.62,0,0,0-.4.11.73.73,0,0,0-.34.29,1.52,1.52,0,0,0-.27.65,3.1,3.1,0,0,0,0,.43c0,.12,0,.24,0,.36a1.3,1.3,0,0,0,.21.48A.61.61,0,0,0,108.87,10.53Z"/><path class="cls-7" d="M111.39,23.58l.08.12a.42.42,0,0,0,.16.14.28.28,0,0,0,.12,0,.28.28,0,0,0,.18,0l.06,0,.12-.07a.49.49,0,0,0,.16-.19.38.38,0,0,0,.06-.16.29.29,0,0,0,0-.18.67.67,0,0,0,0-.28l-.06-.17-.09-.15a.47.47,0,0,0-.19-.16.3.3,0,0,0-.15,0,.17.17,0,0,0-.14,0,.32.32,0,0,0-.2.08l-.11.11a1.09,1.09,0,0,1-.08.15l0,.18a.66.66,0,0,0,0,.28.61.61,0,0,0,.08.26Z"/><path class="cls-7" d="M107.51,31l.08.13a.38.38,0,0,0,.16.13.19.19,0,0,0,.12,0,.23.23,0,0,0,.18,0l.06,0,.12-.06a.49.49,0,0,0,.16-.19.43.43,0,0,0,.06-.17.27.27,0,0,0,0-.18.68.68,0,0,0,0-.28l-.06-.17-.09-.15a.53.53,0,0,0-.19-.15.6.6,0,0,0-.29-.06.5.5,0,0,0-.2.08l-.11.12-.08.15,0,.18a.61.61,0,0,0,0,.27.7.7,0,0,0,.08.27Z"/><path class="cls-7" d="M108.32,15.87c.53-.24.31-1.53-.31-1.25S107.7,16.15,108.32,15.87Z"/><path class="cls-2" d="M67.35,17.23c1.09-1.23,1.84-3.24.21-4.37a3.8,3.8,0,0,0-2-.6,21.61,21.61,0,0,0,2.39-.95,2.3,2.3,0,0,0,1.29-2.06,2.27,2.27,0,0,0-1.06-1.54,3.82,3.82,0,0,0-3.37-.43A5.29,5.29,0,0,0,65.38,5a1.72,1.72,0,0,0-.16-.9,1.48,1.48,0,0,0-.9-.68,2.89,2.89,0,0,0-2.61.65,6.61,6.61,0,0,0-1.62,2.25,3.33,3.33,0,0,0-1.61-2.71,3,3,0,0,0-3.13.08c-1,.67-1.47,1.87-2.18,2.84A5.39,5.39,0,0,0,52,4.08a2.6,2.6,0,0,0-2.5-.82,3.25,3.25,0,0,0-1.61,1.25,7.06,7.06,0,0,0-1.25,2.62c1.06,0,2.12.14,3.17.19.84,0,1.68.08,2.52.07,3.69-.06,7.39-1.15,11-.55A1.77,1.77,0,0,1,64,7a1.58,1.58,0,0,1,.58.8c.8,1.93.41,4.11.57,6.19a1.36,1.36,0,0,0,.14.56c.19.32.6.42.92.62A3.21,3.21,0,0,1,67.35,17.23Z"/><path class="cls-3" d="M45.22,42.65h.28c1.91-.06,3.84-.21,5.75-.31l10.92-.59c2.26-.12,4.53-.22,6.79-.37a2.41,2.41,0,0,0,1.91-.94,2.45,2.45,0,0,0,.32-1.75l-.45-4.41c-.18-1.74-.36-3.49-.53-5.23a2.86,2.86,0,0,0-.56-1.69,2.59,2.59,0,0,0-1.74-.87,2.41,2.41,0,0,0,.54-1.61v-2.3c0-1.58,0-3.16,0-4.74a2.34,2.34,0,0,0-1.85-2.23,8.28,8.28,0,0,0-.27-2.93c-.2-1.26-.39-2.53-.59-3.79a4.74,4.74,0,0,0-.23-1.07,2.68,2.68,0,0,0-2.22-1.45,10,10,0,0,0-1.81.07L47.19,7.6a3.12,3.12,0,0,0-2.27.79,2.49,2.49,0,0,0-.55,1.67c-.1,1.57-.19,3.14-.28,4.7q-.5,8.18-1,16.34c-.13,2.23-.27,4.47-.4,6.71,0,.62-.08,1.24-.11,1.87a3.18,3.18,0,0,0,.13,1.5A2.79,2.79,0,0,0,45.22,42.65ZM44,40.09c0-.53.07-1.07.1-1.6q.18-3,.35-5.94.48-7.89,1-15.78l.33-5.53c.07-1.16,0-2.77,1.49-3s3.33-.27,5-.4l7.89-.64L62.65,7a5.11,5.11,0,0,1,.55,0c.58,0,.94.68,1,1.19.43,2,.63,4.07,1,6.09a2.7,2.7,0,0,1-.07,1.41c-.11.29.74.41.84.41.73,0,1,.94,1.07,1.54,0,.25,0,.49,0,.74v5.84c0,.9,0,1.78-.86,2.33-.52.31.74.54.9.54a2.45,2.45,0,0,1,.81,0,1.58,1.58,0,0,1,.86,1.29c0,.33.07.67.1,1L69.33,34c.15,1.46.29,2.91.44,4.36a3,3,0,0,1,0,1.27,1.65,1.65,0,0,1-1.48,1.16c-5.66.41-11.35.61-17,.91-2.08.12-4.17.28-6.25.34C44.08,42,44,40.82,44,40.09Z"/><path class="cls-3" d="M45.16,40.46,47,9.85,63.07,8.56l1,6.45-6.73,1.71-.07,2,8.57-1v7.42L57.14,26.8l-.07,2.11,10.49-.28,1.08,10.56Z"/><path class="cls-4" d="M44.55,42h.28c1.91-.06,3.84-.21,5.75-.31l10.92-.59c2.26-.12,4.53-.22,6.79-.37a2.41,2.41,0,0,0,1.91-.94A2.45,2.45,0,0,0,70.52,38l-.45-4.4c-.18-1.75-.36-3.5-.53-5.24A2.86,2.86,0,0,0,69,26.7a2.59,2.59,0,0,0-1.74-.87,2.41,2.41,0,0,0,.54-1.61v-2.3c0-1.58,0-3.16,0-4.74A2.34,2.34,0,0,0,65.93,15,8.28,8.28,0,0,0,65.66,12c-.2-1.26-.39-2.53-.59-3.79a4.74,4.74,0,0,0-.23-1.07,2.68,2.68,0,0,0-2.22-1.45,10,10,0,0,0-1.81.07L46.52,6.93a3.12,3.12,0,0,0-2.27.79,2.49,2.49,0,0,0-.55,1.67l-.28,4.7q-.49,8.18-1,16.34c-.13,2.23-.27,4.47-.4,6.71,0,.62-.08,1.24-.11,1.87a3.18,3.18,0,0,0,.13,1.5A2.79,2.79,0,0,0,44.55,42Zm-1.23-2.56.1-1.6.35-5.94q.48-7.89.95-15.78l.33-5.53c.07-1.15,0-2.77,1.49-3s3.33-.27,5-.4l7.89-.64L62,6.34a5.11,5.11,0,0,1,.55,0c.58,0,.94.68,1,1.19.43,2,.64,4.07,1,6.09A2.7,2.7,0,0,1,64.46,15c-.11.29.74.41.84.41.73,0,1,.94,1.07,1.54,0,.25,0,.49,0,.74v5.84c0,.9,0,1.78-.86,2.33-.52.31.74.54.9.54a2.45,2.45,0,0,1,.81,0,1.58,1.58,0,0,1,.86,1.29c0,.33.07.67.1,1l.48,4.66.44,4.36a3,3,0,0,1,0,1.27,1.65,1.65,0,0,1-1.48,1.16c-5.66.41-11.35.61-17,.91-2.08.12-4.17.28-6.25.34C43.41,41.31,43.28,40.15,43.32,39.42Z"/><path class="cls-5" d="M44.49,39.79,46.33,9.18,62.4,7.89l1,6.45-6.73,1.71-.07,2,8.57-1v7.42l-8.71,1.72-.07,2.11L66.89,28,68,38.52Z"/><path class="cls-6" d="M56.4,28.24l.07-2.11,8.71-1.72V21.47c-6.6,1.9-13.17,4.16-19.91,5.32l-.78,13L68,38.52,66.89,28Z"/><path class="cls-7" d="M50.92,24.65c.95-.43.56-2.75-.55-2.24C49.42,22.84,49.81,25.16,50.92,24.65Z"/><path class="cls-7" d="M47.22,30.77l.33.18a1,1,0,0,0,.68,0,.92.92,0,0,0,.44-.29,1.1,1.1,0,0,0,.33-.5,1.54,1.54,0,0,0,.13-.65,1.67,1.67,0,0,0-.05-.66c0-.14-.1-.27-.14-.41a1.76,1.76,0,0,0-.52-.65l-.34-.18a1,1,0,0,0-.67,0,.83.83,0,0,0-.44.3,1.17,1.17,0,0,0-.34.49,1.75,1.75,0,0,0-.13.65,1.85,1.85,0,0,0,0,.66l.15.41A1.69,1.69,0,0,0,47.22,30.77Z"/><path class="cls-7" d="M47.4,22.09l.21.12a.65.65,0,0,0,.7-.19.77.77,0,0,0,.21-.31,1.07,1.07,0,0,0,.08-.41,1.15,1.15,0,0,0,0-.41l-.09-.26a1.11,1.11,0,0,0-.33-.41l-.21-.11a.61.61,0,0,0-.42,0,.52.52,0,0,0-.28.19.71.71,0,0,0-.21.31A1.07,1.07,0,0,0,47,21a1,1,0,0,0,0,.41l.09.26A1.08,1.08,0,0,0,47.4,22.09Z"/><path class="cls-7" d="M51.35,16.92l.21.19.23.13.24,0,.23,0,.21-.11a1.1,1.1,0,0,0,.37-.59,1,1,0,0,0,0-.45V16a1.06,1.06,0,0,0-.09-.42,1,1,0,0,0-.19-.36L52.43,15a.88.88,0,0,0-.45-.16h-.06l-.23,0-.21.12a1.12,1.12,0,0,0-.37.58.94.94,0,0,0,0,.3.83.83,0,0,0,0,.31.73.73,0,0,0,.07.29A1.16,1.16,0,0,0,51.35,16.92Z"/><path class="cls-7" d="M52.46,20.92c.4-.19.24-1.17-.24-1S52,21.13,52.46,20.92Z"/><path class="cls-7" d="M48.22,14.89c.41-.19.24-1.17-.23-1S47.75,15.1,48.22,14.89Z"/><path class="cls-7" d="M48.19,26l.06,0a.24.24,0,0,0,.29,0,.36.36,0,0,0,.1-.14.31.31,0,0,0,0-.19v-.1a.49.49,0,0,0-.18-.38.27.27,0,0,0-.33,0,.42.42,0,0,0-.16.38A.52.52,0,0,0,48.19,26Z"/><path class="cls-7" d="M51.24,30.55l.16.09a.44.44,0,0,0,.32,0,.41.41,0,0,0,.21-.14.6.6,0,0,0,.16-.24.73.73,0,0,0,.06-.3.89.89,0,0,0,0-.32l-.06-.19a.86.86,0,0,0-.25-.31l-.16-.08a.44.44,0,0,0-.32,0,.41.41,0,0,0-.21.14.51.51,0,0,0-.15.23.67.67,0,0,0-.07.31.82.82,0,0,0,0,.31l.07.2A.8.8,0,0,0,51.24,30.55Z"/><path class="cls-7" d="M49.79,13.12a.84.84,0,0,0,.4.26l.28,0,.27,0a.79.79,0,0,0,.35-.24.91.91,0,0,0,.28-.41.14.14,0,0,0,0-.06,1.63,1.63,0,0,0,.12-.71l0-.37a1.83,1.83,0,0,0-.3-.63.92.92,0,0,0-.38-.31.69.69,0,0,0-.43-.12.62.62,0,0,0-.4.11.73.73,0,0,0-.34.29,1.52,1.52,0,0,0-.27.65,3.1,3.1,0,0,0,0,.43l0,.36a1.46,1.46,0,0,0,.21.48A.67.67,0,0,0,49.79,13.12Z"/><path class="cls-7" d="M52.31,26.16l.08.13a.38.38,0,0,0,.16.13.21.21,0,0,0,.12,0,.36.36,0,0,0,.18,0l.06,0,.13-.07a.58.58,0,0,0,.15-.19.44.44,0,0,0,.06-.16.31.31,0,0,0,0-.19.5.5,0,0,0,0-.27l-.06-.17-.09-.15a.47.47,0,0,0-.19-.16.3.3,0,0,0-.15,0,.17.17,0,0,0-.14,0,.27.27,0,0,0-.19.08l-.11.11-.09.15-.05.18a.66.66,0,0,0,0,.28.79.79,0,0,0,.08.26Z"/><path class="cls-7" d="M48.43,33.62l.08.13a.48.48,0,0,0,.16.13.19.19,0,0,0,.12,0,.22.22,0,0,0,.18,0l.06,0,.13-.07a.45.45,0,0,0,.15-.18.43.43,0,0,0,.06-.17.27.27,0,0,0,0-.18.54.54,0,0,0,0-.28l-.06-.17-.09-.15a.56.56,0,0,0-.19-.16.3.3,0,0,0-.15-.05h-.14a.39.39,0,0,0-.2.08l-.11.12-.08.15,0,.18a.61.61,0,0,0,0,.27.92.92,0,0,0,.08.27Z"/><path class="cls-7" d="M49.24,18.46c.53-.24.31-1.53-.31-1.25S48.62,18.74,49.24,18.46Z"/><path class="cls-2" d="M189.62,17.23c1.09-1.23,1.84-3.24.21-4.37a3.79,3.79,0,0,0-2-.6,22.26,22.26,0,0,0,2.38-.95,2.3,2.3,0,0,0,1.29-2.06,2.27,2.27,0,0,0-1.06-1.54,3.82,3.82,0,0,0-3.37-.43,5.29,5.29,0,0,0,.6-2.27,1.72,1.72,0,0,0-.16-.9,1.48,1.48,0,0,0-.9-.68,2.89,2.89,0,0,0-2.61.65,6.61,6.61,0,0,0-1.62,2.25,3.33,3.33,0,0,0-1.61-2.71,3,3,0,0,0-3.13.08c-1,.67-1.47,1.87-2.18,2.84a5.39,5.39,0,0,0-1.19-2.46,2.6,2.6,0,0,0-2.5-.82,3.25,3.25,0,0,0-1.61,1.25,7.06,7.06,0,0,0-1.25,2.62c1.06,0,2.12.14,3.17.19.84,0,1.68.08,2.52.07,3.69-.06,7.39-1.15,11-.55a1.77,1.77,0,0,1,.64.2,1.59,1.59,0,0,1,.59.8c.79,1.93.4,4.11.56,6.19a1.36,1.36,0,0,0,.14.56c.19.32.6.42.92.62A3.21,3.21,0,0,1,189.62,17.23Z"/><path class="cls-3" d="M167.49,42.65h.28c1.92-.06,3.84-.21,5.75-.31l10.92-.59c2.26-.12,4.53-.22,6.79-.37a2.41,2.41,0,0,0,1.91-.94,2.45,2.45,0,0,0,.32-1.75L193,34.29c-.18-1.74-.36-3.49-.53-5.23a2.86,2.86,0,0,0-.56-1.69,2.59,2.59,0,0,0-1.74-.87,2.41,2.41,0,0,0,.54-1.61v-2.3c0-1.58,0-3.16,0-4.74a2.34,2.34,0,0,0-1.85-2.23,8.28,8.28,0,0,0-.27-2.93c-.2-1.26-.39-2.53-.59-3.79a4.74,4.74,0,0,0-.23-1.07,2.68,2.68,0,0,0-2.22-1.45,10,10,0,0,0-1.81.07L169.46,7.6a3.12,3.12,0,0,0-2.27.79,2.49,2.49,0,0,0-.55,1.67c-.1,1.57-.19,3.14-.28,4.7q-.5,8.18-1,16.34c-.13,2.23-.27,4.47-.4,6.71,0,.62-.08,1.24-.11,1.87a3.18,3.18,0,0,0,.13,1.5A2.79,2.79,0,0,0,167.49,42.65Zm-1.23-2.56c0-.53.07-1.07.1-1.6q.18-3,.35-5.94.48-7.89.95-15.78l.33-5.53c.07-1.16,0-2.77,1.49-3s3.33-.27,5-.4l7.89-.64,2.57-.2a5.11,5.11,0,0,1,.55,0c.58,0,.94.68,1.05,1.19.43,2,.64,4.07.95,6.09a2.7,2.7,0,0,1-.07,1.41c-.11.29.74.41.84.41.73,0,1,.94,1.07,1.54,0,.25,0,.49,0,.74v5.84c0,.9,0,1.78-.86,2.33-.52.31.74.54.9.54a2.45,2.45,0,0,1,.81,0,1.58,1.58,0,0,1,.86,1.29c0,.33.07.67.1,1L191.6,34c.15,1.46.29,2.91.44,4.36a3,3,0,0,1,0,1.27,1.65,1.65,0,0,1-1.48,1.16c-5.66.41-11.35.61-17,.91-2.08.12-4.17.28-6.25.34C166.35,42,166.22,40.82,166.26,40.09Z"/><path class="cls-3" d="M167.43,40.46l1.84-30.61,16.08-1.29,1,6.45-6.73,1.71-.07,2,8.57-1v7.42l-8.71,1.72-.07,2.11,10.49-.28,1.08,10.56Z"/><path class="cls-4" d="M166.82,42h.28c1.92-.06,3.84-.21,5.75-.31l10.92-.59c2.26-.12,4.53-.22,6.79-.37a2.41,2.41,0,0,0,1.91-.94,2.45,2.45,0,0,0,.32-1.75l-.45-4.4c-.18-1.75-.36-3.5-.53-5.24a2.86,2.86,0,0,0-.56-1.69,2.59,2.59,0,0,0-1.74-.87,2.41,2.41,0,0,0,.54-1.61v-2.3c0-1.58,0-3.16,0-4.74A2.34,2.34,0,0,0,188.2,15a8.28,8.28,0,0,0-.27-2.93c-.2-1.26-.39-2.53-.59-3.79a4.74,4.74,0,0,0-.23-1.07,2.68,2.68,0,0,0-2.22-1.45,10,10,0,0,0-1.81.07L168.79,6.93a3.12,3.12,0,0,0-2.27.79A2.55,2.55,0,0,0,166,9.39l-.28,4.7q-.49,8.18-1,16.34c-.13,2.23-.27,4.47-.4,6.71,0,.62-.08,1.24-.11,1.87a3.18,3.18,0,0,0,.13,1.5A2.79,2.79,0,0,0,166.82,42Zm-1.23-2.56.1-1.6.35-5.94q.48-7.89,1-15.78l.33-5.53c.07-1.15,0-2.77,1.49-3s3.33-.27,5-.4l7.89-.64,2.57-.2a5.11,5.11,0,0,1,.55,0c.58,0,.94.68,1,1.19.43,2,.64,4.07,1,6.09a2.7,2.7,0,0,1-.07,1.41c-.11.29.74.41.84.41.73,0,1.05.94,1.07,1.54,0,.25,0,.49,0,.74v5.84c0,.9,0,1.78-.86,2.33-.52.31.74.54.9.54a2.45,2.45,0,0,1,.81,0,1.58,1.58,0,0,1,.86,1.29c.05.33.07.67.1,1l.48,4.66.44,4.36a3,3,0,0,1,0,1.27,1.65,1.65,0,0,1-1.48,1.16c-5.66.41-11.35.61-17,.91-2.08.12-4.17.28-6.25.34C165.68,41.31,165.55,40.15,165.59,39.42Z"/><path class="cls-5" d="M166.76,39.79,168.6,9.18l16.08-1.29,1,6.45L179,16.05l-.07,2,8.57-1v7.42l-8.71,1.72-.07,2.11L189.16,28l1.08,10.56Z"/><path class="cls-6" d="M178.67,28.24l.07-2.11,8.71-1.72V21.47c-6.6,1.9-13.17,4.16-19.91,5.32l-.78,13,23.48-1.27L189.16,28Z"/><path class="cls-7" d="M173.2,24.65c1-.43.56-2.75-.56-2.24C171.69,22.84,172.08,25.16,173.2,24.65Z"/><path class="cls-7" d="M169.49,30.77l.33.18a1,1,0,0,0,.68,0,.92.92,0,0,0,.44-.29,1.1,1.1,0,0,0,.33-.5,1.54,1.54,0,0,0,.13-.65,1.67,1.67,0,0,0-.05-.66c0-.14-.1-.27-.14-.41a1.76,1.76,0,0,0-.52-.65l-.34-.18a1,1,0,0,0-.67,0,.83.83,0,0,0-.44.3,1.17,1.17,0,0,0-.34.49,1.75,1.75,0,0,0-.13.65,1.65,1.65,0,0,0,.06.66c0,.14.09.28.14.41A1.69,1.69,0,0,0,169.49,30.77Z"/><path class="cls-7" d="M169.67,22.09l.21.12a.65.65,0,0,0,.7-.19.77.77,0,0,0,.21-.31,1.07,1.07,0,0,0,.08-.41,1,1,0,0,0,0-.41l-.09-.26a1.11,1.11,0,0,0-.33-.41l-.21-.11a.61.61,0,0,0-.42,0,.52.52,0,0,0-.28.19.71.71,0,0,0-.21.31,1.07,1.07,0,0,0-.08.41,1,1,0,0,0,0,.41l.09.26A1.08,1.08,0,0,0,169.67,22.09Z"/><path class="cls-7" d="M173.62,16.92l.21.19.23.13.24,0,.23,0,.21-.11a1.1,1.1,0,0,0,.37-.59,1,1,0,0,0,0-.45V16a1.06,1.06,0,0,0-.09-.42,1,1,0,0,0-.19-.36L174.7,15a.88.88,0,0,0-.45-.16h-.06l-.23,0-.21.12a1.12,1.12,0,0,0-.37.58.94.94,0,0,0,0,.3.83.83,0,0,0,0,.31.73.73,0,0,0,.07.29A1.16,1.16,0,0,0,173.62,16.92Z"/><path class="cls-7" d="M174.73,20.92c.4-.19.24-1.17-.24-1S174.25,21.13,174.73,20.92Z"/><path class="cls-7" d="M170.5,14.89c.4-.19.23-1.17-.24-1S170,15.1,170.5,14.89Z"/><path class="cls-7" d="M170.46,26l.06,0a.24.24,0,0,0,.29,0,.36.36,0,0,0,.1-.14.31.31,0,0,0,0-.19v-.1a.46.46,0,0,0-.18-.38.27.27,0,0,0-.33,0,.44.44,0,0,0-.16.38A.52.52,0,0,0,170.46,26Z"/><path class="cls-7" d="M173.51,30.55l.16.09a.44.44,0,0,0,.32,0,.41.41,0,0,0,.21-.14.6.6,0,0,0,.16-.24.73.73,0,0,0,.06-.3.89.89,0,0,0,0-.32l-.06-.19a.76.76,0,0,0-.25-.31l-.16-.08a.44.44,0,0,0-.32,0,.41.41,0,0,0-.21.14.51.51,0,0,0-.15.23.56.56,0,0,0-.06.31.65.65,0,0,0,0,.31l.07.2A.8.8,0,0,0,173.51,30.55Z"/><path class="cls-7" d="M172.06,13.12a.84.84,0,0,0,.4.26l.28,0,.27,0a.88.88,0,0,0,.36-.24,1,1,0,0,0,.27-.41.14.14,0,0,0,0-.06,1.63,1.63,0,0,0,.12-.71l-.05-.37a1.83,1.83,0,0,0-.3-.63.92.92,0,0,0-.38-.31.69.69,0,0,0-.43-.12.62.62,0,0,0-.4.11.73.73,0,0,0-.34.29,1.52,1.52,0,0,0-.27.65,3.1,3.1,0,0,0,0,.43l0,.36a1.46,1.46,0,0,0,.21.48A.67.67,0,0,0,172.06,13.12Z"/><path class="cls-7" d="M174.58,26.16l.08.13a.38.38,0,0,0,.16.13.21.21,0,0,0,.12,0,.35.35,0,0,0,.18,0l.06,0,.13-.07a.58.58,0,0,0,.15-.19.77.77,0,0,0,.07-.16.4.4,0,0,0,0-.19.5.5,0,0,0,0-.27l-.06-.17-.09-.15a.47.47,0,0,0-.19-.16.3.3,0,0,0-.14,0,.2.2,0,0,0-.15,0,.27.27,0,0,0-.19.08l-.11.11-.09.15,0,.18a.66.66,0,0,0,0,.28.79.79,0,0,0,.08.26Z"/><path class="cls-7" d="M170.7,33.62l.08.13a.48.48,0,0,0,.16.13.19.19,0,0,0,.12,0,.22.22,0,0,0,.18,0l.06,0,.13-.07a.45.45,0,0,0,.15-.18.43.43,0,0,0,.06-.17.27.27,0,0,0,0-.18.54.54,0,0,0,0-.28l-.06-.17-.09-.15a.56.56,0,0,0-.19-.16.3.3,0,0,0-.15-.05H171a.33.33,0,0,0-.19.08l-.11.12-.09.15,0,.18a.61.61,0,0,0,0,.27.92.92,0,0,0,.08.27Z"/><path class="cls-7" d="M171.51,18.46c.53-.24.31-1.53-.31-1.25S170.89,18.74,171.51,18.46Z"/></g></g></svg>