<svg xmlns="http://www.w3.org/2000/svg" xmlns:xlink="http://www.w3.org/1999/xlink" enable-background="new 0 0 4680 3120" viewBox="0 0 4680 3120"><path fill="#fcb713" d="M3525.852,2126.373c-18.677-37.877,36.057-125.685,53.169-153.772
				c79.84-131.046,217.127-206.819,326.785-309.062c42.586-39.707,78.197-94.725,94.37-150.831
				c19.264-66.83-14.967-137.28-81.885-158.696c-107.973-34.551-201.51,25.525-261.387,113.58
				c-99.401,146.181-136.582,339.662-145.291,513.243C3509.385,2025.254,3505.267,2084.625,3525.852,2126.373z" opacity=".51"/><path fill="#f6f7f7" d="M3947.618,1405.931c-14.077,10.098-27.773,20.714-41.334,31.487
						c-13.536,10.807-26.892,21.838-40.048,33.101c-26.362,22.466-52.022,45.755-76.865,69.882
						c-49.659,48.252-96.442,99.596-138.096,154.92c-20.834,27.64-40.459,56.212-58.252,85.902
						c-8.96,14.806-17.359,29.947-25.302,45.319l-2.967,5.771l-1.483,2.886l-1.417,2.918l-5.672,11.672
						c-3.608,7.862-7.309,15.686-10.638,23.672c-1.706,3.975-3.442,7.939-5.001,11.974c-1.59,4.023-3.233,8.026-4.78,12.066
						l-4.481,12.18c-0.77,2.022-1.452,4.075-2.138,6.126l-2.069,6.151c-5.408,16.432-10.293,33.059-14.064,49.953
						c-1.072,4.194-1.858,8.451-2.748,12.685l-1.307,6.358c-0.451,2.117-0.751,4.261-1.135,6.391
						c-0.702,4.27-1.509,8.525-2.126,12.808l-1.731,12.869c-2.011,17.197-3.113,34.5-3.253,51.827
						c-0.024-17.326,0.915-34.649,2.767-51.883l1.612-12.9c0.578-4.295,1.345-8.562,2.009-12.845
						c0.364-2.136,0.644-4.288,1.076-6.412l1.249-6.381c0.851-4.25,1.599-8.523,2.633-12.734l2.955-12.665l3.339-12.57l0.841-3.141
						l0.93-3.116l1.86-6.231l1.86-6.232l2.035-6.177l2.041-6.175c0.676-2.06,1.349-4.121,2.11-6.151l4.427-12.231
						c1.529-4.057,3.154-8.077,4.726-12.118c1.542-4.054,3.261-8.035,4.949-12.028c3.295-8.024,6.962-15.884,10.538-23.785
						l5.658-11.713l1.416-2.928l1.481-2.895l2.963-5.79c7.934-15.42,16.326-30.609,25.278-45.462
						c17.781-29.783,37.388-58.449,58.219-86.17c10.476-13.817,21.247-27.407,32.289-40.774
						c11.068-13.345,22.425-26.447,34.004-39.348c11.574-12.906,23.417-25.569,35.484-38.013
						c12.053-12.458,24.349-24.678,36.85-36.684c24.998-24.016,50.788-47.2,77.301-69.522c13.269-11.146,26.734-22.057,40.375-32.74
						C3919.649,1426.386,3933.447,1415.897,3947.618,1405.931z"/><path fill="#fcb713" d="M1192.318,2169.967c-32.144-86.391-107.499-147.339-185.67-191.968
				c-107.882-61.582-239.516-104.245-323.14-202.606c-51.956-61.075-79.347-150.903-61.478-227.475
				c5.745-24.741,16.247-48.127,32.148-68.683c0.982-1.29,2.001-2.538,3.018-3.747c47.596-58.008,129.091-78.241,201.549-64.964
				c46.264,8.463,89.313,28.638,129.26,54.691c23.908,15.597,46.686,33.285,68.342,51.854
				c64.445,55.244,122.488,120.384,160.142,197.851C1289.208,1864.635,1249.618,2022.018,1192.318,2169.967z" opacity=".35"/><path fill="#fcb713" d="M1205.691,1788.289c16.819-34.11-32.471-113.184-47.881-138.478
				c-71.899-118.011-195.531-186.248-294.283-278.322c-38.35-35.757-70.42-85.303-84.984-135.829
				c-17.348-60.183,13.478-123.626,73.74-142.912c97.234-31.114,181.467,22.986,235.389,102.283
				c89.515,131.641,122.997,305.879,130.84,462.195C1220.52,1697.227,1224.228,1750.694,1205.691,1788.289z" opacity=".53"/><path fill="#f6f7f7" d="M815.835,1112.309c51.696,41.272,100.67,85.905,147.623,132.509
						c23.478,23.309,46.285,47.296,68.438,71.872c11.085,12.281,21.992,24.724,32.685,37.35
						c10.694,12.623,21.249,25.369,31.512,38.349c20.541,25.946,40.167,52.624,58.63,80.095
						c9.19,13.762,18.129,27.693,26.692,41.857c8.53,14.183,16.694,28.586,24.447,43.209c7.689,14.657,14.945,29.54,21.712,44.643
						l4.961,11.378l4.706,11.486c1.607,3.813,3.009,7.708,4.492,11.571l2.2,5.803c0.717,1.94,1.376,3.902,2.061,5.854l2.035,5.863
						c0.684,1.952,1.364,3.906,1.967,5.885l3.744,11.833l3.404,11.934l0.843,2.985l0.758,3.008l1.517,6.016
						c3.958,16.061,7.113,32.32,9.28,48.716c-2.329-16.374-5.642-32.591-9.754-48.596l-1.574-5.994l-0.787-2.997l-0.871-2.974
						l-3.517-11.884l-3.855-11.778c-0.621-1.97-1.319-3.914-2.021-5.856l-2.089-5.833c-5.64-15.526-11.798-30.87-18.65-45.903
						c-6.839-15.038-14.163-29.853-21.919-44.439c-31.196-58.286-68.912-112.888-109.975-164.642
						c-41.031-51.828-85.531-100.862-132.152-147.729c-23.305-23.446-47.196-46.313-71.605-68.613
						c-12.18-11.177-24.513-22.189-36.978-33.05C841.306,1133.4,828.718,1122.674,815.835,1112.309z"/><path fill="#fcb713" d="M709.4,1453.091c51.696,41.272,100.67,85.905,147.623,132.509
						c23.478,23.309,46.285,47.296,68.438,71.872c11.085,12.281,21.991,24.724,32.685,37.349
						c10.694,12.623,21.25,25.369,31.512,38.349c20.541,25.946,40.167,52.624,58.629,80.095
						c9.19,13.762,18.129,27.693,26.692,41.857c8.53,14.183,16.694,28.586,24.447,43.209c7.689,14.657,14.945,29.54,21.712,44.643
						l4.961,11.378l4.706,11.486c1.607,3.813,3.009,7.708,4.491,11.57l2.2,5.803c0.717,1.94,1.376,3.902,2.061,5.854l2.035,5.863
						c0.684,1.952,1.364,3.906,1.967,5.885l3.744,11.832l3.404,11.934l0.843,2.985l0.758,3.008l1.517,6.016
						c3.958,16.061,7.113,32.321,9.28,48.716c-2.329-16.374-5.642-32.591-9.754-48.596l-1.574-5.994l-0.787-2.997l-0.871-2.974
						l-3.517-11.884l-3.855-11.778c-0.621-1.97-1.319-3.914-2.021-5.856l-2.089-5.833c-5.64-15.526-11.798-30.87-18.651-45.903
						c-6.839-15.038-14.163-29.852-21.919-44.439c-31.196-58.286-68.912-112.888-109.975-164.642
						c-41.031-51.828-85.531-100.862-132.152-147.729c-23.305-23.446-47.196-46.313-71.605-68.613
						c-12.18-11.177-24.513-22.189-36.978-33.051C734.871,1474.182,722.283,1463.457,709.4,1453.091z"/><g opacity=".5"><path fill="#6457a4" d="M3535.649,378.367H1175.446c-13.164,0-23.852,12.59-23.852,28.116v1764.267
						c0,15.5,10.689,28.116,23.852,28.116h2360.203c13.164,0,23.83-12.616,23.83-28.116V406.483
						C3559.479,390.957,3548.812,378.367,3535.649,378.367z M3529.954,2144.899H1174.417V477.159h2355.537V2144.899z"/><rect width="2355.537" height="1667.741" x="1174.417" y="477.159" fill="#6457a4"/></g><rect width="2355.537" height="1667.741" x="1174.417" y="477.159" fill="#fff"/><path fill="#6457a4" d="M3100.602 576.66H1528.37c-5.796 0-10.495-4.699-10.495-10.495v-35.198c0-5.796 4.699-10.495 10.495-10.495h1572.231c5.796 0 10.495 4.699 10.495 10.495v35.198C3111.096 571.961 3106.398 576.66 3100.602 576.66zM3357.927 576.66h-186.032c-5.796 0-10.495-4.699-10.495-10.495v-35.198c0-5.796 4.699-10.495 10.495-10.495h186.032c5.796 0 10.495 4.699 10.495 10.495v35.198C3368.422 571.961 3363.723 576.66 3357.927 576.66z" opacity=".1"/><path fill="#6457a4" fill-rule="evenodd" d="M3447.387,524.83
					c8.606,6.536,10.877,18.318,5.74,27.484l24.075,17.347c3.612,2.602-1.341,9.086-4.805,6.329l-23.231-18.58
					c-7.47,7.096-19.193,7.942-27.666,1.508c-9.414-7.148-11.249-20.574-4.099-29.987
					C3424.548,519.518,3437.973,517.682,3447.387,524.83L3447.387,524.83z M3443.85,529.486c-6.84-5.196-16.598-3.861-21.795,2.98
					c-5.196,6.842-3.862,16.601,2.98,21.796c6.842,5.196,16.601,3.861,21.797-2.981
					C3452.027,544.44,3450.693,534.683,3443.85,529.486z" clip-rule="evenodd" opacity=".49"/><path fill="#fff" d="M3513.156 430.068c.989.989.989 2.608 0 3.614-.511.495-1.159.75-1.807.75-.665 0-1.313-.256-1.807-.75l-9.428-9.428-9.428 9.428c-.494.495-1.159.75-1.807.75-.665 0-1.313-.256-1.807-.75-1.006-1.006-1.006-2.626 0-3.614l9.428-9.428-9.428-9.428c-1.006-1.006-1.006-2.626 0-3.614.989-1.006 2.609-1.006 3.614 0l9.428 9.428 9.428-9.428c.989-1.006 2.608-1.006 3.614 0 .989.989.989 2.608 0 3.614l-9.428 9.428L3513.156 430.068zM3442.478 431.024h-5.425c-.866 0-1.569-.703-1.569-1.568v-22.604c0-.866.703-1.569 1.569-1.569h22.605c.866 0 1.568.703 1.568 1.569v4.97c0 .866-.703 1.569-1.568 1.569h-15.612v16.066C3444.047 430.321 3443.344 431.024 3442.478 431.024zM3438.622 427.887h2.287v-16.066c0-.866.703-1.569 1.569-1.569h15.612v-1.833h-19.468V427.887z"/><path fill="#fff" d="M3465.084 435.994h-22.605c-.866 0-1.569-.703-1.569-1.569v-4.97c0-.866.703-1.569 1.569-1.569s1.569.703 1.569 1.569v3.402h19.468v-19.467h-3.856c-.866 0-1.569-.703-1.569-1.569s.703-1.569 1.569-1.569h5.425c.866 0 1.569.703 1.569 1.569v22.604C3466.652 435.291 3465.95 435.994 3465.084 435.994zM3410.012 422.729h-24.082c-1.156 0-2.092-.936-2.092-2.091s.935-2.091 2.092-2.091h24.082c1.156 0 2.091.936 2.091 2.091S3411.168 422.729 3410.012 422.729z"/><path fill="#6457a4" d="M1441.029,552.521c0,17.688-14.349,32.036-32.044,32.036s-32.043-14.348-32.043-32.036
						c0-17.703,14.348-32.05,32.043-32.05S1441.029,534.819,1441.029,552.521z" opacity=".1"/><g opacity=".1"><path fill="#6457a4" d="M1320.025,552.521c0,17.688-14.349,32.036-32.044,32.036s-32.043-14.348-32.043-32.036
						c0-17.703,14.348-32.05,32.043-32.05S1320.025,534.819,1320.025,552.521z"/></g><g opacity=".4"><path fill="#6457a4" d="M2867.164,982.606h-981.398V874.357h981.398V982.606z M1890.356,978.016h972.219v-99.07h-972.219
					V978.016z"/></g><polygon fill="#f6f7f7" points="2582.479 876.651 2541.77 980.311 1888.061 980.311 1888.061 876.651"/><polygon fill="#6457a4" points="2582.479 876.651 2541.77 980.311 1888.061 980.311 1888.061 876.651" opacity=".3"/><rect width="379.621" height="643.78" x="1908.226" y="1405.202" fill="#6457a4" opacity=".1"/><rect width="379.621" height="235.695" x="2357.531" y="1805.962" fill="#6457a4" opacity=".05"/><g opacity=".4"><line x1="2314.486" x2="1928.008" y1="1367.836" y2="2041.657" fill="#6457a4" opacity=".7"/><line x1="1890.786" x2="2287.848" y1="1367.836" y2="2048.982" fill="#6457a4" opacity=".7"/></g><g opacity=".18"><rect width="548.362" height="339.323" x="2357.531" y="1405.202" fill="#6457a4" opacity=".1"/><line x1="2357.531" x2="2905.894" y1="1744.525" y2="1405.202" fill="#6457a4" opacity=".4"/><line x1="2905.894" x2="2357.532" y1="1744.525" y2="1389.478" fill="#6457a4" opacity=".4"/></g><g opacity=".4"><line x1="2737.153" x2="2357.531" y1="1805.962" y2="2041.657" fill="#6457a4" opacity=".7"/><line x1="2737.153" x2="2357.531" y1="2041.657" y2="1805.962" fill="#6457a4" opacity=".7"/></g><g><path fill="#1a3075" d="M1770.819,697.429c1.4-15.24-4.84-30.42-14.2-42.52c-5.07-6.58-11.33-12.6-19.14-15.45
				c-7.8-2.84-17.37-1.94-23.31,3.87c-1.47-19.95-13.17-38.88-30.37-49.12c-17.19-10.23-39.42-11.49-57.66-3.26
				c-12.6,5.69-17.59,20.04-32.05,21.65c-7.68,0.85-15.51-1.6-21.94-5.89c-13.91-9.29-26.94-24.28-45.02-24.13
				c-8.28,0.08-16.17,3.68-23.05,8.3c-18.34,12.29-31.08,32.28-35.67,53.89c-0.99,4.67-1.62,9.58-1.87,14.62
				c-1.51,29.41,9.36,63.6,32.32,81.01c15.61,11.83,39.41,15.4,54.27,2.63c1.47-1.25,2.93-3.05,2.4-4.91
				c-0.03-0.11-0.08-0.22-0.14-0.32c16.21-1.31,31.47,10.93,40.84,24.71c3,4.43,5.65,9.05,8.04,13.81
				c8.09,16.03,13.35,33.57,20.07,50.32c6.78,16.91,19.62,49.97,40.87,44.98c0.01,0,0.01,0,0.01,0c1.83-0.43,3.72-1.14,5.67-2.17
				c1.06-0.56,2.11-1.15,3.13-1.77c0.01,0.01,0.03,0,0.04-0.02c5.84-4.6,9.5-11.42,14.19-17.23c7.75-9.61,18.33-16.48,29-22.69
				c0.29-0.17,0.57-0.33,0.86-0.49c2.69-2.14,5.5-4.12,8.46-5.86c3.98-2.34,8.18-4.34,12.24-6.54c0.01,0,0.03-0.01,0.04-0.02
				c3.15-1.7,6.22-3.53,9.04-5.73c3.9-3.05,7.14-6.83,9.65-11.06c6.98-11.73,8.41-26.91,3.17-39.52c-0.27-0.64-0.55-1.27-0.85-1.9
				c-0.53-1.1-1.12-2.2-1.77-3.26c-4.45-7.36-11.21-13.51-13.61-21.76C1759.229,727.519,1769.429,712.659,1770.819,697.429z
				 M1718.539,759.679c-6.19-3.04-9.17-10.28-10.05-17.13c-0.87-6.84-0.2-13.86-1.59-20.63c-0.43-2.07-1.17-4.28-2.97-5.42
				c-1.71-1.1-3.93-0.92-5.97-0.79c-11.01,0.69-22.2-1.61-32.06-6.56c-20.57-10.33-34.48-31.4-55.68-40.36
				c-20.47-8.65-45.99-3.6-61.62,12.19c-5.11,5.16-9.17,11.26-14.24,16.45c0.69-1.64,1.37-3.08,1.98-4.18
				c7.21-13.06,17.04-24.71,28.48-34.27c21.85-18.24,50.27-29.15,78.92-27.36c9.62,0.6,19.2,2.55,28.02,6.41
				c6.77,2.97,13.02,7.04,18.79,11.66c31.16,24.99,47.2,67.51,40.32,106.86c-0.24,1.41-0.53,2.82-0.93,4.19
				C1726.019,761.489,1722.199,761.479,1718.539,759.679z"/><path d="M1766.969,776.639c-1.02,7.85-4.56,15.09-9.43,21.4c-2.72,3.52-5.87,6.75-9.22,9.64
				c-0.31,0.27-0.62,0.54-0.94,0.81c-2.72,2.28-5.58,4.37-8.53,6.34c-0.01,0.01-0.03,0.02-0.04,0.02
				c-6.66,4.48-13.74,8.36-20.7,12.4c-0.29,0.16-0.57,0.32-0.86,0.49c-10.67,6.21-21.25,13.08-29,22.69
				c-4.69,5.81-8.35,12.63-14.19,17.23c-0.01,0.02-0.03,0.03-0.04,0.02c-0.16,0.14-0.31,0.26-0.47,0.38
				c-2.38,1.79-5.33,3.04-8.33,3.56c0,0,0,0-0.01,0c-4.71,0.81-9.53-0.21-12.45-3.88c-2.13-2.66-2.84-6.18-3.16-9.58
				c-1-10.64,0.66-20.37,7.33-28.78c2.41-3.04,5.17-5.87,8.4-7.96c-7.51-11.79-14.63-24.07-25.36-32.72
				c-10.08-8.13-22.76-12.1-35.7-12.38c-2.39-4.76-5.04-9.38-8.04-13.81c-9.37-13.78-24.63-26.02-40.84-24.71
				c0.06,0.1,0.11,0.21,0.14,0.32c0.53,1.86-0.93,3.66-2.4,4.91c-14.86,12.77-38.66,9.2-54.27-2.63
				c-22.96-17.41-33.83-51.6-32.32-81.01c10.04,7.27,18.71,24.99,24.25,31.91c5.98,7.46,13.26,15.3,22.8,15.94
				c2.17,0.15,4.32-0.1,6.39-0.67c5.13-1.39,9.84-4.67,13.69-8.45c0.24-0.22,13.83,7.55,14.05,7.31
				c-4.64,11.02-10.78,22.62,3.86,7.71c15.05-15.31,14.2-18.34,35.47-21.57c11.78-1.8,24.37-5.44,31.32-15.12
				c3.93,16.39,14.6,31.05,28.99,39.82c13.87,8.44,31,11.31,46.85,7.93c0.61-0.13,1.22-0.28,1.82-0.42
				c-1.53,8.19-3.05,16.55-2,24.82c1.07,8.27,5.19,16.58,12.48,20.62c7.3,4.03,17.89,2.3,21.98-4.96c0.63-1.11,1.09-2.29,1.45-3.52
				c0.3-1.03,15.05-4.56,16.76-4.74c4.41-0.46,10.2,0.02,14.01,2.52c0.07,0.04,0.14,0.09,0.2,0.13
				C1766.399,762.429,1767.829,770.029,1766.969,776.639z" opacity=".32"/><path d="M1732.249,754.739l-3.83,14.23c-3.34,12.57-12.48,22.83-24.56,27.64l-4.42,1.73
				c-4.04,13.7-11.42,25.8-21.09,35.5l-135.53-39.02c-0.45,1.35-2.38,1.68-3.61,0.95c-1.22-0.73-1.88-2.11-2.43-3.43
				c-0.56-1.35-1.08-2.71-1.54-4.09c-1.3-7.77-1.52-15.85-0.53-24.07l3.8-31.7l3.12-25.82c1.33-11.14,4.79-21.51,9.9-30.75
				c16.14-29.18,48.87-47.19,84.02-42.96c29.26,3.53,53.22,21.59,65.45,46.12c5.41,10.75,8.5,22.73,8.84,35.28
				c0.05,0.34,0.05,0.69,0.05,1.04v1.33c0,3.36-0.2,6.77-0.62,10.15l-1.4,11.81l-0.23,1.76l10.43-1.58
				C1727.109,737.519,1734.599,745.869,1732.249,754.739z" opacity=".35"/><polygon fill="#fcb713" points="1268.272 2423.963 1243.129 2547.66 1309.564 2552.877 1385.796 2391.662"/><polygon fill="#fcb713" points="1836.74 2418.516 1903.631 2553.039 1964.412 2500.487 1900.511 2313.239"/><polygon fill="#35479c" points="1671.03 1429.771 1657.318 1478.094 1656.479 1481.083 1635.825 1553.912 1635.801 1553.912 1548.667 1861.066 1548.667 1861.115 1508.621 2002.179 1490.809 2064.979 1410.123 2349.429 1388.976 2423.963 1252.581 2423.963 1259.523 2365.24 1352.092 1580.791 1352.092 1580.766 1369.904 1429.771"/><polygon points="1657.318 1478.094 1656.479 1481.083 1635.825 1553.912 1635.801 1553.912 1548.667 1861.066 1548.667 1861.115 1508.621 2002.179 1469.958 1452.005" opacity=".2"/><path fill="#35479c" d="M1928.008,2387.919l-125.204,54.128l-30.436-66.505l-158.011-345.322
				c-15.168-33.179-25.668-68.309-31.153-104.377l-9.832-64.727v-0.049l-48.199-316.937l-9.289-61.169l56.351-17.046h0.025
				l119.373-36.143l22.407-6.769l82.81-25.075l-0.914,40.466l-2.248,99.708l-7.584,335.169c-0.494,20.974,2.297,41.899,8.227,62.009
				l119.892,405.997L1928.008,2387.919z"/><path fill="#f28389" d="M1732.249,754.739l-0.49,1.82l-2.08,7.74l-1.26,4.67c-1.03,3.89-2.63,7.56-4.69,10.92
				c-4.59,7.48-11.53,13.4-19.87,16.72l-4.42,1.73c-4.04,13.7-11.42,25.8-21.09,35.5c-6.4,6.42-13.8,11.78-21.92,15.87
				c-7.53,3.8-15.69,6.49-24.24,7.88c-7.65,1.26-15.63,1.45-23.76,0.49c-1.24-0.15-2.5-0.32-3.71-0.52
				c-1.11-0.2-2.22-0.42-3.33-0.64c-6.52-1.34-12.72-3.41-18.53-6.13c-0.03,0-0.05-0.02-0.07-0.05c-1.96-0.89-3.86-1.87-5.71-2.91
				c-22.07-12.41-37.63-34.33-41.84-59.58c-1.3-7.77-1.52-15.85-0.53-24.07l3.8-31.7l1.17-9.69l0.53-4.36l1.42-11.77
				c0.22-1.85,0.5-3.68,0.84-5.48c1.68-9.07,4.8-17.56,9.06-25.27c1.01-1.82,2.08-3.59,3.21-5.32
				c17.02-26.02,47.85-41.61,80.81-37.64c29.26,3.53,53.22,21.59,65.45,46.12c5.41,10.75,8.5,22.73,8.84,35.28
				c0.05,0.34,0.05,0.69,0.05,1.04v1.33c0,3.36-0.2,6.77-0.62,10.15l-1.4,11.81l-0.23,1.76l10.43-1.58
				C1727.109,737.519,1734.599,745.869,1732.249,754.739z"/><path d="M1583.911,1549.963l-8.843-16.739l-74.6,10.905l-45.481,11.24l-102.895,25.421v-0.025
				l17.812-150.995h297.025l22.407-6.769l81.896,15.391l-2.248,99.708l-134.985,34.141
				C1614.163,1577.259,1593.469,1568.054,1583.911,1549.963z" opacity=".2"/><path fill="#f28389" d="M1714.535,969.992c0,0-67.617,46.272-110.109,36.267c-58.55-13.785-94.619-85.948-68.136-94.224
				c1.507-0.469,2.965-1.013,4.397-1.606c5.559-2.347,10.475-5.633,14.823-9.561c12.599-11.364,20.48-28.213,25.347-43.357
				c0.717-2.298,1.408-4.546,2.001-6.72c5.806,2.717,12.007,4.793,18.529,6.127c1.112,0.222,2.224,0.445,3.335,0.642
				c1.211,0.197,2.471,0.37,3.706,0.519c8.128,0.964,16.107,0.766,23.766-0.494c8.548-1.384,16.7-4.076,24.235-7.881
				c2.742,12.204,5.954,22.975,9.684,32.19c3.879,9.635,8.325,17.59,13.341,23.642c3.434,4.126,7.09,7.387,11.043,9.734
				C1727.579,937.282,1724.071,935.85,1714.535,969.992z"/><defs><path id="a" d="M1879.562,1078.618c0,22.975-6.324,45.63-18.479,65.443l-198.947,323.829
						c0,0-266.292,62.824-299.643,24.729c-25.149-28.756-24.804-198.181-16.997-255.867c2.545-18.825,4.57-30.906,4.57-30.906
						l-2.396-202.504l158.481-62.454l39.033-15.391c3.286,7.782,7.955,14.897,13.761,20.999
						c10.87,11.512,25.693,19.467,42.665,21.567l11.414,1.383c36.242,4.496,69.47-19.344,77.474-54.177l17.862,1.803l20.826,2.1
						c74.534,7.535,135.085,63.516,148.401,137.259C1878.92,1063.795,1879.562,1071.231,1879.562,1078.618z"/></defs><use fill="#fcb713" overflow="visible" xlink:href="#a"/><clipPath id="b"><use overflow="visible" xlink:href="#a"/></clipPath><g clip-path="url(#b)"><path fill="#f6f7f7" d="M1427.757 1130.94c-8.932 0-18.132-2.761-26.794-8.277-8.861-5.647-16.949-13.848-24.728-25.071-12.685-18.31-19.252-36.676-19.516-54.59-.315-21.411 10.24-48.247 34.161-56.568 19.103-6.641 40.656 1.097 65.885 23.666 2.987 2.674 3.243 7.262.571 10.249-2.676 2.989-7.263 3.239-10.249.57-20.943-18.737-37.771-25.541-51.436-20.774-16.359 5.69-24.666 25.759-24.416 42.644.216 14.769 6.073 30.862 16.933 46.535 6.657 9.608 13.394 16.507 20.595 21.097 12.152 7.738 25.011 8.018 35.281.751 11.566-8.183 16.718-23.482 13.127-38.979-2.826-12.193-18.007-27.564-30.081-30.462-5.504-1.324-7.258.764-7.834 1.449-2.578 3.073-7.159 3.469-10.224.89-3.071-2.576-3.468-7.155-.89-10.224 5.225-6.219 13.164-8.436 22.334-6.23 17.636 4.232 36.716 23.53 40.834 41.299 4.93 21.267-2.483 42.505-18.884 54.106C1444.965 1128.301 1436.488 1130.94 1427.757 1130.94zM1391.692 1282.183c-4.574 0-9.285-1.414-13.72-4.238-4.538-2.892-8.679-7.091-12.662-12.838-6.496-9.376-9.859-18.781-9.994-27.954-.161-10.964 5.244-24.706 17.493-28.966 9.782-3.401 20.818.562 33.737 12.119 1.53 1.369 1.66 3.718.292 5.248-1.37 1.531-3.719 1.659-5.248.292-10.724-9.594-19.341-13.079-26.339-10.638-8.377 2.914-12.63 13.19-12.503 21.837.111 7.563 3.109 15.803 8.671 23.829 3.409 4.92 6.859 8.453 10.546 10.803 6.223 3.962 12.807 4.106 18.067.385 5.922-4.19 8.561-12.024 6.722-19.96-1.447-6.244-9.221-14.115-15.403-15.598-2.818-.678-3.717.391-4.011.742-1.32 1.573-3.666 1.777-5.235.456-1.573-1.319-1.776-3.664-.456-5.235 2.676-3.185 6.741-4.32 11.436-3.19 9.031 2.167 18.801 12.049 20.91 21.148 2.524 10.89-1.271 21.766-9.67 27.706C1400.503 1280.832 1396.162 1282.183 1391.692 1282.183zM1700.039 1308.131c-7.49 0-15.204-2.315-22.467-6.94-7.43-4.735-14.212-11.611-20.734-21.022-10.637-15.353-16.143-30.753-16.365-45.774-.264-17.953 8.586-40.455 28.645-47.432 16.018-5.569 34.09.92 55.245 19.844 2.505 2.242 2.719 6.089.478 8.594-2.244 2.506-6.09 2.716-8.594.478-17.56-15.711-31.671-21.416-43.129-17.419-13.717 4.771-20.682 21.599-20.473 35.757.181 12.384 5.092 25.878 14.198 39.02 5.582 8.056 11.231 13.841 17.269 17.69 10.189 6.488 20.972 6.723 29.583.63 9.698-6.861 14.018-19.69 11.007-32.684-2.37-10.224-15.099-23.113-25.223-25.542-4.615-1.11-6.086.64-6.569 1.215-2.162 2.576-6.003 2.909-8.573.746-2.575-2.16-2.908-6-.746-8.573 4.382-5.215 11.038-7.074 18.727-5.224 14.788 3.548 30.787 19.73 34.24 34.629 4.133 17.832-2.082 35.641-15.834 45.368C1714.467 1305.919 1707.359 1308.131 1700.039 1308.131zM1487.916 1544.996c-9.418 0-19.118-2.911-28.25-8.727-9.343-5.954-17.87-14.6-26.071-26.434-13.375-19.305-20.298-38.669-20.577-57.557-.333-22.574 10.797-50.869 36.018-59.642 20.142-7.002 42.865 1.156 69.465 24.952 3.15 2.819 3.419 7.656.602 10.806-2.821 3.152-7.658 3.415-10.806.602-22.081-19.755-39.824-26.929-54.232-21.903-17.248 5.999-26.006 27.159-25.743 44.961.228 15.572 6.402 32.539 17.853 49.064 7.019 10.13 14.122 17.405 21.715 22.243 12.812 8.159 26.37 8.454 37.199.792 12.194-8.628 17.627-24.758 13.84-41.098-2.98-12.855-18.985-29.063-31.715-32.117-5.803-1.396-7.652.805-8.26 1.528-2.718 3.24-7.548 3.658-10.78.938-3.238-2.716-3.656-7.544-.938-10.78 5.51-6.558 13.879-8.895 23.547-6.569 18.595 4.461 38.712 24.809 43.054 43.543 5.198 22.423-2.617 44.816-19.91 57.047C1506.059 1542.214 1497.121 1544.996 1487.916 1544.996zM1743.4 1425.88c-4.574 0-9.285-1.414-13.72-4.238-4.538-2.892-8.679-7.091-12.662-12.838-6.496-9.376-9.858-18.781-9.994-27.954-.161-10.964 5.244-24.705 17.493-28.966 9.782-3.401 20.818.562 33.737 12.119 1.53 1.369 1.66 3.718.292 5.248-1.37 1.531-3.719 1.659-5.248.292-10.724-9.594-19.341-13.078-26.339-10.638-8.377 2.913-12.63 13.19-12.502 21.836.111 7.563 3.109 15.804 8.671 23.829 3.409 4.92 6.859 8.453 10.546 10.803 6.223 3.962 12.807 4.106 18.066.385 5.922-4.19 8.561-12.024 6.722-19.96-1.447-6.244-9.22-14.115-15.403-15.598-2.818-.678-3.717.391-4.011.742-1.32 1.573-3.666 1.777-5.236.455-1.572-1.319-1.776-3.664-.455-5.235 2.676-3.185 6.741-4.32 11.436-3.19 9.031 2.167 18.801 12.049 20.91 21.148 2.524 10.89-1.271 21.766-9.67 27.706C1752.211 1424.529 1747.87 1425.88 1743.4 1425.88zM1869.968 1116.484c-4.574 0-9.285-1.414-13.72-4.238-4.538-2.892-8.679-7.091-12.662-12.838-6.496-9.376-9.858-18.781-9.994-27.954-.161-10.964 5.244-24.705 17.493-28.966 9.782-3.401 20.818.562 33.737 12.119 1.53 1.369 1.661 3.718.292 5.248-1.37 1.531-3.719 1.659-5.248.292-10.724-9.594-19.341-13.079-26.339-10.638-8.377 2.914-12.63 13.19-12.502 21.837.111 7.563 3.109 15.803 8.671 23.829 3.409 4.92 6.859 8.453 10.546 10.803 6.223 3.962 12.807 4.106 18.066.385 5.922-4.19 8.561-12.024 6.722-19.96-1.447-6.244-9.221-14.115-15.403-15.598-2.818-.678-3.717.391-4.011.742-1.32 1.573-3.666 1.777-5.235.456-1.572-1.319-1.776-3.664-.455-5.235 2.676-3.185 6.741-4.32 11.436-3.19 9.031 2.167 18.801 12.049 20.91 21.148 2.524 10.89-1.271 21.766-9.67 27.706C1878.779 1115.133 1874.438 1116.484 1869.968 1116.484zM1695.797 1021.725c-4.574 0-9.285-1.414-13.72-4.238-4.538-2.892-8.679-7.091-12.662-12.838-6.496-9.376-9.859-18.78-9.994-27.954-.161-10.964 5.244-24.706 17.493-28.966 9.782-3.401 20.818.562 33.737 12.119 1.53 1.369 1.66 3.718.292 5.248-1.37 1.531-3.719 1.659-5.248.292-10.724-9.594-19.341-13.079-26.339-10.638-8.377 2.914-12.63 13.19-12.503 21.836.111 7.563 3.109 15.803 8.671 23.829 3.409 4.92 6.859 8.453 10.546 10.803 6.223 3.962 12.807 4.106 18.066.385 5.922-4.19 8.561-12.024 6.722-19.96-1.447-6.244-9.221-14.115-15.403-15.598-2.818-.678-3.717.391-4.011.742-1.32 1.573-3.666 1.777-5.235.456-1.573-1.319-1.776-3.664-.456-5.235 2.676-3.185 6.741-4.32 11.436-3.19 9.031 2.167 18.801 12.049 20.91 21.148 2.524 10.89-1.271 21.766-9.67 27.706C1704.609 1020.374 1700.268 1021.725 1695.797 1021.725z"/></g><path fill="#f37c20" d="M1348.633,1084.918l196.551-159.419l-96.534,159.971
				c-13.677,22.665-5.895,52.152,17.185,65.116l144.346,81.078l30.313,136.172l-298.631-85.182L1348.633,1084.918z" opacity=".3"/><defs><path id="c" d="M1581.129,1250.514l-0.815,12.797l-2.792,43.233c-0.321,5.213-2.718,9.734-6.275,12.871
						c-4.595,4.101-11.093,5.904-17.59,4.101l-225.381-62.849l-52.226-14.6c-39.28-10.969-58.847-55.017-40.614-91.531
						l66.258-132.467c30.609-61.243,91.235-101.833,159.518-106.823l39.355-2.866l40.121-2.693c0.988,5.88,2.55,11.3,4.872,16.686
						c3.508,8.35,5.528,16.27,11.754,22.817l-159.123,178.096c-8.35,9.338-5.682,24.038,5.41,29.868L1581.129,1250.514z"/></defs><use fill="#fcb713" overflow="visible" xlink:href="#c"/><clipPath id="d"><use overflow="visible" xlink:href="#c"/></clipPath><g clip-path="url(#d)"><path fill="#f6f7f7" d="M1346.57 972.366c-8.932 0-18.132-2.761-26.794-8.277-8.861-5.647-16.949-13.848-24.728-25.071-12.685-18.31-19.252-36.676-19.516-54.59-.315-21.41 10.24-48.247 34.161-56.568 19.103-6.641 40.656 1.097 65.885 23.666 2.987 2.674 3.243 7.261.571 10.249-2.676 2.989-7.263 3.239-10.249.571-20.943-18.737-37.771-25.541-51.436-20.774-16.359 5.69-24.666 25.759-24.416 42.644.216 14.769 6.073 30.862 16.933 46.535 6.657 9.607 13.394 16.508 20.595 21.097 12.152 7.738 25.011 8.018 35.281.751 11.565-8.183 16.718-23.482 13.127-38.979-2.826-12.193-18.007-27.564-30.081-30.462-5.504-1.324-7.258.764-7.834 1.45-2.578 3.073-7.159 3.469-10.224.889-3.071-2.576-3.468-7.155-.89-10.224 5.225-6.22 13.164-8.436 22.334-6.23 17.636 4.231 36.717 23.53 40.835 41.299 4.929 21.267-2.483 42.505-18.884 54.107C1363.777 969.728 1355.301 972.366 1346.57 972.366zM1310.504 1123.609c-4.574 0-9.285-1.414-13.72-4.238-4.538-2.892-8.679-7.091-12.662-12.838-6.496-9.376-9.859-18.781-9.994-27.954-.161-10.964 5.244-24.705 17.493-28.967 9.782-3.401 20.818.562 33.737 12.119 1.53 1.369 1.66 3.718.292 5.248-1.37 1.531-3.719 1.659-5.248.292-10.724-9.594-19.341-13.079-26.339-10.638-8.377 2.914-12.63 13.19-12.503 21.837.111 7.563 3.109 15.803 8.671 23.829 3.409 4.92 6.859 8.453 10.546 10.803 6.223 3.962 12.807 4.106 18.066.385 5.922-4.19 8.561-12.024 6.722-19.96-1.447-6.243-9.221-14.115-15.403-15.598-2.818-.678-3.717.391-4.011.742-1.32 1.573-3.666 1.777-5.235.456-1.573-1.319-1.776-3.664-.456-5.235 2.676-3.185 6.741-4.32 11.436-3.19 9.031 2.167 18.801 12.049 20.91 21.148 2.524 10.89-1.271 21.766-9.67 27.706C1319.316 1122.258 1314.975 1123.609 1310.504 1123.609zM1618.851 1149.557c-7.49 0-15.204-2.315-22.467-6.94-7.43-4.735-14.212-11.611-20.734-21.022-10.637-15.353-16.143-30.753-16.364-45.774-.265-17.953 8.586-40.455 28.644-47.432 16.018-5.569 34.09.92 55.245 19.844 2.505 2.242 2.719 6.089.478 8.594-2.244 2.507-6.09 2.716-8.594.478-17.56-15.711-31.671-21.416-43.129-17.419-13.717 4.771-20.682 21.599-20.473 35.757.181 12.384 5.092 25.878 14.198 39.02 5.582 8.056 11.231 13.842 17.269 17.69 10.19 6.488 20.972 6.723 29.583.63 9.698-6.861 14.018-19.69 11.007-32.684-2.37-10.224-15.099-23.113-25.223-25.542-4.615-1.11-6.086.64-6.569 1.215-2.162 2.576-6.003 2.909-8.573.746-2.575-2.16-2.908-6-.746-8.573 4.382-5.215 11.038-7.074 18.727-5.224 14.788 3.548 30.787 19.73 34.24 34.629 4.133 17.832-2.082 35.641-15.834 45.369C1633.28 1147.345 1626.172 1149.557 1618.851 1149.557zM1406.729 1386.422c-9.418 0-19.118-2.911-28.25-8.727-9.343-5.954-17.87-14.6-26.071-26.434-13.375-19.305-20.299-38.669-20.577-57.557-.333-22.574 10.797-50.869 36.018-59.642 20.142-7.002 42.865 1.156 69.465 24.952 3.15 2.819 3.419 7.656.602 10.806-2.821 3.152-7.658 3.415-10.806.602-22.081-19.755-39.823-26.929-54.232-21.903-17.248 5.999-26.006 27.159-25.743 44.961.228 15.572 6.402 32.539 17.853 49.064 7.019 10.13 14.122 17.405 21.715 22.243 12.813 8.159 26.37 8.454 37.199.792 12.194-8.628 17.627-24.758 13.84-41.098-2.98-12.855-18.985-29.063-31.715-32.117-5.803-1.396-7.652.805-8.26 1.528-2.718 3.24-7.548 3.658-10.78.938-3.238-2.716-3.656-7.544-.938-10.78 5.51-6.557 13.879-8.895 23.547-6.569 18.595 4.461 38.712 24.808 43.054 43.543 5.198 22.423-2.617 44.816-19.91 57.047C1424.872 1383.641 1415.934 1386.422 1406.729 1386.422zM1662.212 1267.306c-4.574 0-9.285-1.414-13.72-4.238-4.538-2.892-8.679-7.091-12.662-12.838-6.496-9.376-9.859-18.781-9.994-27.954-.161-10.964 5.244-24.706 17.493-28.966 9.782-3.401 20.818.562 33.737 12.119 1.53 1.369 1.66 3.718.292 5.248-1.37 1.531-3.719 1.659-5.248.292-10.724-9.594-19.341-13.079-26.339-10.638-8.377 2.914-12.63 13.19-12.502 21.837.111 7.563 3.109 15.803 8.671 23.829 3.409 4.92 6.859 8.453 10.546 10.803 6.223 3.963 12.807 4.106 18.066.385 5.922-4.19 8.561-12.024 6.722-19.96-1.447-6.244-9.221-14.115-15.403-15.599-2.818-.678-3.717.391-4.011.742-1.32 1.573-3.666 1.776-5.235.455-1.573-1.319-1.776-3.664-.455-5.235 2.676-3.185 6.741-4.32 11.436-3.19 9.031 2.167 18.801 12.049 20.91 21.148 2.524 10.89-1.271 21.766-9.67 27.706C1671.024 1265.955 1666.683 1267.306 1662.212 1267.306zM1788.781 957.911c-4.574 0-9.285-1.414-13.72-4.238-4.538-2.892-8.679-7.091-12.662-12.838-6.496-9.376-9.859-18.78-9.994-27.954-.161-10.964 5.244-24.706 17.493-28.966 9.782-3.401 20.818.562 33.737 12.119 1.53 1.369 1.661 3.718.292 5.248-1.37 1.531-3.719 1.659-5.248.292-10.724-9.594-19.341-13.079-26.339-10.638-8.377 2.914-12.63 13.19-12.503 21.837.111 7.563 3.109 15.803 8.671 23.829 3.409 4.92 6.859 8.453 10.546 10.803 6.223 3.963 12.807 4.106 18.066.385 5.922-4.19 8.561-12.024 6.722-19.96-1.447-6.244-9.22-14.115-15.403-15.598-2.818-.678-3.717.391-4.011.742-1.32 1.573-3.666 1.777-5.235.455-1.572-1.319-1.776-3.664-.455-5.235 2.676-3.185 6.741-4.32 11.436-3.19 9.031 2.167 18.802 12.049 20.91 21.148 2.524 10.89-1.271 21.766-9.67 27.706C1797.592 956.56 1793.251 957.911 1788.781 957.911zM1614.61 863.151c-4.574 0-9.285-1.414-13.72-4.238-4.538-2.892-8.679-7.091-12.662-12.838-6.496-9.376-9.858-18.781-9.994-27.954-.162-10.964 5.244-24.706 17.493-28.966 9.782-3.401 20.818.562 33.737 12.119 1.53 1.369 1.66 3.718.292 5.248-1.37 1.531-3.719 1.659-5.248.292-10.724-9.594-19.341-13.079-26.339-10.638-8.377 2.914-12.63 13.19-12.503 21.836.111 7.563 3.109 15.804 8.671 23.829 3.409 4.92 6.859 8.453 10.546 10.803 6.223 3.962 12.807 4.106 18.066.385 5.922-4.19 8.561-12.024 6.722-19.96-1.447-6.244-9.221-14.115-15.403-15.598-2.818-.678-3.717.391-4.011.742-1.32 1.573-3.666 1.777-5.235.456-1.573-1.319-1.776-3.664-.455-5.235 2.676-3.185 6.741-4.32 11.436-3.19 9.031 2.167 18.801 12.049 20.91 21.148 2.524 10.89-1.271 21.766-9.67 27.706C1623.421 861.8 1619.08 863.151 1614.61 863.151z"/></g><path fill="#35479c" d="M1595.433,1408.097"/><polygon fill="#f37c20" points="1410.123 2349.429 1388.976 2423.963 1252.581 2423.963 1259.523 2365.24"/><polygon fill="#f37c20" points="1928.008 2387.919 1802.804 2442.047 1772.368 2375.542 1914.223 2341.276"/><path fill="#f6f7f7" d="M1690.497,915.271c-8.004,34.834-41.232,58.674-77.474,54.177l-11.414-1.383
				c-16.972-2.1-31.795-10.055-42.665-21.567c-5.806-6.102-10.475-13.217-13.761-20.999c-2.05-4.793-3.557-9.857-4.496-15.07
				c5.559-2.347,10.475-5.633,14.823-9.561c3.73,15.144,14.403,41.776,43.629,46.643c39.33,6.547,61.391-8.054,80.315-41.973
				C1682.888,909.663,1686.544,912.924,1690.497,915.271z"/><path fill="#f16b6c" d="M1666.113,881.894c-46.272,0.025-76.214-18.059-85.256-24.384l1.927-6.769
				c0.025,0.025,0.049,0.049,0.074,0.049c5.806,2.717,12.007,4.793,18.529,6.127c1.112,0.222,2.224,0.445,3.335,0.642
				c1.211,0.197,2.471,0.37,3.706,0.519c8.128,0.964,16.107,0.766,23.766-0.494c8.548-1.384,16.7-4.076,24.235-7.881
				C1659.171,861.908,1662.383,872.68,1666.113,881.894z"/><path fill="#231f20" d="M1729.721 1452.005l.913 45.89c.005.275-.213.502-.488.507-.275.006-.502-.213-.507-.487 0-.003 0-.008 0-.011L1729.721 1452.005zM1731.456 1543.786l.759 45.891c.011.688-.537 1.255-1.226 1.267-.688.012-1.256-.538-1.267-1.226 0-.004 0-.015 0-.019l-.073-45.897c-.001-.499.403-.905.902-.905C1731.045 1542.896 1731.447 1543.293 1731.456 1543.786zM1732.878 1635.569l.664 45.892c.014.963-.755 1.754-1.718 1.768-.963.014-1.754-.755-1.768-1.718l0-.019-.167-45.897c-.003-.826.664-1.497 1.489-1.5C1732.198 1634.093 1732.866 1634.751 1732.878 1635.569zM1734.168 1727.353l.498 45.893c.012 1.125-.89 2.046-2.014 2.058-1.125.012-2.046-.889-2.059-2.014v-.007l-.333-45.895c-.008-1.079.861-1.961 1.94-1.969S1734.161 1726.274 1734.168 1727.353zM1735.164 1819.14l.498 45.893c.013 1.215-.961 2.211-2.177 2.224s-2.211-.961-2.224-2.177l0-.008-.333-45.895c-.009-1.17.933-2.126 2.103-2.134C1734.2 1817.036 1735.155 1817.97 1735.164 1819.14zM1736.159 1910.927l.191 22.952c.049 3.827 0 7.67.162 11.392.164 3.751.506 7.494 1.024 11.213.17 1.217-.678 2.341-1.895 2.511s-2.34-.671-2.51-1.888c-.552-3.857-.92-7.74-1.104-11.632-.184-3.922-.144-7.733-.208-11.556l-.225-22.951c-.012-1.261 1-2.293 2.26-2.305 1.261-.012 2.293 1 2.305 2.26V1910.927zM1750.3 2000.03l15.127 43.332c.375 1.074-.192 2.248-1.265 2.623-1.074.375-2.245-.185-2.62-1.258l-15.283-43.277c-.394-1.115.191-2.339 1.306-2.733 1.115-.394 2.339.191 2.733 1.306L1750.3 2000.03zM1780.554 2086.694l15.046 43.36c.327.943-.172 1.973-1.115 2.301-.939.326-1.964-.168-2.297-1.103l-15.364-43.248c-.365-1.029.172-2.159 1.201-2.524 1.028-.365 2.159.172 2.524 1.201L1780.554 2086.694zM1810.57 2173.441l14.969 43.387c.236.683-.127 1.428-.81 1.664-.678.234-1.418-.123-1.659-.797l-15.441-43.221c-.29-.81.133-1.702.943-1.992.81-.289 1.702.133 1.992.943C1810.565 2173.427 1810.569 2173.438 1810.57 2173.441zM1840.456 2260.233l14.819 43.44c.106.31-.06.648-.37.754-.307.104-.64-.057-.75-.36l-15.591-43.169c-.188-.521.082-1.095.602-1.283.521-.188 1.095.081 1.283.602C1840.451 2260.221 1840.454 2260.229 1840.456 2260.233zM1870.038 2347.132l3.354 9.931-3.591-9.848c-.024-.065.01-.137.075-.161.065-.023.137.01.161.075C1870.037 2347.131 1870.038 2347.132 1870.038 2347.132z"/><g><path fill="#231f20" d="M1525.836 1770.428c-3.608 14.87-7.307 29.717-11.019 44.559-.096.382-.483.614-.865.518-.382-.095-.614-.483-.519-.864.001-.005.003-.013.005-.018C1517.531 1799.881 1521.638 1785.143 1525.836 1770.428zM1503.638 1859.505l-11.342 44.474c-.224.879-1.118 1.409-1.996 1.185-.878-.224-1.409-1.118-1.185-1.996.001-.006.005-.021.007-.026l12.076-44.281c.183-.672.877-1.068 1.549-.885C1503.412 1858.157 1503.807 1858.839 1503.638 1859.505zM1480.9 1948.439l-11.587 44.41c-.291 1.117-1.433 1.786-2.55 1.494-1.117-.291-1.786-1.433-1.495-2.55l.003-.011 11.83-44.345c.28-1.048 1.356-1.671 2.404-1.392C1480.55 1946.324 1481.172 1947.394 1480.9 1948.439zM1457.725 2037.258l-5.794 22.205-5.884 22.181c-.318 1.2-1.549 1.915-2.749 1.597s-1.917-1.544-1.598-2.744l5.825-22.197 5.915-22.173c.315-1.182 1.53-1.885 2.712-1.569C1457.331 2034.872 1458.032 2036.08 1457.725 2037.258zM1434.217 2125.989l-11.831 44.345c-.284 1.065-1.377 1.698-2.442 1.414-1.061-.283-1.693-1.37-1.416-2.431l11.587-44.41c.296-1.134 1.455-1.813 2.589-1.517 1.134.296 1.813 1.455 1.517 2.589L1434.217 2125.989zM1410.423 2214.645l-12.078 44.28c-.196.719-.939 1.144-1.658.947-.712-.194-1.134-.924-.953-1.636l11.339-44.475c.236-.927 1.18-1.487 2.107-1.251.927.237 1.487 1.18 1.251 2.107C1410.429 2214.623 1410.425 2214.638 1410.423 2214.645zM1386.156 2303.176l-12.357 44.207c-.027.098-.129.155-.227.128-.096-.027-.153-.125-.129-.222l11.061-44.548c.114-.458.577-.737 1.035-.623s.737.577.623 1.035C1386.161 2303.158 1386.158 2303.169 1386.156 2303.176z"/></g><g><path fill="#312f7f" d="M1241.399,2495.425c-18.737,20.71-53.342,47.328-75.406,58.196
					c-21.075,10.381-55.489,11.066-66.074,15.677c-20.329,8.857-9.454,12.827-13.83,24.769
					c-2.532,27.226,158.808,15.779,201.859,11.801c23.213,1.266,45.569,1.197,68.123-5.109c5.918-1.655,10.776-10.171,11.954-13.91
					c7.677-24.36-0.528-66.072-10.206-80.792c-9.678-14.72-8.08-13.784-19.408-8.226c-11.328,5.558-15.332,24.344-35.407,23.402
					c-20.076-0.942-39.029-10.663-52.61-26.472C1247.184,2495.02,1244.998,2494.869,1241.399,2495.425z"/><path d="M1356.74,2503.547c0.027-0.094,0.031-0.325-0.01-0.354c-5.858-4.226-8.196-14.327-18.518-5.921
					c-10.322,8.406-15.535,23.758-35.264,23.806c-19.729,0.048-39.18-11.123-52.548-26.266c-2.578,0.054-4.791,0.175-7.271,0.414
					c17.054,27.263,39.235,39.272,72.095,38.639C1335.216,2533.48,1351.086,2523.152,1356.74,2503.547z"/></g><g><path fill="#312f7f" d="M1857.521,2490.875c-2.504,21.207-11.69,40.084-30.297,47.972
					c-17.773,7.534-45.619,5.732-57.444,10.448c-22.711,9.059-9.778,11.064-18.762,26.01c26.43,47.396,165.97,9.566,202.679-15.254
					c19.944-12.024,38.419-27.527,55.309-43.326c4.432-4.145,3.665-13.606,2.698-17.459c-6.3-25.099-32.212-52.096-49.983-62.291
					c-17.771-10.195-13.947-9.181-23.507,2.357c-9.56,11.538-0.292,29.452-16.302,39.188s-37.581,12.026-56.509,7.572
					C1862.545,2487.707,1860.343,2488.873,1857.521,2490.875z"/><path d="M1956.289,2433.054c-0.015-0.09-0.107-0.54-0.176-0.537c-9.861,0.426-13.813-6.495-18.898,6.448
					c-5.085,12.943-0.544,29.269-15.613,39.512c-15.069,10.243-37.734,12.041-56.13,7.659c-2.339,1.178-4.217,2.225-6.274,3.655
					c29.211,9.903,54.151,10.096,80.356-8.403C1955.496,2470.135,1959.347,2451.896,1956.289,2433.054z"/></g><path d="M1681.751,1384.389c-3.854,8.226-12.352,14.526-21.419,14.23
				c-4.175-0.148-8.202-1.606-12.081-3.212c-16.997-7.066-32.709-17.219-46.124-29.868c-2.174-2.051-4.348-4.2-6.695-6.053v-34.438
				c8.943,2.816,16.873,8.251,22.753,15.663l22.778,28.658c4.224,5.139,10.376,7.831,16.577,7.831c4.546,0,9.141-1.433,13.019-4.398
				c7.189-5.484,9.635-15.193,5.904-23.42l-7.09-15.589l0.395,0.099c5.213,7.436,10.129,15.218,12.822,23.89
				C1685.284,1366.453,1685.581,1376.162,1681.751,1384.389z" opacity=".05"/><path fill="#6457a4" d="M1890.114,2699.954h-807.048c-21.247,0-38.472-17.224-38.472-38.472v-99.627
				c0-21.247,17.224-38.472,38.472-38.472h807.048c21.247,0,38.472,17.225,38.472,38.472v99.627
				C1928.585,2682.73,1911.361,2699.954,1890.114,2699.954z" opacity=".07"/><path fill="#fff" d="M1519.429,655.509c0.09,0.38,0.18,0.76,0.27,1.14
				C1519.559,656.279,1519.469,655.889,1519.429,655.509z" opacity=".19"/><g><path fill="#1a3075" d="M1733.72,755.394c-0.163,0.965-1.159,1.832-1.46,2.796c-0.457,1.467-0.77,2.91-1.424,4.318
						c-0.181,0.389-0.383,0.783-0.711,1.058c-1.226,1.028-4.812-0.929-6.073-1.43c-1.87-0.742-3.708-1.569-5.513-2.457
						c-0.03-0.02-0.07-0.03-0.1-0.05c-4.4-2.21-7.16-6.54-8.69-11.34c-0.7-0.38-1.33-0.88-1.88-1.5c-4.13-4.72-0.84-12.73-4.3-17.96
						c-0.09-0.14-0.19-0.28-0.29-0.41c-0.83-1.12-1.88-1.94-3.07-2.56c-3.58-1.84-8.45-1.75-12.7-1.66
						c-0.62,0.02-1.23,0.02-1.84,0.02c-4.45,0.02-8.92-0.3-13.31-1.03c-6.74-1.1-13.28-3.16-19.25-6.45
						c-2.55-1.41-4.99-3.06-7.25-4.92c-8.19-5.47-15.08-12.31-14.9-18.84c-0.95,0.59-2.14,1.56-3.89,2.79
						c-0.01,0.01-0.02,0.01-0.03,0.02c-4.93,3.46-10.53,5.16-16.32,5.4c-0.11,0-0.23,0.01-0.34,0.01c-1.33,0.03-2.67-0.01-4-0.11
						c-0.69-0.06-1.37-0.13-2.05-0.22c-1-0.13-2.01-0.31-3.01-0.53c-11.39-2.47-22.1-8.34-33.75-8.77c-2.72-2.8-5.34,2.49-8.96,3.97
						c-1.09,0.44-2.17,0.87-3.25,1.28c-0.6,0.23-1.19,0.46-1.78,0.68c-0.99,0.37-1.97,0.72-2.95,1.06c-0.46,0.16-0.93,0.32-1.4,0.48
						c-0.55,0.19-1.1,0.37-1.66,0.55c-1.7,0.56-3.4,1.09-5.1,1.59c-2.43,0.71-4.87,1.38-7.33,2c-4.92,1.25-9.94,2.35-15.16,3.39
						c-7.72-9.42,3.7-21.2,12.36-29.75c4.4-4.35,9.79-7.36,15.6-9.49c2.81-5.65,6.14-10.8,10.71-14.61
						c21.85-18.25,52.99-32.65,81.64-30.86c9.62,0.6,22.65,12.31,31.47,16.17c6.77,2.97,13.02,7.04,18.79,11.66
						C1721.539,674.549,1740.33,716.224,1733.72,755.394z"/></g><g><path fill="#f99115" d="M1627.039,695.789c-4.27,3.54-10.25,5.21-16.32,5.4
						C1616.509,700.949,1622.109,699.249,1627.039,695.789z"/></g><path fill="#f16b6c" d="M1671.789,722.719c-0.15-0.01-0.3-0.01-0.44-0.02
				C1671.459,722.689,1671.599,722.689,1671.789,722.719z"/><path fill="#f16b6c" d="M1729.679,764.299c-4.16,0.19-8.53-1.01-12.16-3.11c-6.51-3.79-11.28-9.9-16.24-15.57
				c-2.31-2.63-4.76-5.24-7.46-7.48c-3.79,1.81-8.15,2.39-12.4,2.49c-11.91,0.27-23.89-2.99-34.02-9.26
				c-5.24-3.24-10.27-7.38-16.36-8.3c-7.52-1.14-14.66,2.91-22.12,2.21c-6.44-0.6-11.24-3.11-18.29-2.94
				c-15.13,0.37-30.59,3.62-45.31-1.53c-2-0.7-3.69-1.49-5.11-2.38l1.42-11.77c0.22-1.85,0.5-3.68,0.84-5.48
				c1.7-0.5,3.4-1.03,5.1-1.59c0.56-0.18,1.11-0.36,1.66-0.55c0.47-0.16,0.94-0.32,1.4-0.48c0.98-0.34,1.96-0.69,2.95-1.06
				c0.59-0.22,1.18-0.45,1.78-0.68c1.08-0.41,2.16-0.84,3.25-1.28c3.62-1.48,6.24-6.77,8.96-3.97c11.65,0.43,22.36,6.3,33.75,8.77
				c1,0.22,2.01,0.4,3.01,0.53c0.68,0.1,1.37,0.17,2.05,0.22c1.34,0.12,2.68,0.15,4,0.11c0.11,0,0.23-0.01,0.34-0.01
				c5.79-0.24,11.39-1.94,16.32-5.4c0.01-0.01,0.02-0.01,0.03-0.02c1.75-1.23,2.94-2.2,3.89-2.79c-0.18,6.53,6.71,13.37,14.9,18.84
				c9.04,6.03,19.66,10.38,24.16,10.79c0.37,0.03,0.81,0.06,1.32,0.09c-0.22,0.04-0.3,0.17-0.51,0.22c2.7,0.03,6.58-0.08,9.12,0
				c7.39,0.22,16.5,0.77,20.85,2.96c1.35,0.67,2.24,1.51,2.48,2.54c0.1,0.13,0.2,0.27,0.29,0.41c3.46,5.23,0.17,13.24,4.3,17.96
				c0.55,0.62,1.18,1.12,1.88,1.5c1.53,4.8,4.29,9.13,8.69,11.34c0.03,0.02,0.07,0.03,0.1,0.05c3.66,1.8,7.48,1.81,11.4,1.06"/></g><g><path fill="none" d="M3032.313,818.214c10.189-6.011,13.858-18.603,18.69-29.401c0.939-2.1,2.015-4.248,3.849-5.636
				c1.844-1.397,4.23-1.849,6.537-2.03c11.044-0.868,21.956,3.528,33.02,2.971c5.921-0.298,11.683-2.01,17.232-4.096
				c8.83-3.319,17.529-7.799,23.643-14.981c6.115-7.182,9.186-17.529,5.77-26.321c-3.916-10.076-14.721-15.422-24.725-19.519
				c-14.948-6.122-30.416-11.592-46.522-12.818c-16.106-1.226-33.087,2.186-45.708,12.267c-8.376,6.69-14.385,15.892-19.344,25.396
				c-8.763,16.795-14.767,36.379-12.335,55.48c1.137,8.927,2.286,16.339,10.815,19.638
				C3012.017,822.562,3024.034,823.098,3032.313,818.214z"/><polygon fill="#f28389" points="3029.61 1919.987 2946.791 2504.323 3027.954 2513.882 3179.623 1955.784"/><polygon fill="#f28389" points="3462.047 1926.994 3833.823 2152.756 3877.507 2083.688 3559.139 1807.166"/><path fill="#f37c20" d="M3780.738,1985.627l-35.871,63.293l-33.944,59.859l-31.029,54.721l-32.042-26.483l-17.936-14.823
				l-58.6-48.446l-186.2-153.935l-18.677-15.441c-31.968-27.546-53.337-65.369-60.477-106.971l-27.076-157.987
				c-0.025,0.05-0.074,0.099-0.099,0.173c-7.362,11.71-21.246,105.218-35.525,215.969
				c-14.749,114.457-29.967,247.344-38.935,327.485c-1.359,12.131-6.572,47.755-11.883,83.403
				c-6.003,40.467-12.105,81.007-12.822,87.652c-0.988,8.943-6.843,48.421-6.843,48.421h-219.155l12.031-87.9l3.879-29.596
				l98.498-751.789l1.26-10.03l4.299-34.142l2.693-21.468l21.542-171.229l282.375-86.961l42.295,65.69
				c33.647,52.275,57.167,109.936,69.766,169.993c9.635,45.827,12.92,93.088,9.511,140.397l-7.733,107.12
				c-0.964,13.365,2.1,26.508,8.573,37.872c3.508,6.127,7.979,11.735,13.341,16.552l27.299,24.606l145.462,131.083l58.896,53.066
				l13.094,11.809L3780.738,1985.627z"/><path fill="#17255b" d="M3383.709,984.299c-4.17,1.67-30.87,7.76-68.05,15.19c-81.18,16.22-212.32,38.78-267.87,35.39
				c-15.94-0.97-25.65-4.08-26.18-10.09c-0.38-4.32,0.14-8.88,1.3-13.68c7.47-31.07,41.82-71.93,35.49-119.33
				c12.75,6.03,27.07,8.35,41.21,6.47c7.41-0.94,14.77-3.04,21.79-6.4c0.91-0.39,1.8-0.84,2.69-1.26c0.94-0.52,1.9-1.06,2.86-1.6
				c6.2-3.59,11.66-7.91,16.38-12.83c19.42-20.18,25.89-50.07,15.99-76.75l2.17-3.54c5.14-8.4,6.6-18.47,4.15-27.88
				c-0.37-1.47-0.85-2.93-1.43-4.36l-0.67-1.67l-3.22-7.99l-0.93-2.29c-2.99-7.44-12.62-9.37-18.23-3.68l-6.47,6.57
				c-44.97,40.27-109.12-4.52-109.12-4.52s9.68,62.82-20.04,67.71h-0.02c-1.51,0.25-3.09,0.35-4.77,0.27
				c-35.53-1.28-63.32-78.31-22.01-121.2c5.83-6.05,12.21-11.6,19.12-16.53c0.85-0.61,1.7-1.2,2.56-1.79
				c13.72-9.32,29.42-16.24,46.89-19.96c35.93-7.65,79.35-1.74,128.35,24.79c21.91,11.86,41.03,31.4,58.45,54
				c51.4,66.69,88.09,160.04,138.49,161.55C3440.089,900.919,3399.599,977.949,3383.709,984.299z"/><path d="M3159.316,799.405c9.906,26.681,3.434,56.574-15.984,76.758c-4.719,4.916-10.178,9.24-16.379,12.822
				c-0.964,0.544-1.927,1.087-2.866,1.606c-0.889,0.42-1.779,0.865-2.693,1.26c-7.016,3.36-14.378,5.46-21.79,6.398
				c-14.131,1.878-28.46-0.445-41.208-6.473c-0.939-7.14-2.816-14.403-5.83-21.839l-47.038-52.177
				c29.72-4.891,20.035-67.716,20.035-67.716s64.158,44.79,109.121,4.521l6.472-6.572c5.608-5.682,15.243-3.755,18.232,3.681
				l4.818,11.957c4.249,10.574,3.236,22.531-2.718,32.24L3159.316,799.405z"/><path d="M3355.699,949.089c-3.58,12.64-11.5,23.64-20.56,33.15c-6.04,6.35-12.56,12.07-19.48,17.25
				c-36.02,27.01-82.69,39.07-127.88,45.72c-30.86,4.54-62.25,7.11-93.24,3.58c-16.01-1.83-32.78-6.06-46.75-13.91
				c-10.32-5.79-19.09-13.55-24.88-23.77c7.47-31.07,41.82-71.93,35.49-119.33c12.75,6.03,27.07,8.35,41.21,6.47
				c7.41-0.94,14.77-3.04,21.79-6.4c0.91-0.39,1.8-0.84,2.69-1.26c0.94-0.52,1.9-1.06,2.86-1.6c6.2-3.59,11.66-7.91,16.38-12.83
				c19.42-20.18,25.89-50.07,15.99-76.75l2.17-3.54c5.14-8.4,6.6-18.47,4.15-27.88c0.55,0.48,1.08,1.02,1.57,1.61l-3.67-7.64
				l-4.86-10.1c0.55,0.7,1.1,1.4,1.64,2.11c7.93,10.49,13.89,22.47,17.49,35.12c4.18,14.7,5.21,30.37,11.51,44.3
				c9.38,20.72,29.43,34.95,50.7,42.99c21.27,8.05,44.1,10.79,66.5,14.72c16.2,2.85,33.74,7.22,43.61,20.38
				C3358.019,921.979,3359.289,936.449,3355.699,949.089z" opacity=".21"/><path fill="#f28389" d="M3203.76,932.632v0.023c-1.308,4.314-2.96,8.215-4.773,11.658
				c-5.416,10.51-12.208,17.211-15.329,19.988c-1.102,0.941-1.767,1.446-1.767,1.446c-52.873,34.697-83.806,16.293-100.054-3.741
				c-2.685-3.281-4.934-6.609-6.838-9.776c2.937-1.905,5.416-4.108,7.504-6.517c8.628-10.028,10.51-23.889,9.914-36.212
				c-0.413-8.904-2.134-17.027-3.511-22.306c-1.01-3.924-1.859-6.288-1.859-6.288s29.993-53.836,44.542-21.892
				c0.987,2.203,2.065,4.268,3.19,6.265c13.195,23.384,34.354,32.747,50.302,36.419c12.3,2.868,21.502,2.364,21.502,2.364
				C3207.592,915.054,3206.261,924.554,3203.76,932.632z"/><path fill="#f16b6c" d="M3074.999 952.229c1.902 3.162 4.15 6.497 6.843 9.783-15.292-1.211-22.457-3.039-15.094-5.707C3069.835 955.193 3072.577 953.81 3074.999 952.229zM3267.77 963.593c0 0-16.725.296-40.59.494-3.755.049-7.658.074-11.735.099-9.956.074-20.727.123-31.795.123 3.138-2.792 9.931-9.487 15.342-19.986 1.803-3.459 3.458-7.362 4.768-11.661v-.025c2.495-8.078 3.829-17.59 2.816-28.583l20.53 19.961L3267.77 963.593z"/><defs><path id="e" d="M3438.677,1297.354l-97.51,19.789c-32.405,6.576-62.325,22.085-86.379,44.773l-34.652,32.686
						c-4.03,3.801-8.527,7.13-13.547,9.473c-12.21,5.696-26.311,6.526-39.319,2h0c-25.608-8.91-53.351,6.031-60.005,32.316
						l-9.439,37.29l-254.088-374.137c37.156-56.426,91.234-99.585,154.503-123.301l58.155-22.457l16.873-6.522l9.24-3.557
						c-2.1,2.421-4.57,4.62-7.51,6.522c1.902,3.162,4.15,6.497,6.843,9.783c16.231,20.035,47.186,38.44,100.054,3.73
						c0,0,0.667-0.494,1.754-1.433c3.138-2.792,9.931-9.487,15.342-19.986c1.803-3.459,3.458-7.362,4.768-11.661l13.365,17.936
						l3.434,4.595l6.621,8.894l26.286,35.303l129.502,208.31h0.025L3438.677,1297.354z"/></defs><use fill="#6457a4" overflow="visible" xlink:href="#e"/><clipPath id="f"><use overflow="visible" xlink:href="#e"/></clipPath><g clip-path="url(#f)"><path fill="#f6f7f7" d="M3019.854 1313.034c-4.723 6.061-11.46 10.844-19.783 13.804-8.517 3.027-18.358 4.178-30.086 3.522-19.131-1.074-35.065-6.329-47.36-15.622-14.694-11.107-27.323-32.458-20.32-53.089 5.594-16.474 22.24-27.006 50.894-32.192 3.394-.613 6.642 1.639 7.256 5.032.614 3.396-1.643 6.641-5.032 7.256-23.787 4.303-37.301 12.124-41.292 23.917-4.789 14.108 4.437 30.356 16.026 39.114 10.136 7.662 24.152 12.198 40.528 13.116 10.039.563 18.283-.36 25.205-2.82 11.676-4.154 18.665-12.731 19.165-23.542.563-12.174-7.094-23.76-19.508-29.517-9.767-4.529-28.224-2.356-36.574 4.304-3.808 3.035-3.319 5.328-3.158 6.082.722 3.374-1.431 6.692-4.802 7.408-3.372.721-6.688-1.43-7.408-4.802-1.457-6.834 1.236-13.393 7.581-18.448 12.196-9.729 35.379-12.472 49.614-5.871 17.037 7.9 27.529 24.159 26.729 41.422C3027.162 1299.963 3024.47 1307.11 3019.854 1313.034zM3103.408 1417.474c-2.418 3.104-5.869 5.553-10.13 7.069-4.361 1.55-9.4 2.14-15.406 1.804-9.796-.55-17.956-3.241-24.251-7.999-7.525-5.687-13.991-16.621-10.406-27.185 2.865-8.436 11.389-13.829 26.061-16.484 1.738-.314 3.401.839 3.716 2.577.314 1.739-.841 3.401-2.577 3.716-12.18 2.204-19.101 6.208-21.145 12.247-2.452 7.224 2.272 15.544 8.206 20.029 5.19 3.924 12.367 6.246 20.753 6.716 5.141.288 9.362-.184 12.906-1.444 5.979-2.127 9.558-6.519 9.814-12.055.288-6.234-3.632-12.167-9.99-15.115-5.002-2.319-14.453-1.207-18.729 2.204-1.95 1.554-1.7 2.729-1.617 3.114.369 1.728-.733 3.427-2.459 3.793-1.727.369-3.425-.732-3.793-2.459-.746-3.5.633-6.858 3.882-9.447 6.245-4.982 18.116-6.387 25.406-3.006 8.724 4.045 14.096 12.371 13.687 21.211C3107.15 1410.781 3105.771 1414.441 3103.408 1417.474zM3284.05 1221.971c-3.96 5.082-9.61 9.092-16.588 11.575-7.142 2.538-15.393 3.504-25.227 2.953-16.041-.9-29.402-5.307-39.712-13.099-12.321-9.313-22.91-27.216-17.039-44.516 4.691-13.813 18.649-22.645 42.675-26.993 2.846-.514 5.569 1.374 6.084 4.219.514 2.848-1.377 5.568-4.219 6.084-19.945 3.609-31.277 10.166-34.624 20.054-4.015 11.83 3.72 25.454 13.438 32.798 8.499 6.425 20.251 10.228 33.983 10.997 8.418.472 15.33-.302 21.134-2.364 9.79-3.483 15.651-10.675 16.07-19.74.472-10.208-5.948-19.923-16.358-24.75-8.19-3.798-23.666-1.976-30.667 3.609-3.193 2.545-2.783 4.468-2.648 5.1.605 2.829-1.2 5.611-4.027 6.211-2.827.605-5.608-1.199-6.211-4.027-1.222-5.73 1.036-11.23 6.357-15.469 10.227-8.158 29.666-10.458 41.601-4.923 14.285 6.624 23.083 20.257 22.412 34.732C3290.178 1211.011 3287.921 1217.004 3284.05 1221.971zM3332.613 1491.143c-4.979 6.39-12.083 11.433-20.858 14.554-8.98 3.192-19.355 4.405-31.721 3.714-20.171-1.132-36.971-6.673-49.934-16.471-15.493-11.71-28.808-34.222-21.425-55.975 5.898-17.369 23.449-28.474 53.66-33.941 3.578-.647 7.002 1.728 7.65 5.305.647 3.581-1.732 7.002-5.305 7.65-25.079 4.537-39.329 12.783-43.537 25.217-5.049 14.875 4.678 32.006 16.896 41.24 10.687 8.079 25.464 12.861 42.731 13.828 10.584.593 19.277-.38 26.574-2.973 12.31-4.38 19.679-13.423 20.206-24.822.594-12.836-7.479-25.051-20.568-31.121-10.298-4.775-29.758-2.484-38.562 4.538-4.015 3.2-3.5 5.618-3.33 6.412.761 3.557-1.509 7.055-5.063 7.81-3.555.761-7.052-1.508-7.81-5.063-1.536-7.206 1.303-14.121 7.993-19.451 12.859-10.258 37.302-13.15 52.31-6.19 17.963 8.329 29.025 25.472 28.181 43.673C3340.318 1477.362 3337.479 1484.897 3332.613 1491.143zM3386.873 1254.807c-2.418 3.104-5.869 5.553-10.13 7.069-4.362 1.55-9.4 2.14-15.406 1.804-9.796-.55-17.956-3.241-24.252-7.999-7.524-5.687-13.991-16.621-10.406-27.185 2.865-8.436 11.389-13.829 26.062-16.484 1.738-.314 3.401.839 3.715 2.577.314 1.739-.841 3.401-2.577 3.715-12.18 2.204-19.101 6.208-21.145 12.247-2.452 7.224 2.272 15.544 8.206 20.029 5.19 3.924 12.367 6.246 20.753 6.716 5.141.288 9.362-.184 12.906-1.444 5.979-2.127 9.558-6.519 9.813-12.055.288-6.234-3.632-12.167-9.99-15.115-5.002-2.319-14.453-1.207-18.728 2.204-1.95 1.554-1.7 2.729-1.617 3.114.37 1.728-.733 3.427-2.459 3.793-1.727.369-3.425-.732-3.793-2.459-.746-3.5.633-6.858 3.882-9.447 6.245-4.982 18.117-6.387 25.406-3.006 8.724 4.045 14.097 12.371 13.687 21.211C3390.615 1248.114 3389.237 1251.774 3386.873 1254.807zM3243.861 1005.337c-2.418 3.104-5.868 5.553-10.13 7.069-4.362 1.55-9.4 2.14-15.406 1.804-9.796-.55-17.956-3.241-24.252-7.999-7.524-5.687-13.991-16.621-10.405-27.185 2.865-8.436 11.389-13.829 26.061-16.484 1.738-.314 3.401.839 3.716 2.577.314 1.739-.841 3.401-2.577 3.716-12.18 2.204-19.101 6.208-21.144 12.247-2.452 7.224 2.271 15.544 8.206 20.029 5.19 3.924 12.367 6.246 20.753 6.716 5.141.288 9.362-.184 12.906-1.444 5.979-2.127 9.558-6.519 9.813-12.055.288-6.234-3.632-12.167-9.99-15.115-5.002-2.319-14.453-1.207-18.728 2.204-1.95 1.554-1.7 2.729-1.617 3.114.369 1.728-.733 3.427-2.459 3.793-1.727.369-3.425-.732-3.793-2.459-.746-3.5.633-6.858 3.882-9.447 6.245-4.982 18.116-6.387 25.406-3.006 8.724 4.045 14.096 12.371 13.687 21.211C3247.603 998.644 3246.224 1002.303 3243.861 1005.337zM3087.472 1073.414c-2.418 3.104-5.868 5.553-10.13 7.069-4.361 1.55-9.4 2.14-15.406 1.804-9.796-.55-17.956-3.241-24.251-7.999-7.525-5.687-13.991-16.621-10.406-27.185 2.865-8.436 11.389-13.829 26.061-16.484 1.738-.314 3.401.839 3.716 2.577.314 1.739-.841 3.401-2.577 3.716-12.18 2.204-19.101 6.208-21.145 12.247-2.452 7.224 2.272 15.544 8.206 20.029 5.19 3.924 12.367 6.246 20.753 6.716 5.141.288 9.362-.184 12.906-1.444 5.979-2.127 9.558-6.519 9.813-12.055.288-6.234-3.632-12.167-9.99-15.115-5.001-2.319-14.453-1.207-18.728 2.204-1.95 1.554-1.7 2.729-1.617 3.114.37 1.728-.733 3.427-2.459 3.793-1.727.369-3.425-.732-3.793-2.459-.746-3.5.633-6.858 3.882-9.447 6.245-4.982 18.116-6.387 25.406-3.006 8.724 4.045 14.096 12.371 13.687 21.211C3091.214 1066.72 3089.836 1070.38 3087.472 1073.414z"/></g><polygon fill="#6457a4" points="3098.196 1297.354 3097.826 1296.366 3097.925 1296.267"/><path fill="#fcb713" d="M3227.105,924.016c0.321,12.229-2.495,22.63-6.547,31.177c-1.556,3.286-3.286,6.275-5.114,8.993
				c-0.766,1.161-1.556,2.273-2.347,3.335c-8.128,10.944-16.799,16.503-16.799,16.503c-93.359,53.09-131.33-10.129-139.903-28.237
				l16.873-6.522c0.543,0.964,1.112,1.952,1.729,2.965c1.902,3.162,4.15,6.497,6.843,9.783c16.231,20.035,47.186,38.44,100.054,3.73
				c0,0,0.667-0.494,1.754-1.433c3.138-2.792,9.931-9.487,15.342-19.986c1.803-3.459,3.458-7.362,4.768-11.661v-0.025
				c2.495-8.078,3.829-17.59,2.816-28.583l16.824-1.779C3225.796,910.058,3226.933,917.321,3227.105,924.016z"/><path fill="#312f7f" d="M2941.31,2456.43c-18.737,20.71-53.342,47.328-75.406,58.196
					c-21.075,10.381-55.489,11.066-66.074,15.677c-20.329,8.857-9.454,12.827-13.83,24.769
					c-2.532,27.226,158.808,15.779,201.859,11.801c23.213,1.266,45.569,1.197,68.123-5.109c5.918-1.654,10.775-10.171,11.954-13.91
					c7.677-24.36-0.528-66.072-10.206-80.792c-9.678-14.72-8.08-13.784-19.408-8.226c-11.328,5.558-15.332,24.344-35.407,23.402
					c-20.076-0.942-39.029-10.663-52.61-26.472C2947.094,2456.025,2944.909,2455.874,2941.31,2456.43z"/><path d="M3056.651,2464.552c0.027-0.094,0.031-0.325-0.01-0.354c-5.858-4.226-8.196-14.327-18.518-5.921
					s-15.535,23.758-35.264,23.806c-19.729,0.048-39.179-11.123-52.548-26.266c-2.578,0.054-4.791,0.175-7.271,0.414
					c17.054,27.263,39.235,39.272,72.095,38.639C3035.127,2494.486,3050.997,2484.157,3056.651,2464.552z"/><path fill="#312f7f" d="M3801.802,2146.013c5.07,27.464,5.193,71.122,0.424,95.251
					c-4.555,23.047-24.916,50.801-27.683,62.01c-5.313,21.529,4.446,15.302,11.275,26.031
					c20.089,18.549,109-116.567,131.992-153.181c15.106-17.671,28.631-35.472,37.322-57.218c2.281-5.706-1.534-14.738-3.788-17.946
					c-14.687-20.896-52.806-39.715-70.378-40.969c-17.572-1.254-15.858-1.955-18.323,10.42
					c-2.466,12.375,10.026,26.967-2.918,42.342c-12.943,15.375-32.178,24.527-52.986,25.711
					C3804.995,2141.172,3803.547,2142.817,3801.802,2146.013z"/><path d="M3878.317,2059.324c-0.058-0.079-0.239-0.222-0.287-0.208c-6.915,2.087-16.359-2.192-15.952,11.114
					c0.407,13.306,9.436,26.772-2.51,42.473c-11.947,15.701-32.635,24.366-52.785,25.787c-1.522,2.081-2.771,3.912-4.088,6.027
					c32.016,3.014,55.029-7.311,74.488-33.799C3889.021,2094.605,3890.456,2075.724,3878.317,2059.324z"/><path fill="#f28389" d="M3159.309,799.395c9.914,26.689,3.442,56.59-15.972,76.761c-0.183,0.206-0.39,0.413-0.596,0.597
				c-4.59,4.681-9.845,8.789-15.788,12.231c-0.964,0.551-1.928,1.078-2.868,1.606c-0.895,0.413-1.767,0.872-2.685,1.262
				c-7.022,3.35-14.388,5.462-21.801,6.403c-2.754,0.367-5.53,0.574-8.284,0.62c-11.382,0.206-22.65-2.249-32.907-7.091
				c-13.126-6.219-24.531-16.339-32.357-29.855l-20.998-36.419l-4.314-7.481c1.675,0.069,3.259-0.023,4.773-0.275h0.023
				c17.555-2.891,21.365-26,21.525-44.427c0.092-9.638,9.96-16.178,18.795-12.254c22.581,9.982,59.734,19.552,88.832-6.494
				l5.508-5.622l0.964-0.964c5.599-5.668,15.238-3.741,18.244,3.695l4.796,11.956c4.268,10.556,3.236,22.512-2.708,32.219
				L3159.309,799.395z"/><path d="M3260.284 1131.264l-142.373 144.695-7.041-30.189 139.211-124.759c10.401-9.338 14.699-23.716 11.068-37.23l-17.911-66.678 25.446 41.85C3282.765 1082.126 3279.307 1111.92 3260.284 1131.264zM3399.594 1234.431l-279.929 155.047-21.469-92.124 23.469 63.59 258.535-151.539c.939-.544 1.853-1.112 2.767-1.705h.025L3399.594 1234.431z" opacity=".2"/><path d="M3069.292,1523.204l4.299-34.142l2.693-21.468c15.49-12.377,25.421-31.474,25.421-52.869v-35.377
				l0.024-0.025l42.838-12.377C3144.567,1366.947,3160.057,1514.533,3069.292,1523.204z" opacity=".05"/><path d="M3278.887,1639.415c-0.025,0.05-0.074,0.099-0.099,0.173
				c-7.362,11.71-21.246,105.218-35.525,215.969c-19.517,151.415-58.031,447.365-63.639,498.553l46.074-824.927l1.433-168.239
				L3278.887,1639.415z" opacity=".1"/><polygon points="3710.923 2108.78 3679.894 2163.501 3385.117 1919.814" opacity=".1"/><path d="M3543.252,1771.635l-18.787-4.072c-36.289-7.866-60.874-41.743-57.101-78.683l24.898-243.792
				c9.635,45.827,12.92,93.088,9.511,140.397l-7.733,107.12c-0.964,13.365,2.1,26.508,8.573,37.872
				c3.508,6.127,7.979,11.735,13.341,16.552L3543.252,1771.635z" opacity=".1"/><path fill="#6457a4" d="M3192.445,2266.446c-6.003,40.467-12.105,81.007-12.822,87.652
				c-0.988,8.943-1.507,13.81-1.507,13.81H2958.96l6.695-53.288l3.879-29.596L3192.445,2266.446z"/><polygon fill="#6457a4" points="3760.703 1967.593 3647.852 2137.018 3629.916 2122.195 3571.316 2073.749 3688.713 1902.718 3747.609 1955.784"/><path fill="#231f20" d="M3256.228 1608.361l-7.228 45.327c-.049.305-.335.513-.64.464-.305-.049-.513-.335-.464-.64 0-.004.002-.01.002-.013L3256.228 1608.361zM3241.681 1699l-7.452 45.288c-.122.741-.822 1.243-1.563 1.121-.741-.122-1.243-.822-1.121-1.563.001-.004.003-.015.003-.019l8.107-45.176c.1-.559.634-.93 1.193-.83C3241.402 1697.921 3241.772 1698.447 3241.681 1699zM3226.732 1789.568l-7.498 45.28c-.174 1.052-1.169 1.765-2.221 1.59-1.052-.174-1.765-1.169-1.59-2.221 0-.004.003-.019.004-.024l8.061-45.183c.16-.895 1.014-1.491 1.909-1.331C3226.285 1787.838 3226.878 1788.681 3226.732 1789.568zM3211.551 1880.097l-7.686 45.248c-.197 1.156-1.293 1.935-2.449 1.738-1.156-.196-1.935-1.293-1.739-2.45l.002-.009 7.873-45.216c.192-1.104 1.243-1.843 2.347-1.651C3211.002 1877.95 3211.743 1878.993 3211.551 1880.097zM3196.178 1970.593l-7.722 45.242c-.211 1.239-1.388 2.073-2.627 1.861-1.239-.212-2.073-1.388-1.861-2.627l.001-.006 7.836-45.222c.209-1.207 1.358-2.016 2.565-1.807C3195.577 1968.243 3196.387 1969.386 3196.178 1970.593zM3180.583 2061.051l-7.873 45.216c-.198 1.135-1.278 1.895-2.413 1.697-1.135-.198-1.896-1.269-1.699-2.404l7.686-45.248c.202-1.187 1.328-1.987 2.516-1.785 1.188.202 1.987 1.328 1.785 2.516L3180.583 2061.051zM3164.836 2151.483l-7.954 45.202c-.174.987-1.114 1.646-2.101 1.472-.981-.173-1.639-1.105-1.474-2.087l7.605-45.262c.182-1.084 1.209-1.816 2.293-1.634 1.084.182 1.816 1.209 1.634 2.293L3164.836 2151.483zM3148.819 2241.868l-8.063 45.183c-.12.673-.763 1.122-1.436 1.001-.668-.119-1.114-.754-1.004-1.421l7.496-45.281c.137-.831.923-1.394 1.754-1.256.832.138 1.394.923 1.256 1.755C3148.821 2241.853 3148.819 2241.865 3148.819 2241.868zM3132.569 2332.213l-8.245 45.152c-.035.191-.219.318-.41.283-.189-.034-.315-.214-.284-.403l7.314-45.312c.073-.45.496-.756.946-.683.45.073.755.496.683.946C3132.571 2332.201 3132.57 2332.209 3132.569 2332.213z"/><g><path fill="#231f20" d="M3410.312 1303.11c6.281 13.955 11.589 28.359 15.984 43.036.084.281-.075.576-.356.66-.281.084-.576-.075-.66-.356 0-.002-.002-.007-.002-.009C3421.136 1331.734 3416.229 1317.225 3410.312 1303.11zM3437.263 1390.775c2.99 15.033 5.281 30.196 7.187 45.397.09.716-.418 1.369-1.134 1.459-.716.09-1.369-.418-1.459-1.134 0-.002-.001-.012-.002-.014-1.732-15.177-3.849-30.309-6.497-45.35-.093-.527.259-1.03.786-1.123C3436.664 1389.918 3437.16 1390.26 3437.263 1390.775zM3449.251 1481.867l1.952 22.875c.62 7.63 1.144 15.276 1.721 22.914.077 1.015-.684 1.9-1.699 1.977-1.015.077-1.9-.684-1.977-1.699 0-.004 0-.008-.001-.011l-.003-.045c-.486-7.623-.919-15.246-1.449-22.872l-1.683-22.877-.001-.013c-.064-.868.588-1.623 1.455-1.686C3448.427 1480.366 3449.177 1481.009 3449.251 1481.867zM3455.257 1573.525l1.822 45.853c.052 1.149-.838 2.123-1.987 2.175-1.149.052-2.123-.838-2.174-1.987l-.001-.019-1.645-45.866c-.042-1.101.816-2.027 1.917-2.069C3454.289 1571.569 3455.215 1572.424 3455.257 1573.525zM3455.59 1665.462c-1.228 15.238-2.498 30.448-1.584 45.517.078 1.246-.869 2.319-2.115 2.397-1.246.078-2.319-.869-2.397-2.115l-.001-.013c-.876-15.52.486-30.913 1.769-46.144.101-1.195 1.151-2.082 2.346-1.982C3454.802 1663.222 3455.69 1664.267 3455.59 1665.462zM3465.132 1754.234c6.712 13.424 16.48 25.155 27.477 35.531.864.815.904 2.176.089 3.041-.816.864-2.177.904-3.041.089-11.264-10.544-21.46-22.648-28.525-36.64-.562-1.102-.124-2.451.978-3.014s2.451-.125 3.013.978L3465.132 1754.234zM3527.864 1818.794l9.056 7.077 8.926 7.232 17.849 14.464c.846.686.977 1.928.291 2.774-.686.846-1.928.977-2.774.291l-.027-.022-17.86-14.357-8.929-7.178-9.051-7.016-.013-.01c-.9-.697-1.064-1.993-.366-2.892.698-.9 1.992-1.064 2.893-.366L3527.864 1818.794zM3598.663 1877.356l34.387 30.413c.623.551.681 1.502.13 2.125-.547.618-1.488.68-2.111.143l-.013-.011-34.711-29.98-.019-.016c-.742-.641-.824-1.762-.183-2.504.641-.742 1.762-.824 2.504-.183C3598.65 1877.344 3598.66 1877.353 3598.663 1877.356zM3667.197 1938.441l34.112 30.702c.351.311.384.849.073 1.2-.308.347-.842.378-1.194.077l-34.632-30.132c-.515-.448-.569-1.228-.121-1.743.448-.515 1.229-.569 1.743-.121C3667.18 1938.427 3667.193 1938.438 3667.197 1938.441zM3735.709 1999.514l24.994 21.465-25.522-20.843c-.175-.143-.201-.4-.058-.574.143-.174.399-.201.574-.058C3735.698 1999.505 3735.707 1999.513 3735.709 1999.514z"/></g><path d="M3119.64,1248.784v132.59c-23.469,18.208-51.954,29.3-82.069,31.548l-40.491,2.99
				c-3.063,0.222-6.102-0.939-8.227-3.187l-16.231-17.12c-3.385-3.557-3.755-9.017-0.914-13.019l20.999-29.547
				c1.235-1.729,1.902-3.829,1.902-5.954v-2.94c0-4.373,2.742-8.251,6.868-9.709l62.478-21.962c2.051-0.741,3.78-2.075,4.99-3.755
				c1.186-1.705,1.877-3.755,1.877-5.954c0-2.668,1.062-5.237,2.94-7.164l44.345-45.531
				C3118.578,1249.575,3119.096,1249.155,3119.64,1248.784z" opacity=".05"/><path fill="#6457a4" d="M3382.992,1207.7h-0.025c-0.914,0.593-1.828,1.161-2.767,1.705l-258.535,151.539l-3.014-8.202
				l-15.762-42.69l-4.694-12.698l-0.272-1.087l19.986-20.307l142.373-144.695c19.023-19.344,22.481-49.138,8.4-72.311l-25.446-41.85
				l-30.14-49.582c0.791-1.062,1.581-2.174,2.347-3.335c1.828-2.718,3.558-5.707,5.114-8.993c4.052-8.548,6.868-18.948,6.547-31.177
				c-0.173-6.695-1.309-13.958-3.706-21.74l39.157-4.101c58.155-6.102,112.53,29.646,130.021,85.429l33.5,106.996
				C3439.986,1135.019,3422.149,1183.07,3382.992,1207.7z"/><path fill="#6457a4" d="M3549.094,2660.96h-807.048c-21.248,0-38.472-17.225-38.472-38.472v-99.627
				c0-21.248,17.224-38.472,38.472-38.472h807.048c21.248,0,38.472,17.224,38.472,38.472v99.627
				C3587.566,2643.735,3570.342,2660.96,3549.094,2660.96z" opacity=".07"/><path fill="#f28389" d="M3118.645,1352.742c-0.688,0.528-1.377,1.056-2.02,1.652l-32.288,29.328l15.467-72.194
				l3.075-1.469L3118.645,1352.742z"/><path fill="#f16b6c" d="M3185.08 901.698c-31.875 14.251-71.254 11.13-92.664 7.802-.184-3.741-.574-7.32-1.102-10.625 2.754-.046 5.531-.252 8.284-.62 7.412-.941 14.779-3.052 21.801-6.403.918-.39 1.79-.849 2.685-1.262.941-.528 1.905-1.056 2.868-1.606 5.944-3.442 11.199-7.55 15.788-12.231C3155.546 891.899 3172.045 898.692 3185.08 901.698zM3140.193 748.956v.206c-.826 12.461-9.478 22.971-18.932 31.118-8.491 7.274-18.221 13.539-29.19 15.811-10.717 2.226-21.801.528-32.747.62-4.475.046-9.179.482-12.874 3.006-4.636 3.167-6.678 8.904-10.097 13.379-6.334 8.261-19.345 12.782-31.301 12.415l-4.314-7.481c1.675.069 3.259-.023 4.773-.275h.023c17.555-2.891 21.365-26 21.525-44.427.092-9.638 9.96-16.178 18.795-12.254 22.581 9.982 59.734 19.552 88.832-6.494L3140.193 748.956z"/><path fill="#fff" d="M3001.809,674.409c-0.79,1.25-1.6,2.65-1.4,4.1c0.01,0.06,0.02,0.12,0.03,0.18
				c0.12,0.59,0.52,1.11,1.02,1.44l-3.61,0.17l-12.47,0.58c6.29-5.6,13.32-9.97,20.86-13.32
				C3004.729,669.839,3003.259,672.129,3001.809,674.409z" opacity=".24"/><path fill="#fff" d="M3001.459 680.129l2.4-.11C3003.279 680.759 3002.249 680.659 3001.459 680.129zM3234.099 737.339c-16.61-15.4-34.23-29.59-53.55-41.39-30.38-18.54-64.58-30.78-99.83-35.71-10.92-1.52-22.24-2.23-33.42-1.69 35.93-7.65 79.35-1.74 128.35 24.79C3197.559 695.199 3216.679 714.739 3234.099 737.339z" opacity=".24"/></g><g><defs><path id="g" d="M3092.952,1492.62h-1470.84c-14.734,0-26.679-11.944-26.679-26.678v-357.299
					c0-14.734,11.944-26.679,26.679-26.679h1470.84c14.734,0,26.678,11.944,26.678,26.679v357.299
					C3119.63,1480.675,3107.686,1492.62,3092.952,1492.62z"/></defs><use fill="#f37c20" overflow="visible" xlink:href="#g"/><clipPath id="h"><use overflow="visible" xlink:href="#g"/></clipPath><g clip-path="url(#h)"><rect width="33.962" height="724.858" x="1654.048" y="825.666" fill="#f6f7f7" transform="rotate(33.488 1671.051 1188.237)"/><rect width="33.962" height="724.858" x="1778.304" y="889.326" fill="#f6f7f7" transform="rotate(33.488 1795.306 1251.901)"/><rect width="33.962" height="724.858" x="1946.815" y="925.84" fill="#f6f7f7" transform="rotate(33.488 1963.827 1288.43)"/><rect width="33.962" height="724.858" x="2106.396" y="933.544" fill="#f6f7f7" transform="rotate(33.488 2123.408 1296.134)"/><rect width="33.962" height="724.858" x="2290.314" y="948.33" fill="#f6f7f7" transform="rotate(33.488 2307.337 1310.933)"/><rect width="33.962" height="724.858" x="2450.017" y="947.624" fill="#f6f7f7" transform="rotate(33.488 2467.044 1310.232)"/><rect width="33.962" height="724.858" x="2622.158" y="948.33" fill="#f6f7f7" transform="rotate(33.488 2639.202 1310.956)"/><rect width="33.962" height="724.858" x="2759.095" y="960.4" fill="#f6f7f7" transform="rotate(33.488 2776.136 1323.024)"/><rect width="33.962" height="724.858" x="2956.579" y="960.4" fill="#f6f7f7" transform="rotate(33.488 2973.621 1323.027)"/></g></g><g><path d="M3142.473,1404.519l-298.736,59.124v-341.626c0-36.514,29.601-66.115,66.115-66.115h179.61
				c29.277,0,53.011,23.734,53.011,53.011V1404.519z" opacity=".07"/><path fill="#f37c20" d="M1873.873,1040.412h-238.089c-42.504,0-76.681,34.979-75.697,77.471l10.306,340.568
					c0.45,14.863,13.995,25.859,28.633,23.244l102.852-18.376l183.645-370.29L1873.873,1040.412z" opacity=".3"/><path fill="#f6f7f7" d="M3074.554,1187.692v207.964c0,37.551-30.436,67.987-67.987,67.987H1708.482
					c-37.551,0-67.987-30.436-67.987-67.987v-207.964c0-37.551,30.436-68.012,67.987-68.012h1298.085
					C3044.118,1119.68,3074.554,1150.141,3074.554,1187.692z"/><path fill="#f6f7f7" d="M3074.554,1187.692v207.964c0,37.551-30.436,67.987-67.987,67.987H1708.482
					c-37.551,0-67.987-30.436-67.987-67.987v-207.964c0-37.551,30.436-68.012,67.987-68.012h1298.085
					C3044.118,1119.68,3074.554,1150.141,3074.554,1187.692z"/><path fill="#f37c20" d="M1736.724 1291.821c0-7.727 1.471-14.988 4.407-21.784 2.936-6.802 6.897-12.693 11.895-17.691 4.998-4.998 10.895-8.965 17.691-11.901 6.796-2.93 14.064-4.401 21.784-4.401 7.821 0 14.711 1.214 20.621 3.634 5.935 2.421 11.518 5.998 16.773 10.738 1.534 1.44 1.584 2.879.151 4.325l-9.43 9.732c-1.232 1.339-2.515 1.339-3.848 0-3.294-2.879-7.016-5.124-11.14-6.721-4.124-1.597-8.324-2.395-12.649-2.395-4.954 0-9.531.956-13.756 2.86-4.225 1.905-7.865 4.508-10.901 7.802-3.037 3.294-5.432 7.136-7.186 11.511-1.748 4.376-2.622 8.984-2.622 13.825 0 4.847.874 9.424 2.622 13.756 1.754 4.325 4.175 8.11 7.261 11.354 3.093 3.244 6.752 5.822 10.977 7.727 4.225 1.905 8.802 2.854 13.756 2.854 4.627 0 8.902-.792 12.825-2.395 3.898-1.591 7.519-3.728 10.813-6.413.604-.509 1.282-.767 2.012-.767.704 0 1.333.258 1.836.767l9.581 9.889c.629.522.88 1.213.78 2.087-.101.88-.402 1.572-.931 2.087-5.256 5.149-11.09 8.934-17.528 11.354-6.438 2.421-13.127 3.634-20.017 3.634-7.72 0-14.988-1.446-21.784-4.325-6.796-2.886-12.693-6.828-17.691-11.819-4.998-4.998-8.959-10.87-11.895-17.616C1738.196 1306.784 1736.724 1299.548 1736.724 1291.821zM1840.559 1291.821c0-7.727 1.433-14.988 4.325-21.784 2.879-6.802 6.815-12.693 11.819-17.691 4.992-4.998 10.864-8.965 17.616-11.901 6.74-2.93 13.982-4.401 21.703-4.401 7.72 0 14.963 1.471 21.715 4.401 6.74 2.936 12.637 6.903 17.691 11.901 5.042 4.998 9.003 10.889 11.895 17.691 2.879 6.796 4.325 14.058 4.325 21.784 0 7.727-1.446 14.963-4.325 21.709-2.892 6.746-6.853 12.618-11.895 17.616-5.055 4.992-10.952 8.934-17.691 11.819-6.752 2.879-13.995 4.325-21.715 4.325-7.72 0-14.963-1.446-21.703-4.325-6.752-2.886-12.624-6.828-17.616-11.819-5.005-4.998-8.94-10.87-11.819-17.616C1841.992 1306.784 1840.559 1299.548 1840.559 1291.821zM1860.639 1291.821c0 4.841.931 9.424 2.779 13.749 1.861 4.325 4.376 8.091 7.569 11.279 3.194 3.194 6.953 5.721 11.279 7.576 4.325 1.848 8.915 2.779 13.756 2.779 4.841 0 9.43-.931 13.756-2.779 4.325-1.855 8.11-4.382 11.354-7.576 3.244-3.188 5.797-6.953 7.645-11.279 1.861-4.325 2.779-8.909 2.779-13.749 0-4.841-.918-9.424-2.779-13.75-1.848-4.325-4.401-8.116-7.645-11.36-3.244-3.244-7.029-5.815-11.354-7.72-4.325-1.905-8.915-2.86-13.756-2.86-4.841 0-9.43.956-13.756 2.86-4.325 1.905-8.085 4.476-11.279 7.72s-5.708 7.035-7.569 11.36C1861.57 1282.397 1860.639 1286.98 1860.639 1291.821zM1983.171 1238.363c.101-.622.39-1.163.843-1.622.465-.465 1.106-.698 1.936-.698h2.477c1.232 0 2.1.516 2.615 1.547l34 72.928h.465l33.987-72.928c.516-1.031 1.396-1.547 2.628-1.547h2.477c.817 0 1.459.233 1.924.698.465.459.754 1 .855 1.622l18.232 103.828c.201 1.132.05 2.005-.465 2.628-.516.616-1.295.924-2.314.924h-14.07c-.717 0-1.333-.258-1.848-.773-.516-.516-.88-1.025-1.082-1.547l-9.116-58.556h-.465l-27.034 60.719c-.415 1.138-1.295 1.704-2.628 1.704h-2.779c-1.245 0-2.112-.566-2.628-1.704l-27.348-60.719h-.465l-8.965 58.556c-.101.522-.415 1.031-.93 1.547s-1.132.773-1.848.773h-13.907c-2.263 0-3.244-1.182-2.93-3.552L1983.171 1238.363zM2118.516 1238.363c.101-.622.39-1.163.843-1.622.465-.465 1.106-.698 1.937-.698h2.477c1.232 0 2.1.516 2.615 1.547l34 72.928h.465l33.987-72.928c.515-1.031 1.396-1.547 2.628-1.547h2.477c.817 0 1.458.233 1.924.698.465.459.754 1 .855 1.622l18.232 103.828c.201 1.132.05 2.005-.465 2.628-.515.616-1.295.924-2.313.924h-14.07c-.717 0-1.333-.258-1.848-.773-.515-.516-.88-1.025-1.081-1.547l-9.116-58.556h-.465l-27.034 60.719c-.415 1.138-1.295 1.704-2.628 1.704h-2.779c-1.245 0-2.113-.566-2.628-1.704l-27.348-60.719h-.465l-8.965 58.556c-.101.522-.415 1.031-.931 1.547-.515.516-1.132.773-1.848.773h-13.907c-2.263 0-3.244-1.182-2.93-3.552L2118.516 1238.363zM2241.337 1240.526c0-.824.289-1.521.855-2.087.566-.566 1.257-.849 2.087-.849h14.372c.817 0 1.521.283 2.087.849.566.566.843 1.264.843 2.087v102.282c0 .824-.277 1.521-.843 2.087-.566.566-1.27.849-2.087.849h-14.372c-.83 0-1.521-.283-2.087-.849-.566-.566-.855-1.264-.855-2.087V1240.526zM2287.848 1238.822c0-.824.289-1.49.855-2.005.566-.516 1.257-.773 2.087-.773h2.314c1.031 0 1.911.365 2.628 1.081l63.045 67.214h.302v-63.812c0-.824.289-1.521.855-2.087.566-.566 1.257-.849 2.087-.849h14.208c.83 0 1.521.283 2.087.849.566.566.855 1.264.855 2.087v103.979c0 .83-.289 1.496-.855 2.012-.566.516-1.258.773-2.087.773h-2.163c-1.031 0-1.899-.365-2.628-1.081l-63.347-69.841h-.302v66.44c0 .824-.289 1.521-.855 2.087-.566.566-1.258.849-2.087.849h-14.058c-.83 0-1.521-.283-2.087-.849-.566-.566-.855-1.264-.855-2.087V1238.822zM2399.101 1291.821c0-7.727 1.433-14.988 4.325-21.784 2.879-6.802 6.84-12.693 11.895-17.691 5.042-4.998 10.914-8.965 17.616-11.901 6.689-2.93 13.906-4.401 21.627-4.401 7.003 0 13.73 1.264 20.168 3.785 6.438 2.527 12.284 6.054 17.528 10.587.616.616.956 1.339 1.006 2.163s-.226 1.54-.843 2.163l-9.581 10.04c-1.245 1.239-2.577 1.239-4.023 0-6.79-5.973-14.573-8.959-23.324-8.959-4.841 0-9.38.949-13.605 2.854-4.225 1.911-7.871 4.508-10.964 7.808-3.093 3.294-5.532 7.104-7.343 11.43-1.798 4.325-2.703 8.909-2.703 13.75 0 4.847.905 9.405 2.703 13.674 1.811 4.275 4.275 8.01 7.418 11.203 3.144 3.194 6.828 5.746 11.052 7.651s8.751 2.854 13.592 2.854c4.325 0 8.085-.484 11.279-1.465 3.194-.981 5.558-1.779 7.104-2.395v-13.133h-12.36c-.817 0-1.521-.258-2.087-.773s-.843-1.182-.843-2.005v-12.209c0-1.955.981-2.936 2.93-2.936h29.674c.817 0 1.484.283 1.999.849.516.572.78 1.264.78 2.087v39.557c0 1.025-.415 1.848-1.245 2.471-3.194 1.955-6.79 3.659-10.813 5.099-3.395 1.232-7.444 2.37-12.121 3.395-4.69 1.031-9.82 1.547-15.378 1.547-7.72 0-14.938-1.44-21.627-4.325-6.702-2.879-12.574-6.796-17.616-11.744-5.055-4.941-9.015-10.788-11.895-17.534C2400.534 1306.784 2399.101 1299.548 2399.101 1291.821zM2582.943 1347.29c-4.841 0-9.141-.434-12.901-1.301-3.76-.868-7.004-1.943-9.732-3.219-2.729-1.276-5.017-2.603-6.878-3.98-1.848-1.383-3.345-2.527-4.476-3.452-.83-.61-1.333-1.22-1.547-1.836-.201-.61.05-1.528.78-2.754l5.557-9.575c.616-1.132 1.471-1.723 2.552-1.773 1.082-.05 1.974.182 2.704.692 3.194 2.37 6.614 4.558 10.273 6.57 3.659 2.006 8.01 3.012 13.052 3.012 4.024 0 7.368-1.157 10.047-3.483 2.678-2.32 4.023-5.13 4.023-8.431 0-3.923-1.66-7.324-4.954-10.216-3.294-2.886-8.185-5.671-14.674-8.355-3.609-1.446-7.167-3.15-10.663-5.111-3.495-1.955-6.614-4.275-9.342-6.96-2.729-2.685-4.929-5.778-6.576-9.286-1.647-3.508-2.464-7.532-2.464-12.077 0-3.401.667-6.884 2.012-10.443 1.333-3.558 3.395-6.758 6.174-9.594 2.779-2.835 6.362-5.162 10.738-6.966s9.657-2.71 15.843-2.71c3.91 0 7.595.44 11.04 1.314 3.458.874 6.513 1.88 9.191 3.011 2.678 1.138 4.917 2.27 6.727 3.401 1.798 1.132 3.118 2.005 3.936 2.628.83.516 1.32 1.289 1.471 2.314.151 1.031-.025 1.962-.541 2.785l-5.872 8.802c-.616.931-1.446 1.628-2.477 2.087-1.031.465-1.999.39-2.93-.233-3.294-2.056-6.626-3.986-9.971-5.79-3.345-1.804-7.18-2.703-11.505-2.703-4.426 0-7.808 1.056-10.122 3.169-2.313 2.112-3.47 4.659-3.47 7.645 0 3.609 1.458 6.746 4.401 9.424 2.93 2.678 7.544 5.306 13.831 7.884 3.697 1.54 7.494 3.294 11.354 5.25 3.86 1.962 7.331 4.3 10.424 7.029 3.093 2.735 5.621 5.954 7.57 9.657 1.961 3.709 2.942 8.035 2.942 12.982 0 4.017-.83 7.852-2.477 11.511-1.647 3.653-4.011 6.897-7.104 9.732-3.093 2.835-6.828 5.099-11.203 6.796C2593.329 1346.442 2588.412 1347.29 2582.943 1347.29zM2631.314 1291.821c0-7.727 1.433-14.988 4.325-21.784 2.879-6.802 6.815-12.693 11.82-17.691 4.992-4.998 10.864-8.965 17.616-11.901 6.74-2.93 13.982-4.401 21.703-4.401 7.72 0 14.963 1.471 21.715 4.401 6.74 2.936 12.637 6.903 17.691 11.901 5.042 4.998 9.003 10.889 11.895 17.691 2.88 6.796 4.325 14.058 4.325 21.784 0 7.727-1.446 14.963-4.325 21.709-2.892 6.746-6.853 12.618-11.895 17.616-5.055 4.992-10.952 8.934-17.691 11.819-6.752 2.879-13.995 4.325-21.715 4.325-7.72 0-14.963-1.446-21.703-4.325-6.752-2.886-12.624-6.828-17.616-11.819-5.004-4.998-8.94-10.87-11.82-17.616C2632.748 1306.784 2631.314 1299.548 2631.314 1291.821zM2651.395 1291.821c0 4.841.93 9.424 2.779 13.749 1.861 4.325 4.376 8.091 7.57 11.279 3.194 3.194 6.953 5.721 11.279 7.576 4.325 1.848 8.915 2.779 13.756 2.779 4.841 0 9.43-.931 13.756-2.779 4.325-1.855 8.11-4.382 11.354-7.576 3.244-3.188 5.796-6.953 7.645-11.279 1.861-4.325 2.779-8.909 2.779-13.749 0-4.841-.918-9.424-2.779-13.75-1.848-4.325-4.401-8.116-7.645-11.36-3.244-3.244-7.029-5.815-11.354-7.72-4.325-1.905-8.915-2.86-13.756-2.86-4.841 0-9.43.956-13.756 2.86-4.325 1.905-8.085 4.476-11.279 7.72-3.194 3.244-5.709 7.035-7.57 11.36C2652.325 1282.397 2651.395 1286.98 2651.395 1291.821zM2755.996 1291.821c0-7.727 1.434-14.988 4.325-21.784 2.879-6.802 6.815-12.693 11.819-17.691 4.992-4.998 10.864-8.965 17.616-11.901 6.74-2.93 13.982-4.401 21.702-4.401 7.72 0 14.963 1.471 21.715 4.401 6.74 2.936 12.637 6.903 17.691 11.901 5.042 4.998 9.003 10.889 11.895 17.691 2.879 6.796 4.325 14.058 4.325 21.784 0 7.727-1.446 14.963-4.325 21.709-2.892 6.746-6.853 12.618-11.895 17.616-5.054 4.992-10.952 8.934-17.691 11.819-6.752 2.879-13.995 4.325-21.715 4.325-7.72 0-14.963-1.446-21.702-4.325-6.752-2.886-12.624-6.828-17.616-11.819-5.004-4.998-8.94-10.87-11.819-17.616C2757.43 1306.784 2755.996 1299.548 2755.996 1291.821zM2776.076 1291.821c0 4.841.931 9.424 2.779 13.749 1.861 4.325 4.375 8.091 7.569 11.279 3.194 3.194 6.953 5.721 11.279 7.576 4.325 1.848 8.915 2.779 13.756 2.779 4.841 0 9.43-.931 13.756-2.779 4.325-1.855 8.11-4.382 11.354-7.576 3.244-3.188 5.797-6.953 7.645-11.279 1.861-4.325 2.779-8.909 2.779-13.749 0-4.841-.918-9.424-2.779-13.75-1.848-4.325-4.401-8.116-7.645-11.36-3.244-3.244-7.029-5.815-11.354-7.72-4.325-1.905-8.915-2.86-13.756-2.86-4.841 0-9.43.956-13.756 2.86-4.325 1.905-8.085 4.476-11.279 7.72-3.194 3.244-5.708 7.035-7.569 11.36C2777.007 1282.397 2776.076 1286.98 2776.076 1291.821zM2887.015 1238.822c0-.824.289-1.49.855-2.005.566-.516 1.257-.773 2.087-.773h2.314c1.031 0 1.911.365 2.628 1.081l63.045 67.214h.302v-63.812c0-.824.289-1.521.855-2.087.566-.566 1.257-.849 2.087-.849h14.208c.83 0 1.521.283 2.087.849.566.566.855 1.264.855 2.087v103.979c0 .83-.289 1.496-.855 2.012-.566.516-1.257.773-2.087.773h-2.163c-1.031 0-1.899-.365-2.628-1.081l-63.347-69.841h-.302v66.44c0 .824-.289 1.521-.855 2.087-.566.566-1.257.849-2.087.849h-14.058c-.83 0-1.521-.283-2.087-.849-.566-.566-.855-1.264-.855-2.087V1238.822z"/><path d="M1907.898,1492.62h-82.81c0.445-1.062,1.087-2.075,1.877-3.014
					c5.559-6.448,9.363-13.884,10.524-22.951l1.878-14.181c1.309-10.228,10.845-18.603,21.147-18.454
					c13.81,0.173,26.261,8.4,31.894,21.048c4.2,9.487,8.4,18.948,12.525,28.485
					C1906.293,1486.715,1907.256,1489.68,1907.898,1492.62z" opacity=".05"/><path fill="#f28389" d="M1909.134 1520.363c-.272 7.98-7.461 13.934-15.342 12.699l-19.22-2.99c-6.176-.964-12.229-2.495-18.109-4.546-5.88-2.075-11.562-4.645-16.997-7.757-5.929-3.385-7.486-11.389-3.014-16.577 4.916-5.707 8.276-12.278 9.314-20.307l1.655-12.55c1.161-9.042 9.586-16.453 18.702-16.33 12.229.173 23.247 7.436 28.213 18.627 3.73 8.399 7.436 16.774 11.092 25.199C1909.084 1504.255 1909.43 1511.173 1909.134 1520.363zM2826.914 1512.211c-5.954 3.409-12.204 6.25-18.652 8.523-6.448 2.248-13.118 3.903-19.887 4.965l-21.123 3.31c-8.671 1.334-16.577-5.188-16.873-13.958-.272-8.424-.05-15.095 2.347-22.432.494-1.482 1.062-2.965 1.729-4.521 4.002-9.24 8.103-18.454 12.179-27.694 5.459-12.303 17.565-20.258 31.004-20.455 10.005-.123 19.245 8.004 20.554 17.936l1.803 13.81c1.062 8.202 4.323 14.971 9.141 20.925.321.469.717.914 1.087 1.359C2835.116 1499.686 2833.436 1508.48 2826.914 1512.211z"/><path d="M2847.518,1492.62h-18.38c-4.817-5.954-8.078-12.723-9.141-20.925l-1.803-13.81
					c-1.309-9.931-10.549-18.059-20.554-17.936c-13.439,0.198-25.545,8.152-31.004,20.455c-4.076,9.24-8.177,18.455-12.179,27.694
					c-0.667,1.556-1.235,3.039-1.729,4.521h-2.396c0.766-2.816,1.754-5.658,3.039-8.647c4.916-11.364,9.956-22.679,14.971-34.018
					c6.695-15.094,21.567-24.902,38.07-25.125c12.278-0.173,23.667,9.832,25.248,22.012l2.198,16.948
					c1.433,10.845,5.954,19.69,12.575,27.397C2846.826,1491.656,2847.196,1492.126,2847.518,1492.62z" opacity=".05"/><path fill="#f28389" d="M1670.56 1372.802c-3.878 2.965-8.474 4.398-13.019 4.398-6.201 0-12.352-2.693-16.577-7.831l-22.778-28.658c-5.88-7.411-13.81-12.846-22.753-15.663-1.285-.42-2.619-.79-3.953-1.087l-20.233-4.545c3.557-3.137 5.954-7.658 6.275-12.871l2.792-43.233 40.12 9.808c15.169 3.73 27.793 14.181 34.265 28.411l14.675 32.264 7.09 15.589C1680.195 1357.609 1677.749 1367.317 1670.56 1372.802zM3118.645 1352.742c-.688.528-1.377 1.056-2.02 1.652l-32.288 29.328-2.134 1.928c-4.314 3.924-9.592 6.701-15.329 7.986l-60.285 13.7c-2.249.528-4.498.78-6.747.78-8.996 0-17.693-4.016-23.568-11.13-5.094-6.196-2.731-15.582 4.681-18.634l58.586-24.164c1.033-.436.895-1.974-.229-2.18l-20.998-4.199c-2.157-.459-4.131-1.446-5.714-2.869-1.583-1.446-2.823-3.282-3.465-5.416-.941-2.983 1.125-6.081 4.268-6.357l39.769-3.351c6.953-.597 13.723-2.455 20.011-5.462l26.62-12.828 3.075-1.469L3118.645 1352.742z"/></g></svg>